<?xml version="1.0" encoding="UTF-8"?>
<svg id="Layer_2" data-name="Layer 2" xmlns="http://www.w3.org/2000/svg" viewBox="0 0 241.34 307.5">
  <defs>
    <style>
      .cls-1 {
        fill: #f2be1a;
      }

      .cls-2 {
        fill: #417a65;
      }

      .cls-3 {
        fill: #31c0d1;
      }

      .cls-4 {
        fill: #564e57;
      }
    </style>
  </defs>
  <g id="Layer_1-2" data-name="Layer 1">
    <g>
      <g>
        <g>
          <path class="cls-4" d="m87.86,117.71c-4.74,2.29-10.23,2.29-14.97,0-.28-.13-.62-.12-.87.05-.27.17-.42.45-.42.77v48.81c5.04,5.41,10.97,9.98,17.56,13.46v-62.27c0-.31-.16-.6-.42-.77-.26-.17-.59-.19-.87-.05Z"/>
          <path class="cls-4" d="m80.38,90.54c-6.4,0-11.6,5.21-11.6,11.6s5.2,11.6,11.6,11.6,11.6-5.2,11.6-11.6-5.2-11.6-11.6-11.6Z"/>
        </g>
        <g>
          <path class="cls-2" d="m114.13,149.21c-4.74,2.29-10.23,2.29-14.97,0-.28-.13-.61-.11-.88.05-.27.16-.42.46-.42.76v34.61c5.55,1.98,11.44,3.24,17.56,3.67v-38.28c0-.31-.15-.6-.42-.76-.26-.17-.59-.18-.87-.05Z"/>
          <path class="cls-2" d="m106.64,122.05c-6.39,0-11.6,5.2-11.6,11.6s5.2,11.6,11.6,11.6,11.6-5.21,11.6-11.6-5.2-11.6-11.6-11.6Z"/>
        </g>
        <g>
          <path class="cls-1" d="m140.39,95.08c-4.74,2.28-10.23,2.28-14.97,0-.28-.14-.61-.12-.87.04-.26.17-.43.45-.43.77v92.47c6.12-.35,12.01-1.54,17.57-3.44v-89.03c0-.32-.16-.61-.42-.77-.27-.17-.6-.18-.88-.04Z"/>
          <path class="cls-1" d="m132.9,67.91c-6.39,0-11.6,5.21-11.6,11.6s5.21,11.6,11.6,11.6,11.6-5.2,11.6-11.6-5.2-11.6-11.6-11.6Z"/>
        </g>
        <g>
          <circle class="cls-3" cx="160.3" cy="113.57" r="11.6"/>
          <path class="cls-3" d="m169.08,167.08v-37.12c0-.31-.16-.61-.42-.77-.26-.16-.6-.18-.87-.04-4.75,2.29-10.22,2.29-14.97,0-.28-.13-.62-.11-.87.05-.27.17-.43.46-.43.77v50.72c6.6-3.53,12.54-8.14,17.57-13.6Z"/>
        </g>
      </g>
      <g>
        <path class="cls-4" d="m25.07,260.03c-.17-.09-.38-.07-.53.06-2.37,1.87-4.43,2.95-7.92,2.95-4.49,0-7.38-3.15-7.38-8.02s2.72-8.02,7.09-8.02c2.98,0,5.67,1.05,7.58,2.96.15.15.36.19.56.11.19-.08.31-.27.31-.47v-7.84c0-.18-.09-.35-.25-.44-2.27-1.33-4.9-1.95-8.25-1.95-9.33,0-15.61,6.29-15.61,15.65s6.27,15.65,15.61,15.65c3.59,0,6.24-.68,8.84-2.25.15-.09.25-.26.25-.44v-7.49c0-.2-.11-.37-.29-.45Z"/>
        <path class="cls-4" d="m51,239.36c-8.98,0-15.75,6.73-15.75,15.65s6.77,15.65,15.75,15.65,15.8-6.73,15.8-15.65-6.79-15.65-15.8-15.65Zm0,23.68c-4.23,0-7.19-3.3-7.19-8.02s2.96-8.02,7.19-8.02,7.19,3.22,7.19,8.02-2.89,8.02-7.19,8.02Z"/>
        <path class="cls-4" d="m104.77,239.85h-7.84c-.22,0-.41.14-.48.34l-6.97,20.45-7.06-20.45c-.07-.2-.27-.34-.48-.34h-7.89c-.17,0-.32.08-.42.22-.09.13-.12.31-.06.46l10.91,29.29c.08.2.26.33.48.33h8.93c.21,0,.4-.13.48-.33l10.9-29.29c.06-.15.03-.33-.06-.46-.1-.14-.25-.22-.42-.22Z"/>
        <path class="cls-4" d="m134.91,262.69h-11.98v-4.01h10.54c.28,0,.5-.23.5-.51v-6.31c0-.28-.23-.51-.5-.51h-10.54v-4.01h11.63c.28,0,.5-.23.5-.51v-6.46c0-.28-.23-.5-.5-.5h-19.39c-.28,0-.51.23-.51.5v29.3c0,.28.23.51.51.51h19.73c.28,0,.5-.23.5-.51v-6.46c0-.29-.23-.51-.5-.51Z"/>
        <path class="cls-4" d="m164.77,258.88c3.21-1.9,5.04-5.09,5.04-8.85,0-6.88-4.63-10.67-13.04-10.67-3.27,0-7.11.27-9.36.65-.25.04-.42.25-.42.5v29.15c0,.28.23.51.51.51h7.3c.29,0,.51-.23.51-.51v-8.86h1.34l6.17,9.14c.09.15.25.23.42.23h8.63c.19,0,.36-.11.45-.27.09-.17.07-.38-.04-.53l-7.51-10.48Zm-3.42-8.66c0,1.52-.49,3.54-4.72,3.54h-1.32v-6.97c.46-.03,1.1-.06,1.51-.06,3,0,4.53,1.17,4.53,3.48Z"/>
        <path class="cls-4" d="m202.01,262.69h-11.97v-4.01h10.54c.28,0,.51-.23.51-.51v-6.31c0-.28-.23-.51-.51-.51h-10.54v-4.01h11.62c.29,0,.52-.23.52-.51v-6.46c0-.28-.23-.5-.52-.5h-19.38c-.28,0-.51.23-.51.5v29.3c0,.28.23.51.51.51h19.74c.28,0,.5-.23.5-.51v-6.46c0-.29-.23-.51-.5-.51Z"/>
        <path class="cls-4" d="m224.41,239.36c-3.58,0-7.64.39-9.9.75-.25.04-.43.25-.43.5v28.76c0,.24.17.44.4.5,2.91.63,7.78.7,9.72.7,10.89,0,17.13-5.78,17.13-15.85s-6.32-15.36-16.93-15.36Zm.69,23.78c-.91,0-1.88-.04-2.65-.1v-15.8c.75-.06,1.66-.1,2.51-.1,4.97,0,7.83,2.76,7.83,7.58,0,5.43-2.73,8.42-7.68,8.42Z"/>
      </g>
      <g>
        <path class="cls-3" d="m20.73,299.67c-.12-.06-.25-.05-.36.04-1.76,1.39-3.29,2.19-5.91,2.19-3.35,0-5.52-2.35-5.52-5.99s2.04-6,5.3-6c2.23,0,4.23.79,5.65,2.21.1.1.25.13.37.08.13-.05.21-.18.21-.31v-5.83c0-.12-.07-.23-.17-.29-1.68-.98-3.62-1.44-6.11-1.44-6.9,0-11.54,4.65-11.54,11.59s4.64,11.58,11.54,11.58c2.66,0,4.62-.5,6.55-1.66.11-.07.17-.17.17-.29v-5.57c0-.13-.07-.25-.19-.3Z"/>
        <path class="cls-3" d="m42.84,284.91c-.05-.13-.18-.22-.32-.22h-6.55c-.14,0-.27.09-.32.22l-8.46,21.76c-.04.1-.03.22.04.31.06.09.17.15.28.15h5.75c.14,0,.27-.09.32-.23l1.42-3.91h8.31l1.39,3.91c.05.13.18.23.32.23h5.99c.19,0,.34-.15.34-.34,0-.08-.03-.15-.08-.21l-8.43-21.66Zm-1.35,12.97h-4.6l2.33-6.38,2.27,6.38Z"/>
        <path class="cls-3" d="m72.45,301.65h-7.94v-16.62c0-.19-.15-.34-.34-.34h-5.46c-.19,0-.34.15-.34.34v21.75c0,.19.15.34.34.34h13.74c.19,0,.34-.15.34-.34v-4.79c0-.19-.15-.34-.34-.34Z"/>
        <path class="cls-3" d="m86.37,284.69h-5.46c-.19,0-.34.15-.34.34v21.75c0,.19.15.34.34.34h5.46c.19,0,.34-.15.34-.34v-21.75c0-.19-.15-.34-.34-.34Z"/>
        <path class="cls-3" d="m109.55,284.69h-13.22c-.19,0-.34.15-.34.34v21.75c0,.19.15.34.34.34h5.46c.19,0,.34-.15.34-.34v-7.27h6.58c.19,0,.34-.16.34-.34v-4.72c0-.19-.15-.34-.34-.34h-6.58v-3.93h7.42c.19,0,.34-.15.34-.34v-4.8c0-.19-.15-.34-.34-.34Z"/>
        <path class="cls-3" d="m128.6,284.33c-6.65,0-11.66,4.99-11.66,11.59s5.01,11.58,11.66,11.58,11.69-4.98,11.69-11.58-5.02-11.59-11.69-11.59Zm0,17.58c-3.17,0-5.38-2.47-5.38-5.99s2.21-6,5.38-6,5.37,2.41,5.37,6-2.16,5.99-5.37,5.99Z"/>
        <path class="cls-3" d="m161.62,298.77c2.39-1.4,3.76-3.77,3.76-6.56,0-5.08-3.42-7.88-9.65-7.88-2.42,0-5.27.2-6.93.48-.17.03-.28.17-.28.33v21.64c0,.19.15.34.34.34h5.42c.19,0,.34-.15.34-.34v-6.62h1.05l4.59,6.81c.06.09.17.15.28.15h6.41c.13,0,.25-.07.3-.19.07-.11.05-.25-.02-.35l-5.6-7.82Zm-2.45-6.41c0,1.79-1.15,2.66-3.54,2.66h-1.01v-5.24c.34-.03.84-.05,1.16-.05,1.54,0,3.39.46,3.39,2.63Z"/>
        <path class="cls-3" d="m194.2,284.69h-5.28c-.19,0-.34.15-.34.34v12.19l-8.13-12.38c-.07-.09-.17-.15-.29-.15h-5.5c-.19,0-.34.15-.34.34v21.75c0,.19.15.34.34.34h5.28c.19,0,.34-.15.34-.34v-11.99l8.47,12.18c.06.09.17.15.28.15h5.16c.19,0,.34-.15.34-.34v-21.75c0-.19-.15-.34-.34-.34Z"/>
        <path class="cls-3" d="m209.62,284.69h-5.46c-.19,0-.34.15-.34.34v21.75c0,.19.15.34.34.34h5.46c.19,0,.34-.15.34-.34v-21.75c0-.19-.15-.34-.34-.34Z"/>
        <path class="cls-3" d="m241.11,306.57l-8.43-21.66c-.05-.13-.18-.22-.32-.22h-6.56c-.14,0-.27.09-.32.22l-8.46,21.76c-.04.1-.03.22.03.31.07.09.17.15.29.15h5.75c.15,0,.27-.09.32-.23l1.42-3.91h8.31l1.38,3.91c.05.13.18.23.32.23h5.99c.19,0,.34-.15.34-.34,0-.08-.03-.15-.07-.21Zm-9.77-8.7h-4.61l2.33-6.38,2.27,6.38Z"/>
      </g>
      <path class="cls-4" d="m120.54,0C54.07,0,0,55.31,0,123.28c0,32.44,12.17,62.97,34.3,86.13l13.59-13.9c-17.57-19.27-27.23-44.42-27.23-70.97,0-56.96,44.61-103.3,99.46-103.3s99.46,46.34,99.46,103.3c0,26.35-9.54,51.35-26.87,70.57l14.06,14.3c22.14-23.16,34.31-53.69,34.31-86.13C241.09,55.31,187.01,0,120.54,0Z"/>
      <path class="cls-3" d="m120.12,24.11c-53.27,0-96.6,45.05-96.6,100.43,0,25.78,9.35,50.2,26.37,68.92l9.74-9.95c3.53-3.62,4.14-10.23,1.33-14.46-.66-1-16.19-24.59-16.19-45.77l.09-3.31c1.71-41.58,34.96-74.13,75.68-74.13s73.96,32.55,75.69,74.11l.07,3.3c-.9,21.46-15.56,44.46-16.19,45.42-2.92,4.41-2.29,11.28,1.38,15.02l9.21,9.37c16.79-18.67,26.01-42.95,26.01-68.53,0-55.38-43.33-100.43-96.59-100.43Z"/>
      <g>
        <path class="cls-4" d="m226.25,203.19v1.73h-2.92v8.04h-2.06v-8.04h-2.94v-1.73h7.92Z"/>
        <path class="cls-4" d="m233.92,203.19h2.94v9.77h-1.9v-6.61c0-.19,0-.46,0-.8s0-.61,0-.79l-1.85,8.2h-1.98l-1.84-8.2c0,.19,0,.45,0,.79s0,.61,0,.8v6.61h-1.9v-9.77h2.97l1.78,7.68,1.76-7.68Z"/>
      </g>
    </g>
  </g>
</svg>