<?xml version="1.0" encoding="utf-8"?>
<!-- Generator: Adobe Illustrator 27.3.1, SVG Export Plug-In . SVG Version: 6.00 Build 0)  -->
<svg version="1.1" id="Layer_1" xmlns="http://www.w3.org/2000/svg" xmlns:xlink="http://www.w3.org/1999/xlink" x="0px" y="0px"
	 viewBox="0 0 2500 2052" style="enable-background:new 0 0 2500 2052;" xml:space="preserve">
<style type="text/css">
	.st0{fill:#67BB49;}
	.st1{fill:#FFFFFF;}
</style>
<g>
	<rect x="116.1" y="817.9" class="st0" width="2267.8" height="416.2"/>
	<polygon class="st1" points="388.3,897.1 319.9,897.1 418.5,1072.6 287.5,1072.6 353.2,955.1 284.4,955.1 210.1,1073.9 
		243.9,1129.7 453.1,1129.7 490,1071.7 	"/>
	<g>
		<path class="st1" d="M681.7,1043.3c0,36.4-41.8,33.3-41.8,33.3v-66.1C639.9,1010.5,681.7,1006.9,681.7,1043.3 M648,955.4h-72
			v175.2h68.8c75.1,0,100.3-42.7,100.3-90C745.1,993.4,710.9,955.4,648,955.4"/>
		<path class="st1" d="M1437,1043.3c0,36.4-41.8,33.3-41.8,33.3v-66.1C1395.2,1010.5,1437,1006.9,1437,1043.3 M1403.3,955.4h-72
			v175.2h68.8c75.1,0,100.3-42.7,100.3-90C1500.5,993.4,1466.3,955.4,1403.3,955.4"/>
	</g>
	<polygon class="st1" points="1000.9,1073.3 949.6,1073.3 949.6,955.7 886.7,955.7 886.7,1129.9 901.6,1129.9 949.6,1129.9 
		1000.9,1129.9 	"/>
	<polygon class="st1" points="2245,1073.3 2193.7,1073.3 2193.7,955.7 2130.9,955.7 2130.9,1129.9 2145.7,1129.9 2193.7,1129.9 
		2245,1129.9 	"/>
	<polygon class="st1" points="1115.1,1012.4 1115.1,955.7 1081.1,955.7 1018.3,955.7 983.5,955.7 983.5,1012.4 1018.3,1012.4 
		1018.3,1129.9 1081.1,1129.9 1081.1,1012.4 	"/>
	<polygon class="st1" points="1962.9,1012.4 1962.9,955.7 1928.8,955.7 1866,955.7 1831.2,955.7 1831.2,1012.4 1866,1012.4 
		1866,1129.9 1928.8,1129.9 1928.8,1012.4 	"/>
	<polygon class="st1" points="818.2,1083.2 818.2,1065.1 865,1065.1 865,1020.2 818.2,1020.2 818.2,1002.1 873.1,1002.1 
		873.1,955.7 818.2,955.7 772.9,955.7 755.4,955.7 755.4,1129.9 776.1,1129.9 818.2,1129.9 873.5,1129.9 873.5,1083.2 	"/>
	<polygon class="st1" points="1572.8,1083.2 1572.8,1065.1 1619.6,1065.1 1619.6,1020.2 1572.8,1020.2 1572.8,1002.1 1627.7,1002.1 
		1627.7,955.7 1572.8,955.7 1527.5,955.7 1509.9,955.7 1509.9,1129.9 1530.6,1129.9 1572.8,1129.9 1628.1,1129.9 1628.1,1083.2 	"/>
	<polygon class="st1" points="1212.2,1129.7 1272.9,1129.7 1210,956 1150.1,956 1087.6,1129.3 1148.8,1129.3 1179.7,1025.8 	"/>
	<polygon class="st1" points="2061.7,1129.7 2122.5,1129.7 2059.5,956 1999.6,956 1937.1,1129.3 1998.3,1129.3 2029.2,1025.8 	"/>
	<polygon class="st1" points="1752.9,1129.9 1818,1129.9 1818,955.7 1755.2,955.7 1755.2,1045 1703.5,955.7 1642.2,955.7 
		1642.2,1129.9 1705,1129.9 1705,1048.1 	"/>
	<g>
		<path class="st1" d="M2246.8,977.3c1.1,2.5,2.5,4.7,4.4,6.5c1.9,1.8,4,3.3,6.5,4.4c2.5,1.1,5.1,1.6,8,1.6c2.9,0,5.5-0.5,8-1.6
			c2.5-1.1,4.6-2.5,6.5-4.4c1.9-1.9,3.3-4.1,4.4-6.6c1.1-2.5,1.6-5.3,1.6-8.2c0-2.9-0.5-5.6-1.6-8.1c-1.1-2.5-2.5-4.7-4.4-6.5
			c-1.9-1.8-4-3.3-6.5-4.3c-2.5-1-5.1-1.6-8-1.6c-2.9,0-5.5,0.5-8,1.6c-2.5,1.1-4.6,2.5-6.5,4.4c-1.9,1.8-3.3,4-4.4,6.6
			c-1.1,2.5-1.6,5.3-1.6,8.3C2245.2,972.1,2245.7,974.8,2246.8,977.3 M2243.2,959.6c1.3-3,3.1-5.5,5.3-7.7c2.2-2.2,4.8-3.9,7.7-5.1
			c2.9-1.2,6.1-1.9,9.4-1.9c3.3,0,6.4,0.6,9.4,1.9c3,1.2,5.6,2.9,7.8,5.1c2.2,2.1,4,4.7,5.3,7.6c1.3,2.9,2,6.1,2,9.5
			c0,3.5-0.7,6.7-2,9.7c-1.3,3-3.1,5.5-5.3,7.7c-2.2,2.2-4.8,3.9-7.8,5.1c-3,1.2-6.1,1.9-9.4,1.9c-3.3,0-6.5-0.6-9.4-1.9
			c-3-1.2-5.5-2.9-7.7-5.1c-2.2-2.1-4-4.7-5.3-7.6c-1.3-2.9-2-6.1-2-9.5C2241.3,965.8,2241.9,962.5,2243.2,959.6 M2260.5,967.7h4.8
			c1,0,1.9,0,2.8-0.1c0.9-0.1,1.7-0.2,2.4-0.6c0.7-0.3,1.3-0.8,1.7-1.4c0.4-0.6,0.6-1.5,0.6-2.6c0-1-0.2-1.7-0.6-2.3
			c-0.4-0.6-0.9-1-1.5-1.3c-0.6-0.3-1.3-0.5-2-0.6c-0.8-0.1-1.5-0.1-2.2-0.1h-6.1V967.7z M2256.6,955.2h10.3c3.4,0,5.9,0.6,7.5,1.9
			c1.6,1.3,2.4,3.3,2.4,6.2c0,2.5-0.7,4.4-2.1,5.5c-1.4,1.2-3.2,1.9-5.3,2.1l8.1,12.4h-4.2l-7.7-12h-5v12h-3.9V955.2z"/>
	</g>
</g>
</svg>
