<?xml version="1.0" encoding="UTF-8"?>
<svg id="Layer_2" data-name="Layer 2" xmlns="http://www.w3.org/2000/svg" xmlns:xlink="http://www.w3.org/1999/xlink" viewBox="0 0 563.74 273.6">
  <defs>
    <style>
      .cls-1 {
        fill: #a3247f;
      }

      .cls-2 {
        fill: #457ec0;
      }

      .cls-3 {
        fill: #00aeef;
      }

      .cls-4 {
        fill: #65a645;
      }

      .cls-5 {
        fill: #6d6e71;
      }

      .cls-6 {
        fill: #cbdb2a;
      }

      .cls-7 {
        fill: #d9117c;
      }

      .cls-8 {
        fill: #007f7b;
      }

      .cls-9 {
        clip-path: url(#clippath);
      }

      .cls-10 {
        fill: #fcaf17;
      }

      .cls-11 {
        fill: #8dc63f;
      }

      .cls-12 {
        fill: none;
      }

      .cls-13 {
        fill: #47c1bd;
      }

      .cls-14 {
        fill: #f15d31;
      }

      .cls-15 {
        fill: #ffcb05;
      }
    </style>
    <clipPath id="clippath">
      <rect class="cls-12" width="563.74" height="273.6"/>
    </clipPath>
  </defs>
  <g id="Layer_1-2" data-name="Layer 1">
    <g class="cls-9">
      <path class="cls-5" d="m368.78,196.4c21.32-10.73,58.71-8.99,58.71,20.58v49.58h-15.8v-49.43c-.74-12.75-18.85-14.21-26.97-9.28v58.71h-15.95"/>
      <path class="cls-5" d="m493.84,252.79c-5.8,10.29-17.11,15.37-26.97,15.37-14.79,0-29.71-8.55-29.71-25.81v-26.38c0-17.54,14.93-25.81,29.71-25.81s29.28,8.27,29.28,25.81v20.44h-42.91v5.94c-.29,12.33,21.17,15.37,27.25,2.76m.29-29.43c0-14.06-28.12-14.2-27.55.29v7.25h27.55"/>
      <path class="cls-5" d="m537.18,267.28c-17.55,2.6-32.48-4.78-32.48-26.24v-77.12h15.81v27.54h14.35v15.94h-14.35v33.49c0,11.89,7.97,12.61,16.67,12.61"/>
      <path class="cls-5" d="m150.21,211.04l-9.28-8.55c8.12-8.99,17.68-11.88,27.26-11.88,14.63,0,29.57,7.82,29.57,24.78v51.18s-17.52,1.19-26.7,1.3c-16.93.22-32.3-5.55-32.3-26.25.14-23.63,26.53-28.4,43.05-21.16v-4.64c-2.47-13.77-22.47-14.63-31.61-4.78m31.61,23.05c-7.97-3.77-26.68-4.31-27.4,8.3-.87,15.22,16.23,15.55,27.4,12.5"/>
      <path class="cls-5" d="m236.71,268.17c-24.74,0-28.99-9.86-28.99-25.8v-78.18h15.94v78.18c0,6.08.76,10.87,13.05,10.87"/>
      <path class="cls-5" d="m21.26,164.19v30.14c17.68-7.53,42.88-.87,42.88,23.33v49.12h-15.8v-49.27c0-13.19-18.54-13.63-27.09-8.27v57.53H5.33v-102.59"/>
      <path class="cls-5" d="m129.81,253.01c-5.8,10.28-17.1,15.36-26.96,15.36-14.78,0-29.69-8.56-29.69-25.8v-26.38c0-17.52,14.92-25.78,29.69-25.78s29.27,8.26,29.27,25.78v20.44h-42.89v5.94c-.29,12.31,21.15,15.37,27.24,2.76m.29-29.41c0-14.07-28.11-14.22-27.53.28v7.24h27.53"/>
      <path class="cls-5" d="m274.83,267.51c-17.54,2.6-32.46-4.79-32.46-26.23v-77.09h15.8v27.53h14.34v15.94h-14.34v33.47c0,11.88,7.97,12.6,16.67,12.6"/>
      <path class="cls-5" d="m296.98,164.19v30.14c17.67-7.53,42.9-.87,42.9,23.33v49.12h-15.81v-49.27c0-13.19-18.54-13.63-27.08-8.27v57.53h-15.93v-102.59"/>
      <path class="cls-10" d="m158.44,25.17c4.49,8.35,6.65,17.65,5.91,27.95,8.89,4.29,16.21,10.9,21.29,19.08,2.79-19.61-7.78-39.2-27.2-47.03"/>
      <path class="cls-1" d="m62.11,53.12c-.72-10.19,1.44-19.69,5.85-27.92-19.02,7.67-30.01,27.09-27.13,47.07,4.96-8.03,12.14-14.73,21.28-19.15"/>
      <path class="cls-14" d="m113.23,23.65c8.46-5.73,17.66-8.58,27.19-8.88-15.9-12.51-38.27-12.68-54.39,0,9.43.3,18.72,3.12,27.2,8.88"/>
      <path class="cls-15" d="m157.24,50.34c.29-9.79-2.92-19.79-9.22-27.91-10.27-1.4-20.07.69-28.79,5.98,6.08,5.6,10.7,12.59,13.49,20.49,7.96-1.49,16.1-1.17,24.52,1.44"/>
      <path class="cls-15" d="m156.48,57.71c-6.91-2.37-14.13-3.1-21.83-1.79.93,4.62,1.22,9.27.89,13.88,4.16,2.01,8.05,4.6,11.59,7.73,4.84-5.82,8.04-12.93,9.36-19.81"/>
      <path class="cls-7" d="m107.23,28.4c-9.11-5.45-18.82-7.34-28.79-5.98-6.04,7.78-9.38,17.16-9.22,27.92,8.31-2.58,16.48-2.94,24.51-1.44,2.79-7.91,7.41-14.89,13.49-20.5"/>
      <path class="cls-7" d="m69.99,57.71c1.43,7.44,4.7,14.22,9.36,19.83,3.48-3.07,7.36-5.66,11.57-7.7-.34-4.62-.05-9.28.89-13.91-7.97-1.3-15.27-.52-21.83,1.79"/>
      <path class="cls-14" d="m113.23,32.74c-5.72,4.95-9.95,11.16-12.48,17.98,4.43,1.5,8.63,3.59,12.48,6.21,3.85-2.62,8.04-4.71,12.47-6.21-2.52-6.82-6.75-13.03-12.47-17.97"/>
      <path class="cls-3" d="m62.12,112.23c-8.99-4.34-16.25-10.95-21.3-19.08-2.8,19.68,7.85,39.27,27.21,47.04-4.51-8.38-6.65-17.75-5.91-27.95"/>
      <path class="cls-11" d="m185.63,93.07c-4.99,8.07-12.17,14.76-21.28,19.15.72,10.19-1.37,19.5-5.91,27.95,18.69-7.44,30.13-26.75,27.2-47.1"/>
      <path class="cls-4" d="m163.23,60.73c-1.8,7.85-5.47,15.44-11.03,21.93,0,0,.01.01.01.02,5.46,6.37,9.2,13.87,11.02,21.94,9.43-5.23,15.89-12.91,19.57-21.94h0c-3.66-8.98-10.15-16.76-19.58-21.95"/>
      <path class="cls-2" d="m74.25,82.67c-5.46-6.37-9.2-13.87-11.02-21.95-9.3,5.12-15.86,12.85-19.57,21.95,3.72,9.14,10.37,16.92,19.58,21.95,1.77-7.82,5.18-15.1,11.02-21.94,0,0-.01,0-.01-.01"/>
      <path class="cls-8" d="m113.24,141.69c-8.47,5.75-17.73,8.58-27.2,8.88,15.87,12.49,38.27,12.68,54.39,0-9.43-.3-18.63-3.09-27.19-8.88"/>
      <path class="cls-13" d="m107.24,136.94c-6.2-5.73-10.75-12.79-13.47-20.49-8.27,1.54-16.44,1.08-24.54-1.44-.16,10.81,3.15,20.1,9.22,27.92,10.16,1.4,20.06-.66,28.79-5.99"/>
      <path class="cls-6" d="m132.72,116.45c-2.79,7.91-7.41,14.89-13.49,20.49,8.29,5.15,18.38,7.39,28.79,5.98,5.93-7.66,9.37-17.01,9.22-27.91-8.13,2.52-16.28,2.98-24.52,1.44"/>
      <path class="cls-8" d="m113.23,132.6c5.72-4.94,9.94-11.15,12.47-17.97-4.43-1.5-8.62-3.59-12.47-6.21-3.85,2.61-8.05,4.71-12.47,6.21,2.52,6.82,6.75,13.03,12.47,17.97"/>
      <path class="cls-6" d="m156.47,107.64c-1.42-7.44-4.7-14.23-9.37-19.83-3.47,3.07-7.36,5.66-11.57,7.7.34,4.62.05,9.28-.89,13.92,6.65,1.2,14.34.82,21.83-1.79"/>
      <path class="cls-13" d="m91.85,109.43c-.92-4.54-1.22-9.19-.88-13.86-4.17-2.01-8.08-4.6-11.63-7.74-4.65,5.6-7.93,12.38-9.35,19.81,7.36,2.56,14.96,3.02,21.86,1.79"/>
      <path class="cls-5" d="m547.15,267.79h-1.06v-6.93h-2.65v-1h6.34v1h-2.64m4.7,6.93h-1.07v-7.93h1.22l2.58,5.67,2.59-5.67h1.24v7.93h-1.08l.08-6.17-2.38,5.22h-.89l-2.34-5.14"/>
    </g>
  </g>
</svg>