<?xml version="1.0" encoding="utf-8"?>
<!-- Generator: Adobe Illustrator 27.3.1, SVG Export Plug-In . SVG Version: 6.00 Build 0)  -->
<svg version="1.1" id="layer" xmlns="http://www.w3.org/2000/svg" xmlns:xlink="http://www.w3.org/1999/xlink" x="0px" y="0px"
	 viewBox="0 0 652 425" style="enable-background:new 0 0 652 425;" xml:space="preserve">
<style type="text/css">
	.st0{fill:#449A45;}
	.st1{fill:#D1D8D1;}
	.st2{fill:#DEDFDF;}
	.st3{fill:#FFFFFF;}
</style>
<g>
	<rect y="60" class="st0" width="652" height="305"/>
	<g>
		<path class="st1" d="M128,123.1L128,123.1L128,123.1z"/>
		<polygon class="st2" points="128,123.1 128,123.1 128,237 241.9,237 		"/>
		<g>
			<g>
				<polygon class="st3" points="160.6,90.5 128,123.1 160.6,155.7 				"/>
				<polygon class="st3" points="14.1,237 128,237 128,123.1 				"/>
			</g>
			<g>
				<path class="st3" d="M455.2,208.9c-4,0-7.3-3.3-7.3-7.4c0-4,3.3-7.3,7.3-7.3c4.1,0,7.3,3.3,7.3,7.3
					C462.6,205.6,459.3,208.9,455.2,208.9 M455.2,194.9c-3.6,0-6.5,3-6.5,6.6c0,3.7,2.9,6.6,6.5,6.6s6.5-3,6.5-6.6
					S458.8,194.9,455.2,194.9"/>
				<path class="st3" d="M457.2,205.5l-2.5-3.4h-0.9v3.4h-1.4v-8.3h3c2.2,0,3.1,0.7,3.1,2.3c0,1.4-0.8,2.3-2.2,2.4l2.8,3.5h-1.9
					V205.5z M456.5,198.6c-0.3-0.1-0.7-0.2-1.4-0.2h-1.3v2.7h1.3c1.3,0,1.9-0.5,1.9-1.5C457,199.2,456.8,198.7,456.5,198.6"/>
				<polygon class="st3" points="295.7,121.7 295.7,167.2 293.5,167.2 265.9,129.3 265.9,163.7 271.4,163.7 271.4,166.4 
					256.9,166.4 256.9,163.7 262.3,163.7 262.3,124.4 260.4,121.7 255.4,121.7 255.4,119 265.9,119 292.1,155.1 292.1,121.7 
					286.7,121.7 286.7,119 301.1,119 301.1,121.7 				"/>
				<path class="st3" d="M329.6,166.5c-0.5,0.1-0.9,0.3-1.4,0.4s-0.8,0.1-1.1,0.1c-1.1,0-2-0.4-2.6-1.1s-0.9-1.8-0.9-3.1v-0.7
					c-1.5,1.9-3,3.2-4.5,4s-3.1,1.2-5.1,1.2c-2.5,0-4.5-0.8-6.2-2.3c-1.6-1.5-2.4-3.5-2.4-6c0-1.8,0.5-3.4,1.6-4.8s2.5-2.3,4.2-2.7
					l12.3-2.8v-8.1c0-1.4-0.5-2.6-1.4-3.6c-1-0.9-2.2-1.4-3.6-1.4c-0.7,0-1.4,0.1-2,0.2c-0.6,0.1-1.4,0.5-2.5,1v3.4l-6.4,1.9
					c-0.2-0.4-0.4-0.8-0.5-1c-0.1-0.3-0.1-0.6-0.1-1c0-1.1,0.3-2,0.9-2.9s1.4-1.6,2.4-2.3c1-0.6,2.2-1.1,3.6-1.5s2.9-0.5,4.5-0.5
					c3.2,0,5.7,0.7,7.6,2.2c1.9,1.4,2.9,3.3,2.9,5.7v22.1h5.5v2L329.6,166.5z M323.5,151.7l-12.3,2.9v3.6c0,1.5,0.4,2.7,1.3,3.6
					s2.1,1.3,3.6,1.3c1.2,0,2.3-0.3,3.3-0.9c1.1-0.6,2.4-1.6,4-2.9v-7.6H323.5z"/>
				<path class="st3" d="M357.3,163.4c-1,0.8-1.8,1.4-2.5,1.9s-1.3,0.9-1.9,1.1c-0.6,0.3-1.1,0.4-1.7,0.5s-1.2,0.1-1.8,0.1
					c-2.1,0-3.7-0.6-4.9-1.8c-1.2-1.2-1.7-2.9-1.7-5.1v-22.2h-6.2V136l6.2-1.6v-9.9h5.1v10.1h8.9v3.3h-8.9v21.5
					c0,1.4,0.3,2.4,0.8,2.9c0.5,0.6,1.4,0.8,2.6,0.8c0.8,0,1.5-0.1,2.1-0.3c0.6-0.2,1.6-0.7,2.8-1.4L357.3,163.4z"/>
				<path class="st3" d="M359.7,166.4v-2.7h5.5v-25.8H359V136l10.3-2.8h1.3v30.6h5.5v2.7h-16.4V166.4z M371.3,120.9
					c0,1.1-0.4,2-1.1,2.7s-1.6,1.1-2.7,1.1s-1.9-0.4-2.7-1.1c-0.7-0.7-1.1-1.6-1.1-2.7c0-1,0.4-1.9,1.1-2.6c0.7-0.7,1.6-1.1,2.7-1.1
					s2,0.4,2.7,1.1C371,118.9,371.3,119.8,371.3,120.9"/>
				<path class="st3" d="M411.4,150.2c0,2.4-0.4,4.6-1.2,6.7c-0.8,2.1-1.9,3.9-3.4,5.4c-1.4,1.5-3.1,2.7-5,3.7
					c-1.9,0.9-3.9,1.4-6.1,1.4c-2.1,0-4.2-0.5-6.1-1.4s-3.6-2.1-5-3.7c-1.4-1.5-2.6-3.3-3.4-5.4s-1.2-4.3-1.2-6.7
					c0-2.3,0.4-4.6,1.2-6.7c0.8-2.1,1.9-3.9,3.4-5.5c1.4-1.5,3.1-2.7,5-3.7c1.9-0.9,3.9-1.4,6.1-1.4s4.2,0.5,6.1,1.4s3.6,2.1,5,3.7
					c1.4,1.5,2.6,3.3,3.4,5.5C410.9,145.6,411.4,147.8,411.4,150.2 M405.3,150.2c0-2-0.2-3.9-0.8-5.6c-0.5-1.7-1.2-3.2-2-4.5
					c-0.9-1.3-1.9-2.3-3.1-3s-2.4-1.1-3.8-1.1c-1.3,0-2.6,0.4-3.8,1.1c-1.2,0.7-2.2,1.7-3.1,3s-1.5,2.8-2,4.5s-0.7,3.6-0.7,5.6
					s0.2,3.8,0.7,5.5s1.1,3.2,2,4.5s1.9,2.3,3.1,3s2.4,1.1,3.8,1.1c1.3,0,2.6-0.4,3.8-1.1c1.2-0.7,2.2-1.7,3.1-3s1.5-2.8,2-4.5
					C405,154.1,405.3,152.2,405.3,150.2"/>
				<path class="st3" d="M437.8,166.4v-2.7h5.4v-21c0-1.9-0.5-3.4-1.4-4.5s-2.2-1.6-3.7-1.6c-0.8,0-1.5,0.1-2.2,0.3
					s-1.4,0.6-2.2,1.3c-0.8,0.6-1.7,1.5-2.8,2.6c-1.1,1.1-2.4,2.6-3.9,4.3v18.7h5.5v2.7h-16.3v-2.7h5.5V138h-6.2v-1.9l10.3-2.8h1.3
					v8c1.3-1.6,2.6-2.9,3.7-3.9s2.2-1.9,3.2-2.5s2-1.1,3-1.4c1-0.3,2.1-0.4,3.2-0.4c2.7,0,4.8,0.8,6.3,2.4c1.5,1.6,2.3,3.8,2.3,6.6
					v21.7h5.4v2.7h-16.4V166.4z"/>
				<path class="st3" d="M482,166.5c-0.5,0.1-0.9,0.3-1.4,0.4s-0.8,0.1-1.1,0.1c-1.1,0-2-0.4-2.6-1.1s-0.9-1.8-0.9-3.1v-0.7
					c-1.5,1.9-3,3.2-4.5,4s-3.1,1.2-5.1,1.2c-2.5,0-4.5-0.8-6.2-2.3c-1.6-1.5-2.4-3.5-2.4-6c0-1.8,0.5-3.4,1.6-4.8s2.5-2.3,4.2-2.7
					l12.3-2.8v-8.1c0-1.4-0.5-2.6-1.4-3.6c-1-0.9-2.2-1.4-3.6-1.4c-0.7,0-1.4,0.1-2,0.2c-0.6,0.1-1.4,0.5-2.5,1v3.4l-6.4,1.9
					c-0.2-0.4-0.4-0.8-0.5-1c-0.1-0.3-0.1-0.6-0.1-1c0-1.1,0.3-2,0.9-2.9s1.4-1.6,2.4-2.3c1-0.6,2.2-1.1,3.6-1.5s2.9-0.5,4.5-0.5
					c3.2,0,5.7,0.7,7.6,2.2c1.9,1.4,2.9,3.3,2.9,5.7v22.1h5.5v2L482,166.5z M475.9,151.7l-12.3,2.9v3.6c0,1.5,0.4,2.7,1.3,3.6
					s2.1,1.3,3.6,1.3c1.2,0,2.3-0.3,3.3-0.9c1.1-0.6,2.4-1.6,4-2.9v-7.6H475.9z"/>
				<polygon class="st3" points="489.7,166.4 489.7,163.7 495.2,163.7 495.2,118.2 488.8,118.2 488.8,116.3 499.2,113.5 
					500.5,113.5 500.5,163.7 505.9,163.7 505.9,166.4 				"/>
				<polygon class="st3" points="530.2,166.4 530.2,163.7 535.6,163.7 535.6,121.7 530.2,121.7 530.2,119 547.2,119 547.2,121.7 
					541.8,121.7 541.8,163.2 559.5,163.2 559.5,156.8 562.8,156.8 562.8,166.4 				"/>
				<path class="st3" d="M565.8,166.4v-2.7h5.4v-25.8H565V136l10.3-2.8h1.3v30.6h5.5v2.7h-16.3V166.4z M577.4,120.9
					c0,1.1-0.3,2-1.1,2.7c-0.7,0.7-1.6,1.1-2.7,1.1c-1.1,0-1.9-0.4-2.7-1.1c-0.7-0.7-1.1-1.6-1.1-2.7c0-1,0.4-1.9,1.1-2.6
					c0.7-0.7,1.6-1.1,2.7-1.1c1.1,0,2,0.4,2.7,1.1C577.1,118.9,577.4,119.8,577.4,120.9"/>
				<path class="st3" d="M612.1,121c-0.7-0.6-1.3-1.1-1.9-1.6c-0.5-0.4-1-0.8-1.5-1.2s-1-0.7-1.6-1c-0.5-0.3-1.3-0.7-2.1-1.1
					c-2.9,0.5-4.9,1.9-6.2,4c-1.3,2.2-1.9,5.4-1.9,9.8v4.7h8.2v3.3h-8.2v25.8h6.9v2.7h-17.7v-2.7h5.4v-25.8h-6.2V136l6.2-1.6v-5.9
					c0-2.3,0.3-4.3,1-6.2s1.7-3.5,3-4.8s2.8-2.3,4.6-3.1c1.8-0.7,3.8-1.1,5.9-1.1c3.4,0,6.8,0.9,10,2.7L612.1,121z"/>
				<path class="st3" d="M615.1,148v0.8c0,2.3,0.3,4.3,0.9,6.2s1.4,3.5,2.4,4.8s2.2,2.4,3.6,3.1c1.4,0.7,3,1.1,4.7,1.1
					c1.4,0,2.8-0.2,4-0.7c1.2-0.4,2.8-1.3,4.8-2.6l1.4,2.7c-1.3,0.8-2.5,1.4-3.5,1.9s-2,0.9-2.9,1.2c-0.9,0.3-1.8,0.5-2.7,0.6
					s-1.9,0.2-2.9,0.2c-2.3,0-4.4-0.4-6.3-1.3c-1.9-0.8-3.5-2-4.9-3.5s-2.5-3.3-3.2-5.3c-0.8-2.1-1.1-4.3-1.1-6.8s0.4-4.8,1.1-6.9
					c0.8-2.1,1.8-4,3.2-5.5c1.4-1.6,3-2.8,4.9-3.6c1.9-0.9,3.9-1.3,6.2-1.3c1.9,0,3.7,0.3,5.3,1s3,1.5,4.1,2.7
					c1.1,1.1,2,2.5,2.7,4.1c0.6,1.6,1,3.4,1,5.3v1.9h-22.8V148z M631.8,143.4c0-2.2-0.7-3.9-2-5.3c-1.3-1.4-3-2.1-5.1-2.1
					c-2.6,0-4.8,0.8-6.5,2.4c-1.7,1.6-2.7,3.8-3,6.7h16.6V143.4z"/>
				<path class="st3" d="M296.2,220.1v14.5c-1.6,0.5-3,1-4.3,1.3s-2.5,0.6-3.7,0.8c-1.1,0.2-2.3,0.4-3.4,0.5s-2.3,0.1-3.5,0.1
					c-3.7,0-7-0.5-9.8-1.5s-5.4-2.5-7.8-4.6c-2.7-2.4-4.7-5.2-6.2-8.4c-1.4-3.2-2.2-6.6-2.2-10.2c0-3.5,0.6-6.8,1.9-9.8
					c1.3-3,3.1-5.6,5.3-7.7c2.3-2.2,4.9-3.9,8-5.1s6.5-1.8,10.2-1.8c1.1,0,2.1,0,3.1,0.1s1.9,0.2,2.9,0.4c0.9,0.2,1.9,0.4,2.9,0.7
					c1,0.3,2,0.6,3.1,1v-2.8h3.3v12.2h-3.2v-4.6c-2.4-1.1-4.5-2-6.4-2.5s-3.9-0.7-5.9-0.7c-2.5,0-4.8,0.5-7,1.6s-4.1,2.6-5.7,4.4
					c-1.6,1.9-2.9,4.1-3.8,6.6s-1.4,5.2-1.4,8.1c0,3,0.5,5.7,1.6,8.2s2.6,4.7,4.4,6.7c1.9,1.9,4.1,3.4,6.6,4.5s5.2,1.6,8.2,1.6
					c1,0,2-0.1,2.9-0.2s2.1-0.4,3.6-0.8v-12.6h-6.1v-2.6h17.7v2.7h-5.3V220.1z"/>
				<path class="st3" d="M326,210.6c-1.4-1.3-2.4-2-3.2-2c-0.3,0-0.7,0.1-1,0.3c-0.3,0.2-0.8,0.5-1.3,0.9c-0.5,0.5-1.1,1.1-1.8,1.9
					c-0.7,0.8-1.5,1.8-2.5,3v19.1h6.9v2.7h-17.7v-2.7h5.5V208h-6.2v-1.9l10.3-2.8h1.3v8c1.3-1.6,2.4-3,3.3-4.1s1.7-1.9,2.4-2.5
					c0.7-0.6,1.4-1,2-1.3c0.6-0.2,1.2-0.4,1.9-0.4c0.9,0,1.6,0.2,2,0.6l2.2,1.9L326,210.6z"/>
				<path class="st3" d="M363.9,220.2c0,2.4-0.4,4.6-1.2,6.7c-0.8,2.1-1.9,3.9-3.4,5.4c-1.4,1.5-3.1,2.7-5,3.7
					c-1.9,0.9-3.9,1.4-6.1,1.4s-4.2-0.5-6.1-1.4s-3.6-2.1-5-3.7c-1.4-1.5-2.6-3.3-3.4-5.4s-1.2-4.3-1.2-6.7c0-2.3,0.4-4.6,1.2-6.7
					c0.8-2.1,1.9-3.9,3.4-5.5c1.4-1.5,3.1-2.8,5-3.7c1.9-0.9,3.9-1.4,6.1-1.4s4.2,0.5,6.1,1.4s3.6,2.1,5,3.7
					c1.4,1.5,2.6,3.3,3.4,5.5C363.5,215.6,363.9,217.9,363.9,220.2 M357.8,220.2c0-2-0.2-3.9-0.8-5.6c-0.5-1.7-1.2-3.2-2-4.5
					c-0.9-1.3-1.9-2.3-3-3c-1.2-0.7-2.4-1.1-3.8-1.1c-1.3,0-2.6,0.4-3.8,1.1c-1.2,0.7-2.2,1.7-3,3c-0.9,1.3-1.5,2.8-2,4.5
					s-0.7,3.6-0.7,5.6s0.2,3.8,0.7,5.5s1.1,3.2,2,4.5s1.9,2.3,3,3c1.2,0.7,2.4,1.1,3.8,1.1c1.3,0,2.6-0.4,3.8-1.1
					c1.2-0.7,2.2-1.7,3-3c0.9-1.3,1.5-2.8,2-4.5C357.6,224.1,357.8,222.2,357.8,220.2"/>
				<path class="st3" d="M396.2,237h-1.3v-8.1c-1.3,1.6-2.5,2.9-3.6,4s-2.2,2-3.2,2.6c-1,0.7-2,1.1-3,1.4s-2.1,0.4-3.2,0.4
					c-2.7,0-4.9-0.8-6.4-2.5c-1.5-1.6-2.3-3.9-2.3-6.8v-20.2H367v-1.9l10.3-2.8h1.4v24c0,4.3,1.7,6.5,5.2,6.5c1.3,0,2.6-0.3,3.6-1
					c1.1-0.7,2.4-2,4.1-3.9c0.4-0.4,0.8-0.9,1.4-1.5c0.5-0.6,1.2-1.3,1.9-2.2v-17.2h-5.5v-2.2l9.5-2.5h1.4v29.2h6.2v2L396.2,237z"/>
				<path class="st3" d="M443.5,218.8c0,2.7-0.4,5.2-1.3,7.4c-0.8,2.3-2,4.2-3.5,5.9c-1.5,1.6-3.3,2.9-5.3,3.9
					c-2.1,0.9-4.3,1.4-6.7,1.4c-0.7,0-1.3,0-1.8-0.1c-0.5,0-1-0.1-1.5-0.3c-0.5-0.1-0.9-0.3-1.4-0.5s-1.1-0.5-1.7-0.8v15.6h6.5v2.7
					h-17.4v-2.7h5.5V208h-6.3v-2l10.3-2.7h1.4v4.9c1.8-1.9,3.5-3.2,5.1-3.9c1.6-0.7,3.4-1.1,5.4-1.1c1.9,0,3.6,0.4,5.2,1.1
					c1.6,0.8,2.9,1.8,4,3.2c1.1,1.4,2,3,2.6,4.9C443.2,214.3,443.5,216.4,443.5,218.8 M437.3,220.3c0-3.9-0.8-7-2.4-9.3
					s-3.8-3.4-6.7-3.4c-1.4,0-2.6,0.3-3.8,0.9c-1.1,0.6-2.5,1.7-4.2,3.3v16.5c0,2.3,0.4,3.8,1.3,4.7c0.8,0.9,2.3,1.4,4.3,1.4
					c1.7,0,3.3-0.3,4.7-1c1.4-0.7,2.6-1.6,3.6-2.9c1-1.2,1.8-2.7,2.3-4.4C437.1,224.3,437.3,222.4,437.3,220.3"/>
			</g>
		</g>
		<g>
			<polygon class="st3" points="261.2,323.1 261.2,291.5 277.6,291.5 277.6,293.8 263.8,293.8 263.8,305.8 275.2,305.8 275.2,308.1 
				263.8,308.1 263.8,320.8 278.1,320.8 278.1,323.1 			"/>
			<polygon class="st3" points="295.4,323.1 289.9,314.3 284.5,323.1 282,323.1 288.7,312.4 282,301.4 284.8,301.4 290.1,310.3 
				295.3,301.4 297.8,301.4 291.2,312.1 298.1,323.1 			"/>
			<path class="st3" d="M311.9,323.7c-2.5,0-4.4-0.5-5.8-2.2v13h-2.3v-33.1h2.3v3.6c2.7-3.5,4.7-4.2,7.8-4.2c4.8,0,8.4,4.2,8.4,10.6
				C322.3,318.5,317.8,323.7,311.9,323.7 M313.3,303c-3.3,0-5.4,2.1-7.2,4.5v9.4c0,3,3,4.5,5.5,4.5c5.1,0,8.3-4.4,8.3-10
				C319.8,306.8,317.2,303,313.3,303"/>
			<path class="st3" d="M329.5,311.3v0.9c0,5.6,2.6,9.4,7.8,9.4c1.9,0,3.8-0.7,5.8-2.1l0.9,1.8c-2.9,1.8-5,2.3-7.5,2.3
				c-5.9,0-9.5-4.3-9.5-11.9c0-6.6,3.9-11,9.6-11c4.4,0,7.7,3.4,7.7,8.9v1.6h-14.8V311.3z M336.4,302.8c-3.4,0-5.7,2.1-6.7,6.6h12.1
				C341.8,305.4,339.5,302.8,336.4,302.8"/>
			<path class="st3" d="M360.2,304c-0.4-0.3-0.9-0.5-1.3-0.5c-1.9,0-3.7,2.7-5.8,6.5v13.2h-2.3v-21.7h2.3v5.5c1.9-3.9,4.4-6,6.3-6
				c0.7,0,1.5,0.3,2,0.9L360.2,304z"/>
			<path class="st3" d="M367.5,295.6c-0.9,0-1.7-0.8-1.7-1.8s0.8-1.8,1.7-1.8c0.9,0,1.7,0.8,1.7,1.8
				C369.1,294.9,368.3,295.6,367.5,295.6 M366.3,301.4h2.3v21.7h-2.3V301.4z"/>
			<path class="st3" d="M377.8,311.3v0.9c0,5.6,2.6,9.4,7.8,9.4c1.9,0,3.8-0.7,5.8-2.1l0.9,1.8c-2.9,1.8-5,2.3-7.5,2.3
				c-5.9,0-9.5-4.3-9.5-11.9c0-6.6,3.9-11,9.6-11c4.4,0,7.7,3.4,7.7,8.9v1.6h-14.8V311.3z M384.7,302.8c-3.4,0-5.7,2.1-6.7,6.6h12.2
				C390.2,305.4,387.9,302.8,384.7,302.8"/>
			<path class="st3" d="M413.7,323.1v-15.6c0-2.3-0.3-4.5-3.2-4.5c-2.6,0-5.1,2-9,6.6v13.6h-2.3v-21.7h2.3v5.5
				c2.5-3,5.1-6.1,9.4-6.1c3.3,0,5.1,1.7,5.1,5.7v16.5H413.7z"/>
			<path class="st3" d="M438.3,304.6c-1.2-1-3.3-1.7-5.2-1.7c-4.9,0-8,4-8,9.4c0,5.5,3.2,9.3,8.3,9.3c2,0,3.5-0.6,5-1.7l1.2,1.9
				c-2,1.2-4.2,2-6.6,2c-6.2,0-10.4-4.4-10.4-11.2c0-6.9,4.5-11.7,10.7-11.7c2.1,0,4.6,0.6,6.4,1.8L438.3,304.6z"/>
			<path class="st3" d="M445.6,311.3v0.9c0,5.6,2.6,9.4,7.8,9.4c1.9,0,3.8-0.7,5.8-2.1l0.9,1.8c-2.9,1.8-5,2.3-7.5,2.3
				c-5.9,0-9.5-4.3-9.5-11.9c0-6.6,3.9-11,9.6-11c4.4,0,7.7,3.4,7.7,8.9v1.6h-14.8V311.3z M452.5,302.8c-3.4,0-5.7,2.1-6.7,6.6H458
				C457.9,305.4,455.6,302.8,452.5,302.8"/>
			<polygon class="st3" points="480,323.1 480,291.5 482.6,291.5 482.6,320.8 496.7,320.8 496.7,323.1 			"/>
			<path class="st3" d="M503.1,295.6c-0.9,0-1.7-0.8-1.7-1.8s0.8-1.8,1.7-1.8c0.9,0,1.7,0.8,1.7,1.8
				C504.8,294.9,504,295.6,503.1,295.6 M501.9,301.4h2.3v21.7h-2.3V301.4z"/>
			<path class="st3" d="M525.4,290.5c-1.2-0.4-2.2-0.7-3.2-0.7c-4.3,0-6.2,3.3-6.2,8.7v2.9h5.1v1.8H516v19.9h-2.2v-19.9h-3.6v-1
				l3.6-1v-3.7c0-6.2,3.5-9.8,8.7-9.8c1.5,0,2.6,0.2,3.9,0.8L525.4,290.5z"/>
			<path class="st3" d="M526.3,311.3v0.9c0,5.6,2.6,9.4,7.7,9.4c1.9,0,3.8-0.7,5.8-2.1l0.9,1.8c-2.9,1.8-5,2.3-7.5,2.3
				c-5.9,0-9.5-4.3-9.5-11.9c0-6.6,3.9-11,9.6-11c4.5,0,7.7,3.4,7.7,8.9v1.6h-14.7V311.3z M533.2,302.8c-3.4,0-5.7,2.1-6.7,6.6h12.2
				C538.6,305.4,536.3,302.8,533.2,302.8"/>
			<path class="st3" d="M548.3,302.9c-3,0-5.7-2.5-5.7-5.7s2.6-5.7,5.7-5.7c3,0,5.7,2.5,5.7,5.7C554,300.3,551.3,302.9,548.3,302.9
				 M548.3,292c-2.8,0-4.9,2.3-4.9,5.1c0,2.8,2.1,5.1,4.9,5.1c2.8,0,4.9-2.3,4.9-5.1C553.2,294.4,551.1,292,548.3,292 M549.9,300.4
				l-2-2.8h-1v2.8h-0.7V294h2c1.6,0,2.4,0.6,2.4,1.7c0,1-0.9,1.8-1.8,1.9l2.1,2.8H549.9z M548,294.5h-1.2v2.5h1.3
				c1.1,0,1.7-0.4,1.7-1.4C549.8,294.7,548.8,294.5,548,294.5"/>
		</g>
	</g>
</g>
</svg>
