<?xml version="1.0" encoding="utf-8"?>
<!-- Generator: Adobe Illustrator 27.3.1, SVG Export Plug-In . SVG Version: 6.00 Build 0)  -->
<svg version="1.1" id="Layer_1" xmlns="http://www.w3.org/2000/svg" xmlns:xlink="http://www.w3.org/1999/xlink" x="0px" y="0px"
	 viewBox="0 0 300 300" style="enable-background:new 0 0 300 300;" xml:space="preserve">
<style type="text/css">
	.st0{fill:url(#SVGID_1_);}
	.st1{fill:#FFFFFF;}
</style>
<linearGradient id="SVGID_1_" gradientUnits="userSpaceOnUse" x1="-806.008" y1="690.7227" x2="-805.008" y2="690.7227" gradientTransform="matrix(271.8923 126.7855 126.7855 -271.8923 131543.125 290058.0625)">
	<stop  offset="0" style="stop-color:#6800BF"/>
	<stop  offset="1" style="stop-color:#C055FF"/>
</linearGradient>
<rect class="st0" width="300" height="300"/>
<g id="_x37_c800233-5a01-48b9-9cbd-998c68d4aac3" transform="matrix(2.9239764175190173,0,0,2.9239764175190173,20.672514588229156,174.95029148304968)">
	<path class="st1" d="M7.5,12.6h2.5L6.1,2.1H3.6l-3.8,10.5h2.5l0.7-2h3.9L7.5,12.6z M3.5,8.7l1.3-4.2l1.4,4.2H3.5z M13,12.7
		c1.6,0,2.5-1,2.5-2.3c0-1.4-1.2-2-2.2-2.4c-0.5-0.2-0.8-0.3-0.8-0.6c0-0.2,0.2-0.4,0.6-0.4c0.4,0,0.9,0.2,1.1,0.5l1.1-1.3
		C14.9,5.9,14,5.5,13,5.5c-1.6,0-2.6,1.1-2.6,2.2c0,1.4,1.4,1.9,2.2,2.2c0.6,0.2,0.8,0.4,0.8,0.7c0,0.3-0.2,0.4-0.6,0.4
		c-0.4,0-0.9-0.1-1.2-0.7L10,11.1C10.5,12.2,11.7,12.7,13,12.7z M19.1,12.7c1.6,0,2.5-1,2.5-2.3c0-1.4-1.1-2-2.2-2.4
		c-0.5-0.2-0.8-0.3-0.8-0.6c0-0.2,0.2-0.4,0.6-0.4c0.5,0,0.9,0.2,1.1,0.5l1.1-1.3c-0.5-0.5-1.4-0.9-2.4-0.9c-1.6,0-2.6,1.1-2.6,2.2
		c0,1.4,1.4,1.9,2.2,2.2c0.6,0.2,0.8,0.4,0.8,0.7c0,0.3-0.2,0.4-0.6,0.4c-0.4,0-0.9-0.1-1.2-0.7l-1.6,0.8
		C16.6,12.2,17.9,12.7,19.1,12.7z M26.2,12.7c2.1,0,3.3-1.1,3.3-2.8V5.6h-2.2v4c0,0.7-0.5,1.1-1.1,1.1c-0.6,0-1.1-0.5-1.1-1.1v-4
		h-2.2v4.3C22.9,11.6,24.1,12.7,26.2,12.7z M35.6,5.5c-0.8,0-1.5,0.4-2,1.1v-1h-2.2v7h2.2V9.3c0-1.2,0.8-1.8,1.9-1.8
		c0.3,0,0.5,0,0.6,0.1v-2C36,5.5,35.8,5.5,35.6,5.5z M44.3,9.1c0-2.2-1.5-3.6-3.8-3.6s-3.9,1.5-3.9,3.7s1.6,3.6,3.9,3.6
		c1.9,0,3.2-1,3.6-2.6H42c-0.2,0.6-0.7,0.9-1.5,0.9c-1,0-1.5-0.6-1.6-1.6h5.4V9.1z M40.6,7.2c0.8,0,1.2,0.4,1.4,1h-2.9
		C39.3,7.5,39.8,7.2,40.6,7.2z M50.9,6.8v1.8h2.9c-0.5,1.1-1.6,1.8-2.9,1.8c-1.8,0-3.1-1.4-3.1-3.1s1.4-3.1,3.1-3.1
		c1.2,0,2.3,0.7,2.8,1.7l2-1C54.7,3.1,52.9,2,50.9,2c-3,0-5.4,2.4-5.4,5.4c0,3,2.4,5.4,5.4,5.4c3,0,5.4-2.4,5.4-5.4V6.8H50.9z
		 M61.1,12.7c2.1,0,3.3-1.1,3.3-2.8V5.6h-2.2v4c0,0.7-0.5,1.1-1.1,1.1c-0.6,0-1-0.5-1-1.1v-4h-2.2v4.3C57.8,11.6,59,12.7,61.1,12.7z
		 M74.1,10.8c-0.3,0-0.6-0.1-0.6-0.7V5.6h-2.2v0.6c-0.5-0.5-1.2-0.8-2-0.8c-1.9,0-3.5,1.6-3.5,3.6s1.5,3.6,3.5,3.6
		c1,0,1.8-0.4,2.4-1.2c0.4,0.7,1.2,1.2,2.2,1.2c0.2,0,0.4-0.1,0.6-0.1v-1.8H74.1z M69.7,10.8c-0.9,0-1.7-0.7-1.7-1.7
		c0-0.9,0.7-1.7,1.7-1.7c0.9,0,1.7,0.7,1.7,1.7C71.4,10,70.6,10.8,69.7,10.8z M79.9,5.5c-0.8,0-1.5,0.4-2,1.1v-1h-2.2v7H78V9.3
		c0-1.2,0.8-1.8,1.9-1.8c0.3,0,0.5,0,0.7,0.1v-2C80.3,5.5,80.1,5.5,79.9,5.5z M86.5,0.6v5.6c-0.5-0.5-1.2-0.8-2-0.8
		c-1.9,0-3.5,1.6-3.5,3.6s1.5,3.6,3.5,3.6c0.8,0,1.5-0.3,2-0.8v0.6l2.2,0v-12H86.5z M84.9,10.8c-0.9,0-1.7-0.7-1.7-1.7
		c0-0.9,0.7-1.7,1.7-1.7c0.9,0,1.7,0.7,1.7,1.7C86.6,10,85.8,10.8,84.9,10.8z"/>
</g>
<g id="_x32_941ba1a-f56b-4ab7-abc4-d7b62311b7fc" transform="matrix(2.360116753209237,0,0,2.360116753209237,112.23813194865221,85.50421509043593)">
	<path class="st1" d="M17.6,23.9l4.1,7.1L32,13.2h-9V7.6L11.5,1L0,7.6v13.2l11.5,6.6L17.6,23.9z M28.5,15.2L21.7,27l-6.9-11.8H28.5z
		"/>
</g>
</svg>
