<?xml version="1.0" encoding="utf-8"?>
<!-- Generator: Adobe Illustrator 27.3.1, SVG Export Plug-In . SVG Version: 6.00 Build 0)  -->
<svg version="1.1" id="Layer_2_00000039103529508337647130000004953444148927045564_"
	 xmlns="http://www.w3.org/2000/svg" xmlns:xlink="http://www.w3.org/1999/xlink" x="0px" y="0px" viewBox="0 0 300 300"
	 style="enable-background:new 0 0 300 300;" xml:space="preserve">
<style type="text/css">
	.st0{fill:url(#SVGID_1_);}
	.st1{fill:#FFFFFF;}
</style>
<g id="Layer_1-2">
	<g>
		
			<linearGradient id="SVGID_1_" gradientUnits="userSpaceOnUse" x1="-462.398" y1="545.1927" x2="-461.6453" y2="545.1927" gradientTransform="matrix(271.8923 126.7855 126.7855 -271.8923 56613.2656 206945.3438)">
			<stop  offset="0" style="stop-color:#30092A"/>
			<stop  offset="1" style="stop-color:#0013D4"/>
		</linearGradient>
		<path class="st0" d="M150,0L150,0c82.8,0,150,67.2,150,150l0,0c0,82.8-67.2,150-150,150l0,0C67.2,300,0,232.8,0,150l0,0
			C0,67.2,67.2,0,150,0z"/>
		<g id="_2941ba1a-f56b-4ab7-abc4-d7b62311b7fc">
			<path class="st1" d="M174.9,211.2l29.4,50.7l73.8-127.5h-64.2V94.3l-82.3-47.2L49.3,94.3v94.5l82.3,47.3L174.9,211.2L174.9,211.2
				z M253.3,148.7l-49,84.7l-49-84.7H253.3L253.3,148.7z"/>
		</g>
	</g>
</g>
</svg>
