<?xml version="1.0" encoding="utf-8"?>
<!-- Generator: Adobe Illustrator 27.3.1, SVG Export Plug-In . SVG Version: 6.00 Build 0)  -->
<svg version="1.1" id="Layer_1" xmlns="http://www.w3.org/2000/svg" xmlns:xlink="http://www.w3.org/1999/xlink" x="0px" y="0px"
	 viewBox="0 0 504 288" style="enable-background:new 0 0 504 288;" xml:space="preserve">
<style type="text/css">
	.st0{fill:#666666;}
	.st1{clip-path:url(#SVGID_00000042731580215431191060000017465409295133506181_);}
	.st2{fill:#FFFFFF;}
	.st3{fill:#FEFEFE;}
	.st4{fill:#FDFDFD;}
	.st5{fill:#FCFCFC;}
	.st6{fill:#FBFBFB;}
	.st7{fill:#FAFAFA;}
	.st8{fill:#F9F9F9;}
	.st9{fill:#F8F8F8;}
	.st10{fill:#F7F7F7;}
	.st11{fill:#F6F6F6;}
	.st12{fill:#F5F5F5;}
	.st13{fill:#F4F4F4;}
	.st14{fill:#F3F3F3;}
	.st15{fill:#F2F2F2;}
	.st16{fill:#F1F1F1;}
	.st17{fill:#F0F0F0;}
	.st18{fill:#EFEFEF;}
	.st19{fill:#EEEEEE;}
	.st20{fill:#EDEDED;}
	.st21{fill:#ECECEC;}
	.st22{fill:#EBEBEB;}
	.st23{fill:#EAEAEA;}
	.st24{fill:#E9E9E9;}
	.st25{fill:#E8E8E8;}
	.st26{fill:#E7E7E7;}
	.st27{fill:#E6E6E6;}
	.st28{fill:#E5E5E5;}
	.st29{fill:#E4E4E4;}
	.st30{fill:#E3E3E3;}
	.st31{fill:#E2E2E2;}
	.st32{fill:#E1E1E1;}
	.st33{fill:#E0E0E0;}
	.st34{fill:#DFDFDF;}
	.st35{fill:#DEDEDE;}
	.st36{fill:#DDDDDD;}
	.st37{fill:#DCDCDC;}
	.st38{fill:#DBDBDB;}
	.st39{fill:#DADADA;}
	.st40{fill:#D9D9D9;}
	.st41{fill:#D8D8D8;}
	.st42{fill:#D7D7D7;}
	.st43{fill:#D6D6D6;}
	.st44{fill:#D5D5D5;}
	.st45{fill:#D4D4D4;}
	.st46{fill:#D3D3D3;}
	.st47{fill:#D2D2D2;}
	.st48{fill:#D1D1D1;}
	.st49{fill:#D0D0D0;}
	.st50{fill:#CFCFCF;}
	.st51{fill:#CECECE;}
	.st52{fill:#CDCDCD;}
	.st53{fill:#CCCCCC;}
	.st54{fill:#CBCBCB;}
	.st55{fill:#CACACA;}
	.st56{fill:#C9C9C9;}
	.st57{fill:#C8C8C8;}
	.st58{fill:#C7C7C7;}
	.st59{fill:#C6C6C6;}
	.st60{fill:#C5C5C5;}
	.st61{fill:#C4C4C4;}
	.st62{fill:#C3C3C3;}
	.st63{fill:#C2C2C2;}
	.st64{fill:#C1C1C1;}
	.st65{fill:#C0C0C0;}
	.st66{fill:#BFBFBF;}
	.st67{fill:#BEBEBE;}
	.st68{fill:#BDBDBD;}
	.st69{fill:#BCBCBC;}
	.st70{fill:#BBBBBB;}
	.st71{fill:#BABABA;}
	.st72{fill:#B9B9B9;}
	.st73{fill:#B8B8B8;}
	.st74{fill:#B7B7B7;}
	.st75{fill:#B6B6B6;}
	.st76{fill:#B5B5B5;}
	.st77{fill:#B4B4B4;}
	.st78{fill:#B3B3B3;}
</style>
<g>
	<g>
		<g>
			<path class="st0" d="M318,172.7l31,17.9v35.8l-31,17.9l-31-17.9v-35.8L318,172.7z M347.9,191.1L318,173.9l-29.9,17.3v34.5
				l29.9,17.3l29.9-17.3V191.1z"/>
		</g>
		<g>
			<path class="st0" d="M257.2,172.7l31,17.9v35.8l-31,17.9l-31-17.9v-35.8L257.2,172.7z M287.1,191.1l-29.9-17.3l-29.9,17.3v34.5
				l29.9,17.3l29.9-17.3V191.1z"/>
		</g>
		<g>
			<path class="st0" d="M196.3,172.7l31,17.9v35.8l-31,17.9l-31-17.9v-35.8L196.3,172.7z M226.2,191.1l-29.9-17.3l-29.9,17.3v34.5
				l29.9,17.3l29.9-17.3V191.1z"/>
		</g>
		<g>
			<path class="st0" d="M470.2,119.9l31,17.9v35.8l-31,17.9l-31-17.9v-35.8L470.2,119.9z M500.1,138.4l-29.9-17.3l-29.9,17.3V173
				l29.9,17.3l29.9-17.3V138.4z"/>
		</g>
		<g>
			<path class="st0" d="M409.3,119.9l31,17.9v35.8l-31,17.9l-31-17.9v-35.8L409.3,119.9z M439.2,138.4l-29.9-17.3l-29.9,17.3V173
				l29.9,17.3l29.9-17.3V138.4z"/>
		</g>
		<g>
			<path class="st0" d="M348.5,119.9l31,17.9v35.8l-31,17.9l-31-17.9v-35.8L348.5,119.9z M378.4,138.4l-29.9-17.3l-29.9,17.3V173
				l29.9,17.3l29.9-17.3V138.4z"/>
		</g>
		<g>
			<path class="st0" d="M287.6,119.9l31,17.9v35.8l-31,17.9l-31-17.9v-35.8L287.6,119.9z M317.5,138.4l-29.9-17.3l-29.9,17.3V173
				l29.9,17.3l29.9-17.3V138.4z"/>
		</g>
		<g>
			<path class="st0" d="M226.7,119.9l31,17.9v35.8l-31,17.9l-31-17.9v-35.8L226.7,119.9z M256.6,138.4l-29.9-17.3l-29.9,17.3V173
				l29.9,17.3l29.9-17.3V138.4z"/>
		</g>
		<g>
			<path class="st0" d="M439.8,67.2l31,17.9v35.8l-31,17.9l-31-17.9V85.1L439.8,67.2z M469.7,85.7l-29.9-17.3l-29.9,17.3v34.5
				l29.9,17.3l29.9-17.3V85.7z"/>
		</g>
		<g>
			<path class="st0" d="M378.9,67.2l31,17.9v35.8l-31,17.9l-31-17.9V85.1L378.9,67.2z M408.8,85.7l-29.9-17.3L349,85.7v34.5
				l29.9,17.3l29.9-17.3V85.7z"/>
		</g>
		<g>
			<path class="st0" d="M257.2,67.2l31,17.9v35.8l-31,17.9l-31-17.9V85.1L257.2,67.2z M287.1,85.7l-29.9-17.3l-29.9,17.3v34.5
				l29.9,17.3l29.9-17.3V85.7z"/>
		</g>
		<g>
			<path class="st0" d="M409.3,14.5l31,17.9v35.8l-31,17.9l-31-17.9V32.4L409.3,14.5z M439.2,33l-29.9-17.3L379.4,33v34.5l29.9,17.3
				l29.9-17.3V33z"/>
		</g>
	</g>
	<g>
		<defs>
			<rect id="SVGID_1_" width="504" height="288"/>
		</defs>
		<clipPath id="SVGID_00000182488729081081071470000014158324864803928486_">
			<use xlink:href="#SVGID_1_"  style="overflow:visible;"/>
		</clipPath>
		<g style="clip-path:url(#SVGID_00000182488729081081071470000014158324864803928486_);">
			<g>
				<path class="st2" d="M467.4,256.9l-41.5,24l-41.5-24v-48l18-10.4l23.5-13.6l41.5,24V256.9z M362.8,195.6l-20.8-12v-48l20.8-12
					l20.8-12l41.5,24v48l-20.8,12l-20.8,12L362.8,195.6z M468.8,256.1v-48.1l-42.3-24.4v-48.8l-42.3-24.4V61.6l-43-24.8l-43,24.8
					v48.8L256,134.8v48.8l-42.3,24.4v48.3H-72.9v1.4h286.7l42.9,24.8l42.3-24.4l42.3,24.4l42.3-24.4l42.3,24.4l43-24.8v-0.1h62.9
					v-1.4H468.8z M299.8,62.5l41.5-24l41.5,24v48l-12.7,7.4l-28.8,16.6l-31.1-18l-10.4-6V62.5z M298.3,256.9l-41.5,24l-41.5-24v-48
					l41.5-24l23.5,13.6l18,10.4V256.9z M278.3,195.6l-20.8-12v-48l41.5-24l23.6,13.7l17.9,10.3v48L322.7,194L299,207.6L278.3,195.6z
					 M382.8,256.9l-41.5,24l-41.5-24v-48l10.4-6l31.1-18l28.8,16.6l12.7,7.4V256.9z"/>
				<path class="st3" d="M467.6,256.6l-41.5,24l-41.5-24v-48l18-10.4l23.5-13.6l41.5,24V256.6z M363,195.4l-20.8-12v-48l20.8-12
					l20.8-12l41.5,24v48l-20.8,12l-20.8,12L363,195.4z M469,255.9v-48.1l-42.3-24.4v-48.8l-42.3-24.4V61.4l-43-24.8l-43,24.8v48.8
					l-42.3,24.4v48.8L214,207.8v48.3H-72.6v1.4h286.7l42.9,24.8l42.3-24.4l42.3,24.4l42.3-24.4l42.3,24.4l43-24.8v-0.1h62.9v-1.4
					H469z M300,62.3l41.5-24l41.5,24v48l-12.7,7.4l-28.8,16.6l-31.1-18l-10.4-6V62.3z M298.5,256.6l-41.5,24l-41.5-24v-48l41.5-24
					l23.5,13.6l18,10.4V256.6z M278.5,195.4l-20.8-12v-48l41.5-24l23.6,13.7l17.9,10.3v48l-17.9,10.3l-23.6,13.7L278.5,195.4z
					 M383,256.6l-41.5,24l-41.5-24v-48l10.4-6l31.1-18l28.8,16.6l12.7,7.4V256.6z"/>
				<path class="st4" d="M467.8,256.4l-41.5,24l-41.5-24v-48l18-10.4l23.5-13.6l41.5,24V256.4z M363.2,195.2l-20.8-12v-48l20.8-12
					l20.8-12l41.5,24v48l-20.8,12l-20.8,12L363.2,195.2z M469.3,255.7v-48.1L427,183.2v-48.8L384.7,110V61.2l-43-24.8l-43,24.8V110
					l-42.3,24.4v48.8l-42.3,24.4v48.3H-72.4v1.4h286.7l42.9,24.8l42.3-24.4l42.3,24.4l42.3-24.4l42.3,24.4l43-24.8v-0.1h62.9v-1.4
					H469.3z M300.2,62.1l41.5-24l41.5,24v48l-12.7,7.4L341.7,134l-31.1-18l-10.4-6V62.1z M298.7,256.4l-41.5,24l-41.5-24v-48
					l41.5-24l23.5,13.6l18,10.4V256.4z M278.7,195.2l-20.8-12v-48l41.5-24l23.6,13.7l17.9,10.3v48l-17.9,10.3l-23.6,13.7
					L278.7,195.2z M383.3,256.4l-41.5,24l-41.5-24v-48l10.4-6l31.1-18l28.8,16.6l12.7,7.4V256.4z"/>
				<path class="st5" d="M468,256.2l-41.5,24l-41.5-24v-48l18-10.4l23.5-13.6l41.5,24V256.2z M363.4,195l-20.8-12v-48l20.8-12
					l20.8-12l41.5,24v48L405,195l-20.8,12L363.4,195z M469.5,255.5v-48.1L427.2,183v-48.8l-42.3-24.4V61l-43-24.8l-43,24.8v48.8
					l-42.3,24.4V183l-42.3,24.4v48.3H-72.2v1.4h286.7l42.9,24.8l42.3-24.4l42.3,24.4l42.3-24.4l42.3,24.4l43-24.8v-0.1h62.9v-1.4
					H469.5z M300.4,61.8l41.5-24l41.5,24v48l-12.7,7.4l-28.8,16.6l-31.1-18l-10.4-6V61.8z M298.9,256.2l-41.5,24l-41.5-24v-48
					l41.5-24l23.5,13.6l18,10.4V256.2z M278.9,195l-20.8-12v-48l41.5-24l23.6,13.7l17.9,10.3v48l-17.9,10.3L299.7,207L278.9,195z
					 M383.5,256.2l-41.5,24l-41.5-24v-48l10.4-6l31.1-18l28.8,16.6l12.7,7.4V256.2z"/>
				<path class="st6" d="M468.2,256l-41.5,24l-41.5-24v-48l18-10.4l23.5-13.6l41.5,24V256z M363.7,194.8l-20.8-12v-48l20.8-12
					l20.8-12l41.5,24v48l-20.8,12l-20.8,12L363.7,194.8z M469.7,255.3v-48.1l-42.3-24.4V134l-42.3-24.4V60.8l-43-24.8l-43,24.8v48.8
					L256.9,134v48.8l-42.3,24.4v48.3H-72v1.4h286.7l42.9,24.8l42.3-24.4l42.3,24.4l42.3-24.4l42.3,24.4l43-24.8v-0.1h62.9v-1.4
					H469.7z M300.6,61.6l41.5-24l41.5,24v48l-12.7,7.4l-28.8,16.6l-31.1-18l-10.4-6V61.6z M299.2,256l-41.5,24l-41.5-24v-48l41.5-24
					l23.5,13.6l18,10.4V256z M279.1,194.8l-20.8-12v-48l41.5-24l23.6,13.7l17.9,10.3v48l-17.9,10.3l-23.6,13.7L279.1,194.8z
					 M383.7,256l-41.5,24l-41.5-24v-48l10.4-6l31.1-18l28.8,16.6l12.7,7.4V256z"/>
				<path class="st7" d="M468.4,255.8l-41.5,24l-41.5-24v-48l18-10.4l23.5-13.6l41.5,24V255.8z M363.9,194.5l-20.8-12v-48l20.8-12
					l20.8-12l41.5,24v48l-20.8,12l-20.8,12L363.9,194.5z M469.9,255.1V207l-42.3-24.4v-48.8l-42.3-24.4V60.6l-43-24.8l-43,24.8v48.8
					l-42.3,24.4v48.8L214.9,207v48.3H-71.8v1.4H215l42.9,24.8l42.3-24.4l42.3,24.4l42.3-24.4l42.3,24.4l43-24.8v-0.1h62.9v-1.4
					H469.9z M300.9,61.4l41.5-24l41.5,24v48l-12.7,7.4l-28.8,16.6l-31.1-18l-10.4-6V61.4z M299.4,255.8l-41.5,24l-41.5-24v-48
					l41.5-24l23.5,13.6l18,10.4V255.8z M279.4,194.5l-20.8-12v-48l41.5-24l23.6,13.7l17.9,10.3v48l-17.9,10.3l-23.6,13.7
					L279.4,194.5z M383.9,255.8l-41.5,24l-41.5-24v-48l10.4-6l31.1-18l28.8,16.6l12.7,7.4V255.8z"/>
				<path class="st8" d="M468.7,255.5l-41.5,24l-41.5-24v-48l18-10.4l23.5-13.6l41.5,24V255.5z M364.1,194.3l-20.8-12v-48l20.8-12
					l20.8-12l41.5,24v48l-20.8,12l-20.8,12L364.1,194.3z M470.1,254.8v-48.1l-42.3-24.4v-48.8l-42.3-24.4V60.3l-43-24.8l-43,24.8
					v48.8l-42.3,24.4v48.8l-42.3,24.4V255H-71.5v1.4h286.7l42.9,24.8l42.3-24.4l42.3,24.4l42.3-24.4l42.3,24.4l43-24.8v-0.1H533
					v-1.4H470.1z M301.1,61.2l41.5-24l41.5,24v48l-12.7,7.4l-28.8,16.6l-31.1-18l-10.4-6V61.2z M299.6,255.5l-41.5,24l-41.5-24v-48
					l41.5-24l23.5,13.6l18,10.4V255.5z M279.6,194.3l-20.8-12v-48l41.5-24l23.6,13.7l17.9,10.3v48L324,192.7l-23.6,13.7L279.6,194.3
					z M384.1,255.5l-41.5,24l-41.5-24v-48l10.4-6l31.1-18l28.8,16.6l12.7,7.4V255.5z"/>
				<path class="st9" d="M468.9,255.3l-41.5,24l-41.5-24v-48l18-10.4l23.5-13.6l41.5,24V255.3z M364.3,194.1l-20.8-12v-48l20.8-12
					l20.8-12l41.5,24v48l-20.8,12l-20.8,12L364.3,194.1z M470.3,254.6v-48.1l-42.3-24.4v-48.8l-42.3-24.4V60.1l-43-24.8l-43,24.8
					v48.8l-42.3,24.4v48.8l-42.3,24.4v48.3H-71.3v1.4h286.7l42.9,24.8l42.3-24.4l42.3,24.4l42.3-24.4l42.3,24.4l43-24.8V256h62.9
					v-1.4H470.3z M301.3,61l41.5-24l41.5,24v48l-12.7,7.4l-28.8,16.6l-31.1-18l-10.4-6V61z M299.8,255.3l-41.5,24l-41.5-24v-48
					l41.5-24l23.5,13.6l18,10.4V255.3z M279.8,194.1l-20.8-12v-48l41.5-24l23.6,13.7l17.9,10.3v48l-17.9,10.3l-23.6,13.7
					L279.8,194.1z M384.4,255.3l-41.5,24l-41.5-24v-48l10.4-6l31.1-18l28.8,16.6l12.7,7.4V255.3z"/>
				<path class="st10" d="M469.1,255.1l-41.5,24l-41.5-24v-48l18-10.4l23.5-13.6l41.5,24V255.1z M364.5,193.9l-20.8-12v-48l20.8-12
					l20.8-12l41.5,24v48l-20.8,12l-20.8,12L364.5,193.9z M470.6,254.4v-48.1l-42.3-24.4v-48.8L386,108.7V59.9l-43-24.8l-43,24.8
					v48.8l-42.3,24.4v48.8l-42.3,24.4v48.3H-71.1v1.4h286.7l42.9,24.8l42.3-24.4l42.3,24.4l42.3-24.4l42.3,24.4l43-24.8v-0.1h62.9
					v-1.4H470.6z M301.5,60.7l41.5-24l41.5,24v48l-12.7,7.4L343,132.7l-31.1-18l-10.4-6V60.7z M300,255.1l-41.5,24l-41.5-24v-48
					l41.5-24l23.5,13.6l18,10.4V255.1z M280,193.9l-20.8-12v-48l41.5-24l23.6,13.7l17.9,10.3v48l-17.9,10.3l-23.6,13.7L280,193.9z
					 M384.6,255.1l-41.5,24l-41.5-24v-48l10.4-6l31.1-18l28.8,16.6l12.7,7.4V255.1z"/>
				<path class="st11" d="M469.3,254.9l-41.5,24l-41.5-24v-48l18-10.4l23.5-13.6l41.5,24V254.9z M364.8,193.7l-20.8-12v-48l20.8-12
					l20.8-12l41.5,24v48l-20.8,12l-20.8,12L364.8,193.7z M470.8,254.2v-48.1l-42.3-24.4v-48.8l-42.3-24.4V59.7l-43-24.8l-43,24.8
					v48.8L258,132.9v48.8l-42.3,24.4v48.3H-70.9v1.4h286.7l42.9,24.8l42.3-24.4l42.3,24.4l42.3-24.4l42.3,24.4l43-24.8v-0.1h62.9
					v-1.4H470.8z M301.7,60.5l41.5-24l41.5,24v48l-12.7,7.4l-28.8,16.6l-31.1-18l-10.4-6V60.5z M300.3,254.9l-41.5,24l-41.5-24v-48
					l41.5-24l23.5,13.6l18,10.4V254.9z M280.2,193.7l-20.8-12v-48l41.5-24l23.6,13.7l17.9,10.3v48L324.6,192L301,205.7L280.2,193.7z
					 M384.8,254.9l-41.5,24l-41.5-24v-48l10.4-6l31.1-18l28.8,16.6l12.7,7.4V254.9z"/>
				<path class="st12" d="M469.5,254.7l-41.5,24l-41.5-24v-48l18-10.4l23.5-13.6l41.5,24V254.7z M365,193.5l-20.8-12v-48l20.8-12
					l20.8-12l41.5,24v48l-20.8,12l-20.8,12L365,193.5z M471,254v-48.1l-42.3-24.4v-48.8l-42.3-24.4V59.5l-43-24.8l-43,24.8v48.8
					l-42.3,24.4v48.8l-42.3,24.4v48.3H-70.7v1.4h286.7l42.9,24.8l42.3-24.4l42.3,24.4l42.3-24.4l42.3,24.4l43-24.8v-0.1h62.9V254
					H471z M301.9,60.3l41.5-24l41.5,24v48l-12.7,7.4l-28.8,16.6l-31.1-18l-10.4-6V60.3z M300.5,254.7l-41.5,24l-41.5-24v-48l41.5-24
					l23.5,13.6l18,10.4V254.7z M280.4,193.5l-20.8-12v-48l41.5-24l23.6,13.7l17.9,10.3v48l-17.9,10.3l-23.6,13.7L280.4,193.5z
					 M385,254.7l-41.5,24l-41.5-24v-48l10.4-6l31.1-18l28.8,16.6l12.7,7.4V254.7z"/>
				<path class="st13" d="M469.8,254.5l-41.5,24l-41.5-24v-48l18-10.4l23.5-13.6l41.5,24V254.5z M365.2,193.2l-20.8-12v-48l20.8-12
					l20.8-12l41.5,24v48l-20.8,12l-20.8,12L365.2,193.2z M471.2,253.7v-48.1L429,181.2v-48.8L386.7,108V59.2l-43-24.8l-43,24.8V108
					l-42.3,24.4v48.8l-42.3,24.4v48.3H-70.4v1.4h286.7l42.9,24.8l42.3-24.4l42.3,24.4l42.3-24.4l42.3,24.4l43-24.8v-0.1h62.9v-1.4
					H471.2z M302.2,60.1l41.5-24l41.5,24v48l-12.7,7.4L343.7,132l-31.1-18l-10.4-6V60.1z M300.7,254.5l-41.5,24l-41.5-24v-48
					l41.5-24l23.5,13.6l18,10.4V254.5z M280.7,193.2l-20.8-12v-48l41.5-24l23.6,13.7l17.9,10.3v48l-17.9,10.3l-23.6,13.7
					L280.7,193.2z M385.2,254.5l-41.5,24l-41.5-24v-48l10.4-6l31.1-18l28.8,16.6l12.7,7.4V254.5z"/>
				<path class="st14" d="M470,254.2l-41.5,24l-41.5-24v-48l18-10.4l23.5-13.6l41.5,24V254.2z M365.4,193l-20.8-12v-48l20.8-12
					l20.8-12l41.5,24v48l-20.8,12l-20.8,12L365.4,193z M471.4,253.5v-48.1L429.2,181v-48.8l-42.3-24.4V59l-43-24.8l-43,24.8v48.8
					l-42.3,24.4V181l-42.3,24.4v48.3H-70.2v1.4h286.7l42.9,24.8l42.3-24.4l42.3,24.4l42.3-24.4l42.3,24.4l43-24.8v-0.1h62.9v-1.4
					H471.4z M302.4,59.9l41.5-24l41.5,24v48l-12.7,7.4l-28.8,16.6l-31.1-18l-10.4-6V59.9z M300.9,254.2l-41.5,24l-41.5-24v-48
					l41.5-24l23.5,13.6l18,10.4V254.2z M280.9,193l-20.8-12v-48l41.5-24l23.6,13.7l17.9,10.3v48l-17.9,10.3L301.6,205L280.9,193z
					 M385.4,254.2l-41.5,24l-41.5-24v-48l10.4-6l31.1-18l28.8,16.6l12.7,7.4V254.2z"/>
				<path class="st15" d="M470.2,254l-41.5,24l-41.5-24v-48l18-10.4l23.5-13.6l41.5,24V254z M365.6,192.8l-20.8-12v-48l20.8-12
					l20.8-12l41.5,24v48l-20.8,12l-20.8,12L365.6,192.8z M471.7,253.3v-48.1l-42.3-24.4V132l-42.3-24.4V58.8l-43-24.8l-43,24.8v48.8
					L258.9,132v48.8l-42.3,24.4v48.3H-70v1.4h286.7l42.9,24.8l42.3-24.4l42.3,24.4l42.3-24.4l42.3,24.4l43-24.8v-0.1h62.9v-1.4
					H471.7z M302.6,59.7l41.5-24l41.5,24v48l-12.7,7.4l-28.8,16.6l-31.1-18l-10.4-6V59.7z M301.1,254l-41.5,24l-41.5-24v-48l41.5-24
					l23.5,13.6l18,10.4V254z M281.1,192.8l-20.8-12v-48l41.5-24l23.6,13.7l17.9,10.3v48l-17.9,10.3l-23.6,13.7L281.1,192.8z
					 M385.7,254l-41.5,24l-41.5-24v-48l10.4-6l31.1-18l28.8,16.6l12.7,7.4V254z"/>
				<path class="st16" d="M470.4,253.8l-41.5,24l-41.5-24v-48l18-10.4l23.5-13.6l41.5,24V253.8z M365.8,192.6l-20.8-12v-48l20.8-12
					l20.8-12l41.5,24v48l-20.8,12l-20.8,12L365.8,192.6z M471.9,253.1V205l-42.3-24.4v-48.8l-42.3-24.4V58.6l-43-24.8l-43,24.8v48.8
					l-42.3,24.4v48.8L216.8,205v48.3H-69.8v1.4h286.7l42.9,24.8l42.3-24.4l42.3,24.4l42.3-24.4l42.3,24.4l43-24.8v-0.1h62.9v-1.4
					H471.9z M302.8,59.4l41.5-24l41.5,24v48l-12.7,7.4l-28.8,16.6l-31.1-18l-10.4-6V59.4z M301.4,253.8l-41.5,24l-41.5-24v-48
					l41.5-24l23.5,13.6l18,10.4V253.8z M281.3,192.6l-20.8-12v-48l41.5-24l23.6,13.7l17.9,10.3v48l-17.9,10.3l-23.6,13.7
					L281.3,192.6z M385.9,253.8l-41.5,24l-41.5-24v-48l10.4-6l31.1-18l28.8,16.6l12.7,7.4V253.8z"/>
				<path class="st17" d="M470.6,253.6l-41.5,24l-41.5-24v-48l18-10.4l23.5-13.6l41.5,24V253.6z M366.1,192.4l-20.8-12v-48l20.8-12
					l20.8-12l41.5,24v48l-20.8,12l-20.8,12L366.1,192.4z M472.1,252.9v-48.1l-42.3-24.4v-48.8l-42.3-24.4V58.4l-43-24.8l-43,24.8
					v48.8l-42.3,24.4v48.8L217,204.8v48.3H-69.6v1.4h286.7l42.9,24.8l42.3-24.4l42.3,24.4l42.3-24.4l42.3,24.4l43-24.8v-0.1H535
					v-1.4H472.1z M303,59.2l41.5-24l41.5,24v48l-12.7,7.4l-28.8,16.6l-31.1-18l-10.4-6V59.2z M301.6,253.6l-41.5,24l-41.5-24v-48
					l41.5-24l23.5,13.6l18,10.4V253.6z M281.5,192.4l-20.8-12v-48l41.5-24l23.6,13.7l17.9,10.3v48l-17.9,10.3l-23.6,13.7
					L281.5,192.4z M386.1,253.6l-41.5,24l-41.5-24v-48l10.4-6l31.1-18l28.8,16.6l12.7,7.4V253.6z"/>
				<path class="st18" d="M470.8,253.4l-41.5,24l-41.5-24v-48l18-10.4l23.5-13.6l41.5,24V253.4z M366.3,192.1l-20.8-12v-48l20.8-12
					l20.8-12l41.5,24v48l-20.8,12l-20.8,12L366.3,192.1z M472.3,252.6v-48.1L430,180.2v-48.8L387.8,107V58.2l-43-24.8l-43,24.8V107
					l-42.3,24.4v48.8l-42.3,24.4v48.3H-69.4v1.4h286.7l42.9,24.8l42.3-24.4l42.3,24.4l42.3-24.4l42.3,24.4l43-24.8v-0.1h62.9v-1.4
					H472.3z M303.3,59l41.5-24l41.5,24v48l-12.7,7.4l-28.8,16.6l-31.1-18l-10.4-6V59z M301.8,253.4l-41.5,24l-41.5-24v-48l41.5-24
					l23.5,13.6l18,10.4V253.4z M281.8,192.1l-20.8-12v-48l41.5-24l23.6,13.7l17.9,10.3v48l-17.9,10.3l-23.6,13.7L281.8,192.1z
					 M386.3,253.4l-41.5,24l-41.5-24v-48l10.4-6l31.1-18l28.8,16.6l12.7,7.4V253.4z"/>
				<path class="st19" d="M471.1,253.1l-41.5,24l-41.5-24v-48l18-10.4l23.5-13.6l41.5,24V253.1z M366.5,191.9l-20.8-12v-48l20.8-12
					l20.8-12l41.5,24v48l-20.8,12l-20.8,12L366.5,191.9z M472.5,252.4v-48.1l-42.3-24.4v-48.8L388,106.7V57.9l-43-24.8l-43,24.8
					v48.8l-42.3,24.4v48.8l-42.3,24.4v48.3H-69.1v1.4h286.7l42.9,24.8l42.3-24.4l42.3,24.4l42.3-24.4l42.3,24.4l43-24.8v-0.1h62.9
					v-1.4H472.5z M303.5,58.8l41.5-24l41.5,24v48l-12.7,7.4L345,130.7l-31.1-18l-10.4-6V58.8z M302,253.1l-41.5,24l-41.5-24v-48
					l41.5-24l23.5,13.6l18,10.4V253.1z M282,191.9l-20.8-12v-48l41.5-24l23.6,13.7l17.9,10.3v48l-17.9,10.3l-23.6,13.7L282,191.9z
					 M386.5,253.1l-41.5,24l-41.5-24v-48l10.4-6l31.1-18l28.8,16.6l12.7,7.4V253.1z"/>
				<path class="st20" d="M471.3,252.9l-41.5,24l-41.5-24v-48l18-10.4l23.5-13.6l41.5,24V252.9z M366.7,191.7l-20.8-12v-48l20.8-12
					l20.8-12l41.5,24v48l-20.8,12l-20.8,12L366.7,191.7z M472.7,252.2v-48.1l-42.3-24.4v-48.8l-42.3-24.4V57.7l-43-24.8l-43,24.8
					v48.8L260,130.9v48.8l-42.3,24.4v48.3H-68.9v1.4h286.7l42.9,24.8l42.3-24.4l42.3,24.4l42.3-24.4l42.3,24.4l43-24.8v-0.1h62.9
					v-1.4H472.7z M303.7,58.6l41.5-24l41.5,24v48l-12.7,7.4l-28.8,16.6l-31.1-18l-10.4-6V58.6z M302.2,252.9l-41.5,24l-41.5-24v-48
					l41.5-24l23.5,13.6l18,10.4V252.9z M282.2,191.7l-20.8-12v-48l41.5-24l23.6,13.7l17.9,10.3v48L326.6,190L303,203.7L282.2,191.7z
					 M386.8,252.9l-41.5,24l-41.5-24v-48l10.4-6l31.1-18l28.8,16.6l12.7,7.4V252.9z"/>
				<path class="st21" d="M471.5,252.7l-41.5,24l-41.5-24v-48l18-10.4l23.5-13.6l41.5,24V252.7z M366.9,191.5l-20.8-12v-48l20.8-12
					l20.8-12l41.5,24v48l-20.8,12l-20.8,12L366.9,191.5z M473,252v-48.1l-42.3-24.4v-48.8l-42.3-24.4V57.5l-43-24.8l-43,24.8v48.8
					l-42.3,24.4v48.8l-42.3,24.4v48.3H-68.7v1.4H218l42.9,24.8l42.3-24.4l42.3,24.4l42.3-24.4l42.3,24.4l43-24.8v-0.1h62.9V252H473z
					 M303.9,58.3l41.5-24l41.5,24v48l-12.7,7.4l-28.8,16.6l-31.1-18l-10.4-6V58.3z M302.4,252.7l-41.5,24l-41.5-24v-48l41.5-24
					l23.5,13.6l18,10.4V252.7z M282.4,191.5l-20.8-12v-48l41.5-24l23.6,13.7l17.9,10.3v48l-17.9,10.3l-23.6,13.7L282.4,191.5z
					 M387,252.7l-41.5,24l-41.5-24v-48l10.4-6l31.1-18l28.8,16.6l12.7,7.4V252.7z"/>
				<path class="st22" d="M471.7,252.5l-41.5,24l-41.5-24v-48l18-10.4l23.5-13.6l41.5,24V252.5z M367.2,191.3l-20.8-12v-48l20.8-12
					l20.8-12l41.5,24v48l-20.8,12l-20.8,12L367.2,191.3z M473.2,251.8v-48.1l-42.3-24.4v-48.8l-42.3-24.4V57.3l-43-24.8l-43,24.8
					v48.8l-42.3,24.4v48.8l-42.3,24.4V252H-68.5v1.4h286.7l42.9,24.8l42.3-24.4l42.3,24.4l42.3-24.4l42.3,24.4l43-24.8v-0.1h62.9
					v-1.4H473.2z M304.1,58.1l41.5-24l41.5,24v48l-12.7,7.4l-28.8,16.6l-31.1-18l-10.4-6V58.1z M302.7,252.5l-41.5,24l-41.5-24v-48
					l41.5-24l23.5,13.6l18,10.4V252.5z M282.6,191.3l-20.8-12v-48l41.5-24L327,121l17.9,10.3v48L327,189.6l-23.6,13.7L282.6,191.3z
					 M387.2,252.5l-41.5,24l-41.5-24v-48l10.4-6l31.1-18l28.8,16.6l12.7,7.4V252.5z"/>
				<path class="st23" d="M471.9,252.3l-41.5,24l-41.5-24v-48l18-10.4l23.5-13.6l41.5,24V252.3z M367.4,191.1l-20.8-12v-48l20.8-12
					l20.8-12l41.5,24v48l-20.8,12l-20.8,12L367.4,191.1z M473.4,251.6v-48.1l-42.3-24.4v-48.8l-42.3-24.4V57.1l-43-24.8l-43,24.8
					v48.8l-42.3,24.4v48.8l-42.3,24.4v48.3H-68.3v1.4h286.7l42.9,24.8l42.3-24.4l42.3,24.4l42.3-24.4l42.3,24.4l43-24.8V253h62.9
					v-1.4H473.4z M304.3,57.9l41.5-24l41.5,24v48l-12.7,7.4l-28.8,16.6l-31.1-18l-10.4-6V57.9z M302.9,252.3l-41.5,24l-41.5-24v-48
					l41.5-24l23.5,13.6l18,10.4V252.3z M282.8,191.1l-20.8-12v-48l41.5-24l23.6,13.7l17.9,10.3v48l-17.9,10.3L303.6,203L282.8,191.1
					z M387.4,252.3l-41.5,24l-41.5-24v-48l10.4-6l31.1-18l28.8,16.6l12.7,7.4V252.3z"/>
				<path class="st24" d="M472.2,252.1l-41.5,24l-41.5-24v-48l18-10.4l23.5-13.6l41.5,24V252.1z M367.6,190.8l-20.8-12v-48l20.8-12
					l20.8-12l41.5,24v48l-20.8,12l-20.8,12L367.6,190.8z M473.6,251.3v-48.1l-42.3-24.4V130l-42.3-24.4V56.8l-43-24.8l-43,24.8v48.8
					L260.8,130v48.8l-42.3,24.4v48.3H-68v1.4h286.7l42.9,24.8l42.3-24.4l42.3,24.4l42.3-24.4l42.3,24.4l43-24.8v-0.1h62.9v-1.4
					H473.6z M304.6,57.7l41.5-24l41.5,24v48l-12.7,7.4l-28.8,16.6l-31.1-18l-10.4-6V57.7z M303.1,252.1l-41.5,24l-41.5-24v-48
					l41.5-24l23.5,13.6l18,10.4V252.1z M283.1,190.8l-20.8-12v-48l41.5-24l23.6,13.7l17.9,10.3v48l-17.9,10.3l-23.6,13.7
					L283.1,190.8z M387.6,252.1l-41.5,24l-41.5-24v-48l10.4-6l31.1-18l28.8,16.6l12.7,7.4V252.1z"/>
				<path class="st25" d="M472.4,251.8l-41.5,24l-41.5-24v-48l18-10.4l23.5-13.6l41.5,24V251.8z M367.8,190.6l-20.8-12v-48l20.8-12
					l20.8-12l41.5,24v48l-20.8,12l-20.8,12L367.8,190.6z M473.8,251.1V203l-42.3-24.4v-48.8l-42.3-24.4V56.6l-43-24.8l-43,24.8v48.8
					l-42.3,24.4v48.8L218.8,203v48.3H-67.8v1.4h286.7l42.9,24.8l42.3-24.4l42.3,24.4l42.3-24.4l42.3,24.4l43-24.8v-0.1h62.9v-1.4
					H473.8z M304.8,57.5l41.5-24l41.5,24v48l-12.7,7.4l-28.8,16.6l-31.1-18l-10.4-6V57.5z M303.3,251.8l-41.5,24l-41.5-24v-48
					l41.5-24l23.5,13.6l18,10.4V251.8z M283.3,190.6l-20.8-12v-48l41.5-24l23.6,13.7l17.9,10.3v48L327.7,189L304,202.6L283.3,190.6z
					 M387.8,251.8l-41.5,24l-41.5-24v-48l10.4-6l31.1-18l28.8,16.6l12.7,7.4V251.8z"/>
				<path class="st26" d="M472.6,251.6l-41.5,24l-41.5-24v-48l18-10.4l23.5-13.6l41.5,24V251.6z M368,190.4l-20.8-12v-48l20.8-12
					l20.8-12l41.5,24v48l-20.8,12l-20.8,12L368,190.4z M474.1,250.9v-48.1l-42.3-24.4v-48.8l-42.3-24.4V56.4l-43-24.8l-43,24.8v48.8
					l-42.3,24.4v48.8L219,202.8v48.3H-67.6v1.4h286.7l42.9,24.8l42.3-24.4l42.3,24.4l42.3-24.4l42.3,24.4l43-24.8v-0.1h62.9v-1.4
					H474.1z M305,57.3l41.5-24l41.5,24v48l-12.7,7.4l-28.8,16.6l-31.1-18l-10.4-6V57.3z M303.5,251.6l-41.5,24l-41.5-24v-48l41.5-24
					l23.5,13.6l18,10.4V251.6z M283.5,190.4l-20.8-12v-48l41.5-24l23.6,13.7l17.9,10.3v48l-17.9,10.3l-23.6,13.7L283.5,190.4z
					 M388.1,251.6l-41.5,24l-41.5-24v-48l10.4-6l31.1-18l28.8,16.6l12.7,7.4V251.6z"/>
				<path class="st27" d="M472.8,251.4l-41.5,24l-41.5-24v-48l18-10.4l23.5-13.6l41.5,24V251.4z M368.2,190.2l-20.8-12v-48l20.8-12
					l20.8-12l41.5,24v48l-20.8,12l-20.8,12L368.2,190.2z M474.3,250.7v-48.1L432,178.2v-48.8L389.7,105V56.2l-43-24.8l-43,24.8V105
					l-42.3,24.4v48.8l-42.3,24.4v48.3H-67.4v1.4h286.7l42.9,24.8l42.3-24.4l42.3,24.4l42.3-24.4l42.3,24.4l43-24.8v-0.1h62.9v-1.4
					H474.3z M305.2,57l41.5-24l41.5,24v48l-12.7,7.4L346.8,129l-31.1-18l-10.4-6V57z M303.8,251.4l-41.5,24l-41.5-24v-48l41.5-24
					l23.5,13.6l18,10.4V251.4z M283.7,190.2l-20.8-12v-48l41.5-24l23.6,13.7l17.9,10.3v48l-17.9,10.3l-23.6,13.7L283.7,190.2z
					 M388.3,251.4l-41.5,24l-41.5-24v-48l10.4-6l31.1-18l28.8,16.6l12.7,7.4V251.4z"/>
				<path class="st28" d="M473,251.2l-41.5,24l-41.5-24v-48l18-10.4l23.5-13.6l41.5,24V251.2z M368.5,190l-20.8-12v-48l20.8-12
					l20.8-12l41.5,24v48L410,190l-20.8,12L368.5,190z M474.5,250.5v-48.1L432.2,178v-48.8L390,104.8V56l-43-24.8L304,56v48.8
					l-42.3,24.4V178l-42.3,24.4v48.3H-67.2v1.4h286.7l42.9,24.8l42.3-24.4l42.3,24.4l42.3-24.4l42.3,24.4l43-24.8v-0.1h62.9v-1.4
					H474.5z M305.4,56.8l41.5-24l41.5,24v48l-12.7,7.4L347,128.7l-31.1-18l-10.4-6V56.8z M304,251.2l-41.5,24l-41.5-24v-48l41.5-24
					l23.5,13.6l18,10.4V251.2z M283.9,190l-20.8-12v-48l41.5-24l23.6,13.7l17.9,10.3v48l-17.9,10.3L304.7,202L283.9,190z
					 M388.5,251.2l-41.5,24l-41.5-24v-48l10.4-6l31.1-18l28.8,16.6l12.7,7.4V251.2z"/>
				<path class="st29" d="M473.2,251l-41.5,24l-41.5-24v-48l18-10.4l23.5-13.6l41.5,24V251z M368.7,189.7l-20.8-12v-48l20.8-12
					l20.8-12l41.5,24v48l-20.8,12l-20.8,12L368.7,189.7z M474.7,250.2v-48.1l-42.3-24.4V129l-42.3-24.4V55.7l-43-24.8l-43,24.8v48.8
					L261.9,129v48.8l-42.3,24.4v48.3H-67v1.4h286.7l42.9,24.8l42.3-24.4l42.3,24.4l42.3-24.4l42.3,24.4l43-24.8v-0.1h62.9v-1.4
					H474.7z M305.7,56.6l41.5-24l41.5,24v48l-12.7,7.4l-28.8,16.6l-31.1-18l-10.4-6V56.6z M304.2,251l-41.5,24l-41.5-24v-48l41.5-24
					l23.5,13.6l18,10.4V251z M284.2,189.7l-20.8-12v-48l41.5-24l23.6,13.7l17.9,10.3v48l-17.9,10.3l-23.6,13.7L284.2,189.7z
					 M388.7,251l-41.5,24l-41.5-24v-48l10.4-6l31.1-18l28.8,16.6l12.7,7.4V251z"/>
				<path class="st30" d="M473.5,250.7l-41.5,24l-41.5-24v-48l18-10.4l23.5-13.6l41.5,24V250.7z M368.9,189.5l-20.8-12v-48l20.8-12
					l20.8-12l41.5,24v48l-20.8,12l-20.8,12L368.9,189.5z M474.9,250v-48.1l-42.3-24.4v-48.8l-42.3-24.4V55.5l-43-24.8l-43,24.8v48.8
					l-42.3,24.4v48.8l-42.3,24.4v48.3H-66.7v1.4H220l42.9,24.8l42.3-24.4l42.3,24.4l42.3-24.4l42.3,24.4l43-24.8v-0.1h62.9V250
					H474.9z M305.9,56.4l41.5-24l41.5,24v48l-12.7,7.4l-28.8,16.6l-31.1-18l-10.4-6V56.4z M304.4,250.7l-41.5,24l-41.5-24v-48
					l41.5-24l23.5,13.6l18,10.4V250.7z M284.4,189.5l-20.8-12v-48l41.5-24l23.6,13.7l17.9,10.3v48l-17.9,10.3l-23.6,13.7
					L284.4,189.5z M388.9,250.7l-41.5,24l-41.5-24v-48l10.4-6l31.1-18l28.8,16.6l12.7,7.4V250.7z"/>
				<path class="st31" d="M473.7,250.5l-41.5,24l-41.5-24v-48l18-10.4l23.5-13.6l41.5,24V250.5z M369.1,189.3l-20.8-12v-48l20.8-12
					l20.8-12l41.5,24v48l-20.8,12l-20.8,12L369.1,189.3z M475.2,249.8v-48.1l-42.3-24.4v-48.8l-42.3-24.4V55.3l-43-24.8l-43,24.8
					v48.8l-42.3,24.4v48.8l-42.3,24.4V250H-66.5v1.4h286.7l42.9,24.8l42.3-24.4l42.3,24.4l42.3-24.4l42.3,24.4l43-24.8v-0.1H538
					v-1.4H475.2z M306.1,56.2l41.5-24l41.5,24v48l-12.7,7.4l-28.8,16.6l-31.1-18l-10.4-6V56.2z M304.6,250.5l-41.5,24l-41.5-24v-48
					l41.5-24l23.5,13.6l18,10.4V250.5z M284.6,189.3l-20.8-12v-48l41.5-24L329,119l17.9,10.3v48L329,187.6l-23.6,13.7L284.6,189.3z
					 M389.2,250.5l-41.5,24l-41.5-24v-48l10.4-6l31.1-18l28.8,16.6l12.7,7.4V250.5z"/>
				<path class="st32" d="M473.9,250.3l-41.5,24l-41.5-24v-48l18-10.4l23.5-13.6l41.5,24V250.3z M369.3,189.1l-20.8-12v-48l20.8-12
					l20.8-12l41.5,24v48l-20.8,12l-20.8,12L369.3,189.1z M475.4,249.6v-48.1l-42.3-24.4v-48.8l-42.3-24.4V55.1l-43-24.8l-43,24.8
					v48.8l-42.3,24.4v48.8l-42.3,24.4v48.3H-66.3v1.4h286.7l42.9,24.8l42.3-24.4l42.3,24.4l42.3-24.4l42.3,24.4l43-24.8V251h62.9
					v-1.4H475.4z M306.3,55.9l41.5-24l41.5,24v48l-12.7,7.4l-28.8,16.6l-31.1-18l-10.4-6V55.9z M304.8,250.3l-41.5,24l-41.5-24v-48
					l41.5-24l23.5,13.6l18,10.4V250.3z M284.8,189.1l-20.8-12v-48l41.5-24l23.6,13.7l17.9,10.3v48l-17.9,10.3l-23.6,13.7
					L284.8,189.1z M389.4,250.3l-41.5,24l-41.5-24v-48l10.4-6l31.1-18l28.8,16.6l12.7,7.4V250.3z"/>
				<path class="st33" d="M474.1,250.1l-41.5,24l-41.5-24v-48l18-10.4l23.5-13.6l41.5,24V250.1z M369.6,188.9l-20.8-12v-48l20.8-12
					l20.8-12l41.5,24v48l-20.8,12l-20.8,12L369.6,188.9z M475.6,249.4v-48.1l-42.3-24.4v-48.8l-42.3-24.4V54.9l-43-24.8l-43,24.8
					v48.8l-42.3,24.4v48.8l-42.3,24.4v48.3H-66.1v1.4h286.7l42.9,24.8l42.3-24.4l42.3,24.4l42.3-24.4l42.3,24.4l43-24.8v-0.1h62.9
					v-1.4H475.6z M306.5,55.7l41.5-24l41.5,24v48l-12.7,7.4l-28.8,16.6l-31.1-18l-10.4-6V55.7z M305.1,250.1l-41.5,24l-41.5-24v-48
					l41.5-24l23.5,13.6l18,10.4V250.1z M285,188.9l-20.8-12v-48l41.5-24l23.6,13.7l17.9,10.3v48l-17.9,10.3l-23.6,13.7L285,188.9z
					 M389.6,250.1l-41.5,24l-41.5-24v-48l10.4-6l31.1-18l28.8,16.6l12.7,7.4V250.1z"/>
				<path class="st34" d="M474.3,249.9l-41.5,24l-41.5-24v-48l18-10.4l23.5-13.6l41.5,24V249.9z M369.8,188.7l-20.8-12v-48l20.8-12
					l20.8-12l41.5,24v48l-20.8,12l-20.8,12L369.8,188.7z M475.8,249.2v-48.1l-42.3-24.4v-48.8l-42.3-24.4V54.7l-43-24.8l-43,24.8
					v48.8L263,127.9v48.8l-42.3,24.4v48.3H-65.9v1.4h286.7l42.9,24.8l42.3-24.4l42.3,24.4l42.3-24.4l42.3,24.4l43-24.8v-0.1h62.9
					v-1.4H475.8z M306.7,55.5l41.5-24l41.5,24v48l-12.7,7.4l-28.8,16.6l-31.1-18l-10.4-6V55.5z M305.3,249.9l-41.5,24l-41.5-24v-48
					l41.5-24l23.5,13.6l18,10.4V249.9z M285.2,188.7l-20.8-12v-48l41.5-24l23.6,13.7l17.9,10.3v48L329.7,187L306,200.6L285.2,188.7z
					 M389.8,249.9l-41.5,24l-41.5-24v-48l10.4-6l31.1-18l28.8,16.6l12.7,7.4V249.9z"/>
				<path class="st35" d="M474.6,249.6l-41.5,24l-41.5-24v-48l18-10.4l23.5-13.6l41.5,24V249.6z M370,188.4l-20.8-12v-48l20.8-12
					l20.8-12l41.5,24v48l-20.8,12l-20.8,12L370,188.4z M476,248.9v-48.1l-42.3-24.4v-48.8l-42.3-24.4V54.4l-43-24.8l-43,24.8v48.8
					l-42.3,24.4v48.8L221,200.8v48.3H-65.6v1.4h286.7l42.9,24.8l42.3-24.4l42.3,24.4l42.3-24.4l42.3,24.4l43-24.8v-0.1h62.9v-1.4
					H476z M307,55.3l41.5-24l41.5,24v48l-12.7,7.4l-28.8,16.6l-31.1-18l-10.4-6V55.3z M305.5,249.6l-41.5,24l-41.5-24v-48l41.5-24
					l23.5,13.6l18,10.4V249.6z M285.5,188.4l-20.8-12v-48l41.5-24l23.6,13.7l17.9,10.3v48l-17.9,10.3l-23.6,13.7L285.5,188.4z
					 M390,249.6l-41.5,24l-41.5-24v-48l10.4-6l31.1-18l28.8,16.6l12.7,7.4V249.6z"/>
				<path class="st36" d="M474.8,249.4l-41.5,24l-41.5-24v-48l18-10.4l23.5-13.6l41.5,24V249.4z M370.2,188.2l-20.8-12v-48l20.8-12
					l20.8-12l41.5,24v48l-20.8,12l-20.8,12L370.2,188.2z M476.2,248.7v-48.1L434,176.2v-48.8L391.7,103V54.2l-43-24.8l-43,24.8V103
					l-42.3,24.4v48.8l-42.3,24.4v48.3H-65.4v1.4h286.7l42.9,24.8l42.3-24.4l42.3,24.4l42.3-24.4l42.3,24.4l43-24.8v-0.1h62.9v-1.4
					H476.2z M307.2,55.1l41.5-24l41.5,24v48l-12.7,7.4L348.7,127l-31.1-18l-10.4-6V55.1z M305.7,249.4l-41.5,24l-41.5-24v-48
					l41.5-24l23.5,13.6l18,10.4V249.4z M285.7,188.2l-20.8-12v-48l41.5-24l23.6,13.7l17.9,10.3v48l-17.9,10.3l-23.6,13.7
					L285.7,188.2z M390.2,249.4l-41.5,24l-41.5-24v-48l10.4-6l31.1-18l28.8,16.6l12.7,7.4V249.4z"/>
				<path class="st37" d="M475,249.2l-41.5,24l-41.5-24v-48l18-10.4l23.5-13.6l41.5,24V249.2z M370.4,188l-20.8-12v-48l20.8-12
					l20.8-12l41.5,24v48L412,188l-20.8,12L370.4,188z M476.5,248.5v-48.1L434.2,176v-48.8l-42.3-24.4V54l-43-24.8l-43,24.8v48.8
					l-42.3,24.4V176l-42.3,24.4v48.3H-65.2v1.4h286.7l42.9,24.8l42.3-24.4l42.3,24.4l42.3-24.4l42.3,24.4l43-24.8v-0.1h62.9v-1.4
					H476.5z M307.4,54.8l41.5-24l41.5,24v48l-12.7,7.4l-28.8,16.6l-31.1-18l-10.4-6V54.8z M305.9,249.2l-41.5,24l-41.5-24v-48
					l41.5-24l23.5,13.6l18,10.4V249.2z M285.9,188l-20.8-12v-48l41.5-24l23.6,13.7l17.9,10.3v48l-17.9,10.3L306.7,200L285.9,188z
					 M390.5,249.2l-41.5,24l-41.5-24v-48l10.4-6l31.1-18l28.8,16.6l12.7,7.4V249.2z"/>
				<path class="st38" d="M475.2,249l-41.5,24l-41.5-24v-48l18-10.4l23.5-13.6l41.5,24V249z M370.7,187.8l-20.8-12v-48l20.8-12
					l20.8-12l41.5,24v48l-20.8,12l-20.8,12L370.7,187.8z M476.7,248.3v-48.1l-42.3-24.4V127l-42.3-24.4V53.8l-43-24.8l-43,24.8v48.8
					L263.9,127v48.8l-42.3,24.4v48.3H-65v1.4h286.7l42.9,24.8l42.3-24.4l42.3,24.4l42.3-24.4l42.3,24.4l43-24.8v-0.1h62.9v-1.4
					H476.7z M307.6,54.6l41.5-24l41.5,24v48l-12.7,7.4l-28.8,16.6l-31.1-18l-10.4-6V54.6z M306.2,249l-41.5,24l-41.5-24v-48l41.5-24
					l23.5,13.6l18,10.4V249z M286.1,187.8l-20.8-12v-48l41.5-24l23.6,13.7l17.9,10.3v48l-17.9,10.3l-23.6,13.7L286.1,187.8z
					 M390.7,249l-41.5,24l-41.5-24v-48l10.4-6l31.1-18l28.8,16.6l12.7,7.4V249z"/>
				<path class="st39" d="M475.4,248.8l-41.5,24l-41.5-24v-48l18-10.4l23.5-13.6l41.5,24V248.8z M370.9,187.6l-20.8-12v-48l20.8-12
					l20.8-12l41.5,24v48l-20.8,12l-20.8,12L370.9,187.6z M476.9,248.1V200l-42.3-24.4v-48.8l-42.3-24.4V53.6l-43-24.8l-43,24.8v48.8
					l-42.3,24.4v48.8L221.8,200v48.3H-64.8v1.4H222l42.9,24.8l42.3-24.4l42.3,24.4l42.3-24.4l42.3,24.4l43-24.8v-0.1h62.9v-1.4
					H476.9z M307.8,54.4l41.5-24l41.5,24v48l-12.7,7.4l-28.8,16.6l-31.1-18l-10.4-6V54.4z M306.4,248.8l-41.5,24l-41.5-24v-48
					l41.5-24l23.5,13.6l18,10.4V248.8z M286.3,187.6l-20.8-12v-48l41.5-24l23.6,13.7l17.9,10.3v48l-17.9,10.3l-23.6,13.7
					L286.3,187.6z M390.9,248.8l-41.5,24l-41.5-24v-48l10.4-6l31.1-18l28.8,16.6l12.7,7.4V248.8z"/>
				<path class="st40" d="M475.6,248.6l-41.5,24l-41.5-24v-48l18-10.4l23.5-13.6l41.5,24V248.6z M371.1,187.3l-20.8-12v-48l20.8-12
					l20.8-12l41.5,24v48l-20.8,12l-20.8,12L371.1,187.3z M477.1,247.8v-48.1l-42.3-24.4v-48.8l-42.3-24.4V53.3l-43-24.8l-43,24.8
					v48.8l-42.3,24.4v48.8l-42.3,24.4v48.3H-64.6v1.4h286.7l42.9,24.8l42.3-24.4l42.3,24.4l42.3-24.4l42.3,24.4l43-24.8v-0.1H540
					v-1.4H477.1z M308.1,54.2l41.5-24l41.5,24v48l-12.7,7.4l-28.8,16.6l-31.1-18l-10.4-6V54.2z M306.6,248.6l-41.5,24l-41.5-24v-48
					l41.5-24l23.5,13.6l18,10.4V248.6z M286.6,187.3l-20.8-12v-48l41.5-24l23.6,13.7l17.9,10.3v48L331,185.7l-23.6,13.7L286.6,187.3
					z M391.1,248.6l-41.5,24l-41.5-24v-48l10.4-6l31.1-18l28.8,16.6l12.7,7.4V248.6z"/>
				<path class="st40" d="M475.9,248.3l-41.5,24l-41.5-24v-48l18-10.4l23.5-13.6l41.5,24V248.3z M371.3,187.1l-20.8-12v-48l20.8-12
					l20.8-12l41.5,24v48l-20.8,12l-20.8,12L371.3,187.1z M477.3,247.6v-48.1l-42.3-24.4v-48.8l-42.3-24.4V53.1l-43-24.8l-43,24.8
					v48.8l-42.3,24.4v48.8l-42.3,24.4v48.3H-64.3v1.4h286.7l42.9,24.8l42.3-24.4l42.3,24.4l42.3-24.4l42.3,24.4l43-24.8v-0.1h62.9
					v-1.4H477.3z M308.3,54l41.5-24l41.5,24v48l-12.7,7.4l-28.8,16.6l-31.1-18l-10.4-6V54z M306.8,248.3l-41.5,24l-41.5-24v-48
					l41.5-24l23.5,13.6l18,10.4V248.3z M286.8,187.1l-20.8-12v-48l41.5-24l23.6,13.7l17.9,10.3v48l-17.9,10.3l-23.6,13.7
					L286.8,187.1z M391.3,248.3l-41.5,24l-41.5-24v-48l10.4-6l31.1-18l28.8,16.6l12.7,7.4V248.3z"/>
				<path class="st41" d="M476.1,248.1l-41.5,24l-41.5-24v-48l18-10.4l23.5-13.6l41.5,24V248.1z M371.5,186.9l-20.8-12v-48l20.8-12
					l20.8-12l41.5,24v48l-20.8,12l-20.8,12L371.5,186.9z M477.6,247.4v-48.1l-42.3-24.4v-48.8L393,101.7V52.9l-43-24.8l-43,24.8
					v48.8l-42.3,24.4v48.8l-42.3,24.4v48.3H-64.1v1.4h286.7l42.9,24.8l42.3-24.4l42.3,24.4l42.3-24.4l42.3,24.4l43-24.8v-0.1h62.9
					v-1.4H477.6z M308.5,53.8l41.5-24l41.5,24v48l-12.7,7.4L350,125.7l-31.1-18l-10.4-6V53.8z M307,248.1l-41.5,24l-41.5-24v-48
					l41.5-24l23.5,13.6l18,10.4V248.1z M287,186.9l-20.8-12v-48l41.5-24l23.6,13.7l17.9,10.3v48l-17.9,10.3l-23.6,13.7L287,186.9z
					 M391.6,248.1l-41.5,24l-41.5-24v-48l10.4-6l31.1-18l28.8,16.6l12.7,7.4V248.1z"/>
				<path class="st42" d="M476.3,247.9l-41.5,24l-41.5-24v-48l18-10.4l23.5-13.6l41.5,24V247.9z M371.7,186.7l-20.8-12v-48l20.8-12
					l20.8-12l41.5,24v48l-20.8,12l-20.8,12L371.7,186.7z M477.8,247.2v-48.1l-42.3-24.4v-48.8l-42.3-24.4V52.7l-43-24.8l-43,24.8
					v48.8L265,125.9v48.8l-42.3,24.4v48.3H-63.9v1.4h286.7l42.9,24.8l42.3-24.4l42.3,24.4l42.3-24.4l42.3,24.4l43-24.8v-0.1h62.9
					v-1.4H477.8z M308.7,53.5l41.5-24l41.5,24v48l-12.7,7.4l-28.8,16.6l-31.1-18l-10.4-6V53.5z M307.2,247.9l-41.5,24l-41.5-24v-48
					l41.5-24l23.5,13.6l18,10.4V247.9z M287.2,186.7l-20.8-12v-48l41.5-24l23.6,13.7l17.9,10.3v48L331.6,185L308,198.7L287.2,186.7z
					 M391.8,247.9l-41.5,24l-41.5-24v-48l10.4-6l31.1-18l28.8,16.6l12.7,7.4V247.9z"/>
				<path class="st43" d="M476.5,247.7l-41.5,24l-41.5-24v-48l18-10.4l23.5-13.6l41.5,24V247.7z M372,186.5l-20.8-12v-48l20.8-12
					l20.8-12l41.5,24v48l-20.8,12l-20.8,12L372,186.5z M478,247v-48.1l-42.3-24.4v-48.8l-42.3-24.4V52.5l-43-24.8l-43,24.8v48.8
					l-42.3,24.4v48.8l-42.3,24.4v48.3H-63.7v1.4h286.7l42.9,24.8l42.3-24.4l42.3,24.4l42.3-24.4l42.3,24.4l43-24.8v-0.1h62.9V247
					H478z M308.9,53.3l41.5-24l41.5,24v48l-12.7,7.4l-28.8,16.6l-31.1-18l-10.4-6V53.3z M307.5,247.7l-41.5,24l-41.5-24v-48l41.5-24
					l23.5,13.6l18,10.4V247.7z M287.4,186.5l-20.8-12v-48l41.5-24l23.6,13.7l17.9,10.3v48l-17.9,10.3l-23.6,13.7L287.4,186.5z
					 M392,247.7l-41.5,24l-41.5-24v-48l10.4-6l31.1-18l28.8,16.6l12.7,7.4V247.7z"/>
				<path class="st44" d="M476.7,247.5l-41.5,24l-41.5-24v-48l18-10.4l23.5-13.6l41.5,24V247.5z M372.2,186.3l-20.8-12v-48l20.8-12
					l20.8-12l41.5,24v48l-20.8,12l-20.8,12L372.2,186.3z M478.2,246.8v-48.1l-42.3-24.4v-48.8l-42.3-24.4V52.3l-43-24.8l-43,24.8
					v48.8l-42.3,24.4v48.8l-42.3,24.4V247H-63.5v1.4h286.7l42.9,24.8l42.3-24.4l42.3,24.4l42.3-24.4l42.3,24.4l43-24.8v-0.1h62.9
					v-1.4H478.2z M309.2,53.1l41.5-24l41.5,24v48l-12.7,7.4L350.7,125l-31.1-18l-10.4-6V53.1z M307.7,247.5l-41.5,24l-41.5-24v-48
					l41.5-24l23.5,13.6l18,10.4V247.5z M287.7,186.3l-20.8-12v-48l41.5-24l23.6,13.7l17.9,10.3v48l-17.9,10.3l-23.6,13.7
					L287.7,186.3z M392.2,247.5l-41.5,24l-41.5-24v-48l10.4-6l31.1-18l28.8,16.6l12.7,7.4V247.5z"/>
				<path class="st45" d="M477,247.2l-41.5,24l-41.5-24v-48l18-10.4l23.5-13.6l41.5,24V247.2z M372.4,186l-20.8-12v-48l20.8-12
					l20.8-12l41.5,24v48l-20.8,12l-20.8,12L372.4,186z M478.4,246.5v-48.1L436.2,174v-48.8l-42.3-24.4V52l-43-24.8l-43,24.8v48.8
					l-42.3,24.4V174l-42.3,24.4v48.3H-63.2v1.4h286.7l42.9,24.8l42.3-24.4l42.3,24.4l42.3-24.4l42.3,24.4l43-24.8V248h62.9v-1.4
					H478.4z M309.4,52.9l41.5-24l41.5,24v48l-12.7,7.4l-28.8,16.6l-31.1-18l-10.4-6V52.9z M307.9,247.2l-41.5,24l-41.5-24v-48
					l41.5-24l23.5,13.6l18,10.4V247.2z M287.9,186l-20.8-12v-48l41.5-24l23.6,13.7l17.9,10.3v48l-17.9,10.3L308.6,198L287.9,186z
					 M392.4,247.2l-41.5,24l-41.5-24v-48l10.4-6l31.1-18l28.8,16.6l12.7,7.4V247.2z"/>
				<path class="st46" d="M477.2,247l-41.5,24l-41.5-24v-48l18-10.4l23.5-13.6l41.5,24V247z M372.6,185.8l-20.8-12v-48l20.8-12
					l20.8-12l41.5,24v48l-20.8,12l-20.8,12L372.6,185.8z M478.6,246.3v-48.1l-42.3-24.4V125l-42.3-24.4V51.8l-43-24.8l-43,24.8v48.8
					L265.9,125v48.8l-42.3,24.4v48.3H-63v1.4h286.7l42.9,24.8l42.3-24.4l42.3,24.4l42.3-24.4l42.3,24.4l43-24.8v-0.1h62.9v-1.4
					H478.6z M309.6,52.7l41.5-24l41.5,24v48l-12.7,7.4l-28.8,16.6l-31.1-18l-10.4-6V52.7z M308.1,247l-41.5,24l-41.5-24v-48l41.5-24
					l23.5,13.6l18,10.4V247z M288.1,185.8l-20.8-12v-48l41.5-24l23.6,13.7l17.9,10.3v48l-17.9,10.3l-23.6,13.7L288.1,185.8z
					 M392.6,247l-41.5,24l-41.5-24v-48l10.4-6l31.1-18l28.8,16.6l12.7,7.4V247z"/>
				<path class="st47" d="M477.4,246.8l-41.5,24l-41.5-24v-48l18-10.4l23.5-13.6l41.5,24V246.8z M372.8,185.6l-20.8-12v-48l20.8-12
					l20.8-12l41.5,24v48l-20.8,12l-20.8,12L372.8,185.6z M478.9,246.1V198l-42.3-24.4v-48.8l-42.3-24.4V51.6l-43-24.8l-43,24.8v48.8
					l-42.3,24.4v48.8L223.8,198v48.3H-62.8v1.4h286.7l42.9,24.8l42.3-24.4l42.3,24.4l42.3-24.4l42.3,24.4l43-24.8v-0.1h62.9v-1.4
					H478.9z M309.8,52.4l41.5-24l41.5,24v48l-12.7,7.4l-28.8,16.6l-31.1-18l-10.4-6V52.4z M308.3,246.8l-41.5,24l-41.5-24v-48
					l41.5-24l23.5,13.6l18,10.4V246.8z M288.3,185.6l-20.8-12v-48l41.5-24l23.6,13.7l17.9,10.3v48l-17.9,10.3l-23.6,13.7
					L288.3,185.6z M392.9,246.8l-41.5,24l-41.5-24v-48l10.4-6l31.1-18l28.8,16.6l12.7,7.4V246.8z"/>
				<path class="st48" d="M477.6,246.6l-41.5,24l-41.5-24v-48l18-10.4l23.5-13.6l41.5,24V246.6z M373.1,185.4l-20.8-12v-48l20.8-12
					l20.8-12l41.5,24v48l-20.8,12l-20.8,12L373.1,185.4z M479.1,245.9v-48.1l-42.3-24.4v-48.8l-42.3-24.4V51.4l-43-24.8l-43,24.8
					v48.8l-42.3,24.4v48.8L224,197.8v48.3H-62.6v1.4h286.7l42.9,24.8l42.3-24.4l42.3,24.4l42.3-24.4l42.3,24.4l43-24.8v-0.1H542
					v-1.4H479.1z M310,52.2l41.5-24l41.5,24v48l-12.7,7.4l-28.8,16.6l-31.1-18l-10.4-6V52.2z M308.6,246.6l-41.5,24l-41.5-24v-48
					l41.5-24l23.5,13.6l18,10.4V246.6z M288.5,185.4l-20.8-12v-48l41.5-24l23.6,13.7l17.9,10.3v48l-17.9,10.3l-23.6,13.7
					L288.5,185.4z M393.1,246.6l-41.5,24l-41.5-24v-48l10.4-6l31.1-18l28.8,16.6l12.7,7.4V246.6z"/>
				<path class="st49" d="M477.8,246.4l-41.5,24l-41.5-24v-48l18-10.4l23.5-13.6l41.5,24V246.4z M373.3,185.2l-20.8-12v-48l20.8-12
					l20.8-12l41.5,24v48l-20.8,12l-20.8,12L373.3,185.2z M479.3,245.7v-48.1L437,173.2v-48.8L394.8,100V51.2l-43-24.8l-43,24.8V100
					l-42.3,24.4v48.8l-42.3,24.4v48.3H-62.4v1.4h286.7l42.9,24.8l42.3-24.4l42.3,24.4l42.3-24.4l42.3,24.4l43-24.8v-0.1h62.9v-1.4
					H479.3z M310.2,52l41.5-24l41.5,24v48l-12.7,7.4l-28.8,16.6l-31.1-18l-10.4-6V52z M308.8,246.4l-41.5,24l-41.5-24v-48l41.5-24
					l23.5,13.6l18,10.4V246.4z M288.7,185.2l-20.8-12v-48l41.5-24l23.6,13.7l17.9,10.3v48l-17.9,10.3l-23.6,13.7L288.7,185.2z
					 M393.3,246.4l-41.5,24l-41.5-24v-48l10.4-6l31.1-18l28.8,16.6l12.7,7.4V246.4z"/>
				<path class="st50" d="M478,246.2l-41.5,24l-41.5-24v-48l18-10.4l23.5-13.6l41.5,24V246.2z M373.5,184.9l-20.8-12v-48l20.8-12
					l20.8-12l41.5,24v48l-20.8,12l-20.8,12L373.5,184.9z M479.5,245.4v-48.1L437.3,173v-48.8L395,99.7V50.9l-43-24.8l-43,24.8v48.8
					l-42.3,24.4V173l-42.3,24.4v48.3H-62.2v1.4h286.7l42.9,24.8l42.3-24.4l42.3,24.4l42.3-24.4l42.3,24.4l43-24.8v-0.1h62.9v-1.4
					H479.5z M310.5,51.8l41.5-24l41.5,24v48l-12.7,7.4L352,123.7l-31.1-18l-10.4-6V51.8z M309,246.2l-41.5,24l-41.5-24v-48l41.5-24
					l23.5,13.6l18,10.4V246.2z M289,184.9l-20.8-12v-48l41.5-24l23.6,13.7l17.9,10.3v48l-17.9,10.3l-23.6,13.7L289,184.9z
					 M393.5,246.2l-41.5,24l-41.5-24v-48l10.4-6l31.1-18l28.8,16.6l12.7,7.4V246.2z"/>
				<path class="st51" d="M478.3,245.9l-41.5,24l-41.5-24v-48l18-10.4l23.5-13.6l41.5,24V245.9z M373.7,184.7l-20.8-12v-48l20.8-12
					l20.8-12l41.5,24v48l-20.8,12l-20.8,12L373.7,184.7z M479.7,245.2v-48.1l-42.3-24.4v-48.8l-42.3-24.4V50.7l-43-24.8l-43,24.8
					v48.8l-42.3,24.4v48.8l-42.3,24.4v48.3H-61.9v1.4h286.7l42.9,24.8l42.3-24.4l42.3,24.4l42.3-24.4l42.3,24.4l43-24.8v-0.1h62.9
					v-1.4H479.7z M310.7,51.6l41.5-24l41.5,24v48l-12.7,7.4l-28.8,16.6l-31.1-18l-10.4-6V51.6z M309.2,245.9l-41.5,24l-41.5-24v-48
					l41.5-24l23.5,13.6l18,10.4V245.9z M289.2,184.7l-20.8-12v-48l41.5-24l23.6,13.7l17.9,10.3v48l-17.9,10.3l-23.6,13.7
					L289.2,184.7z M393.7,245.9l-41.5,24l-41.5-24v-48l10.4-6l31.1-18l28.8,16.6l12.7,7.4V245.9z"/>
				<path class="st52" d="M478.5,245.7l-41.5,24l-41.5-24v-48l18-10.4l23.5-13.6l41.5,24V245.7z M373.9,184.5l-20.8-12v-48l20.8-12
					l20.8-12l41.5,24v48l-20.8,12l-20.8,12L373.9,184.5z M480,245v-48.1l-42.3-24.4v-48.8l-42.3-24.4V50.5l-43-24.8l-43,24.8v48.8
					l-42.3,24.4v48.8l-42.3,24.4v48.3H-61.7v1.4H225l42.9,24.8l42.3-24.4l42.3,24.4l42.3-24.4l42.3,24.4l43-24.8v-0.1h62.9V245H480z
					 M310.9,51.4l41.5-24l41.5,24v48l-12.7,7.4l-28.8,16.6l-31.1-18l-10.4-6V51.4z M309.4,245.7l-41.5,24l-41.5-24v-48l41.5-24
					l23.5,13.6l18,10.4V245.7z M289.4,184.5l-20.8-12v-48l41.5-24l23.6,13.7l17.9,10.3v48l-17.9,10.3l-23.6,13.7L289.4,184.5z
					 M394,245.7l-41.5,24l-41.5-24v-48l10.4-6l31.1-18l28.8,16.6l12.7,7.4V245.7z"/>
				<path class="st53" d="M478.7,245.5l-41.5,24l-41.5-24v-48l18-10.4l23.5-13.6l41.5,24V245.5z M374.1,184.3l-20.8-12v-48l20.8-12
					l20.8-12l41.5,24v48l-20.8,12l-20.8,12L374.1,184.3z M480.2,244.8v-48.1l-42.3-24.4v-48.8l-42.3-24.4V50.3l-43-24.8l-43,24.8
					v48.8l-42.3,24.4v48.8l-42.3,24.4V245H-61.5v1.4h286.7l42.9,24.8l42.3-24.4l42.3,24.4l42.3-24.4l42.3,24.4l43-24.8v-0.1H543
					v-1.4H480.2z M311.1,51.1l41.5-24l41.5,24v48l-12.7,7.4l-28.8,16.6l-31.1-18l-10.4-6V51.1z M309.6,245.5l-41.5,24l-41.5-24v-48
					l41.5-24l23.5,13.6l18,10.4V245.5z M289.6,184.3l-20.8-12v-48l41.5-24L334,114l17.9,10.3v48L334,182.6l-23.6,13.7L289.6,184.3z
					 M394.2,245.5l-41.5,24l-41.5-24v-48l10.4-6l31.1-18l28.8,16.6l12.7,7.4V245.5z"/>
				<path class="st54" d="M478.9,245.3l-41.5,24l-41.5-24v-48l18-10.4l23.5-13.6l41.5,24V245.3z M374.4,184.1l-20.8-12v-48l20.8-12
					l20.8-12l41.5,24v48l-20.8,12l-20.8,12L374.4,184.1z M480.4,244.6v-48.1l-42.3-24.4v-48.8l-42.3-24.4V50.1l-43-24.8l-43,24.8
					v48.8l-42.3,24.4v48.8l-42.3,24.4v48.3H-61.3v1.4h286.7l42.9,24.8l42.3-24.4l42.3,24.4l42.3-24.4l42.3,24.4l43-24.8V246h62.9
					v-1.4H480.4z M311.3,50.9l41.5-24l41.5,24v48l-12.7,7.4l-28.8,16.6l-31.1-18l-10.4-6V50.9z M309.9,245.3l-41.5,24l-41.5-24v-48
					l41.5-24l23.5,13.6l18,10.4V245.3z M289.8,184.1l-20.8-12v-48l41.5-24l23.6,13.7l17.9,10.3v48l-17.9,10.3l-23.6,13.7
					L289.8,184.1z M394.4,245.3l-41.5,24l-41.5-24v-48l10.4-6l31.1-18l28.8,16.6l12.7,7.4V245.3z"/>
				<path class="st55" d="M479.1,245.1l-41.5,24l-41.5-24v-48l18-10.4l23.5-13.6l41.5,24V245.1z M374.6,183.8l-20.8-12v-48l20.8-12
					l20.8-12l41.5,24v48l-20.8,12l-20.8,12L374.6,183.8z M480.6,244.4v-48.1l-42.3-24.4v-48.8l-42.3-24.4V49.9l-43-24.8l-43,24.8
					v48.8l-42.3,24.4v48.8l-42.3,24.4v48.3H-61.1v1.4h286.7l42.9,24.8l42.3-24.4l42.3,24.4l42.3-24.4l42.3,24.4l43-24.8v-0.1h62.9
					v-1.4H480.6z M311.6,50.7l41.5-24l41.5,24v48l-12.7,7.4l-28.8,16.6l-31.1-18l-10.4-6V50.7z M310.1,245.1l-41.5,24l-41.5-24v-48
					l41.5-24l23.5,13.6l18,10.4V245.1z M290.1,183.8l-20.8-12v-48l41.5-24l23.6,13.7l17.9,10.3v48l-17.9,10.3l-23.6,13.7
					L290.1,183.8z M394.6,245.1l-41.5,24l-41.5-24v-48l10.4-6l31.1-18l28.8,16.6l12.7,7.4V245.1z"/>
				<path class="st56" d="M479.4,244.8l-41.5,24l-41.5-24v-48l18-10.4l23.5-13.6l41.5,24V244.8z M374.8,183.6l-20.8-12v-48l20.8-12
					l20.8-12l41.5,24v48l-20.8,12l-20.8,12L374.8,183.6z M480.8,244.1V196l-42.3-24.4v-48.8l-42.3-24.4V49.6l-43-24.8l-43,24.8v48.8
					L268,122.8v48.8L225.8,196v48.3H-60.8v1.4h286.7l42.9,24.8l42.3-24.4l42.3,24.4l42.3-24.4l42.3,24.4l43-24.8v-0.1h62.9v-1.4
					H480.8z M311.8,50.5l41.5-24l41.5,24v48l-12.7,7.4l-28.8,16.6l-31.1-18l-10.4-6V50.5z M310.3,244.8l-41.5,24l-41.5-24v-48
					l41.5-24l23.5,13.6l18,10.4V244.8z M290.3,183.6l-20.8-12v-48l41.5-24l23.6,13.7l17.9,10.3v48L334.7,182L311,195.6L290.3,183.6z
					 M394.8,244.8l-41.5,24l-41.5-24v-48l10.4-6l31.1-18l28.8,16.6l12.7,7.4V244.8z"/>
				<path class="st57" d="M479.6,244.6l-41.5,24l-41.5-24v-48l18-10.4l23.5-13.6l41.5,24V244.6z M375,183.4l-20.8-12v-48l20.8-12
					l20.8-12l41.5,24v48l-20.8,12l-20.8,12L375,183.4z M481,243.9v-48.1l-42.3-24.4v-48.8l-42.3-24.4V49.4l-43-24.8l-43,24.8v48.8
					l-42.3,24.4v48.8L226,195.8v48.3H-60.6v1.4h286.7l42.9,24.8l42.3-24.4l42.3,24.4l42.3-24.4l42.3,24.4l43-24.8v-0.1h62.9v-1.4
					H481z M312,50.3l41.5-24l41.5,24v48l-12.7,7.4l-28.8,16.6l-31.1-18l-10.4-6V50.3z M310.5,244.6l-41.5,24l-41.5-24v-48l41.5-24
					l23.5,13.6l18,10.4V244.6z M290.5,183.4l-20.8-12v-48l41.5-24l23.6,13.7l17.9,10.3v48l-17.9,10.3l-23.6,13.7L290.5,183.4z
					 M395,244.6l-41.5,24l-41.5-24v-48l10.4-6l31.1-18l28.8,16.6l12.7,7.4V244.6z"/>
				<path class="st58" d="M479.8,244.4l-41.5,24l-41.5-24v-48l18-10.4l23.5-13.6l41.5,24V244.4z M375.2,183.2l-20.8-12v-48l20.8-12
					l20.8-12l41.5,24v48l-20.8,12l-20.8,12L375.2,183.2z M481.3,243.7v-48.1L439,171.2v-48.8L396.7,98V49.2l-43-24.8l-43,24.8V98
					l-42.3,24.4v48.8l-42.3,24.4v48.3H-60.4v1.4h286.7l42.9,24.8l42.3-24.4l42.3,24.4l42.3-24.4l42.3,24.4l43-24.8v-0.1h62.9v-1.4
					H481.3z M312.2,50l41.5-24l41.5,24v48l-12.7,7.4L353.7,122l-31.1-18l-10.4-6V50z M310.7,244.4l-41.5,24l-41.5-24v-48l41.5-24
					l23.5,13.6l18,10.4V244.4z M290.7,183.2l-20.8-12v-48l41.5-24l23.6,13.7l17.9,10.3v48l-17.9,10.3l-23.6,13.7L290.7,183.2z
					 M395.3,244.4l-41.5,24l-41.5-24v-48l10.4-6l31.1-18l28.8,16.6l12.7,7.4V244.4z"/>
				<path class="st59" d="M480,244.2l-41.5,24l-41.5-24v-48l18-10.4l23.5-13.6l41.5,24V244.2z M375.5,183l-20.8-12v-48l20.8-12
					l20.8-12l41.5,24v48L417,183l-20.8,12L375.5,183z M481.5,243.5v-48.1L439.2,171v-48.8L397,97.8V49l-43-24.8L311,49v48.8
					l-42.3,24.4V171l-42.3,24.4v48.3H-60.2v1.4h286.7l42.9,24.8l42.3-24.4l42.3,24.4l42.3-24.4l42.3,24.4l43-24.8v-0.1h62.9v-1.4
					H481.5z M312.4,49.8l41.5-24l41.5,24v48l-12.7,7.4L354,121.8l-31.1-18l-10.4-6V49.8z M311,244.2l-41.5,24l-41.5-24v-48l41.5-24
					l23.5,13.6l18,10.4V244.2z M290.9,183l-20.8-12v-48l41.5-24l23.6,13.7l17.9,10.3v48l-17.9,10.3L311.7,195L290.9,183z
					 M395.5,244.2l-41.5,24l-41.5-24v-48l10.4-6l31.1-18l28.8,16.6l12.7,7.4V244.2z"/>
				<path class="st60" d="M480.2,244l-41.5,24l-41.5-24v-48l18-10.4l23.5-13.6l41.5,24V244z M375.7,182.8l-20.8-12v-48l20.8-12
					l20.8-12l41.5,24v48l-20.8,12l-20.8,12L375.7,182.8z M481.7,243.3v-48.1l-42.3-24.4V122l-42.3-24.4V48.8l-43-24.8l-43,24.8v48.8
					L268.9,122v48.8l-42.3,24.4v48.3H-60v1.4h286.7l42.9,24.8l42.3-24.4l42.3,24.4l42.3-24.4l42.3,24.4l43-24.8v-0.1h62.9v-1.4
					H481.7z M312.6,49.6l41.5-24l41.5,24v48l-12.7,7.4l-28.8,16.6l-31.1-18l-10.4-6V49.6z M311.2,244l-41.5,24l-41.5-24v-48l41.5-24
					l23.5,13.6l18,10.4V244z M291.1,182.8l-20.8-12v-48l41.5-24l23.6,13.7l17.9,10.3v48l-17.9,10.3l-23.6,13.7L291.1,182.8z
					 M395.7,244l-41.5,24l-41.5-24v-48l10.4-6l31.1-18l28.8,16.6l12.7,7.4V244z"/>
				<path class="st61" d="M480.5,243.8l-41.5,24l-41.5-24v-48l18-10.4l23.5-13.6l41.5,24V243.8z M375.9,182.5l-20.8-12v-48l20.8-12
					l20.8-12l41.5,24v48l-20.8,12l-20.8,12L375.9,182.5z M481.9,243V195l-42.3-24.4v-48.8l-42.3-24.4V48.5l-43-24.8l-43,24.8v48.8
					l-42.3,24.4v48.8L226.9,195v48.3H-59.7v1.4H227l42.9,24.8l42.3-24.4l42.3,24.4l42.3-24.4l42.3,24.4l43-24.8v-0.1h62.9V243H481.9
					z M312.9,49.4l41.5-24l41.5,24v48l-12.7,7.4l-28.8,16.6l-31.1-18l-10.4-6V49.4z M311.4,243.8l-41.5,24l-41.5-24v-48l41.5-24
					l23.5,13.6l18,10.4V243.8z M291.4,182.5l-20.8-12v-48l41.5-24l23.6,13.7l17.9,10.3v48l-17.9,10.3l-23.6,13.7L291.4,182.5z
					 M395.9,243.8l-41.5,24l-41.5-24v-48l10.4-6l31.1-18l28.8,16.6l12.7,7.4V243.8z"/>
				<path class="st62" d="M480.7,243.5l-41.5,24l-41.5-24v-48l18-10.4l23.5-13.6l41.5,24V243.5z M376.1,182.3l-20.8-12v-48l20.8-12
					l20.8-12l41.5,24v48l-20.8,12l-20.8,12L376.1,182.3z M482.1,242.8v-48.1l-42.3-24.4v-48.8l-42.3-24.4V48.3l-43-24.8l-43,24.8
					v48.8l-42.3,24.4v48.8l-42.3,24.4V243H-59.5v1.4h286.7l42.9,24.8l42.3-24.4l42.3,24.4l42.3-24.4l42.3,24.4l43-24.8v-0.1H545
					v-1.4H482.1z M313.1,49.2l41.5-24l41.5,24v48l-12.7,7.4l-28.8,16.6l-31.1-18l-10.4-6V49.2z M311.6,243.5l-41.5,24l-41.5-24v-48
					l41.5-24l23.5,13.6l18,10.4V243.5z M291.6,182.3l-20.8-12v-48l41.5-24L336,112l17.9,10.3v48L336,180.7l-23.6,13.7L291.6,182.3z
					 M396.1,243.5l-41.5,24l-41.5-24v-48l10.4-6l31.1-18l28.8,16.6l12.7,7.4V243.5z"/>
				<path class="st63" d="M480.9,243.3l-41.5,24l-41.5-24v-48l18-10.4l23.5-13.6l41.5,24V243.3z M376.3,182.1l-20.8-12v-48l20.8-12
					l20.8-12l41.5,24v48l-20.8,12l-20.8,12L376.3,182.1z M482.4,242.6v-48.1l-42.3-24.4v-48.8l-42.3-24.4V48.1l-43-24.8l-43,24.8
					v48.8l-42.3,24.4v48.8l-42.3,24.4v48.3H-59.3v1.4h286.7l42.9,24.8l42.3-24.4l42.3,24.4l42.3-24.4l42.3,24.4l43-24.8V244h62.9
					v-1.4H482.4z M313.3,49l41.5-24l41.5,24v48l-12.7,7.4l-28.8,16.6l-31.1-18l-10.4-6V49z M311.8,243.3l-41.5,24l-41.5-24v-48
					l41.5-24l23.5,13.6l18,10.4V243.3z M291.8,182.1l-20.8-12v-48l41.5-24l23.6,13.7l17.9,10.3v48l-17.9,10.3l-23.6,13.7
					L291.8,182.1z M396.4,243.3l-41.5,24l-41.5-24v-48l10.4-6l31.1-18l28.8,16.6l12.7,7.4V243.3z"/>
				<path class="st64" d="M481.1,243.1l-41.5,24l-41.5-24v-48l18-10.4l23.5-13.6l41.5,24V243.1z M376.5,181.9l-20.8-12v-48l20.8-12
					l20.8-12l41.5,24v48l-20.8,12l-20.8,12L376.5,181.9z M482.6,242.4v-48.1l-42.3-24.4v-48.8L398,96.7V47.9l-43-24.8l-43,24.8v48.8
					l-42.3,24.4v48.8l-42.3,24.4v48.3H-59.1v1.4h286.7l42.9,24.8l42.3-24.4l42.3,24.4l42.3-24.4l42.3,24.4l43-24.8v-0.1h62.9v-1.4
					H482.6z M313.5,48.7l41.5-24l41.5,24v48l-12.7,7.4L355,120.7l-31.1-18l-10.4-6V48.7z M312,243.1l-41.5,24l-41.5-24v-48l41.5-24
					l23.5,13.6l18,10.4V243.1z M292,181.9l-20.8-12v-48l41.5-24l23.6,13.7l17.9,10.3v48l-17.9,10.3l-23.6,13.7L292,181.9z
					 M396.6,243.1l-41.5,24l-41.5-24v-48l10.4-6l31.1-18l28.8,16.6l12.7,7.4V243.1z"/>
				<path class="st65" d="M481.3,242.9l-41.5,24l-41.5-24v-48l18-10.4l23.5-13.6l41.5,24V242.9z M376.8,181.7l-20.8-12v-48l20.8-12
					l20.8-12l41.5,24v48l-20.8,12l-20.8,12L376.8,181.7z M482.8,242.2v-48.1l-42.3-24.4v-48.8l-42.3-24.4V47.7l-43-24.8l-43,24.8
					v48.8L270,120.9v48.8l-42.3,24.4v48.3H-58.9v1.4h286.7l42.9,24.8l42.3-24.4l42.3,24.4l42.3-24.4l42.3,24.4l43-24.8v-0.1h62.9
					v-1.4H482.8z M313.7,48.5l41.5-24l41.5,24v48l-12.7,7.4l-28.8,16.6l-31.1-18l-10.4-6V48.5z M312.3,242.9l-41.5,24l-41.5-24v-48
					l41.5-24l23.5,13.6l18,10.4V242.9z M292.2,181.7l-20.8-12v-48l41.5-24l23.6,13.7l17.9,10.3v48L336.6,180L313,193.7L292.2,181.7z
					 M396.8,242.9l-41.5,24l-41.5-24v-48l10.4-6l31.1-18l28.8,16.6l12.7,7.4V242.9z"/>
				<path class="st66" d="M481.5,242.7l-41.5,24l-41.5-24v-48l18-10.4l23.5-13.6l41.5,24V242.7z M377,181.4l-20.8-12v-48l20.8-12
					l20.8-12l41.5,24v48l-20.8,12l-20.8,12L377,181.4z M483,241.9v-48.1l-42.3-24.4v-48.8l-42.3-24.4V47.5l-43-24.8l-43,24.8v48.8
					l-42.3,24.4v48.8L228,193.9v48.3H-58.7v1.4h286.7l42.9,24.8l42.3-24.4l42.3,24.4l42.3-24.4l42.3,24.4l43-24.8v-0.1h62.9v-1.4
					H483z M314,48.3l41.5-24l41.5,24v48l-12.7,7.4l-28.8,16.6l-31.1-18l-10.4-6V48.3z M312.5,242.7l-41.5,24l-41.5-24v-48l41.5-24
					l23.5,13.6l18,10.4V242.7z M292.5,181.4l-20.8-12v-48l41.5-24l23.6,13.7l17.9,10.3v48l-17.9,10.3l-23.6,13.7L292.5,181.4z
					 M397,242.7l-41.5,24l-41.5-24v-48l10.4-6l31.1-18l28.8,16.6l12.7,7.4V242.7z"/>
				<path class="st67" d="M481.8,242.4l-41.5,24l-41.5-24v-48l18-10.4l23.5-13.6l41.5,24V242.4z M377.2,181.2l-20.8-12v-48l20.8-12
					l20.8-12l41.5,24v48l-20.8,12l-20.8,12L377.2,181.2z M483.2,241.7v-48.1L441,169.2v-48.8L398.7,96V47.2l-43-24.8l-43,24.8V96
					l-42.3,24.4v48.8l-42.3,24.4v48.3H-58.4v1.4h286.7l42.9,24.8l42.3-24.4l42.3,24.4l42.3-24.4l42.3,24.4l43-24.8v-0.1h62.9v-1.4
					H483.2z M314.2,48.1l41.5-24l41.5,24v48l-12.7,7.4L355.7,120l-31.1-18l-10.4-6V48.1z M312.7,242.4l-41.5,24l-41.5-24v-48
					l41.5-24l23.5,13.6l18,10.4V242.4z M292.7,181.2l-20.8-12v-48l41.5-24l23.6,13.7l17.9,10.3v48l-17.9,10.3l-23.6,13.7
					L292.7,181.2z M397.2,242.4l-41.5,24l-41.5-24v-48l10.4-6l31.1-18l28.8,16.6l12.7,7.4V242.4z"/>
				<path class="st68" d="M482,242.2l-41.5,24l-41.5-24v-48l18-10.4l23.5-13.6l41.5,24V242.2z M377.4,181l-20.8-12v-48l20.8-12
					l20.8-12l41.5,24v48l-20.8,12l-20.8,12L377.4,181z M483.4,241.5v-48.1L441.2,169v-48.8l-42.3-24.4V47l-43-24.8l-43,24.8v48.8
					l-42.3,24.4V169l-42.3,24.4v48.3H-58.2v1.4h286.7l42.9,24.8l42.3-24.4l42.3,24.4l42.3-24.4l42.3,24.4l43-24.8v-0.1h62.9v-1.4
					H483.4z M314.4,47.9l41.5-24l41.5,24v48l-12.7,7.4l-28.8,16.6l-31.1-18l-10.4-6V47.9z M312.9,242.2l-41.5,24l-41.5-24v-48
					l41.5-24l23.5,13.6l18,10.4V242.2z M292.9,181l-20.8-12v-48l41.5-24l23.6,13.7l17.9,10.3v48l-17.9,10.3L313.7,193L292.9,181z
					 M397.5,242.2l-41.5,24l-41.5-24v-48l10.4-6l31.1-18l28.8,16.6l12.7,7.4V242.2z"/>
				<path class="st69" d="M482.2,242l-41.5,24l-41.5-24v-48l18-10.4l23.5-13.6l41.5,24V242z M377.6,180.8l-20.8-12v-48l20.8-12
					l20.8-12l41.5,24v48l-20.8,12l-20.8,12L377.6,180.8z M483.7,241.3v-48.1l-42.3-24.4V120l-42.3-24.4V46.8l-43-24.8l-43,24.8v48.8
					L270.9,120v48.8l-42.3,24.4v48.3H-58v1.4h286.7l42.9,24.8l42.3-24.4l42.3,24.4l42.3-24.4l42.3,24.4l43-24.8v-0.1h62.9v-1.4
					H483.7z M314.6,47.6l41.5-24l41.5,24v48l-12.7,7.4l-28.8,16.6l-31.1-18l-10.4-6V47.6z M313.1,242l-41.5,24l-41.5-24v-48l41.5-24
					l23.5,13.6l18,10.4V242z M293.1,180.8l-20.8-12v-48l41.5-24l23.6,13.7l17.9,10.3v48l-17.9,10.3l-23.6,13.7L293.1,180.8z
					 M397.7,242l-41.5,24l-41.5-24v-48l10.4-6l31.1-18l28.8,16.6l12.7,7.4V242z"/>
				<path class="st70" d="M482.4,241.8l-41.5,24l-41.5-24v-48l18-10.4l23.5-13.6l41.5,24V241.8z M377.9,180.6l-20.8-12v-48l20.8-12
					l20.8-12l41.5,24v48l-20.8,12l-20.8,12L377.9,180.6z M483.9,241.1V193l-42.3-24.4v-48.8l-42.3-24.4V46.6l-43-24.8l-43,24.8v48.8
					l-42.3,24.4v48.8L228.8,193v48.3H-57.8v1.4H229l42.9,24.8l42.3-24.4l42.3,24.4l42.3-24.4l42.3,24.4l43-24.8v-0.1h62.9v-1.4
					H483.9z M314.8,47.4l41.5-24l41.5,24v48l-12.7,7.4l-28.8,16.6l-31.1-18l-10.4-6V47.4z M313.4,241.8l-41.5,24l-41.5-24v-48
					l41.5-24l23.5,13.6l18,10.4V241.8z M293.3,180.6l-20.8-12v-48l41.5-24l23.6,13.7l17.9,10.3v48l-17.9,10.3l-23.6,13.7
					L293.3,180.6z M397.9,241.8l-41.5,24l-41.5-24v-48l10.4-6l31.1-18l28.8,16.6l12.7,7.4V241.8z"/>
				<path class="st71" d="M482.6,241.6l-41.5,24l-41.5-24v-48l18-10.4l23.5-13.6l41.5,24V241.6z M378.1,180.4l-20.8-12v-48l20.8-12
					l20.8-12l41.5,24v48l-20.8,12l-20.8,12L378.1,180.4z M484.1,240.9v-48.1l-42.3-24.4v-48.8l-42.3-24.4V46.4l-43-24.8l-43,24.8
					v48.8l-42.3,24.4v48.8L229,192.8v48.3H-57.6v1.4h286.7l42.9,24.8l42.3-24.4l42.3,24.4l42.3-24.4l42.3,24.4l43-24.8v-0.1H547
					v-1.4H484.1z M315,47.2l41.5-24l41.5,24v48l-12.7,7.4l-28.8,16.6l-31.1-18l-10.4-6V47.2z M313.6,241.6l-41.5,24l-41.5-24v-48
					l41.5-24l23.5,13.6l18,10.4V241.6z M293.5,180.4l-20.8-12v-48l41.5-24l23.6,13.7l17.9,10.3v48L338,178.7l-23.6,13.7L293.5,180.4
					z M398.1,241.6l-41.5,24l-41.5-24v-48l10.4-6l31.1-18l28.8,16.6l12.7,7.4V241.6z"/>
				<path class="st72" d="M482.9,241.4l-41.5,24l-41.5-24v-48l18-10.4l23.5-13.6l41.5,24V241.4z M378.3,180.1l-20.8-12v-48l20.8-12
					l20.8-12l41.5,24v48l-20.8,12l-20.8,12L378.3,180.1z M484.3,240.6v-48.1l-42.3-24.4v-48.8l-42.3-24.4V46.1l-43-24.8l-43,24.8
					v48.8l-42.3,24.4v48.8l-42.3,24.4v48.3H-57.3v1.4h286.7l42.9,24.8l42.3-24.4l42.3,24.4l42.3-24.4l42.3,24.4l43-24.8v-0.1h62.9
					v-1.4H484.3z M315.3,47l41.5-24l41.5,24v48l-12.7,7.4l-28.8,16.6l-31.1-18l-10.4-6V47z M313.8,241.4l-41.5,24l-41.5-24v-48
					l41.5-24l23.5,13.6l18,10.4V241.4z M293.8,180.1l-20.8-12v-48l41.5-24l23.6,13.7l17.9,10.3v48l-17.9,10.3l-23.6,13.7
					L293.8,180.1z M398.3,241.4l-41.5,24l-41.5-24v-48l10.4-6l31.1-18l28.8,16.6l12.7,7.4V241.4z"/>
				<path class="st73" d="M483.1,241.1l-41.5,24l-41.5-24v-48l18-10.4l23.5-13.6l41.5,24V241.1z M378.5,179.9l-20.8-12v-48l20.8-12
					l20.8-12l41.5,24v48l-20.8,12l-20.8,12L378.5,179.9z M484.5,240.4v-48.1l-42.3-24.4v-48.8L400,94.7V45.9l-43-24.8l-43,24.8v48.8
					l-42.3,24.4v48.8l-42.3,24.4v48.3H-57.1v1.4h286.7l42.9,24.8l42.3-24.4l42.3,24.4l42.3-24.4l42.3,24.4l43-24.8v-0.1h62.9v-1.4
					H484.5z M315.5,46.8l41.5-24l41.5,24v48l-12.7,7.4L357,118.7l-31.1-18l-10.4-6V46.8z M314,241.1l-41.5,24l-41.5-24v-48l41.5-24
					l23.5,13.6l18,10.4V241.1z M294,179.9l-20.8-12v-48l41.5-24l23.6,13.7l17.9,10.3v48l-17.9,10.3l-23.6,13.7L294,179.9z
					 M398.5,241.1l-41.5,24l-41.5-24v-48l10.4-6l31.1-18l28.8,16.6l12.7,7.4V241.1z"/>
				<path class="st74" d="M483.3,240.9l-41.5,24l-41.5-24v-48l18-10.4l23.5-13.6l41.5,24V240.9z M378.7,179.7l-20.8-12v-48l20.8-12
					l20.8-12l41.5,24v48l-20.8,12l-20.8,12L378.7,179.7z M484.8,240.2v-48.1l-42.3-24.4v-48.8l-42.3-24.4V45.7l-43-24.8l-43,24.8
					v48.8L272,118.9v48.8l-42.3,24.4v48.3H-56.9v1.4h286.7l42.9,24.8l42.3-24.4l42.3,24.4l42.3-24.4l42.3,24.4l43-24.8v-0.1h62.9
					v-1.4H484.8z M315.7,46.6l41.5-24l41.5,24v48l-12.7,7.4l-28.8,16.6l-31.1-18l-10.4-6V46.6z M314.2,240.9l-41.5,24l-41.5-24v-48
					l41.5-24l23.5,13.6l18,10.4V240.9z M294.2,179.7l-20.8-12v-48l41.5-24l23.6,13.7l17.9,10.3v48L338.6,178L315,191.7L294.2,179.7z
					 M398.8,240.9l-41.5,24l-41.5-24v-48l10.4-6l31.1-18l28.8,16.6l12.7,7.4V240.9z"/>
				<path class="st75" d="M483.5,240.7l-41.5,24l-41.5-24v-48l18-10.4l23.5-13.6l41.5,24V240.7z M378.9,179.5l-20.8-12v-48l20.8-12
					l20.8-12l41.5,24v48l-20.8,12l-20.8,12L378.9,179.5z M485,240v-48.1l-42.3-24.4v-48.8l-42.3-24.4V45.5l-43-24.8l-43,24.8v48.8
					l-42.3,24.4v48.8l-42.3,24.4v48.3H-56.7v1.4H230l42.9,24.8l42.3-24.4l42.3,24.4l42.3-24.4l42.3,24.4l43-24.8v-0.1h62.9V240H485z
					 M315.9,46.3l41.5-24l41.5,24v48l-12.7,7.4l-28.8,16.6l-31.1-18l-10.4-6V46.3z M314.5,240.7l-41.5,24l-41.5-24v-48l41.5-24
					l23.5,13.6l18,10.4V240.7z M294.4,179.5l-20.8-12v-48l41.5-24l23.6,13.7l17.9,10.3v48l-17.9,10.3l-23.6,13.7L294.4,179.5z
					 M399,240.7l-41.5,24l-41.5-24v-48l10.4-6l31.1-18l28.8,16.6l12.7,7.4V240.7z"/>
				<path class="st76" d="M483.7,240.5l-41.5,24l-41.5-24v-48l18-10.4l23.5-13.6l41.5,24V240.5z M379.2,179.3l-20.8-12v-48l20.8-12
					l20.8-12l41.5,24v48l-20.8,12l-20.8,12L379.2,179.3z M485.2,239.8v-48.1l-42.3-24.4v-48.8l-42.3-24.4V45.3l-43-24.8l-43,24.8
					v48.8l-42.3,24.4v48.8l-42.3,24.4V240H-56.5v1.4h286.7l42.9,24.8l42.3-24.4l42.3,24.4l42.3-24.4l42.3,24.4l43-24.8v-0.1h62.9
					v-1.4H485.2z M316.1,46.1l41.5-24l41.5,24v48l-12.7,7.4L357.7,118l-31.1-18l-10.4-6V46.1z M314.7,240.5l-41.5,24l-41.5-24v-48
					l41.5-24l23.5,13.6l18,10.4V240.5z M294.6,179.3l-20.8-12v-48l41.5-24L339,109l17.9,10.3v48L339,177.6l-23.6,13.7L294.6,179.3z
					 M399.2,240.5l-41.5,24l-41.5-24v-48l10.4-6l31.1-18l28.8,16.6l12.7,7.4V240.5z"/>
				<path class="st77" d="M483.9,240.3l-41.5,24l-41.5-24v-48l18-10.4l23.5-13.6l41.5,24V240.3z M379.4,179l-20.8-12v-48l20.8-12
					l20.8-12l41.5,24v48l-20.8,12l-20.8,12L379.4,179z M485.4,239.5v-48.1l-42.3-24.4v-48.8l-42.3-24.4V45.1l-43-24.8l-43,24.8v48.8
					l-42.3,24.4v48.8l-42.3,24.4v48.3H-56.3v1.4h286.7l42.9,24.8l42.3-24.4l42.3,24.4l42.3-24.4l42.3,24.4l43-24.8V241h62.9v-1.4
					H485.4z M316.4,45.9l41.5-24l41.5,24v48l-12.7,7.4l-28.8,16.6l-31.1-18l-10.4-6V45.9z M314.9,240.3l-41.5,24l-41.5-24v-48
					l41.5-24l23.5,13.6l18,10.4V240.3z M294.9,179l-20.8-12v-48l41.5-24l23.6,13.7l17.9,10.3v48l-17.9,10.3L315.6,191L294.9,179z
					 M399.4,240.3l-41.5,24l-41.5-24v-48l10.4-6l31.1-18l28.8,16.6l12.7,7.4V240.3z"/>
				<path class="st78" d="M484.2,240l-41.5,24l-41.5-24v-48l18-10.4l23.5-13.6l41.5,24V240z M379.6,178.8l-20.8-12v-48l20.8-12
					l20.8-12l41.5,24v48l-20.8,12l-20.8,12L379.6,178.8z M485.6,239.3v-48.1l-42.3-24.4V118l-42.3-24.4V44.8l-43-24.8l-43,24.8v48.8
					L272.8,118v48.8l-42.3,24.4v48.3H-56v1.4h286.7l42.9,24.8l42.3-24.4l42.3,24.4l42.3-24.4l42.3,24.4l43-24.8v-0.1h62.9v-1.4
					H485.6z M316.6,45.7l41.5-24l41.5,24v48l-12.7,7.4l-28.8,16.6l-31.1-18l-10.4-6V45.7z M315.1,240l-41.5,24L232,240v-48l41.5-24
					l23.5,13.6l18,10.4V240z M295.1,178.8l-20.8-12v-48l41.5-24l23.6,13.7l17.9,10.3v48l-17.9,10.3l-23.6,13.7L295.1,178.8z
					 M399.6,240l-41.5,24l-41.5-24v-48l10.4-6l31.1-18l28.8,16.6l12.7,7.4V240z"/>
			</g>
			<path class="st2" d="M485.6,239.3v-48.1l-42.3-24.4V118l-42.3-24.4V44.8l-43-24.8l-43,24.8v48.8L272.8,118v48.8l-42.3,24.4v48.3
				H-56v1.4h286.7l42.9,24.8l42.3-24.4l42.3,24.4l42.3-24.4l42.3,24.4l43-24.8v-0.1h62.9v-1.4H485.6z M316.6,45.7l41.5-24l41.5,24
				v48l-12.7,7.4l-28.8,16.6l-31.1-18l-10.4-6V45.7z M315.1,240l-41.5,24L232,240v-48l41.5-24l23.5,13.6l18,10.4V240z M295.1,178.8
				l-20.8-12v-48l41.5-24l23.6,13.7l17.9,10.3v48l-17.9,10.3l-23.6,13.7L295.1,178.8z M399.6,240l-41.5,24l-41.5-24v-48l10.4-6
				l31.1-18l28.8,16.6l12.7,7.4V240z M379.6,178.8l-20.8-12v-48l20.8-12l20.8-12l41.5,24v48l-20.8,12l-20.8,12L379.6,178.8z
				 M484.2,240l-41.5,24l-41.5-24v-48l18-10.4l23.5-13.6l41.5,24V240z"/>
		</g>
	</g>
	<g>
		<path class="st2" d="M341.6,79.7c-0.3,1-0.5,1.9-0.7,2.9c1-0.3,1.9-0.5,2.9-0.7c0.3-1,0.5-1.9,0.8-2.8
			C343.6,79.3,342.6,79.5,341.6,79.7z M366.4,67.8l-2.5-2.5c-0.9,0.2-1.7,0.3-2.6,0.5l4,4c-0.6,1-1.3,1.9-2.1,2.7l-5.6-5.6
			c-0.8,0.3-1.5,0.5-2.3,0.8l6.2,6.2c-0.5,0.3-0.9,0.7-1.4,0.9c-0.5,0.3-1.1,0.5-1.6,0.8l-6.3-6.3c-0.5,0.4-1,0.8-1.5,1.3
			c0,0-0.1,0.1-0.1,0.2l5.7,5.7c-1.2,0.4-2.4,0.8-3.7,1.1l-4.1-4.1c-0.4,0.6-0.8,1.3-1.1,2l2.6,2.6c-1.3,0.3-2.7,0.5-4,0.7
			c-0.3,0.9-0.6,1.8-0.9,2.8c6-1.2,12.2-1.8,17.2-4.6c4.5-2.5,7-7.4,8.6-13c-1,0.2-2.1,0.4-3.1,0.6
			C367.3,65.7,366.9,66.8,366.4,67.8z M333.8,82.2l2.2,2.2c0.3-0.2,0.7-0.3,1-0.4l2,2c0.2-0.9,0.3-1.7,0.5-2.6l-0.3-0.3
			c0.1,0,0.2-0.1,0.3-0.1c0.2-1,0.5-2,0.7-3C338,80.5,335.8,81.2,333.8,82.2z M368.2,63.4c1-0.2,2-0.4,3.1-0.6
			c0.3-1,0.5-1.9,0.7-2.9c-1,0.3-1.9,0.5-2.9,0.7C368.8,61.5,368.5,62.5,368.2,63.4z M369.3,59.3c1-0.2,1.9-0.5,2.9-0.7
			c0-0.1,0-0.2,0.1-0.2l0.2,0.2c0.8-0.2,1.6-0.5,2.3-0.8l-2-2c0.1-0.5,0.2-0.9,0.3-1.4l-2.2-2.2C370.4,54.5,369.9,57,369.3,59.3z"/>
		<path class="st2" d="M347.6,67.6c-4.6,4.6-6.4,12.6-7.9,20.5c0.7,0.7,1.5,1.5,2.2,2.2c1.5-7.9,3.2-15.9,7.9-20.5
			c0.9-0.9,1.9-1.6,3-2.2c7.7-4.3,18.2-3.4,26.3-7.3c-0.7-0.7-1.5-1.5-2.2-2.2c-8.1,3.9-18.6,3-26.3,7.3
			C349.5,66,348.5,66.8,347.6,67.6z"/>
	</g>
	<g>
		<path class="st2" d="M410.2,134.1c-6.1,0-11,4.8-11.4,10.7h22.8C421.3,138.9,416.3,134.1,410.2,134.1z"/>
		<path class="st2" d="M398.8,146.1c0.3,6,5.3,10.8,11.4,10.8s11.1-4.8,11.4-10.8H398.8z"/>
		<path class="st2" d="M389.2,125.8c-4,0-7.3,3.3-7.3,7.3l0,22.2c0,2,0.8,3.8,2.2,5.2c1.3,1.3,3.2,2.2,5.2,2.2c4,0,7.3-3.3,7.3-7.3
			v-22.2C396.5,129.1,393.2,125.8,389.2,125.8z M394.9,144.6h-11.5v-11.2c0-3.2,2.6-5.8,5.8-5.8c3.2,0,5.8,2.6,5.8,5.8V144.6z"/>
	</g>
	<g>
		<path class="st2" d="M273.4,195.1c0,0-12.6,21-12.6,28c0,6.9,5.6,12.6,12.6,12.6c6.9,0,12.6-5.6,12.6-12.6
			C285.9,216.1,273.4,195.1,273.4,195.1z M273.4,232.9c-5.5,0-9.9-4.4-9.9-9.9c0-3.8,5.4-14.7,9.9-22.7c4.5,8,9.9,18.9,9.9,22.7
			C283.3,228.5,278.9,232.9,273.4,232.9z"/>
		<path class="st2" d="M272.1,229c-2.5-1.3-4-3.9-4-6.7c0-0.5-0.4-1-1-1c-0.5,0-1,0.4-1,1c0,3.5,1.9,6.7,5,8.4
			c0.1,0.1,0.3,0.1,0.5,0.1c0.3,0,0.7-0.2,0.8-0.5C272.7,229.8,272.5,229.3,272.1,229z"/>
	</g>
	<g>
		<path class="st2" d="M334.8,128.6c0,0-1.4,1.4-5.8,1.4c-1,0-2.1-0.1-3.3-0.2c-7.3-0.9-10.4-4.2-10.4-4.2s-3.1,3.2-10.4,4.2
			c-1.3,0.2-2.4,0.2-3.3,0.2c-4.3,0-5.8-1.4-5.8-1.4s-4.2,25,19.5,38.8C339,153.7,334.8,128.6,334.8,128.6z M315.3,164.8
			c-8.6-5.3-14.1-12.8-16.4-22.3c-1.1-4.3-1.2-8.1-1.1-10.6c1,0.2,2.2,0.4,3.7,0.4c1.1,0,2.4-0.1,3.6-0.2c5-0.6,8.3-2.3,10.1-3.5
			c1.8,1.2,5.1,2.9,10.1,3.5c1.3,0.2,2.5,0.2,3.6,0.2c1.5,0,2.7-0.1,3.7-0.4C333,138.4,331.7,154.6,315.3,164.8z"/>
		<polygon class="st2" points="318.1,137.3 312.6,137.3 312.6,142.7 307.2,142.7 307.2,148.1 312.6,148.1 312.6,153.6 318.1,153.6 
			318.1,148.1 323.5,148.1 323.5,142.7 318.1,142.7 		"/>
	</g>
	<path class="st2" d="M380,213.8L380,213.8c-0.3-6.5-5.7-11.4-12.4-11.4c-0.2,0-0.4,0-0.6,0c-4.2,0.2-7.4,2.9-9,4.6
		c-1.6-1.7-4.7-4.5-8.9-4.8c-0.3,0-0.5,0-0.8,0c-6.6,0-12,4.8-12.4,11.2c-0.4,6,3.7,11.2,6.8,14.6c4,4.4,10.3,9.2,14.4,11.6l0.7,0.4
		l0.7-0.4c4.1-2.4,10.5-7,14.6-11.4C376.2,225,380.4,219.8,380,213.8z M371.1,226.5c-4.1,4.3-9.9,8.5-13.2,10.5
		c-3.3-2.1-9.1-6.3-13.1-10.7c-0.8-0.9-1.6-1.8-2.4-2.9h8.5c0.1,0,0.3-0.1,0.4-0.2l0.5-0.6l0.6,2.7c0,0.2,0.2,0.3,0.4,0.3
		c0.2,0,0.4-0.1,0.4-0.3l0.6-2.5l0.7,3.6c0,0.2,0.2,0.3,0.4,0.3c0.2,0,0.4-0.1,0.4-0.3l2.1-10.2l1.7,15.1c0,0.2,0.2,0.3,0.4,0.3
		c0.2,0,0.4-0.1,0.4-0.3l1.5-9l0.6,3.9c0,0.2,0.2,0.3,0.4,0.3c0.2,0,0.4-0.1,0.4-0.3l1.1-3.3l0.4,1.9c0,0.2,0.2,0.3,0.4,0.3
		c0.2,0,0.4-0.1,0.4-0.3l0.5-1.4l0.5,0.7c0.1,0.1,0.2,0.2,0.3,0.2c0.1,0,0.3-0.1,0.3-0.1l0.7-0.8h6.2
		C372.8,224.5,371.9,225.6,371.1,226.5z M374.3,222.6h-6.9c-0.1,0-0.3,0.1-0.3,0.1l-0.5,0.5l-0.6-0.9c-0.1-0.1-0.2-0.2-0.4-0.2
		c-0.2,0-0.3,0.1-0.4,0.3l-0.3,0.8l-0.5-2.1c0-0.2-0.2-0.3-0.4-0.3c0,0,0,0,0,0c-0.2,0-0.4,0.1-0.4,0.3l-1,3.1l-0.7-4.7
		c0-0.2-0.2-0.3-0.4-0.3c-0.2,0-0.4,0.1-0.4,0.3l-1.4,8.6l-1.7-14.8c0-0.2-0.2-0.3-0.4-0.3c-0.2,0-0.4,0.1-0.4,0.3l-2.2,10.7
		l-0.7-3.6c0-0.2-0.2-0.3-0.4-0.3c-0.2,0-0.4,0.1-0.4,0.3l-0.6,2.6l-0.4-1.7c0-0.2-0.2-0.3-0.4-0.3c-0.2,0-0.3,0-0.4,0.2l-0.9,1.2
		h-8.9c-1.8-2.6-3.3-5.7-3.1-9c0.3-4.3,3.7-8.7,9.7-8.7c0.2,0,0.4,0,0.7,0c4.7,0.3,7.9,4.9,7.9,5l1.1,1.6l1.1-1.6c0,0,3.3-4.6,8-4.8
		c6.3-0.2,10,4.4,10.2,8.8v0C377.5,217.1,376.1,220.1,374.3,222.6z"/>
	<path class="st2" d="M464.5,220.7c0-2.7-2.2-4.8-4.8-4.8c-2.7,0-4.8,2.2-4.8,4.8c0,2.3,1.6,4.2,3.8,4.7v8.1
		c0,5.9-4.8,10.7-10.7,10.7c-5.9,0-10.7-4.8-10.7-10.7v-3.3h4.7c2.6,0,4.8-2,5.1-4.5l2.7-21.8c0.2-1.5-0.3-3-1.3-4.1
		c-1-1.1-2.4-1.8-3.9-1.8h-2c-0.6,0-1.1,0.5-1.1,1.1c0,0.6,0.5,1.1,1.1,1.1h2c0.9,0,1.7,0.4,2.3,1c0.6,0.7,0.8,1.5,0.7,2.4
		l-2.7,21.8c-0.2,1.5-1.5,2.7-3,2.7h-11.6c-1.5,0-2.8-1.1-3-2.7l-2.7-21.8c-0.1-0.9,0.2-1.7,0.7-2.4c0.6-0.7,1.4-1,2.3-1h2.8
		c0.6,0,1.1-0.5,1.1-1.1c0-0.6-0.5-1.1-1.1-1.1h-2.8c-1.5,0-2.9,0.6-3.9,1.8c-1,1.1-1.4,2.6-1.3,4.1l2.7,21.8
		c0.3,2.6,2.5,4.5,5.1,4.5h4.7v3.3c0,7.1,5.8,12.8,12.8,12.8c7.1,0,12.8-5.8,12.8-12.8v-8.1C462.9,224.9,464.5,223,464.5,220.7z"/>
</g>
</svg>
