<?xml version="1.0" encoding="utf-8"?>
<!-- Generator: Adobe Illustrator 27.3.1, SVG Export Plug-In . SVG Version: 6.00 Build 0)  -->
<svg version="1.1" id="Layer_2_00000053512890147041861240000017319236204425622956_"
	 xmlns="http://www.w3.org/2000/svg" xmlns:xlink="http://www.w3.org/1999/xlink" x="0px" y="0px" viewBox="0 0 260.3 124.7"
	 style="enable-background:new 0 0 260.3 124.7;" xml:space="preserve">
<style type="text/css">
	.st0{fill:#E8E8E8;}
</style>
<g id="Layer_1-2">
	<g>
		<g id="_7c800233-5a01-48b9-9cbd-998c68d4aac3">
			<path class="st0" d="M22.7,124.1h7.2L18.8,93.4h-7.6l-11,30.7h7.2l1.9-5.8h11.5L22.7,124.1z M11.1,112.7l3.9-12.2l3.9,12.2H11.1
				L11.1,112.7z M38.8,124.5c4.6,0,7.4-2.8,7.4-6.6c0-4.1-3.4-5.7-6.3-6.9c-1.5-0.6-2.2-0.9-2.2-1.7c0-0.6,0.5-1.2,1.6-1.2
				c1.3,0,2.5,0.7,3.2,1.5l3.3-3.7c-1.5-1.6-4-2.7-6.9-2.7c-4.7,0-7.6,3.1-7.6,6.6c0,4.1,4.1,5.5,6.5,6.3c1.8,0.7,2.5,1.2,2.5,2
				s-0.7,1.3-1.8,1.3S36,119,35,117.3l-4.8,2.4C31.4,122.8,35.2,124.6,38.8,124.5L38.8,124.5z M56.8,124.5c4.6,0,7.4-2.8,7.4-6.6
				c0-4.1-3.4-5.7-6.3-6.9c-1.5-0.6-2.2-0.9-2.2-1.7c0-0.6,0.5-1.2,1.6-1.2c1.3,0,2.5,0.7,3.2,1.5l3.3-3.7c-1.5-1.6-4-2.7-6.9-2.7
				c-4.7,0-7.6,3.1-7.6,6.6c0,4.1,4.1,5.5,6.5,6.3c1.8,0.7,2.5,1.2,2.5,2s-0.7,1.3-1.8,1.3S54,119,53,117.3l-4.8,2.4
				C49.4,122.8,53.2,124.6,56.8,124.5L56.8,124.5z M77.4,124.5c6.2,0,9.6-3.2,9.6-8.2v-12.6h-6.5v11.8c0,1.9-1.3,3.3-3.1,3.3
				s-3.1-1.4-3.1-3.3v-11.8h-6.6v12.6C67.8,121.3,71.2,124.5,77.4,124.5z M104.9,103.3c-2.4,0-4.4,1.2-5.7,3.2v-2.8h-6.6v20.5h6.6
				v-9.8c0-3.4,2.3-5.3,5.5-5.3c0.8,0,1.5,0.1,1.9,0.2v-5.8C106.2,103.3,105.5,103.3,104.9,103.3z M130.3,113.8
				c0-6.4-4.4-10.6-11-10.6s-11.3,4.3-11.3,10.7s4.6,10.6,11.5,10.6c5.7,0,9.5-3,10.5-7.5h-6.3c-0.6,1.6-2.1,2.6-4.3,2.6
				c-3,0-4.5-1.8-4.8-4.7h15.6L130.3,113.8L130.3,113.8z M119.5,108.2c2.2,0,3.5,1,4.1,2.8h-8.5
				C115.8,109.3,117.2,108.2,119.5,108.2z M149.6,107.3v5.3h8.4c-1.4,3.2-4.6,5.3-8.4,5.3c-5.1,0-9.1-4-9.1-9.2s4-9.2,9.1-9.2
				c3.6,0,6.6,1.9,8.2,4.8l5.8-3c-2.7-5-7.9-8.4-14-8.4c-8.7,0-15.8,7.1-15.8,15.8s7,15.8,15.8,15.8s15.8-7.1,15.8-15.8v-1.5
				L149.6,107.3L149.6,107.3z M179.5,124.5c6.2,0,9.6-3.2,9.6-8.2v-12.6h-6.5v11.8c0,1.9-1.3,3.3-3.1,3.3s-3.1-1.4-3.1-3.3v-11.8
				h-6.6v12.6C169.8,121.3,173.3,124.5,179.5,124.5L179.5,124.5z M217.5,118.8c-0.9,0-1.8-0.3-1.8-2v-13.2h-6.5v1.8
				c-1.6-1.4-3.5-2.2-5.9-2.2c-5.7,0-10.1,4.7-10.1,10.6s4.4,10.6,10.1,10.6c3,0,5.4-1.3,7-3.5c1.3,2.1,3.5,3.5,6.3,3.5
				c0.7,0,1.3-0.2,1.8-0.4v-5.3L217.5,118.8L217.5,118.8z M204.7,118.7c-2.7,0-4.9-2.1-4.9-4.8s2.1-4.8,4.9-4.8s4.9,2.1,4.9,4.8
				S207.4,118.7,204.7,118.7z M234.5,103.2c-2.4,0-4.4,1.2-5.7,3.2v-2.8h-6.6v20.5h6.6v-9.8c0-3.4,2.3-5.3,5.5-5.3
				c0.8,0,1.4,0.1,1.9,0.2v-5.8C235.7,103.3,235.1,103.2,234.5,103.2z M253.7,89.1v16.4c-1.6-1.4-3.5-2.2-5.9-2.2
				c-5.7,0-10.1,4.7-10.1,10.6s4.4,10.6,10.1,10.6c2.4,0,4.3-0.8,5.9-2.2v1.8l6.5-0.1V89.1H253.7L253.7,89.1z M249.1,118.7
				c-2.7,0-4.9-2.1-4.9-4.8s2.1-4.8,4.9-4.8s4.9,2.1,4.9,4.8S251.8,118.7,249.1,118.7z"/>
		</g>
		<g id="_2941ba1a-f56b-4ab7-abc4-d7b62311b7fc">
			<path class="st0" d="M133.9,54.3l9.7,16.8L167.9,29h-21.2V15.8L119.6,0.1L92.4,15.7V47l27.2,15.6L133.9,54.3z M159.8,33.7
				l-16.2,28l-16.2-28H159.8L159.8,33.7z"/>
		</g>
	</g>
</g>
</svg>
