<?xml version="1.0" encoding="utf-8"?>
<!-- Generator: Adobe Illustrator 27.3.1, SVG Export Plug-In . SVG Version: 6.00 Build 0)  -->
<svg version="1.1" id="Layer_1" xmlns="http://www.w3.org/2000/svg" xmlns:xlink="http://www.w3.org/1999/xlink" x="0px" y="0px"
	 viewBox="0 0 422.9 402.3" style="enable-background:new 0 0 422.9 402.3;" xml:space="preserve">
<style type="text/css">
	.st0{fill:#BACBC2;}
	.st1{fill-rule:evenodd;clip-rule:evenodd;fill:#A3DCE7;}
	.st2{fill-rule:evenodd;clip-rule:evenodd;fill:#4E2E75;}
	.st3{fill:#4E2E75;}
	.st4{fill:#EB7D67;}
	.st5{fill:#CDE1E6;}
	.st6{fill:#FFFFFF;}
	.st7{fill:#FFC74A;}
	.st8{fill-rule:evenodd;clip-rule:evenodd;fill:#FFFFFF;}
	.st9{fill-rule:evenodd;clip-rule:evenodd;fill:#CDE1E6;}
	.st10{fill-rule:evenodd;clip-rule:evenodd;fill:#EBA040;}
	.st11{fill:#A1C73A;}
	.st12{fill:#8CB03E;}
	.st13{fill-rule:evenodd;clip-rule:evenodd;fill:#8CB03E;}
	.st14{fill-rule:evenodd;clip-rule:evenodd;fill:#BDD862;}
	.st15{fill-rule:evenodd;clip-rule:evenodd;fill:#A0C244;}
	.st16{fill:#EEE875;}
	.st17{fill-rule:evenodd;clip-rule:evenodd;fill:#D0CB50;}
	.st18{fill:#6C883A;}
	.st19{fill-rule:evenodd;clip-rule:evenodd;fill:#C77A29;}
	.st20{fill-rule:evenodd;clip-rule:evenodd;fill:#FFC74A;}
	.st21{fill-rule:evenodd;clip-rule:evenodd;fill:#FFF0A9;}
	.st22{fill:#FFF0A9;}
</style>
<g>
	<g>
		<circle class="st0" cx="211.5" cy="201.2" r="181.1"/>
	</g>
	<g>
		<g>
			<ellipse class="st1" cx="224.4" cy="168" rx="75.4" ry="62.4"/>
		</g>
		<g>
			<path class="st1" d="M335.8,205.4H224.4H112.9c-12.3,0-22.4,8.4-22.4,18.6s10.1,18.6,22.4,18.6h111.5h111.5
				c12.3,0,22.4-8.4,22.4-18.6S348.2,205.4,335.8,205.4z"/>
		</g>
		<g>
			<path class="st1" d="M342,152.6h-11.4c0.3-1.1,0.4-2.3,0.4-3.5v0c0-10.2-10.1-18.6-22.4-18.6h-84.2h-84.2
				c-12.3,0-22.4,8.4-22.4,18.6v0c0,1.2,0.1,2.4,0.4,3.5h-11.4c-12.3,0-22.4,8.4-22.4,18.6s10.1,18.6,22.4,18.6h117.6H342
				c12.3,0,22.4-8.4,22.4-18.6S354.3,152.6,342,152.6z"/>
		</g>
		<g>
			<path class="st1" d="M224.4,133.5c-62.3,0-112.8,38-112.8,84.8c0,33.6,26,62.6,63.6,76.4h98.3c37.7-13.7,63.6-42.8,63.6-76.4
				C337.1,171.5,286.7,133.5,224.4,133.5z"/>
		</g>
		<g>
			<ellipse class="st2" cx="205.9" cy="294.7" rx="147.4" ry="2"/>
		</g>
		<g>
			<path class="st3" d="M207,272.4H198v-77.3c0-0.5-0.4-0.9-0.9-0.9h-6v-1.4c0-0.8-0.3-1.6-0.9-2.1c-0.5-0.5-1.3-0.9-2.1-0.9h0
				c-0.8,0-1.6,0.3-2.1,0.9c-0.5,0.5-0.9,1.3-0.9,2.1v1.4h-4.4v-1.4c0-0.8-0.3-1.6-0.9-2.1c-0.5-0.5-1.3-0.9-2.1-0.9h0
				c-0.8,0-1.6,0.3-2.1,0.9c-0.5,0.5-0.9,1.3-0.9,2.1v1.4h-4.4v-1.4c0-0.8-0.3-1.6-0.9-2.1c-0.5-0.5-1.3-0.9-2.1-0.9h0
				c-0.8,0-1.6,0.3-2.1,0.9c-0.5,0.5-0.9,1.3-0.9,2.1v1.4h-4.4v-1.4c0-0.8-0.3-1.6-0.9-2.1c-0.5-0.5-1.3-0.9-2.1-0.9h0
				c-0.8,0-1.6,0.3-2.1,0.9c-0.5,0.5-0.9,1.3-0.9,2.1v1.4h-4.4v-1.4c0-0.8-0.3-1.6-0.9-2.1c-0.5-0.5-1.3-0.9-2.1-0.9h0
				c-0.8,0-1.6,0.3-2.1,0.9c-0.5,0.5-0.9,1.3-0.9,2.1v1.4h-4.4v-1.4c0-0.8-0.3-1.6-0.9-2.1c-0.5-0.5-1.3-0.9-2.1-0.9h0
				c-0.8,0-1.6,0.3-2.1,0.9c-0.5,0.5-0.9,1.3-0.9,2.1v1.4h-4.4v-1.4c0-0.8-0.3-1.6-0.9-2.1c-0.5-0.5-1.3-0.9-2.1-0.9h0
				c-0.8,0-1.6,0.3-2.1,0.9c-0.5,0.5-0.9,1.3-0.9,2.1v1.4H118v-1.4c0-0.8-0.3-1.6-0.9-2.1c-0.5-0.5-1.3-0.9-2.1-0.9h0
				c-0.8,0-1.6,0.3-2.1,0.9c-0.5,0.5-0.9,1.3-0.9,2.1v1.4h-11.3h-9.3c-0.5,0-0.9,0.4-0.9,0.9v99.2c0,0.5,0.4,0.9,0.9,0.9h105.8
				c0.5,0,0.9-0.4,0.9-0.9v-9.2h3.6c1.8,0,3.3-0.7,4.5-1.9c1.2-1.2,1.9-2.7,1.9-4.5v-5.5C207.9,272.8,207.5,272.4,207,272.4z"/>
		</g>
		<g>
			<path class="st4" d="M125.4,191.6L125.4,191.6c-0.3,0-0.6,0.1-0.9,0.4c-0.2,0.2-0.4,0.5-0.4,0.9v2.3v7.5c0,0.3,0.1,0.6,0.4,0.9
				c0.2,0.2,0.5,0.4,0.9,0.4h0c0.3,0,0.6-0.1,0.9-0.4c0.2-0.2,0.4-0.5,0.4-0.9v-7.5v-2.3c0-0.3-0.1-0.6-0.4-0.9
				C126,191.7,125.7,191.6,125.4,191.6z"/>
		</g>
		<g>
			<path class="st4" d="M135.9,191.6L135.9,191.6c-0.3,0-0.6,0.1-0.9,0.4c-0.2,0.2-0.4,0.5-0.4,0.9v2.3v7.5c0,0.3,0.1,0.6,0.4,0.9
				c0.2,0.2,0.5,0.4,0.9,0.4h0c0.3,0,0.6-0.1,0.9-0.4c0.2-0.2,0.4-0.5,0.4-0.9v-7.5v-2.3c0-0.3-0.1-0.6-0.4-0.9
				C136.5,191.7,136.2,191.6,135.9,191.6z"/>
		</g>
		<g>
			<path class="st4" d="M146.3,191.6L146.3,191.6c-0.3,0-0.6,0.1-0.9,0.4c-0.2,0.2-0.4,0.5-0.4,0.9v2.3v7.5c0,0.3,0.1,0.6,0.4,0.9
				c0.2,0.2,0.5,0.4,0.9,0.4h0c0.3,0,0.6-0.1,0.9-0.4c0.2-0.2,0.4-0.5,0.4-0.9v-7.5v-2.3c0-0.3-0.1-0.6-0.4-0.9
				C146.9,191.7,146.6,191.6,146.3,191.6z"/>
		</g>
		<g>
			<path class="st4" d="M156.7,191.6L156.7,191.6c-0.3,0-0.6,0.1-0.9,0.4c-0.2,0.2-0.4,0.5-0.4,0.9v2.3v7.5c0,0.3,0.1,0.6,0.4,0.9
				c0.2,0.2,0.5,0.4,0.9,0.4h0c0.3,0,0.6-0.1,0.9-0.4c0.2-0.2,0.4-0.5,0.4-0.9v-7.5v-2.3c0-0.3-0.1-0.6-0.4-0.9
				C157.4,191.7,157.1,191.6,156.7,191.6z"/>
		</g>
		<g>
			<path class="st4" d="M167.2,191.6L167.2,191.6c-0.3,0-0.6,0.1-0.9,0.4c-0.2,0.2-0.4,0.5-0.4,0.9v2.3v7.5c0,0.3,0.1,0.6,0.4,0.9
				c0.2,0.2,0.5,0.4,0.9,0.4h0c0.3,0,0.6-0.1,0.9-0.4s0.4-0.5,0.4-0.9v-7.5v-2.3c0-0.3-0.1-0.6-0.4-0.9
				C167.8,191.7,167.5,191.6,167.2,191.6z"/>
		</g>
		<g>
			<path class="st4" d="M177.6,191.6L177.6,191.6c-0.3,0-0.6,0.1-0.9,0.4c-0.2,0.2-0.4,0.5-0.4,0.9v2.3v7.5c0,0.3,0.1,0.6,0.4,0.9
				c0.2,0.2,0.5,0.4,0.9,0.4h0c0.3,0,0.6-0.1,0.9-0.4c0.2-0.2,0.4-0.5,0.4-0.9v-7.5v-2.3c0-0.3-0.1-0.6-0.4-0.9
				C178.3,191.7,178,191.6,177.6,191.6z"/>
		</g>
		<g>
			<path class="st4" d="M188.1,191.6L188.1,191.6c-0.3,0-0.6,0.1-0.9,0.4c-0.2,0.2-0.4,0.5-0.4,0.9v2.3v7.5c0,0.3,0.1,0.6,0.4,0.9
				c0.2,0.2,0.5,0.4,0.9,0.4h0c0.3,0,0.6-0.1,0.9-0.4c0.2-0.2,0.4-0.5,0.4-0.9v-7.5v-2.3c0-0.3-0.1-0.6-0.4-0.9
				C188.7,191.7,188.4,191.6,188.1,191.6z"/>
		</g>
		<g>
			<path class="st4" d="M115,191.6L115,191.6c-0.3,0-0.6,0.1-0.9,0.4c-0.2,0.2-0.4,0.5-0.4,0.9v2.3v7.5c0,0.3,0.1,0.6,0.4,0.9
				c0.2,0.2,0.5,0.4,0.9,0.4h0c0.3,0,0.6-0.1,0.9-0.4c0.2-0.2,0.4-0.5,0.4-0.9v-7.5v-2.3c0-0.3-0.1-0.6-0.4-0.9
				C115.6,191.7,115.3,191.6,115,191.6z"/>
		</g>
		<g>
			<path class="st5" d="M191.1,202.6c0,0.8-0.3,1.6-0.9,2.1c-0.5,0.5-1.3,0.9-2.1,0.9h0c-0.8,0-1.6-0.3-2.1-0.9
				c-0.5-0.5-0.9-1.3-0.9-2.1V196h-4.4v6.6c0,0.8-0.3,1.6-0.9,2.1c-0.5,0.5-1.3,0.9-2.1,0.9h0c-0.8,0-1.6-0.3-2.1-0.9
				c-0.5-0.5-0.9-1.3-0.9-2.1V196h-4.4v6.6c0,0.8-0.3,1.6-0.9,2.1c-0.5,0.5-1.3,0.9-2.1,0.9h0c-0.8,0-1.6-0.3-2.1-0.9
				c-0.5-0.5-0.9-1.3-0.9-2.1V196h-4.4v6.6c0,0.8-0.3,1.6-0.9,2.1c-0.5,0.5-1.3,0.9-2.1,0.9h0c-0.8,0-1.6-0.3-2.1-0.9
				c-0.5-0.5-0.9-1.3-0.9-2.1V196h-4.4v6.6c0,0.8-0.3,1.6-0.9,2.1c-0.5,0.5-1.3,0.9-2.1,0.9h0c-0.8,0-1.6-0.3-2.1-0.9
				c-0.5-0.5-0.9-1.3-0.9-2.1V196h-4.4v6.6c0,0.8-0.3,1.6-0.9,2.1c-0.5,0.5-1.3,0.9-2.1,0.9h0c-0.8,0-1.6-0.3-2.1-0.9
				c-0.5-0.5-0.9-1.3-0.9-2.1V196h-4.4v6.6c0,0.8-0.3,1.6-0.9,2.1c-0.5,0.5-1.3,0.9-2.1,0.9h0c-0.8,0-1.6-0.3-2.1-0.9
				c-0.5-0.5-0.9-1.3-0.9-2.1V196H118v6.6c0,0.8-0.3,1.6-0.9,2.1c-0.5,0.5-1.3,0.9-2.1,0.9h0c-0.8,0-1.6-0.3-2.1-0.9
				c-0.5-0.5-0.9-1.3-0.9-2.1V196h-10.4v87.3h18.6l0,0l0,0l0,0l0,0l0,0l0,0l0,0l0,0l0,0l0,0l0,0l0,0l0,0l0,0l0,0l0,0l0,0l0,0l0,0
				l0,0l0,0l0,0l0,0l0,0l0,0l0,0l0,0l0,0l0,0l0,0l0,0l0,0l0,0l0,0l0,0l0,0l0,0l0,0l0,0l0,0l0,0l0,0l0,0l0,0l0,0l0,0l0,0l0,0l0,0l0,0
				l0,0l0,0l0,0l0,0l0,0l0,0l0,0l0,0l0,0l0,0l0,0l0,0l0,0l0,0l0,0l0,0l0,0l0,0l0,0l0,0l0,0l0,0l0,0l0,0l0,0l0,0l0,0l0,0l0,0l0,0l0,0
				l0,0l0,0l0,0l0,0l0,0l0,0l0,0l0,0l0,0l0,0l0,0l0,0l0,0l0,0l0,0l0,0l0,0l0,0l0,0l0,0l0,0l0,0l0,0l0,0l0,0l0,0l0,0l0,0l0,0l0,0l0,0
				l0,0l0,0l0,0l0,0l0,0l0,0l0,0l0,0l0,0l0,0l0,0l0,0l0,0l0,0l0,0l0,0l0,0l0,0l0,0l0,0l0,0l0,0l0,0l0,0l0,0l0,0l0,0l0,0l0,0l0,0l0,0
				l0,0l0,0l0,0l0,0l0,0l0,0l0,0l0,0l0,0l0,0l0,0l0,0l0,0l0,0l0,0l0,0l0,0l0,0l0,0l0,0l0,0l0,0l0,0l0,0l0,0l0,0l0,0l0,0l0,0l0,0l0,0
				l0,0l0,0l0,0l0,0l0,0l0,0l0,0l0,0l0,0l0,0l0,0l0,0l0,0l0,0l0,0l0,0l0,0l0,0l0,0c0.5-0.8,0.8-1.8,0.8-2.8c0-0.9-0.2-1.8-0.6-2.5
				c-0.4-0.8-0.9-1.5-1.6-2c-0.2-0.2-0.4-0.4-0.4-0.7c0-0.5,0.4-0.9,0.9-0.9h75.1V196h-5.1V202.6z"/>
		</g>
		<g>
			<path class="st6" d="M193.2,204.6c0,0.8-0.3,1.6-0.9,2.1c-0.5,0.5-1.3,0.9-2.1,0.9h0c-0.8,0-1.6-0.3-2.1-0.9
				c-0.3-0.3-0.6-0.7-0.7-1.2c-0.5-0.1-1-0.4-1.4-0.8c-0.5-0.5-0.9-1.3-0.9-2.1v-4.7h-2.3v6.6c0,0.8-0.3,1.6-0.9,2.1
				c-0.5,0.5-1.3,0.9-2.1,0.9h0c-0.8,0-1.6-0.3-2.1-0.9c-0.3-0.3-0.6-0.7-0.7-1.2c-0.5-0.1-1-0.4-1.4-0.8c-0.5-0.5-0.9-1.3-0.9-2.1
				v-4.7h-2.3v6.6c0,0.8-0.3,1.6-0.9,2.1c-0.5,0.5-1.3,0.9-2.1,0.9h0c-0.8,0-1.6-0.3-2.1-0.9c-0.3-0.3-0.6-0.7-0.7-1.2
				c-0.5-0.1-1-0.4-1.4-0.8c-0.5-0.5-0.9-1.3-0.9-2.1v-4.7h-2.3v6.6c0,0.8-0.3,1.6-0.9,2.1c-0.5,0.5-1.3,0.9-2.1,0.9h0
				c-0.8,0-1.6-0.3-2.1-0.9c-0.3-0.3-0.6-0.7-0.7-1.2c-0.5-0.1-1-0.4-1.4-0.8c-0.5-0.5-0.9-1.3-0.9-2.1v-4.7h-2.3v6.6
				c0,0.8-0.3,1.6-0.9,2.1c-0.5,0.5-1.3,0.9-2.1,0.9h0c-0.8,0-1.6-0.3-2.1-0.9c-0.3-0.3-0.6-0.7-0.7-1.2c-0.5-0.1-1-0.4-1.4-0.8
				c-0.5-0.5-0.9-1.3-0.9-2.1v-4.7H141v6.6c0,0.8-0.3,1.6-0.9,2.1c-0.5,0.5-1.3,0.9-2.1,0.9c-0.8,0-1.6-0.3-2.1-0.9
				c-0.3-0.3-0.6-0.7-0.7-1.2c-0.5-0.1-1-0.4-1.4-0.8c-0.5-0.5-0.9-1.3-0.9-2.1v-4.7h-2.3v6.6c0,0.8-0.3,1.6-0.9,2.1
				c-0.5,0.5-1.3,0.9-2.1,0.9h0c-0.8,0-1.6-0.3-2.1-0.9c-0.3-0.3-0.6-0.7-0.7-1.2c-0.5-0.1-1-0.4-1.4-0.8c-0.5-0.5-0.9-1.3-0.9-2.1
				v-4.7h-2.3v6.6c0,0.8-0.3,1.6-0.9,2.1c-0.5,0.5-1.3,0.9-2.1,0.9h0c-0.8,0-1.6-0.3-2.1-0.9c-0.3-0.3-0.6-0.7-0.7-1.2
				c-0.5-0.1-1-0.4-1.4-0.8c-0.5-0.5-0.9-1.3-0.9-2.1v-4.7h-8.3v85.4h16.5l0,0l0,0l0,0l0,0l0,0l0,0l0,0l0,0l0,0l0,0l0,0l0,0l0,0l0,0
				l0,0l0,0l0,0l0,0l0,0l0,0l0,0l0,0l0,0l0,0l0,0l0,0l0,0l0,0l0,0l0,0l0,0l0,0l0,0l0,0l0,0l0,0l0,0l0,0l0,0l0,0l0,0l0,0l0,0l0,0l0,0
				l0,0l0,0l0,0l0,0l0,0l0,0l0,0l0,0l0,0l0,0l0,0l0,0l0,0l0,0l0,0l0,0l0,0l0,0l0,0l0,0l0,0l0,0l0,0l0,0l0,0l0,0l0,0l0,0l0,0l0,0l0,0
				l0,0l0,0l0,0l0,0l0,0l0,0l0,0l0,0l0,0l0,0l0,0l0,0l0,0l0,0l0,0l0,0l0,0l0,0l0,0l0,0l0,0l0,0l0,0l0,0l0,0l0,0l0,0l0,0l0,0l0,0l0,0
				l0,0l0,0l0,0l0,0l0,0l0,0l0,0l0,0l0,0l0,0l0,0l0,0l0,0l0,0l0,0l0,0l0,0l0,0l0,0l0,0l0,0l0,0l0,0l0,0l0,0l0,0l0,0l0,0l0,0l0,0l0,0
				l0,0l0,0l0,0l0,0l0,0l0,0l0,0l0,0l0,0l0,0l0,0l0,0l0,0l0,0l0,0l0,0l0,0l0,0l0,0l0,0l0,0l0,0l0,0l0,0l0,0l0,0l0,0l0,0l0,0l0,0l0,0
				l0,0l0,0l0,0l0,0l0,0l0,0l0,0l0,0l0,0l0,0l0,0l0,0l0,0l0,0l0,0l0,0l0,0l0,0l0,0l0,0l0,0l0,0l0,0l0,0c0.5-0.8,0.8-1.8,0.8-2.8
				c0-0.9-0.2-1.8-0.6-2.5c-0.4-0.8-0.9-1.5-1.6-2c-0.2-0.2-0.4-0.4-0.4-0.7c0-0.5,0.4-0.9,0.9-0.9h75.1v-74.4h-2.9V204.6z"/>
		</g>
		<g>
			<rect x="103.6" y="197.9" class="st5" width="2.4" height="85.4"/>
		</g>
		<g>
			<path class="st5" d="M103.6,235.7v47.6h16.5l0,0l0,0l0,0l0,0l0,0l0,0l0,0l0,0l0,0l0,0l0,0l0,0l0,0l0,0l0,0l0,0l0,0l0,0l0,0l0,0
				l0,0l0,0l0,0l0,0l0,0l0,0l0,0l0,0l0,0l0,0l0,0l0,0l0,0l0,0l0,0l0,0l0,0l0,0l0,0l0,0l0,0l0,0l0,0l0,0l0,0l0,0l0,0l0,0l0,0l0,0l0,0
				l0,0l0,0l0,0l0,0l0,0l0,0l0,0l0,0l0,0l0,0l0,0l0,0l0,0l0,0l0,0l0,0l0,0l0,0l0,0l0,0l0,0l0,0l0,0l0,0l0,0l0,0l0,0l0,0l0,0l0,0l0,0
				l0,0l0,0l0,0l0,0l0,0l0,0l0,0l0,0l0,0l0,0l0,0l0,0l0,0l0,0l0,0l0,0l0,0l0,0l0,0l0,0l0,0l0,0l0,0l0,0l0,0l0,0l0,0l0,0l0,0l0,0l0,0
				l0,0l0,0l0,0l0,0l0,0l0,0l0,0l0,0l0,0l0,0l0,0l0,0l0,0l0,0l0,0l0,0l0,0l0,0l0,0l0,0l0,0l0,0l0,0l0,0l0,0l0,0l0,0l0,0l0,0l0,0l0,0
				l0,0l0,0l0,0l0,0l0,0l0,0l0,0l0,0l0,0l0,0l0,0l0,0l0,0l0,0l0,0l0,0l0,0l0,0l0,0l0,0l0,0l0,0l0,0l0,0l0,0l0,0l0,0l0,0l0,0l0,0l0,0
				l0,0l0,0l0,0l0,0l0,0l0,0l0,0l0,0l0,0l0,0l0,0l0,0l0,0l0,0l0,0l0,0l0,0l0,0c0.5-0.8,0.8-1.8,0.8-2.8c0-0.9-0.2-1.8-0.6-2.5
				c-0.4-0.8-0.9-1.5-1.6-2c-0.2-0.2-0.4-0.4-0.4-0.7c0-0.5,0.4-0.9,0.9-0.9h75.1v-3.7C103.6,278.8,103.6,235.7,103.6,235.7z"/>
		</g>
		<g>
			<path class="st7" d="M100.6,285.1c-0.5,0-0.9-0.4-0.9-0.9V196h-7.5v97.5h104v-8.3h-75.8H100.6z"/>
		</g>
		<g>
			<path class="st3" d="M177.1,223.6h-56.5c-0.5,0-0.9,0.4-0.9,0.9c0,0.5,0.4,0.9,0.9,0.9h56.5c0.5,0,0.9-0.4,0.9-0.9
				C178,224,177.6,223.6,177.1,223.6z"/>
		</g>
		<g>
			<path class="st3" d="M185.1,211.2h-72.5c-0.5,0-0.9,0.4-0.9,0.9c0,0.5,0.4,0.9,0.9,0.9h72.5c0.5,0,0.9-0.4,0.9-0.9
				C186,211.6,185.6,211.2,185.1,211.2z"/>
		</g>
		<g>
			<path class="st3" d="M180.2,217.7h-62.7c-0.5,0-0.9,0.4-0.9,0.9c0,0.5,0.4,0.9,0.9,0.9h62.7c0.5,0,0.9-0.4,0.9-0.9
				C181.1,218.1,180.7,217.7,180.2,217.7z"/>
		</g>
		<g>
			<path class="st8" d="M122.2,273.7c2,2.5,2.4,7.1,0.1,9.6h78.9c6.2,0,5.3-3.4,5.3-9.6H122.2z"/>
		</g>
		<g>
			<path class="st9" d="M122.3,283.3h78.9c4.2,0,5.1-1.6,5.3-4.5h-82.7C123.9,280.5,123.4,282.1,122.3,283.3z"/>
		</g>
		<g>
			<path class="st10" d="M100.6,285.1c-0.5,0-0.9-0.4-0.9-0.9V196h-7.5v1.8h5.2V286c0,0.5,0.4,0.9,0.9,0.9H118h75.8v6.5h2.3v-8.3
				h-75.8H100.6z"/>
		</g>
		<g>
			<path class="st3" d="M268,190.9c0.8-0.8,1.3-2,1.3-3.2v0c0-1.2-0.5-2.3-1.2-3.1c0.7-0.8,1.2-1.9,1.2-3.1v0c0-1.3-0.5-2.4-1.3-3.2
				c-0.4-0.4-0.8-0.6-1.2-0.9c4.4-3.7,7.1-7.1,8.4-10.1c0.9-2.2,1.2-4.2,0.8-6c-0.4-1.8-1.5-3.3-3.2-4.4c-1.9-1.2-4.5-1.9-7.7-1.9
				c-9.3,0-13.6-2.5-18.5-5.5c-1.1-0.7-2.3-1.4-3.3-1.9c-5.1-2.8-11.4-2.3-16.5,0.4c-2.4,1.3-4.4,3-6,5.2c-1.1,1.6-2,3.3-2.4,5.3
				c0,0.1,0,0.1,0,0.2c-0.2,0.7-0.3,1.4-0.3,2.2c-0.3,5,1.9,10.8,8.1,16.8c-0.2,0.1-0.4,0.2-0.6,0.4l-17.4-11.2
				c-0.7-0.4-1.6-0.2-2.1,0.5c-0.4,0.7-0.2,1.6,0.5,2.1l17.4,11.2c-0.1,0.3-0.1,0.7-0.1,1.1v0c0,0.2,0,0.5,0.1,0.7l-12.9,6.9
				c-0.7,0.4-1,1.3-0.6,2c0.4,0.7,1.3,1,2,0.6l12.1-6.5c-0.4,0.7-0.6,1.5-0.6,2.3v0c0,1.3,0.5,2.4,1.3,3.2c0.1,0.1,0.3,0.3,0.5,0.4
				c-6.1,8.1-34.1,46.8-31.8,66.4c1.2,10.1,7.4,20.5,17.6,27.9c8.8,6.4,20.8,10.7,35.1,10.6c14.4,0,26.3-4.2,35.1-10.6
				c10.2-7.4,16.4-17.8,17.6-27.9c2.3-19.6-25.7-58.3-31.8-66.4C267.7,191.2,267.9,191,268,190.9z"/>
		</g>
		<g>
			<path class="st6" d="M241.8,150.2c-4.1-2.3-9.4-1.9-13.6,0.4c-2,1.1-3.7,2.5-5,4.3c-0.2,0.2-0.3,0.4-0.4,0.7
				c4.4-1.3,8.5,0.9,13,3.3c6.6,3.6,14.3,7.7,25.5-1c-7.5-0.6-11.6-3-16.2-5.7C244.1,151.5,243.1,150.9,241.8,150.2z"/>
		</g>
		<g>
			<path class="st11" d="M246.9,192.2h-0.4h-0.4h-17.6c-4.1,5.5-34.1,45.8-31.8,65.1c1.1,9.3,6.8,18.9,16.4,25.9
				c8.4,6.1,19.7,10.1,33.4,10.1c13.7,0,25-4,33.4-10.1c9.5-6.9,15.3-16.6,16.4-25.9c2.3-19.3-27.7-59.6-31.8-65.1H246.9z"/>
		</g>
		<g>
			<path class="st12" d="M264.8,186.1h-36.4c-0.4,0-0.8,0.2-1.1,0.5c-0.3,0.3-0.5,0.7-0.5,1.1v0c0,0.4,0.2,0.8,0.5,1.1
				c0.2,0.2,0.5,0.4,0.8,0.4c1.1,0,15.3,0,18,0h0.5h0.5c2.8,0,16.9,0,18,0c0.3-0.1,0.6-0.2,0.8-0.4c0.3-0.3,0.5-0.7,0.5-1.1v0
				c0-0.4-0.2-0.8-0.5-1.1C265.6,186.3,265.2,186.1,264.8,186.1z"/>
		</g>
		<g>
			<path class="st6" d="M271.2,159.4c-1.3-0.9-3.2-1.4-5.5-1.4c-14,12.8-23.4,7.8-31.3,3.5c-4.7-2.6-8.9-4.8-13.1-1.8
				c-0.1,0.4-0.1,0.8-0.1,1.3c-0.3,4.6,2.1,10.1,8.9,16.1h32.7c5.4-4.1,8.5-7.8,9.9-10.9c0.7-1.6,0.9-3,0.6-4.1
				C272.8,161,272.1,160.1,271.2,159.4z"/>
		</g>
		<g>
			<path class="st12" d="M264.8,180h-36.4c-0.4,0-0.8,0.2-1.1,0.5c-0.3,0.3-0.5,0.7-0.5,1.1v0c0,0.4,0.2,0.8,0.5,1.1
				c0.3,0.3,0.7,0.5,1.1,0.5h36.4c0.4,0,0.8-0.2,1.1-0.5c0.3-0.3,0.5-0.7,0.5-1.1v0c0-0.4-0.2-0.8-0.5-1.1
				C265.6,180.1,265.2,180,264.8,180z"/>
		</g>
		<g>
			<path class="st6" d="M246.5,214.8v12l0.9,0.3l5.7,2.1c7,2.7,10.5,7.2,10.5,13.4c0,4-1.5,7.2-4.5,9.8c-3,2.5-6.8,3.8-11.6,3.8h-1
				v4.9h-2.4v-4.9c-9.7-1-14.6-4.9-14.6-11.8c0-0.7,0.1-1.7,0.3-3l6.4-1.5c-0.5,1.9-0.8,3.5-0.8,4.7c0,4.9,2.9,7.6,8.7,8.1v-13.4
				c-9.5-2.9-14.2-7.8-14.2-14.5c0-8.1,4.7-12.6,14.2-13.4v-3.9h2.4v3.7c10.1,0,15.1,4.3,15.1,12.8l-6.3,1.2c0.3-1,0.5-2,0.5-2.8
				C255.8,217.7,252.7,215.2,246.5,214.8z M244.1,215c-0.3-0.1-0.6-0.1-0.7-0.1c-3.4,0-5.1,1.7-5.1,5.2c0,2.4,1.9,4.4,5.8,5.9V215z
				 M246.5,252.8c4.3-0.6,6.5-2.6,6.5-6c0-2.9-2.2-5.1-6.5-6.6V252.8z"/>
		</g>
		<g>
			<path class="st9" d="M237.1,157.1c-4.3-3.6-10.7-3.7-12.8-3.6c-0.4,0.4-0.8,0.9-1.1,1.4c-0.2,0.2-0.3,0.4-0.4,0.7
				c4.4-1.3,8.5,0.9,13,3.3c6.6,3.6,14.3,7.7,25.5-1c-0.1,0-0.3,0-0.4,0C253.4,159.8,243.4,162.3,237.1,157.1z"/>
		</g>
		<g>
			<path class="st9" d="M234.3,161.5c-4.7-2.6-8.9-4.8-13.1-1.8c-0.1,0.4-0.1,0.8-0.1,1.3c-0.3,4.6,2.1,10.1,8.9,16.1h3
				c-0.5-2-0.4-3.9,0.5-5.5c6.7-12.4,9.5,11.7,32.2-9c1.6-1.4,2.9-2.8,3.6-3.9c-1-0.3-2.2-0.5-3.6-0.5
				C251.6,170.8,242.3,165.8,234.3,161.5z"/>
		</g>
		<g>
			<path class="st13" d="M246.9,192.2h-0.4h-0.4h-17.6c-0.5,0.6-1.3,1.8-2.5,3.3h30c9.5,13.3,29.3,43.3,27.4,59.1
				c-1.1,9.3-6.8,18.9-16.4,25.9c-8.4,6.1-19.7,10.1-33.4,10.1c-2.3,0-4.6-0.1-6.8-0.3c5.8,1.9,12.3,3,19.5,3c13.7,0,25-4,33.4-10.1
				c9.5-6.9,15.3-16.6,16.4-25.9c2.3-19.3-27.7-59.6-31.8-65.1H246.9z"/>
		</g>
		<g>
			<path class="st14" d="M202.5,255.7c-1.9-16.2,19-47.4,28.2-60.1h-4.5c-8.3,11.4-31.4,44.8-29.4,61.8c1.1,9.3,6.8,18.9,16.4,25.9
				c4,2.9,8.6,5.3,13.9,7.1c2.2,0.2,4.5,0.3,6.8,0.3c1.9,0,3.8-0.1,5.6-0.2c-8.1-1.6-15-4.8-20.6-8.9
				C209.3,274.6,203.6,265,202.5,255.7z"/>
		</g>
		<g>
			<path class="st15" d="M226.2,195.5h4.5c0.9-1.3,1.8-2.4,2.4-3.3h-4.4C228.1,192.9,227.3,194,226.2,195.5z"/>
		</g>
		<g>
			<path class="st15" d="M220.8,282.1c-1.5,0.1-3,0.2-4.5,0.2c-1.9,0-3.7-0.1-5.5-0.3c4.7,1.6,10,2.4,15.8,2.4
				c6.1,0,11.7-1,16.6-2.7c-3.7,0.9-7.7,1.4-12,1.3C227.5,283.1,224,282.8,220.8,282.1z"/>
		</g>
		<g>
			<path class="st3" d="M231.3,277.3c0-0.2-0.1-0.3-0.3-0.3h-17.7h-8.1h-18.6c-0.1,0-0.2,0-0.2,0.1l-8.5,7c-0.1,0.1-0.1,0.2-0.1,0.3
				h0v2.5v9.6c0,0.2,0.1,0.3,0.3,0.3h17.6h8.1h17.3h0h0h0h0h0h0h0h0h0h0h0h0h0h0h0h0h0h0h0h0h0h0h0l0,0h0h0h0h0h0h0h0h0h0h0h0h0h0h0
				l0,0h0h0h0h0h0h0h0h0h0h0l0,0h0h0h0h0h0h0h0h0h0h0l0,0h0l0,0l0,0l0,0l0,0l0,0l0,0l0,0l0,0l0,0l0,0l0,0h0v0h0h0l0,0h0h0l0,0h0h0
				l0,0h0h0l0,0h0h0l0,0h0l0,0h0h0l0,0h0l0,0h0h0l0,0h0h0l0,0h0h0l0,0h0l0,0h0h0l0,0h0l0,0h0l0,0h0h0l0,0h0l0,0h0h0l0,0h0l0,0h0h0
				l0,0h0l0,0h0h0l0,0h0l0,0h0l0,0h0l0,0l0,0l0,0l0,0l0,0l0,0l0,0l0,0l0,0l0,0l0,0l0,0l0,0l0,0l0,0l0,0l0,0l0,0l0,0l0,0l0,0l0,0l0,0
				l0,0l0,0l0,0l0,0h0l0,0l0,0l0,0l0,0l0,0l0,0l0,0l0,0l0,0l0,0v0l0,0l0,0l0,0h0l0,0l0,0l0,0l0,0l0,0l0,0l0,0c0,0,0,0,0,0l0,0l0,0
				l0,0l0,0l0,0l0,0l0,0l0,0l0,0l0,0l0,0l0,0l0,0l0,0l0,0l0,0l0,0l0,0l0,0l0,0h0l0,0l0,0l0,0l0,0l0,0l0,0l0,0l0,0l0,0l0,0l0,0l0,0
				l0,0l0,0v0l0,0l0,0l0,0l0,0l0,0l0,0l0,0l0,0l0,0l0,0l0,0l0,0l0,0l0,0l0,0l0,0l0,0l0,0l0,0l0,0l0,0l0,0l0,0l0,0l0,0l0,0l0,0l0,0
				l0,0l0,0l0,0l0,0l0,0l0,0l0,0l0,0l0,0l0,0l0,0l0,0l0,0l0,0l9.8-10.2c0.1-0.1,0.1-0.1,0.1-0.2h0V283c0-0.1,0-0.1,0-0.2V277.3z"/>
		</g>
		<g>
			<polygon class="st16" points="196,286.9 196,296.1 203.5,296.1 203.5,286.8 203.5,286.8 203.5,286.8 203.5,286.8 203.5,286.8 
				203.5,286.8 203.5,286.8 203.5,286.8 203.5,286.8 203.5,286.8 203.5,286.8 203.5,286.8 203.5,286.8 203.5,286.8 203.5,286.8 
				203.5,286.8 203.5,286.8 203.5,286.8 203.5,286.8 203.5,286.8 203.5,286.8 203.5,286.7 203.5,286.7 203.5,286.7 203.5,286.7 
				203.5,286.7 203.5,286.7 203.5,286.7 203.5,286.7 203.5,286.7 203.5,286.7 203.5,286.7 203.5,286.7 203.5,286.7 203.5,286.7 
				203.5,286.7 203.5,286.7 203.5,286.7 203.5,286.7 203.5,286.7 203.5,286.7 203.5,286.7 203.5,286.7 203.5,286.7 203.5,286.7 
				203.5,286.7 203.5,286.7 203.5,286.7 203.5,286.7 203.5,286.7 203.5,286.7 203.5,286.7 203.5,286.7 203.5,286.7 203.5,286.7 
				203.5,286.7 203.5,286.7 203.5,286.7 203.5,286.7 203.5,286.7 203.5,286.7 203.5,286.6 203.5,286.6 203.5,286.6 203.5,286.6 
				203.5,286.6 203.5,286.6 203.5,286.6 203.5,286.6 203.5,286.6 203.5,286.6 203.5,286.6 203.5,286.6 203.5,286.6 203.5,286.6 
				203.5,286.6 203.5,286.6 203.5,286.6 203.5,286.6 203.5,286.6 203.5,286.6 203.5,286.6 203.6,286.6 203.6,286.6 203.6,286.6 
				203.6,286.6 203.6,286.6 203.6,286.6 203.6,286.6 203.6,286.6 203.6,286.6 203.6,286.6 203.6,286.6 203.6,286.6 203.6,286.6 
				212.5,277.6 205.3,277.6 			"/>
		</g>
		<g>
			<polygon class="st17" points="199.7,286.3 202.6,286.3 202.6,286.3 202.6,286.3 202.6,286.2 202.7,286.2 202.7,286.2 
				202.7,286.2 202.7,286.1 202.7,286.1 202.7,286.1 202.7,286.1 202.7,286.1 202.8,286.1 202.8,286 202.8,286 202.8,286 202.8,286 
				202.8,286 202.9,285.9 202.9,285.9 202.9,285.9 202.9,285.9 202.9,285.9 202.9,285.8 202.9,285.8 203,285.8 204.4,284.4 
				201.6,284.4 			"/>
		</g>
		<g>
			<polygon class="st17" points="198,287.9 198,294.8 202.4,294.8 202.4,287.5 198.4,287.5 			"/>
		</g>
		<g>
			<polygon class="st17" points="202.6,283.3 205.4,283.3 207.3,281.4 204.5,281.4 			"/>
		</g>
		<g>
			<polygon class="st17" points="205.2,280.8 208,280.8 209.2,279.5 206.4,279.5 			"/>
		</g>
		<g>
			<path class="st3" d="M205.4,277.9L205.4,277.9l-0.1,0l-9.1,9.1l0,0v0.1v8.6v0.1h0.1h6.7h0.1v-0.1v-8.9h0l0,0h0l0,0l0,0l0,0h0l0,0
				h0l0,0h0l0,0l0,0l0,0h0l0,0l0,0h0l0,0h0l0,0h0l0,0l0,0l0,0h0l0,0l0,0l0,0l0,0l0,0l0,0h0l0,0l0,0l0,0l0,0l0,0h0l0,0l0,0l0,0l0,0
				l0,0l0,0l0,0l0,0h0l0,0l0,0v0l0,0l0,0h0l0,0l0,0l0,0l0,0l0,0l0,0l0,0l0,0l0,0l0,0l0,0l0,0l0,0l0,0l0,0l0,0l0,0l0,0l0,0l0,0h0l0,0
				l0,0l0,0l8.3-8.3l0.2-0.2h-0.3H205.4z M203.2,286.2L203.2,286.2L203.2,286.2L203.2,286.2L203.2,286.2L203.2,286.2L203.2,286.2
				L203.2,286.2L203.2,286.2L203.2,286.2L203.2,286.2L203.2,286.2L203.2,286.2L203.2,286.2L203.2,286.2L203.2,286.2L203.2,286.2
				L203.2,286.2L203.2,286.2l-0.1,0.1l0,0l0,0l0,0l0,0l0,0l0,0l0,0l0,0l0,0l0,0l0,0l0,0l0,0l0,0l0,0l0,0l0,0l0,0l0,0l0,0l0,0l0,0
				l0,0l0,0l0,0l0,0l0,0l0,0l0,0l0,0l0,0l0,0l0,0l0,0l0,0h0l0,0l0,0l0,0h0l0,0l0,0l0,0l0,0l0,0l0,0l0,0l0,0l0,0l0,0l0,0l0,0l0,0l0,0
				v0l0,0l0,0l0,0l0,0l0,0v0l0,0v0l0,0v0l0,0l0,0v8.7h-6.4v-8.4l9-9h5.7L203.2,286.2z"/>
		</g>
		<g>
			<path class="st18" d="M178.3,286.5h2.2c-1.1-0.4-1.8-0.8-2.2-1.2V286.5z"/>
		</g>
		<g>
			<path class="st11" d="M178.4,284.4c0.3,0.5,1.5,1.8,5.8,2.1h11.3l8.9-8.9h-17.7L178.4,284.4z"/>
		</g>
		<g>
			<path class="st18" d="M186.7,277.6l-2,1.6c0.5,0.4,1.2,0.6,2,0.6c1.6,0,2.9-1,2.9-2.1c0,0,0-0.1,0-0.1H186.7z"/>
		</g>
		<g>
			<path class="st18" d="M192.7,282.3c0,0.9,2,1.7,4.9,2.2l4.7-4.7C196.9,279.8,192.7,280.9,192.7,282.3z"/>
		</g>
		<g>
			<rect x="178.3" y="290" class="st18" width="17" height="1.4"/>
		</g>
		<g>
			<rect x="178.3" y="288.2" class="st18" width="17" height="1.4"/>
		</g>
		<g>
			<rect x="178.3" y="287.1" class="st18" width="17" height="0.6"/>
		</g>
		<g>
			<rect x="178.3" y="291.8" class="st18" width="17" height="1.4"/>
		</g>
		<g>
			<rect x="178.3" y="293.6" class="st18" width="17" height="1.4"/>
		</g>
		<g>
			<rect x="204.1" y="287.1" class="st18" width="16.7" height="0.6"/>
		</g>
		<g>
			<rect x="178.3" y="295.4" class="st18" width="17" height="0.6"/>
		</g>
		<g>
			<rect x="204.1" y="288.2" class="st18" width="16.7" height="1.4"/>
		</g>
		<g>
			<rect x="204.1" y="290" class="st18" width="16.7" height="1.4"/>
		</g>
		<g>
			<rect x="204.1" y="291.8" class="st18" width="16.7" height="1.4"/>
		</g>
		<g>
			<rect x="204.1" y="293.6" class="st18" width="16.7" height="1.4"/>
		</g>
		<g>
			<rect x="204.1" y="295.4" class="st18" width="16.7" height="0.6"/>
		</g>
		<g>
			<polygon class="st18" points="221.5,295.6 230.6,286.1 230.6,285.6 221.5,294.7 			"/>
		</g>
		<g>
			<polygon class="st18" points="221.5,294.1 230.6,285 230.6,283.6 221.5,292.8 			"/>
		</g>
		<g>
			<polygon class="st18" points="221.5,292.2 230.6,283.1 230.6,281.6 221.5,290.7 			"/>
		</g>
		<g>
			<polygon class="st18" points="221.5,288.3 230.6,279.2 230.6,278.1 221.5,286.9 			"/>
		</g>
		<g>
			<polygon class="st18" points="221.5,290.2 230.6,281 230.6,279.8 221.5,288.9 			"/>
		</g>
		<g>
			<path class="st11" d="M204.6,286.5h9.3l0,0c1.9,0.1,3.7-0.3,5.4-0.8c2.9-0.9,5-2.2,5.2-2.5l0,0l5.7-5.5h-16.8L204.6,286.5z"/>
		</g>
		<g>
			<path class="st18" d="M228.1,279.6c0,0,0.1,0,0.1,0l2-1.9h-5C225.3,278.7,226.6,279.6,228.1,279.6z"/>
		</g>
		<g>
			<path class="st18" d="M210.4,280.7l-4,4c3.7-0.4,6.3-1.3,6.3-2.4C212.7,281.7,211.8,281.1,210.4,280.7z"/>
		</g>
		<g>
			<path class="st12" d="M218.6,286.5h2.4l1.5-1.5c-0.9,0.4-1.9,0.9-3.1,1.3C219.2,286.3,218.9,286.4,218.6,286.5z"/>
		</g>
		<g>
			<path class="st3" d="M211.5,264.2c0-0.2-0.1-0.3-0.3-0.3h-17.7h-8.1h-18.6c-0.1,0-0.2,0-0.2,0.1l-8.5,7c-0.1,0.1-0.1,0.2-0.1,0.3
				h0v2.5v9.6c0,0.2,0.1,0.3,0.3,0.3h17.6h8.1h17.3h0h0h0h0h0h0h0h0h0h0h0h0h0h0h0h0h0h0h0h0h0h0h0h0h0h0h0h0h0h0h0h0h0l0,0h0h0h0h0
				h0h0h0h0h0l0,0h0h0h0h0h0h0h0h0h0l0,0h0h0h0h0h0h0h0l0,0l0,0l0,0l0,0l0,0l0,0h0l0,0l0,0l0,0l0,0l0,0h0h0l0,0h0h0l0,0h0h0l0,0h0h0
				l0,0h0h0l0,0h0l0,0h0h0h0l0,0h0h0l0,0h0l0,0h0h0l0,0h0h0l0,0h0h0l0,0h0l0,0h0h0l0,0h0l0,0h0h0h0l0,0h0l0,0h0l0,0h0h0l0,0h0h0l0,0
				h0l0,0h0l0,0h0h0l0,0h0l0,0h0l0,0l0,0l0,0l0,0l0,0l0,0l0,0l0,0l0,0l0,0l0,0l0,0l0,0l0,0l0,0l0,0l0,0l0,0l0,0l0,0l0,0l0,0l0,0l0,0
				l0,0l0,0l0,0l0,0l0,0h0l0,0l0,0l0,0l0,0l0,0l0,0l0,0l0,0l0,0l0,0l0,0l0,0l0,0l0,0l0,0l0,0l0,0l0,0l0,0c0,0,0,0,0,0l0,0l0,0l0,0
				l0,0l0,0l0,0l0,0l0,0l0,0l0,0l0,0l0,0l0,0l0,0l0,0l0,0l0,0l0,0l0,0l0,0l0,0l0,0l0,0l0,0l0,0l0,0l0,0l0,0l0,0l0,0l0,0l0,0l0,0l0,0
				l0,0h0l0,0l0,0l0,0l0,0l0,0l0,0l0,0l0,0l0,0l0,0l0,0l0,0l0,0l0,0l0,0l0,0l0,0l0,0l0,0l0,0l0,0l0,0l0,0l0,0l0,0l0,0l0,0l0,0l0,0
				l0,0l0,0l0,0l0,0l0,0l0,0l0,0l0,0l0,0l0,0l0,0l0,0l0,0l0,0l9.8-10.2c0.1-0.1,0.1-0.1,0.1-0.2h0v-3.2c0-0.1,0-0.1,0-0.2V264.2z"/>
		</g>
		<g>
			<polygon class="st16" points="176.2,273.8 176.2,282.9 183.7,282.9 183.7,273.7 183.7,273.7 183.7,273.7 183.7,273.7 
				183.7,273.7 183.7,273.7 183.7,273.7 183.7,273.7 183.7,273.7 183.7,273.6 183.7,273.6 183.7,273.6 183.7,273.6 183.7,273.6 
				183.7,273.6 183.7,273.6 183.7,273.6 183.7,273.6 183.7,273.6 183.7,273.6 183.7,273.6 183.7,273.6 183.7,273.6 183.7,273.6 
				183.7,273.6 183.7,273.6 183.7,273.6 183.7,273.6 183.7,273.6 183.7,273.6 183.7,273.6 183.7,273.6 183.7,273.6 183.7,273.6 
				183.7,273.6 183.7,273.6 183.7,273.6 183.7,273.6 183.7,273.6 183.7,273.6 183.7,273.6 183.7,273.6 183.7,273.6 183.7,273.6 
				183.7,273.6 183.7,273.6 183.7,273.6 183.7,273.6 183.7,273.5 183.7,273.5 183.7,273.5 183.7,273.5 183.7,273.5 183.7,273.5 
				183.7,273.5 183.7,273.5 183.7,273.5 183.7,273.5 183.7,273.5 183.7,273.5 183.8,273.5 183.8,273.5 183.8,273.5 183.8,273.5 
				183.8,273.5 183.8,273.5 183.8,273.5 183.8,273.5 183.8,273.5 183.8,273.5 183.8,273.5 183.8,273.5 183.8,273.5 183.8,273.5 
				183.8,273.5 183.8,273.5 183.8,273.5 183.8,273.5 183.8,273.5 183.8,273.5 183.8,273.5 183.8,273.5 183.8,273.5 183.8,273.5 
				183.8,273.5 183.8,273.5 183.8,273.5 183.8,273.5 183.8,273.5 183.8,273.5 183.8,273.5 183.8,273.5 183.8,273.5 183.8,273.5 
				183.8,273.5 183.8,273.5 192.7,264.5 185.5,264.5 			"/>
		</g>
		<g>
			<polygon class="st17" points="179.9,273.2 182.8,273.2 182.9,273.2 182.9,273.1 182.9,273.1 182.9,273.1 182.9,273.1 
				182.9,273.1 182.9,273 182.9,273 183,273 183,272.9 183,272.9 183,272.9 183,272.9 183,272.9 183,272.9 183,272.8 183.1,272.8 
				183.1,272.8 183.1,272.8 183.1,272.8 183.1,272.8 183.1,272.7 183.2,272.7 183.2,272.7 183.2,272.7 184.6,271.3 181.8,271.3 			
				"/>
		</g>
		<g>
			<polygon class="st17" points="178.3,274.8 178.3,281.7 182.6,281.7 182.6,274.4 178.7,274.4 			"/>
		</g>
		<g>
			<polygon class="st17" points="185.4,267.6 188.2,267.6 189.5,266.4 186.6,266.4 			"/>
		</g>
		<g>
			<polygon class="st17" points="182.9,270.2 185.7,270.2 187.6,268.3 184.8,268.3 			"/>
		</g>
		<g>
			<path class="st3" d="M185.7,264.8L185.7,264.8l-0.1,0l-9.1,9.1l0,0v0.1v8.6v0.1h0.1h6.7h0.1l0-0.1v-8.9h0l0,0l0,0h0l0,0h0l0,0h0
				l0,0h0l0,0h0l0,0h0l0,0l0,0h0l0,0h0l0,0h0l0,0h0l0,0h0l0,0l0,0l0,0l0,0l0,0l0,0l0,0h0l0,0h0l0,0l0,0l0,0l0,0l0,0l0,0l0,0l0,0l0,0
				l0,0l0,0h0l0,0h0l0,0l0,0l0,0l0,0h0l0,0l0,0l0,0l0,0h0l0,0l0,0l0,0l0,0l0,0l0,0v0l0,0l0,0l0,0l0,0l0,0l0,0v0l0,0l0,0l0,0l8.3-8.3
				l0.2-0.2h-0.3H185.7z M183.4,273.1L183.4,273.1L183.4,273.1L183.4,273.1L183.4,273.1L183.4,273.1L183.4,273.1L183.4,273.1
				L183.4,273.1L183.4,273.1L183.4,273.1L183.4,273.1L183.4,273.1L183.4,273.1L183.4,273.1L183.4,273.1L183.4,273.1L183.4,273.1
				L183.4,273.1l-0.1,0.1l0,0l0,0l0,0l0,0l0,0l0,0l0,0l0,0l0,0l0,0l0,0l0,0l0,0l0,0l0,0l0,0l0,0l0,0l0,0l0,0l0,0l0,0l0,0l0,0l0,0
				l0,0l0,0l0,0l0,0l0,0l0,0l0,0l0,0l0,0l0,0l0,0h0l0,0l0,0l0,0h0l0,0l0,0l0,0l0,0l0,0l0,0l0,0l0,0l0,0l0,0l0,0h0l0,0l0,0l0,0v0l0,0
				l0,0l0,0l0,0l0,0v0l0,0v0l0,0v0l0,0l0,0v8.7h-6.4V274l9-9h5.7L183.4,273.1z"/>
		</g>
		<g>
			<path class="st18" d="M158.6,273.4h2.2c-1.1-0.4-1.8-0.8-2.2-1.2V273.4z"/>
		</g>
		<g>
			<path class="st11" d="M158.6,271.3c0.3,0.5,1.5,1.8,5.8,2.1h11.3l8.9-8.9h-17.7L158.6,271.3z"/>
		</g>
		<g>
			<path class="st18" d="M166.9,264.5l-2,1.6c0.5,0.4,1.2,0.6,2,0.6c1.6,0,2.9-1,2.9-2.1c0,0,0-0.1,0-0.1H166.9z"/>
		</g>
		<g>
			<path class="st18" d="M172.9,269.2c0,0.9,2,1.7,4.9,2.2l4.7-4.7C177.1,266.7,172.9,267.8,172.9,269.2z"/>
		</g>
		<g>
			<rect x="158.6" y="276.9" class="st18" width="17" height="1.4"/>
		</g>
		<g>
			<rect x="158.6" y="274" class="st18" width="17" height="0.6"/>
		</g>
		<g>
			<rect x="158.6" y="275" class="st18" width="17" height="1.4"/>
		</g>
		<g>
			<rect x="158.6" y="278.7" class="st18" width="17" height="1.4"/>
		</g>
		<g>
			<rect x="158.6" y="280.5" class="st18" width="17" height="1.4"/>
		</g>
		<g>
			<rect x="158.6" y="282.3" class="st18" width="17" height="0.6"/>
		</g>
		<g>
			<rect x="184.3" y="276.9" class="st18" width="16.7" height="1.4"/>
		</g>
		<g>
			<rect x="184.3" y="274" class="st18" width="16.7" height="0.6"/>
		</g>
		<g>
			<rect x="184.3" y="282.3" class="st18" width="16.7" height="0.6"/>
		</g>
		<g>
			<rect x="184.3" y="275" class="st18" width="16.7" height="1.4"/>
		</g>
		<g>
			<rect x="184.3" y="280.5" class="st18" width="16.7" height="1.4"/>
		</g>
		<g>
			<rect x="184.3" y="278.7" class="st18" width="16.7" height="1.4"/>
		</g>
		<g>
			<polygon class="st18" points="201.7,281 210.9,271.9 210.9,270.5 201.7,279.6 			"/>
		</g>
		<g>
			<polygon class="st18" points="201.7,282.5 210.9,272.9 210.9,272.4 201.7,281.6 			"/>
		</g>
		<g>
			<polygon class="st18" points="201.7,279.1 210.9,269.9 210.9,268.5 201.7,277.6 			"/>
		</g>
		<g>
			<polygon class="st18" points="201.7,275.2 210.9,266.1 210.9,264.9 201.7,273.8 			"/>
		</g>
		<g>
			<polygon class="st18" points="201.7,277 210.9,267.9 210.9,266.6 201.7,275.8 			"/>
		</g>
		<g>
			<path class="st11" d="M184.8,273.4h9.3l0,0c1.9,0.1,3.7-0.3,5.4-0.8c2.9-0.9,5-2.2,5.2-2.5l0,0l5.7-5.5h-16.8L184.8,273.4z"/>
		</g>
		<g>
			<path class="st18" d="M208.3,266.4c0,0,0.1,0,0.1,0l2-1.9h-5C205.5,265.6,206.8,266.4,208.3,266.4z"/>
		</g>
		<g>
			<path class="st18" d="M190.6,267.5l-4,4c3.7-0.4,6.3-1.3,6.3-2.4C192.9,268.5,192.1,268,190.6,267.5z"/>
		</g>
		<g>
			<path class="st12" d="M198.8,273.4h2.4l1.5-1.5c-0.9,0.4-1.9,0.9-3.1,1.3C199.4,273.2,199.1,273.3,198.8,273.4z"/>
		</g>
		<g>
			<path class="st3" d="M243.3,270.1c0-0.2-0.1-0.3-0.3-0.3h-17.7h-8.1h-18.6c-0.1,0-0.2,0-0.2,0.1l-8.5,7c-0.1,0.1-0.1,0.2-0.1,0.3
				h0v2.5v9.6c0,0.2,0.1,0.3,0.3,0.3h17.6h8.1h17.3h0h0h0h0h0h0h0h0h0h0h0h0h0h0h0h0h0h0h0l0,0h0h0h0h0h0h0h0h0h0h0h0h0h0h0h0h0h0h0
				l0,0h0h0h0h0h0h0h0h0h0h0l0,0h0h0h0h0h0h0h0h0h0l0,0h0h0l0,0l0,0l0,0l0,0l0,0l0,0l0,0l0,0l0,0l0,0l0,0l0,0h0h0h0l0,0h0h0l0,0h0h0
				l0,0h0h0l0,0h0l0,0h0h0h0l0,0h0l0,0h0h0l0,0h0h0l0,0h0h0l0,0h0h0l0,0h0l0,0h0h0l0,0h0l0,0h0l0,0h0h0l0,0h0l0,0h0h0l0,0h0l0,0h0h0
				l0,0h0l0,0h0h0l0,0h0l0,0h0l0,0h0l0,0l0,0l0,0l0,0l0,0l0,0l0,0l0,0l0,0l0,0l0,0l0,0l0,0l0,0l0,0l0,0l0,0l0,0l0,0l0,0h0l0,0l0,0
				l0,0l0,0l0,0h0l0,0l0,0l0,0l0,0l0,0l0,0l0,0l0,0l0,0l0,0l0,0l0,0l0,0l0,0h0l0,0l0,0l0,0l0,0l0,0l0,0l0,0c0,0,0,0,0,0l0,0l0,0l0,0
				l0,0l0,0l0,0l0,0l0,0l0,0l0,0l0,0l0,0l0,0l0,0l0,0l0,0l0,0l0,0l0,0l0,0h0l0,0l0,0l0,0l0,0l0,0l0,0l0,0l0,0l0,0l0,0l0,0l0,0l0,0
				l0,0l0,0l0,0l0,0l0,0l0,0l0,0l0,0l0,0l0,0l0,0l0,0l0,0l0,0l0,0l0,0l0,0l0,0l0,0l0,0l0,0l0,0l0,0l0,0l0,0l0,0l0,0l0,0l0,0l0,0l0,0
				l0,0l0,0l0,0l0,0l0,0l0,0l0,0l0,0l0,0l0,0l0,0l0,0l0,0l9.8-10.2c0.1-0.1,0.1-0.1,0.1-0.2h0v-3.2c0-0.1,0-0.1,0-0.2V270.1z"/>
		</g>
		<g>
			<polygon class="st16" points="208,279.8 208,288.9 215.5,288.9 215.5,279.6 215.5,279.6 215.5,279.6 215.5,279.6 215.5,279.6 
				215.5,279.6 215.5,279.6 215.5,279.6 215.5,279.6 215.5,279.6 215.5,279.6 215.5,279.6 215.5,279.6 215.5,279.6 215.5,279.6 
				215.5,279.6 215.5,279.6 215.5,279.6 215.5,279.6 215.5,279.6 215.5,279.6 215.5,279.6 215.5,279.6 215.5,279.6 215.5,279.6 
				215.5,279.6 215.5,279.5 215.5,279.5 215.5,279.5 215.5,279.5 215.5,279.5 215.5,279.5 215.5,279.5 215.5,279.5 215.5,279.5 
				215.5,279.5 215.5,279.5 215.5,279.5 215.5,279.5 215.5,279.5 215.5,279.5 215.5,279.5 215.5,279.5 215.5,279.5 215.5,279.5 
				215.5,279.5 215.5,279.5 215.5,279.5 215.5,279.5 215.5,279.5 215.5,279.5 215.5,279.5 215.5,279.5 215.5,279.5 215.5,279.5 
				215.6,279.5 215.6,279.5 215.6,279.5 215.6,279.5 215.6,279.5 215.6,279.5 215.6,279.5 215.6,279.5 215.6,279.5 215.6,279.5 
				215.6,279.5 215.6,279.5 215.6,279.5 215.6,279.5 215.6,279.5 215.6,279.4 215.6,279.4 215.6,279.4 215.6,279.4 215.6,279.4 
				215.6,279.4 215.6,279.4 215.6,279.4 215.6,279.4 215.6,279.4 215.6,279.4 215.6,279.4 215.6,279.4 215.6,279.4 215.6,279.4 
				215.6,279.4 215.6,279.4 215.6,279.4 215.6,279.4 215.6,279.4 215.6,279.4 215.6,279.4 215.6,279.4 215.6,279.4 224.6,270.5 
				217.3,270.5 			"/>
		</g>
		<g>
			<polygon class="st17" points="211.7,279.1 214.7,279.1 214.7,279.1 214.7,279.1 214.7,279.1 214.7,279 214.7,279 214.7,279 
				214.7,279 214.8,278.9 214.8,278.9 214.8,278.9 214.8,278.9 214.8,278.9 214.8,278.8 214.8,278.8 214.8,278.8 214.9,278.8 
				214.9,278.8 214.9,278.8 214.9,278.7 214.9,278.7 214.9,278.7 214.9,278.7 215,278.7 215,278.7 215,278.6 216.4,277.2 
				213.6,277.2 			"/>
		</g>
		<g>
			<polygon class="st17" points="210.1,280.7 210.1,287.7 214.4,287.7 214.4,280.3 210.5,280.3 			"/>
		</g>
		<g>
			<polygon class="st17" points="217.2,273.6 220,273.6 221.3,272.4 218.5,272.4 			"/>
		</g>
		<g>
			<polygon class="st17" points="214.7,276.2 217.5,276.2 219.4,274.3 216.6,274.3 			"/>
		</g>
		<g>
			<path class="st3" d="M217.5,270.7L217.5,270.7l-0.1,0l-9.1,9.1l0,0v0.1v8.6v0.1h0.1h6.7h0.1v-0.1v-8.9h0l0,0l0,0h0l0,0h0l0,0h0
				l0,0h0l0,0h0l0,0h0l0,0l0,0h0l0,0h0l0,0h0l0,0l0,0l0,0h0l0,0l0,0l0,0l0,0l0,0l0,0l0,0l0,0l0,0l0,0l0,0l0,0l0,0l0,0l0,0l0,0l0,0
				l0,0l0,0h0l0,0l0,0v0l0,0l0,0l0,0l0,0l0,0l0,0l0,0l0,0l0,0l0,0l0,0l0,0l0,0l0,0l0,0l0,0l0,0l0,0l0,0l0,0l0,0l0,0l0,0l0,0l0,0
				l8.3-8.3l0.2-0.2h-0.3H217.5z M215.2,279L215.2,279L215.2,279L215.2,279L215.2,279L215.2,279L215.2,279L215.2,279L215.2,279
				L215.2,279L215.2,279L215.2,279L215.2,279L215.2,279L215.2,279L215.2,279L215.2,279L215.2,279L215.2,279l-0.1,0.1l0,0l0,0l0,0
				l0,0l0,0l0,0l0,0l0,0l0,0l0,0h0l0,0l0,0l0,0l0,0l0,0l0,0l0,0l0,0l0,0l0,0l0,0l0,0l0,0l0,0l0,0l0,0l0,0l0,0l0,0l0,0l0,0l0,0l0,0
				l0,0l0,0l0,0l0,0l0,0l0,0h0l0,0l0,0l0,0l0,0l0,0l0,0l0,0l0,0l0,0l0,0l0,0h0l0,0l0,0l0,0v0l0,0l0,0l0,0l0,0l0,0v0l0,0v0l0,0v0l0,0
				l0,0v8.7h-6.4V280l9-9h5.7L215.2,279z"/>
		</g>
		<g>
			<path class="st18" d="M190.4,279.3h2.2c-1.1-0.4-1.8-0.8-2.2-1.2V279.3z"/>
		</g>
		<g>
			<path class="st11" d="M190.5,277.2c0.3,0.5,1.5,1.8,5.8,2.1h11.3l8.9-8.9h-17.7L190.5,277.2z"/>
		</g>
		<g>
			<path class="st18" d="M198.7,270.5l-2,1.6c0.5,0.4,1.2,0.6,2,0.6c1.6,0,2.9-1,2.9-2.1c0,0,0-0.1,0-0.1H198.7z"/>
		</g>
		<g>
			<path class="st18" d="M204.7,275.1c0,0.9,2,1.7,4.9,2.2l4.7-4.7C209,272.6,204.7,273.7,204.7,275.1z"/>
		</g>
		<g>
			<rect x="190.4" y="281" class="st18" width="17" height="1.4"/>
		</g>
		<g>
			<rect x="190.4" y="279.9" class="st18" width="17" height="0.6"/>
		</g>
		<g>
			<rect x="190.4" y="288.3" class="st18" width="17" height="0.6"/>
		</g>
		<g>
			<rect x="190.4" y="284.6" class="st18" width="17" height="1.4"/>
		</g>
		<g>
			<rect x="190.4" y="286.4" class="st18" width="17" height="1.4"/>
		</g>
		<g>
			<rect x="190.4" y="282.8" class="st18" width="17" height="1.4"/>
		</g>
		<g>
			<rect x="216.1" y="282.8" class="st18" width="16.7" height="1.4"/>
		</g>
		<g>
			<rect x="216.1" y="281" class="st18" width="16.7" height="1.4"/>
		</g>
		<g>
			<rect x="216.1" y="279.9" class="st18" width="16.7" height="0.6"/>
		</g>
		<g>
			<rect x="216.1" y="288.3" class="st18" width="16.7" height="0.6"/>
		</g>
		<g>
			<rect x="216.1" y="284.6" class="st18" width="16.7" height="1.4"/>
		</g>
		<g>
			<rect x="216.1" y="286.4" class="st18" width="16.7" height="1.4"/>
		</g>
		<g>
			<polygon class="st18" points="233.5,287 242.7,277.8 242.7,276.5 233.5,285.6 			"/>
		</g>
		<g>
			<polygon class="st18" points="233.5,288.4 242.7,278.9 242.7,278.4 233.5,287.5 			"/>
		</g>
		<g>
			<polygon class="st18" points="233.5,285 242.7,275.9 242.7,274.4 233.5,283.5 			"/>
		</g>
		<g>
			<polygon class="st18" points="233.5,281.1 242.7,272 242.7,270.9 233.5,279.8 			"/>
		</g>
		<g>
			<polygon class="st18" points="233.5,283 242.7,273.9 242.7,272.6 233.5,281.7 			"/>
		</g>
		<g>
			<path class="st11" d="M216.6,279.3h9.3l0,0c1.9,0.1,3.7-0.3,5.4-0.8c2.9-0.9,5-2.2,5.2-2.5l0,0l5.7-5.5h-16.8L216.6,279.3z"/>
		</g>
		<g>
			<path class="st18" d="M240.1,272.4c0,0,0.1,0,0.1,0l2-1.9h-5C237.3,271.5,238.6,272.4,240.1,272.4z"/>
		</g>
		<g>
			<path class="st18" d="M222.4,273.5l-4,4c3.7-0.4,6.3-1.3,6.3-2.4C224.8,274.5,223.9,273.9,222.4,273.5z"/>
		</g>
		<g>
			<path class="st12" d="M230.7,279.3h2.4l1.5-1.5c-0.9,0.4-1.9,0.9-3.1,1.3C231.2,279.2,230.9,279.2,230.7,279.3z"/>
		</g>
		<g>
			<path class="st3" d="M242.3,255c0-0.2-0.1-0.3-0.3-0.3h-17.7h-8.1h-18.6c-0.1,0-0.2,0-0.2,0.1l-8.5,7c-0.1,0.1-0.1,0.2-0.1,0.3h0
				v2.5v9.6c0,0.2,0.1,0.3,0.3,0.3h17.6h8.1h17.3h0h0h0h0h0h0h0h0h0h0h0h0h0h0h0h0h0h0h0l0,0h0h0h0h0h0h0h0h0h0h0h0h0h0h0h0h0h0h0
				l0,0h0h0h0h0h0h0h0h0h0l0,0h0h0h0h0h0h0h0h0h0h0l0,0h0h0l0,0l0,0l0,0l0,0l0,0l0,0l0,0l0,0l0,0l0,0l0,0l0,0h0l0,0h0h0h0l0,0h0l0,0
				h0h0h0l0,0h0l0,0h0h0l0,0h0h0l0,0h0h0l0,0h0h0l0,0h0h0l0,0h0l0,0h0h0l0,0h0h0l0,0h0l0,0h0l0,0h0h0l0,0h0l0,0h0h0l0,0h0l0,0h0h0
				l0,0h0l0,0h0l0,0h0h0l0,0h0l0,0h0l0,0l0,0h0l0,0l0,0l0,0l0,0l0,0l0,0l0,0l0,0l0,0l0,0l0,0l0,0l0,0l0,0l0,0l0,0l0,0h0l0,0l0,0l0,0
				l0,0l0,0h0l0,0l0,0l0,0l0,0l0,0l0,0l0,0l0,0l0,0l0,0l0,0l0,0l0,0l0,0l0,0l0,0l0,0l0,0l0,0l0,0l0,0c0,0,0,0,0,0l0,0l0,0l0,0l0,0
				l0,0l0,0l0,0l0,0l0,0l0,0l0,0l0,0l0,0l0,0l0,0l0,0l0,0l0,0l0,0l0,0l0,0l0,0l0,0l0,0l0,0l0,0l0,0l0,0l0,0l0,0l0,0l0,0l0,0l0,0v0
				l0,0l0,0l0,0l0,0l0,0l0,0l0,0l0,0l0,0l0,0l0,0l0,0l0,0l0,0l0,0l0,0l0,0l0,0l0,0l0,0l0,0l0,0l0,0l0,0l0,0l0,0l0,0l0,0l0,0l0,0h0
				l0,0l0,0l0,0l0,0l0,0l0,0l0,0l0,0l0,0l0,0l0,0l0,0l9.8-10.2c0.1-0.1,0.1-0.1,0.1-0.2h0v-3.2c0-0.1,0-0.1,0-0.2V255z"/>
		</g>
		<g>
			<polygon class="st16" points="207,264.7 207,273.8 214.5,273.8 214.5,264.5 214.5,264.5 214.5,264.5 214.5,264.5 214.5,264.5 
				214.5,264.5 214.5,264.5 214.5,264.5 214.5,264.5 214.5,264.5 214.5,264.5 214.5,264.5 214.5,264.5 214.5,264.5 214.5,264.5 
				214.5,264.5 214.5,264.5 214.5,264.5 214.5,264.5 214.5,264.5 214.5,264.5 214.5,264.5 214.5,264.5 214.5,264.5 214.5,264.5 
				214.5,264.5 214.5,264.4 214.5,264.4 214.5,264.4 214.5,264.4 214.5,264.4 214.5,264.4 214.5,264.4 214.5,264.4 214.5,264.4 
				214.5,264.4 214.5,264.4 214.5,264.4 214.5,264.4 214.5,264.4 214.5,264.4 214.5,264.4 214.5,264.4 214.5,264.4 214.5,264.4 
				214.5,264.4 214.5,264.4 214.5,264.4 214.5,264.4 214.5,264.4 214.5,264.4 214.5,264.4 214.5,264.4 214.5,264.4 214.5,264.4 
				214.5,264.4 214.5,264.4 214.5,264.4 214.5,264.4 214.5,264.4 214.5,264.4 214.6,264.4 214.6,264.4 214.6,264.4 214.6,264.4 
				214.6,264.4 214.6,264.4 214.6,264.4 214.6,264.4 214.6,264.4 214.6,264.3 214.6,264.3 214.6,264.3 214.6,264.3 214.6,264.3 
				214.6,264.3 214.6,264.3 214.6,264.3 214.6,264.3 214.6,264.3 214.6,264.3 214.6,264.3 214.6,264.3 214.6,264.3 214.6,264.3 
				214.6,264.3 214.6,264.3 214.6,264.3 214.6,264.3 214.6,264.3 214.6,264.3 214.6,264.3 214.6,264.3 214.6,264.3 214.6,264.3 
				223.5,255.4 216.3,255.4 			"/>
		</g>
		<g>
			<polygon class="st17" points="209.1,265.6 209.1,272.6 213.4,272.6 213.4,265.2 209.5,265.2 			"/>
		</g>
		<g>
			<polygon class="st17" points="210.7,264 213.6,264 213.7,264 213.7,264 213.7,264 213.7,263.9 213.7,263.9 213.7,263.9 
				213.7,263.9 213.7,263.8 213.8,263.8 213.8,263.8 213.8,263.8 213.8,263.8 213.8,263.7 213.8,263.7 213.8,263.7 213.8,263.7 
				213.9,263.7 213.9,263.7 213.9,263.6 213.9,263.6 213.9,263.6 213.9,263.6 214,263.6 214,263.6 214,263.5 215.4,262.1 
				212.6,262.1 			"/>
		</g>
		<g>
			<polygon class="st17" points="216.2,258.5 219,258.5 220.3,257.3 217.5,257.3 			"/>
		</g>
		<g>
			<polygon class="st17" points="213.7,261.1 216.5,261.1 218.4,259.2 215.6,259.2 			"/>
		</g>
		<g>
			<path class="st3" d="M216.5,255.6L216.5,255.6l-0.1,0l-9.1,9.1l0,0v0.1v8.6v0.1h0.1h6.7h0.1v-0.1v-8.9h0l0,0l0,0h0l0,0h0l0,0h0
				l0,0h0l0,0h0l0,0h0l0,0l0,0h0l0,0h0l0,0h0l0,0l0,0l0,0l0,0l0,0l0,0l0,0l0,0l0,0l0,0l0,0l0,0l0,0l0,0l0,0l0,0l0,0l0,0l0,0l0,0l0,0
				l0,0l0,0h0l0,0l0,0l0,0l0,0l0,0l0,0l0,0l0,0l0,0l0,0l0,0l0,0l0,0l0,0l0,0l0,0l0,0l0,0h0l0,0l0,0l0,0l0,0l0,0l0,0l0,0l0,0l0,0
				l8.3-8.3l0.2-0.2h-0.3H216.5z M214.2,263.9L214.2,263.9L214.2,263.9L214.2,263.9L214.2,263.9L214.2,263.9L214.2,263.9
				L214.2,263.9L214.2,263.9L214.2,263.9L214.2,263.9L214.2,263.9L214.2,263.9L214.2,263.9L214.2,263.9L214.2,263.9L214.2,263.9
				L214.2,263.9l-0.1,0.1l0,0l0,0l0,0l0,0l0,0l0,0l0,0l0,0l0,0l0,0h0l0,0l0,0l0,0l0,0l0,0l0,0l0,0l0,0l0,0l0,0l0,0l0,0l0,0l0,0l0,0
				l0,0l0,0l0,0l0,0l0,0l0,0l0,0l0,0l0,0l0,0l0,0l0,0l0,0l0,0l0,0l0,0l0,0l0,0l0,0l0,0l0,0l0,0l0,0l0,0l0,0l0,0l0,0l0,0v0l0,0l0,0
				l0,0l0,0l0,0v0l0,0v0l0,0v0l0,0l0,0v8.7h-6.4v-8.4l9-9h5.7L214.2,263.9z"/>
		</g>
		<g>
			<path class="st18" d="M189.4,264.2h2.2c-1.1-0.4-1.8-0.8-2.2-1.2V264.2z"/>
		</g>
		<g>
			<path class="st11" d="M189.4,262.1c0.3,0.5,1.5,1.8,5.8,2.1h11.3l8.9-8.9h-17.7L189.4,262.1z"/>
		</g>
		<g>
			<path class="st18" d="M197.7,255.4l-2,1.6c0.5,0.4,1.2,0.6,2,0.6c1.6,0,2.9-1,2.9-2.1c0,0,0-0.1,0-0.1H197.7z"/>
		</g>
		<g>
			<path class="st18" d="M203.7,260c0,0.9,2,1.7,4.9,2.2l4.7-4.7C207.9,257.5,203.7,258.6,203.7,260z"/>
		</g>
		<g>
			<rect x="189.4" y="267.7" class="st18" width="17" height="1.4"/>
		</g>
		<g>
			<rect x="189.4" y="265.9" class="st18" width="17" height="1.4"/>
		</g>
		<g>
			<rect x="189.4" y="269.5" class="st18" width="17" height="1.4"/>
		</g>
		<g>
			<rect x="189.4" y="264.8" class="st18" width="17" height="0.6"/>
		</g>
		<g>
			<rect x="189.4" y="271.3" class="st18" width="17" height="1.4"/>
		</g>
		<g>
			<rect x="189.4" y="273.2" class="st18" width="17" height="0.6"/>
		</g>
		<g>
			<rect x="215.1" y="267.7" class="st18" width="16.7" height="1.4"/>
		</g>
		<g>
			<rect x="215.1" y="264.8" class="st18" width="16.7" height="0.6"/>
		</g>
		<g>
			<rect x="215.1" y="273.2" class="st18" width="16.7" height="0.6"/>
		</g>
		<g>
			<rect x="215.1" y="265.9" class="st18" width="16.7" height="1.4"/>
		</g>
		<g>
			<rect x="215.1" y="271.3" class="st18" width="16.7" height="1.4"/>
		</g>
		<g>
			<rect x="215.1" y="269.5" class="st18" width="16.7" height="1.4"/>
		</g>
		<g>
			<polygon class="st18" points="232.5,271.9 241.7,262.7 241.7,261.4 232.5,270.5 			"/>
		</g>
		<g>
			<polygon class="st18" points="232.5,273.3 241.7,263.8 241.7,263.3 232.5,272.4 			"/>
		</g>
		<g>
			<polygon class="st18" points="232.5,267.9 241.7,258.8 241.7,257.5 232.5,266.6 			"/>
		</g>
		<g>
			<polygon class="st18" points="232.5,266 241.7,256.9 241.7,255.8 232.5,264.7 			"/>
		</g>
		<g>
			<polygon class="st18" points="232.5,269.9 241.7,260.8 241.7,259.3 232.5,268.4 			"/>
		</g>
		<g>
			<path class="st11" d="M215.6,264.2h9.3l0,0c1.9,0.1,3.7-0.3,5.4-0.8c2.9-0.9,5-2.2,5.2-2.5l0,0l5.7-5.5h-16.8L215.6,264.2z"/>
		</g>
		<g>
			<path class="st18" d="M239.1,257.3c0,0,0.1,0,0.1,0l2-1.9h-5C236.3,256.4,237.6,257.3,239.1,257.3z"/>
		</g>
		<g>
			<path class="st18" d="M221.4,258.4l-4,4c3.7-0.4,6.3-1.3,6.3-2.4C223.7,259.4,222.9,258.8,221.4,258.4z"/>
		</g>
		<g>
			<path class="st12" d="M229.6,264.2h2.4l1.5-1.5c-0.9,0.4-1.9,0.9-3.1,1.3C230.2,264.1,229.9,264.1,229.6,264.2z"/>
		</g>
		<g>
			<path class="st2" d="M317.1,177.3l2.9-3c-2.5-3-6.2-4.9-10.4-4.9c-7.5,0-13.5,6.1-13.5,13.5c0,7.5,6.1,13.5,13.5,13.5
				c7.5,0,13.5-6.1,13.5-13.5c0-2.4-0.6-4.6-1.7-6.5l-3.1,3.2c0.4,1,0.6,2.2,0.6,3.4c0,5.2-4.2,9.4-9.4,9.4c-5.2,0-9.4-4.2-9.4-9.4
				c0-5.2,4.2-9.4,9.4-9.4C312.7,173.6,315.4,175,317.1,177.3z"/>
		</g>
		<g>
			<path class="st2" d="M331.1,166.6c3.5,4.5,5.5,10.2,5.5,16.3c0,14.9-12.1,27-27,27c-14.9,0-27-12.1-27-27c0-14.9,12.1-27,27-27
				c7.9,0,14.9,3.4,19.9,8.7l3.3-3.3c-5.8-6.2-14-10.1-23.1-10.1c-17.5,0-31.7,14.2-31.7,31.7c0,17.5,14.2,31.7,31.7,31.7
				c17.5,0,31.7-14.2,31.7-31.7c0-7.4-2.6-14.3-6.9-19.7L331.1,166.6z"/>
		</g>
		<g>
			<path class="st2" d="M326.5,167.8c-4.1-4.6-10.1-7.5-16.8-7.5c-12.5,0-22.6,10.1-22.6,22.6c0,12.5,10.1,22.6,22.6,22.6
				c12.5,0,22.6-10.1,22.6-22.6c0-4.9-1.6-9.5-4.2-13.2l-2.8,2.9c1.9,2.9,3.1,6.5,3.1,10.3c0,10.3-8.3,18.6-18.6,18.6
				c-10.3,0-18.6-8.3-18.6-18.6c0-10.3,8.3-18.6,18.6-18.6c5.6,0,10.6,2.5,14,6.3L326.5,167.8z"/>
		</g>
		<g>
			<path class="st2" d="M304.2,182.9c0,3,2.4,5.4,5.4,5.4c3,0,5.4-2.4,5.4-5.4c0-3-2.4-5.4-5.4-5.4
				C306.7,177.5,304.2,180,304.2,182.9z"/>
		</g>
		<g>
			<path class="st2" d="M348.6,135.7l-13.2,13.5c0,0-0.2,3.8-0.3,6L308.7,182l1.9,1.9l26.1-26.5l6.4-0.4l14.1-14.2l-8.2,0.1
				L348.6,135.7z"/>
		</g>
		<g>
			<path class="st2" d="M162.7,139.3c-0.2,0.2-0.5,0.4-0.7,0.7c-0.3,0.2-0.5,0.4-0.7,0.6c-9,7.9-9.5,22-1.1,31.5
				c8.4,9.5,22.4,10.8,31.4,2.9c0.2-0.2,0.5-0.4,0.7-0.7c0.3-0.2,0.5-0.4,0.7-0.6c9-7.9,9.5-22,1.1-31.5
				C185.7,132.7,171.7,131.4,162.7,139.3z"/>
		</g>
		<g>
			
				<ellipse transform="matrix(0.7499 -0.6615 0.6615 0.7499 -60.2605 156.1457)" class="st19" cx="176.4" cy="157.8" rx="20.7" ry="21.8"/>
		</g>
		<g>
			
				<ellipse transform="matrix(0.75 -0.6615 0.6615 0.75 -59.0389 156.7885)" class="st20" cx="177.9" cy="156.5" rx="20.7" ry="21.8"/>
		</g>
		<g>
			<path class="st21" d="M158.1,149.6c-0.7,2.4-0.9,4.9-0.7,7.5l40.8,3.6c0.4-2.5,0.3-5-0.3-7.5L158.1,149.6z"/>
		</g>
		<g>
			<path class="st21" d="M158,160.6l39.4,3.4c0.3-0.8,0.5-1.6,0.6-2.4l-40.5-3.5C157.6,159,157.8,159.8,158,160.6z"/>
		</g>
		<g>
			
				<ellipse transform="matrix(0.7499 -0.6615 0.6615 0.7499 -59.039 156.7962)" class="st19" cx="177.9" cy="156.5" rx="16.3" ry="17.3"/>
		</g>
		<g>
			<path class="st10" d="M166,143.9c-6.3,6-6.6,16.4-0.4,23.4c6.2,7,16.5,8.1,23.2,2.5c6.3-6,6.6-16.4,0.4-23.4
				C183.1,139.5,172.8,138.4,166,143.9z"/>
		</g>
		<g>
			<path class="st22" d="M184.3,150.7l-4.4,3.9l0.2,0.5l1.1,2.8c1.3,3.5,0.8,6.2-1.5,8.3c-1.5,1.3-3.2,1.8-5.1,1.5
				c-1.9-0.3-3.7-1.3-5.2-3l-0.3-0.4l-1.8,1.6l-0.8-0.9l1.8-1.6c-2.8-3.9-3-7-0.4-9.3c0.3-0.2,0.7-0.5,1.2-0.9l2.6,1.9
				c-0.9,0.4-1.5,0.8-2,1.3c-1.8,1.6-1.9,3.6-0.1,5.9l5-4.4c-2-4.5-1.8-7.8,0.7-10c3-2.7,6.2-2.4,9.6,0.9l1.5-1.3l0.8,0.9l-1.4,1.2
				c3.3,3.7,3.4,7,0.2,9.8l-2.5-1.9c0.5-0.2,0.9-0.5,1.2-0.8C186.3,155.1,186.2,153.2,184.3,150.7z M170.3,163.2
				c1.6,1.4,3.1,1.6,4.3,0.5c1.1-0.9,1.2-2.5,0.3-4.6L170.3,163.2z M183.5,149.9c-0.1-0.1-0.2-0.2-0.2-0.3c-1.1-1.3-2.3-1.3-3.6-0.2
				c-0.9,0.8-1,2.2-0.3,4.1L183.5,149.9z"/>
		</g>
		<g>
			<path class="st3" d="M142.8,229.4c5.5,0,8.3,2.4,8.3,7.2c0,1.4-0.3,2.6-0.8,3.6c-0.5,0.9-1.4,1.8-2.6,2.5v0.2
				c1.3,0.6,2.3,1.4,2.9,2.4c0.6,1,0.9,2.3,0.9,3.9c0,2.7-0.8,4.7-2.3,6.2c-1.5,1.4-3.7,2.2-6.6,2.2c-1.4,0-2.7-0.1-3.7-0.4
				c-1-0.2-2.3-0.7-3.9-1.4l1.5-6.1c2.4,0.9,4.1,1.3,5,1.3c1.4,0,2.1-0.8,2.1-2.3c0-1.6-0.9-2.5-2.8-2.5h-2.7v-5.8h2.8
				c0.8,0,1.4-0.2,1.7-0.5c0.3-0.4,0.5-0.9,0.5-1.6c0-1.4-0.7-2.1-2.1-2.1c-1,0-2.7,0.5-5.1,1.5l-1.7-5.9c1.6-0.9,3-1.5,4.3-1.8
				C139.8,229.6,141.3,229.4,142.8,229.4z"/>
			<path class="st3" d="M163.4,257.1h-7.3v-20.3h-3.2v-4.6l4.5-2.4h6V257.1z"/>
		</g>
		<g>
			<path class="st3" d="M317.2,276.2c0-0.2-0.1-0.3-0.3-0.3h-17.7h-8.1h-18.6c-0.1,0-0.2,0-0.2,0.1l-8.5,7c-0.1,0.1-0.1,0.2-0.1,0.3
				h0v2.5v9.6c0,0.2,0.1,0.3,0.3,0.3h17.6h8.1h17.3h0h0h0h0h0h0h0h0h0h0h0h0h0h0h0h0h0h0h0h0h0h0h0h0h0h0h0l0,0h0h0h0h0h0h0h0h0h0
				l0,0h0h0h0h0h0h0h0h0h0h0h0h0h0l0,0h0h0h0h0h0h0h0h0l0,0l0,0l0,0l0,0l0,0l0,0l0,0h0l0,0l0,0l0,0l0,0h0l0,0h0h0l0,0h0h0l0,0h0l0,0
				h0h0l0,0h0h0l0,0h0h0l0,0h0h0l0,0h0l0,0h0h0l0,0h0h0l0,0h0l0,0h0h0l0,0h0l0,0h0h0l0,0h0l0,0h0h0l0,0h0l0,0h0h0l0,0h0l0,0h0l0,0h0
				h0l0,0h0l0,0h0h0l0,0l0,0h0l0,0l0,0l0,0l0,0l0,0l0,0l0,0l0,0l0,0l0,0l0,0l0,0l0,0l0,0l0,0l0,0l0,0l0,0l0,0l0,0l0,0l0,0l0,0l0,0
				l0,0l0,0h0l0,0h0l0,0l0,0l0,0l0,0l0,0l0,0l0,0l0,0l0,0h0l0,0l0,0l0,0l0,0l0,0l0,0l0,0l0,0l0,0l0,0c0,0,0,0,0,0l0,0l0,0l0,0l0,0
				l0,0l0,0l0,0l0,0l0,0l0,0l0,0l0,0l0,0l0,0l0,0l0,0l0,0l0,0l0,0l0,0l0,0l0,0l0,0l0,0l0,0l0,0l0,0l0,0l0,0l0,0l0,0l0,0l0,0l0,0l0,0
				h0v0l0,0l0,0l0,0l0,0l0,0l0,0l0,0l0,0l0,0l0,0l0,0l0,0l0,0l0,0l0,0l0,0l0,0l0,0l0,0l0,0l0,0l0,0l0,0l0,0l0,0l0,0l0,0l0,0l0,0l0,0
				l0,0l0,0l0,0l0,0l0,0l0,0l0,0l0,0l0,0l0,0l0,0l9.8-10.2c0.1-0.1,0.1-0.1,0.1-0.2h0v-3.2c0-0.1,0-0.1,0-0.2V276.2z"/>
		</g>
		<g>
			<polygon class="st16" points="281.9,285.8 281.9,294.9 289.4,294.9 289.4,285.7 289.5,285.6 289.5,285.6 289.5,285.6 
				289.5,285.6 289.5,285.6 289.5,285.6 289.5,285.6 289.5,285.6 289.5,285.6 289.5,285.6 289.5,285.6 289.5,285.6 289.5,285.6 
				289.5,285.6 289.5,285.6 289.5,285.6 289.5,285.6 289.5,285.6 289.5,285.6 289.5,285.6 289.5,285.6 289.5,285.6 289.5,285.6 
				289.5,285.6 289.5,285.6 289.5,285.6 289.5,285.6 289.5,285.6 289.5,285.6 289.5,285.6 289.5,285.6 289.5,285.6 289.5,285.6 
				289.5,285.6 289.5,285.6 289.5,285.5 289.5,285.5 289.5,285.5 289.5,285.5 289.5,285.5 289.5,285.5 289.5,285.5 289.5,285.5 
				289.5,285.5 289.5,285.5 289.5,285.5 289.5,285.5 289.5,285.5 289.5,285.5 289.5,285.5 289.5,285.5 289.5,285.5 289.5,285.5 
				289.5,285.5 289.5,285.5 289.5,285.5 289.5,285.5 289.5,285.5 289.5,285.5 289.5,285.5 289.5,285.5 289.5,285.5 289.5,285.5 
				289.5,285.5 289.5,285.5 289.5,285.5 289.5,285.5 289.5,285.5 289.5,285.5 289.5,285.5 289.5,285.5 289.5,285.5 289.5,285.5 
				289.5,285.5 289.5,285.5 289.5,285.5 289.5,285.5 289.5,285.5 289.5,285.5 289.5,285.5 289.5,285.5 289.5,285.5 289.5,285.4 
				289.5,285.4 289.5,285.4 289.5,285.4 289.5,285.4 289.5,285.4 289.5,285.4 289.5,285.4 289.5,285.4 289.5,285.4 289.5,285.4 
				298.5,276.5 291.2,276.5 			"/>
		</g>
		<g>
			<polygon class="st17" points="284,286.8 284,293.7 288.4,293.7 288.4,286.4 284.4,286.4 			"/>
		</g>
		<g>
			<polygon class="st17" points="285.6,285.1 288.6,285.1 288.6,285.1 288.6,285.1 288.6,285.1 288.6,285.1 288.6,285 288.6,285 
				288.7,285 288.7,285 288.7,284.9 288.7,284.9 288.7,284.9 288.7,284.9 288.8,284.9 288.8,284.8 288.8,284.8 288.8,284.8 
				288.8,284.8 288.8,284.8 288.8,284.8 288.8,284.7 288.9,284.7 288.9,284.7 288.9,284.7 288.9,284.7 288.9,284.7 290.3,283.2 
				287.5,283.2 			"/>
		</g>
		<g>
			<polygon class="st17" points="291.2,279.6 294,279.6 295.2,278.4 292.4,278.4 			"/>
		</g>
		<g>
			<polygon class="st17" points="288.6,282.2 291.4,282.2 293.3,280.3 290.5,280.3 			"/>
		</g>
		<g>
			<path class="st3" d="M291.4,276.7L291.4,276.7l-0.1,0l-9.1,9.1l0,0v0.1v8.6v0.1h0.1h6.7h0.1v-0.1v-8.9h0l0,0h0l0,0h0l0,0h0l0,0h0
				l0,0h0l0,0h0l0,0l0,0l0,0l0,0h0l0,0h0l0,0h0l0,0h0l0,0l0,0l0,0l0,0l0,0l0,0h0l0,0h0l0,0l0,0l0,0h0l0,0l0,0l0,0l0,0l0,0l0,0l0,0
				l0,0l0,0l0,0l0,0h0l0,0l0,0l0,0l0,0h0l0,0l0,0l0,0l0,0l0,0l0,0l0,0l0,0l0,0l0,0l0,0l0,0l0,0l0,0l0,0l0,0l0,0l0,0l0,0l0,0l0,0
				l8.3-8.3l0.2-0.2h-0.3H291.4z M289.2,285L289.2,285L289.2,285L289.2,285L289.2,285L289.2,285L289.2,285L289.2,285L289.2,285
				L289.2,285L289.2,285L289.2,285L289.2,285L289.2,285L289.2,285L289.2,285L289.2,285L289.2,285L289.2,285l-0.1,0.1l0,0l0,0l0,0h0
				h0l0,0l0,0l0,0l0,0l0,0l0,0l0,0l0,0l0,0l0,0l0,0l0,0l0,0l0,0l0,0l0,0l0,0l0,0l0,0l0,0l0,0l0,0l0,0l0,0l0,0l0,0l0,0l0,0l0,0l0,0
				l0,0l0,0h0l0,0l0,0l0,0h0l0,0l0,0l0,0l0,0l0,0l0,0l0,0l0,0l0,0l0,0l0,0v0l0,0l0,0l0,0v0l0,0l0,0l0,0l0,0l0,0v0l0,0v0l0,0v0l0,0
				l0,0v8.7h-6.4V286l9-9h5.7L289.2,285z"/>
		</g>
		<g>
			<path class="st18" d="M264.3,285.3h2.2c-1.1-0.4-1.8-0.8-2.2-1.2V285.3z"/>
		</g>
		<g>
			<path class="st11" d="M264.4,283.2c0.3,0.5,1.5,1.8,5.8,2.1h11.3l8.9-8.9h-17.7L264.4,283.2z"/>
		</g>
		<g>
			<path class="st18" d="M272.6,276.5l-2,1.6c0.5,0.4,1.2,0.6,2,0.6c1.6,0,2.9-1,2.9-2.1c0,0,0-0.1,0-0.1H272.6z"/>
		</g>
		<g>
			<path class="st18" d="M278.6,281.1c0,0.9,2,1.7,4.9,2.2l4.7-4.7C282.9,278.7,278.6,279.8,278.6,281.1z"/>
		</g>
		<g>
			<rect x="264.3" y="290.6" class="st18" width="17" height="1.4"/>
		</g>
		<g>
			<rect x="264.3" y="288.8" class="st18" width="17" height="1.4"/>
		</g>
		<g>
			<rect x="264.3" y="287" class="st18" width="17" height="1.4"/>
		</g>
		<g>
			<rect x="264.3" y="292.5" class="st18" width="17" height="1.4"/>
		</g>
		<g>
			<rect x="264.3" y="286" class="st18" width="17" height="0.6"/>
		</g>
		<g>
			<rect x="264.3" y="294.3" class="st18" width="17" height="0.6"/>
		</g>
		<g>
			<rect x="290.1" y="288.8" class="st18" width="16.7" height="1.4"/>
		</g>
		<g>
			<rect x="290.1" y="287" class="st18" width="16.7" height="1.4"/>
		</g>
		<g>
			<rect x="290.1" y="286" class="st18" width="16.7" height="0.6"/>
		</g>
		<g>
			<rect x="290.1" y="292.5" class="st18" width="16.7" height="1.4"/>
		</g>
		<g>
			<rect x="290.1" y="294.3" class="st18" width="16.7" height="0.6"/>
		</g>
		<g>
			<rect x="290.1" y="290.6" class="st18" width="16.7" height="1.4"/>
		</g>
		<g>
			<polygon class="st18" points="307.4,293 316.6,283.9 316.6,282.5 307.4,291.6 			"/>
		</g>
		<g>
			<polygon class="st18" points="307.4,294.4 316.6,284.9 316.6,284.4 307.4,293.5 			"/>
		</g>
		<g>
			<polygon class="st18" points="307.4,287.2 316.6,278 316.6,276.9 307.4,285.8 			"/>
		</g>
		<g>
			<polygon class="st18" points="307.4,289 316.6,279.9 316.6,278.6 307.4,287.7 			"/>
		</g>
		<g>
			<polygon class="st18" points="307.4,291 316.6,281.9 316.6,280.4 307.4,289.6 			"/>
		</g>
		<g>
			<path class="st11" d="M290.5,285.3h9.3l0,0c1.9,0.1,3.7-0.3,5.4-0.8c2.9-0.9,5-2.2,5.2-2.5l0,0l5.7-5.5h-16.8L290.5,285.3z"/>
		</g>
		<g>
			<path class="st18" d="M314,278.4c0,0,0.1,0,0.1,0l2-1.9h-5C311.3,277.6,312.5,278.4,314,278.4z"/>
		</g>
		<g>
			<path class="st18" d="M296.4,279.5l-4,4c3.7-0.4,6.3-1.3,6.3-2.4C298.7,280.5,297.8,280,296.4,279.5z"/>
		</g>
		<g>
			<path class="st12" d="M304.6,285.3h2.4l1.5-1.5c-0.9,0.4-1.9,0.9-3.1,1.3C305.1,285.2,304.9,285.3,304.6,285.3z"/>
		</g>
		<g>
			<path class="st3" d="M342.9,275.2c0-0.2-0.1-0.3-0.3-0.3h-17.7h-8.1h-18.6c-0.1,0-0.2,0-0.2,0.1l-8.5,7c-0.1,0.1-0.1,0.2-0.1,0.3
				h0v2.5v9.6c0,0.2,0.1,0.3,0.3,0.3h17.6h8.1h17.3h0h0h0h0h0h0h0h0h0h0h0h0h0h0h0h0h0h0h0h0h0h0h0h0h0h0h0h0l0,0h0h0h0h0h0h0h0h0h0
				h0h0h0h0h0l0,0h0h0h0h0h0h0h0h0l0,0h0h0h0h0h0h0h0l0,0h0l0,0l0,0l0,0l0,0l0,0l0,0h0l0,0l0,0l0,0l0,0h0l0,0h0h0l0,0h0h0l0,0h0l0,0
				h0h0l0,0h0h0l0,0h0h0l0,0h0h0h0l0,0h0l0,0h0h0l0,0h0h0l0,0h0l0,0h0h0l0,0h0l0,0h0h0l0,0h0h0l0,0h0h0l0,0h0l0,0h0h0l0,0h0l0,0h0h0
				l0,0h0l0,0h0l0,0h0h0l0,0l0,0h0l0,0l0,0l0,0l0,0l0,0l0,0l0,0l0,0l0,0l0,0l0,0l0,0l0,0l0,0l0,0l0,0l0,0l0,0l0,0l0,0l0,0l0,0l0,0
				l0,0l0,0l0,0h0l0,0h0l0,0l0,0l0,0l0,0l0,0l0,0l0,0l0,0l0,0l0,0l0,0l0,0h0l0,0l0,0l0,0l0,0l0,0l0,0l0,0c0,0,0,0,0,0l0,0l0,0l0,0
				l0,0l0,0l0,0l0,0l0,0l0,0l0,0l0,0l0,0l0,0l0,0l0,0l0,0l0,0l0,0l0,0l0,0l0,0l0,0l0,0l0,0l0,0l0,0l0,0l0,0l0,0l0,0l0,0l0,0l0,0l0,0
				l0,0l0,0l0,0l0,0l0,0l0,0l0,0l0,0l0,0l0,0l0,0l0,0l0,0l0,0l0,0l0,0l0,0l0,0l0,0l0,0l0,0l0,0l0,0l0,0l0,0l0,0l0,0l0,0l0,0l0,0l0,0
				l0,0l0,0l0,0l0,0l0,0l0,0l0,0l0,0l0,0l0,0l0,0l0,0l0,0l9.8-10.2c0.1-0.1,0.1-0.1,0.1-0.2h0v-3.2c0-0.1,0-0.1,0-0.2V275.2z"/>
		</g>
		<g>
			<polygon class="st16" points="307.6,284.8 307.6,293.9 315.1,293.9 315.1,284.7 315.1,284.7 315.1,284.7 315.1,284.7 
				315.1,284.7 315.1,284.7 315.1,284.7 315.1,284.7 315.1,284.7 315.1,284.7 315.1,284.7 315.1,284.7 315.1,284.6 315.1,284.6 
				315.1,284.6 315.1,284.6 315.1,284.6 315.1,284.6 315.1,284.6 315.1,284.6 315.1,284.6 315.1,284.6 315.1,284.6 315.1,284.6 
				315.1,284.6 315.1,284.6 315.1,284.6 315.1,284.6 315.1,284.6 315.1,284.6 315.1,284.6 315.1,284.6 315.1,284.6 315.1,284.6 
				315.1,284.6 315.1,284.6 315.1,284.6 315.1,284.6 315.1,284.6 315.1,284.6 315.1,284.6 315.1,284.6 315.1,284.6 315.1,284.6 
				315.1,284.6 315.1,284.6 315.1,284.6 315.1,284.6 315.1,284.6 315.1,284.6 315.1,284.5 315.1,284.5 315.1,284.5 315.1,284.5 
				315.1,284.5 315.1,284.5 315.1,284.5 315.1,284.5 315.1,284.5 315.1,284.5 315.1,284.5 315.1,284.5 315.1,284.5 315.1,284.5 
				315.1,284.5 315.1,284.5 315.1,284.5 315.1,284.5 315.1,284.5 315.1,284.5 315.1,284.5 315.1,284.5 315.1,284.5 315.1,284.5 
				315.1,284.5 315.1,284.5 315.1,284.5 315.1,284.5 315.2,284.5 315.2,284.5 315.2,284.5 315.2,284.5 315.2,284.5 315.2,284.5 
				315.2,284.5 315.2,284.5 315.2,284.5 315.2,284.5 315.2,284.5 315.2,284.5 315.2,284.5 315.2,284.5 315.2,284.5 315.2,284.5 
				315.2,284.5 324.1,275.5 316.9,275.5 			"/>
		</g>
		<g>
			<polygon class="st17" points="311.3,284.2 314.2,284.2 314.2,284.2 314.2,284.1 314.3,284.1 314.3,284.1 314.3,284.1 
				314.3,284.1 314.3,284 314.3,284 314.3,284 314.3,284 314.4,284 314.4,283.9 314.4,283.9 314.4,283.9 314.4,283.9 314.4,283.9 
				314.4,283.8 314.5,283.8 314.5,283.8 314.5,283.8 314.5,283.8 314.5,283.8 314.5,283.7 314.5,283.7 314.6,283.7 316,282.3 
				313.2,282.3 			"/>
		</g>
		<g>
			<polygon class="st17" points="309.6,285.8 309.6,292.7 314,292.7 314,285.4 310.1,285.4 			"/>
		</g>
		<g>
			<polygon class="st17" points="314.2,281.2 317,281.2 318.9,279.3 316.1,279.3 			"/>
		</g>
		<g>
			<polygon class="st17" points="316.8,278.6 319.6,278.6 320.8,277.4 318,277.4 			"/>
		</g>
		<g>
			<path class="st3" d="M317,275.8L317,275.8l-0.1,0l-9.1,9.1l0,0v0.1v8.6v0.1h0.1h6.7h0.1v-0.1v-8.9h0l0,0l0,0h0l0,0h0l0,0h0l0,0h0
				l0,0h0l0,0h0l0,0l0,0h0l0,0h0l0,0h0l0,0h0l0,0h0l0,0l0,0l0,0l0,0l0,0l0,0l0,0h0l0,0h0l0,0h0l0,0l0,0l0,0l0,0l0,0l0,0l0,0l0,0l0,0
				l0,0l0,0l0,0l0,0l0,0l0,0l0,0l0,0l0,0l0,0l0,0h0l0,0l0,0l0,0l0,0l0,0l0,0l0,0l0,0l0,0l0,0l0,0l0,0l0,0l0,0l0,0l0,0l8.3-8.3
				l0.2-0.2h-0.3H317z M314.8,284.1L314.8,284.1L314.8,284.1L314.8,284.1L314.8,284.1L314.8,284.1L314.8,284.1L314.8,284.1
				L314.8,284.1L314.8,284.1L314.8,284.1L314.8,284.1L314.8,284.1L314.8,284.1L314.8,284.1L314.8,284.1L314.8,284.1L314.8,284.1
				L314.8,284.1l-0.1,0.1l0,0l0,0l0,0h0h0l0,0l0,0l0,0l0,0l0,0l0,0l0,0h0l0,0l0,0l0,0l0,0l0,0l0,0l0,0l0,0l0,0l0,0l0,0l0,0l0,0l0,0
				l0,0l0,0l0,0l0,0l0,0l0,0l0,0l0,0l0,0l0,0l0,0h0l0,0l0,0l0,0l0,0l0,0l0,0l0,0l0,0l0,0l0,0l0,0l0,0l0,0l0,0v0l0,0l0,0l0,0v0l0,0
				l0,0l0,0l0,0l0,0v0l0,0v0l0,0v0l0,0l0,0v8.7h-6.4V285l9-9h5.7L314.8,284.1z"/>
		</g>
		<g>
			<path class="st18" d="M290,284.4h2.2c-1.1-0.4-1.8-0.8-2.2-1.2V284.4z"/>
		</g>
		<g>
			<path class="st11" d="M290,282.3c0.3,0.5,1.5,1.8,5.8,2.1h11.3l8.9-8.9h-17.7L290,282.3z"/>
		</g>
		<g>
			<path class="st18" d="M298.3,275.5l-2,1.6c0.5,0.4,1.2,0.6,2,0.6c1.6,0,2.9-1,2.9-2.1c0,0,0-0.1,0-0.1H298.3z"/>
		</g>
		<g>
			<path class="st18" d="M304.3,280.2c0,0.9,2,1.7,4.9,2.2l4.7-4.7C308.5,277.7,304.3,278.8,304.3,280.2z"/>
		</g>
		<g>
			<rect x="290" y="285" class="st18" width="17" height="0.6"/>
		</g>
		<g>
			<rect x="290" y="286" class="st18" width="17" height="1.4"/>
		</g>
		<g>
			<rect x="290" y="287.9" class="st18" width="17" height="1.4"/>
		</g>
		<g>
			<rect x="290" y="289.7" class="st18" width="17" height="1.4"/>
		</g>
		<g>
			<rect x="290" y="291.5" class="st18" width="17" height="1.4"/>
		</g>
		<g>
			<rect x="290" y="293.3" class="st18" width="17" height="0.6"/>
		</g>
		<g>
			<rect x="315.7" y="291.5" class="st18" width="16.7" height="1.4"/>
		</g>
		<g>
			<rect x="315.7" y="285" class="st18" width="16.7" height="0.6"/>
		</g>
		<g>
			<rect x="315.7" y="293.3" class="st18" width="16.7" height="0.6"/>
		</g>
		<g>
			<rect x="315.7" y="286" class="st18" width="16.7" height="1.4"/>
		</g>
		<g>
			<rect x="315.7" y="289.7" class="st18" width="16.7" height="1.4"/>
		</g>
		<g>
			<rect x="315.7" y="287.9" class="st18" width="16.7" height="1.4"/>
		</g>
		<g>
			<polygon class="st18" points="333.1,292 342.3,282.9 342.3,281.5 333.1,290.6 			"/>
		</g>
		<g>
			<polygon class="st18" points="333.1,293.5 342.3,284 342.3,283.5 333.1,292.6 			"/>
		</g>
		<g>
			<polygon class="st18" points="333.1,286.2 342.3,277.1 342.3,275.9 333.1,284.8 			"/>
		</g>
		<g>
			<polygon class="st18" points="333.1,288 342.3,278.9 342.3,277.6 333.1,286.8 			"/>
		</g>
		<g>
			<polygon class="st18" points="333.1,290.1 342.3,281 342.3,279.5 333.1,288.6 			"/>
		</g>
		<g>
			<path class="st11" d="M316.2,284.4h9.3l0,0c1.9,0.1,3.7-0.3,5.4-0.8c2.9-0.9,5-2.2,5.2-2.5l0,0l5.7-5.5H325L316.2,284.4z"/>
		</g>
		<g>
			<path class="st18" d="M339.7,277.4c0,0,0.1,0,0.1,0l2-1.9h-5C336.9,276.6,338.2,277.4,339.7,277.4z"/>
		</g>
		<g>
			<path class="st18" d="M322,278.5l-4,4c3.7-0.4,6.3-1.3,6.3-2.4C324.3,279.6,323.4,279,322,278.5z"/>
		</g>
		<g>
			<path class="st12" d="M330.2,284.4h2.4l1.5-1.5c-0.9,0.4-1.9,0.9-3.1,1.3C330.8,284.2,330.5,284.3,330.2,284.4z"/>
		</g>
		<g>
			<path class="st3" d="M334.5,261.9c0-0.2-0.1-0.3-0.3-0.3h-17.7h-8.1h-18.6c-0.1,0-0.2,0-0.2,0.1l-8.5,7c-0.1,0.1-0.1,0.2-0.1,0.3
				h0v2.5v9.6c0,0.2,0.1,0.3,0.3,0.3h17.6h8.1h17.3h0h0h0h0h0h0h0h0h0h0h0h0h0h0h0h0h0h0h0h0h0h0h0l0,0h0h0h0h0h0h0h0h0h0h0h0h0h0
				l0,0h0h0h0h0h0h0h0h0h0h0h0l0,0h0h0h0h0h0h0h0l0,0h0h0h0h0l0,0l0,0l0,0l0,0h0l0,0l0,0l0,0l0,0h0l0,0h0h0h0l0,0h0h0h0l0,0h0l0,0h0
				h0l0,0h0l0,0h0h0h0l0,0h0l0,0h0h0h0l0,0h0h0l0,0h0l0,0h0h0l0,0h0l0,0h0h0l0,0h0l0,0h0h0h0l0,0h0l0,0h0h0l0,0h0l0,0h0h0l0,0h0l0,0
				h0l0,0h0h0l0,0h0l0,0h0h0l0,0h0l0,0l0,0l0,0l0,0l0,0l0,0l0,0l0,0l0,0l0,0l0,0l0,0l0,0l0,0l0,0l0,0l0,0l0,0l0,0l0,0l0,0l0,0l0,0
				l0,0l0,0l0,0l0,0h0l0,0l0,0l0,0l0,0l0,0l0,0l0,0l0,0l0,0l0,0v0l0,0l0,0l0,0l0,0l0,0l0,0l0,0l0,0l0,0l0,0c0,0,0,0,0,0l0,0l0,0l0,0
				l0,0l0,0l0,0l0,0l0,0l0,0l0,0l0,0l0,0l0,0l0,0l0,0l0,0l0,0l0,0l0,0l0,0l0,0l0,0l0,0l0,0l0,0l0,0l0,0l0,0l0,0l0,0l0,0l0,0l0,0l0,0
				l0,0l0,0l0,0l0,0l0,0l0,0l0,0l0,0l0,0l0,0l0,0l0,0l0,0l0,0l0,0l0,0l0,0l0,0l0,0l0,0l0,0l0,0l0,0l0,0l0,0l0,0l0,0l0,0l0,0l0,0l0,0
				l0,0l0,0l0,0l0,0l0,0l0,0l0,0l0,0l0,0l0,0l0,0l0,0l0,0v0l9.8-10.2c0.1-0.1,0.1-0.1,0.1-0.2h0v-3.2c0-0.1,0-0.1,0-0.2V261.9z"/>
		</g>
		<g>
			<polygon class="st16" points="299.2,271.5 299.2,280.7 306.7,280.7 306.7,271.4 306.7,271.4 306.7,271.4 306.7,271.4 
				306.7,271.4 306.7,271.4 306.7,271.4 306.7,271.4 306.7,271.4 306.7,271.4 306.7,271.4 306.7,271.3 306.7,271.3 306.7,271.3 
				306.7,271.3 306.7,271.3 306.7,271.3 306.7,271.3 306.7,271.3 306.7,271.3 306.7,271.3 306.7,271.3 306.7,271.3 306.7,271.3 
				306.7,271.3 306.8,271.3 306.8,271.3 306.8,271.3 306.8,271.3 306.8,271.3 306.8,271.3 306.8,271.3 306.8,271.3 306.8,271.3 
				306.8,271.3 306.8,271.3 306.8,271.3 306.8,271.3 306.8,271.3 306.8,271.3 306.8,271.3 306.8,271.3 306.8,271.3 306.8,271.3 
				306.8,271.3 306.8,271.3 306.8,271.3 306.8,271.3 306.8,271.3 306.8,271.3 306.8,271.3 306.8,271.2 306.8,271.2 306.8,271.2 
				306.8,271.2 306.8,271.2 306.8,271.2 306.8,271.2 306.8,271.2 306.8,271.2 306.8,271.2 306.8,271.2 306.8,271.2 306.8,271.2 
				306.8,271.2 306.8,271.2 306.8,271.2 306.8,271.2 306.8,271.2 306.8,271.2 306.8,271.2 306.8,271.2 306.8,271.2 306.8,271.2 
				306.8,271.2 306.8,271.2 306.8,271.2 306.8,271.2 306.8,271.2 306.8,271.2 306.8,271.2 306.8,271.2 306.8,271.2 306.8,271.2 
				306.8,271.2 306.8,271.2 306.8,271.2 306.8,271.2 306.8,271.2 306.8,271.2 306.8,271.2 306.8,271.2 306.8,271.2 306.8,271.2 
				315.8,262.2 308.5,262.2 			"/>
		</g>
		<g>
			<polygon class="st17" points="301.3,272.5 301.3,279.4 305.7,279.4 305.7,272.1 301.7,272.1 			"/>
		</g>
		<g>
			<polygon class="st17" points="302.9,270.9 305.9,270.9 305.9,270.9 305.9,270.8 305.9,270.8 305.9,270.8 305.9,270.8 
				305.9,270.8 306,270.7 306,270.7 306,270.7 306,270.7 306,270.7 306,270.6 306,270.6 306.1,270.6 306.1,270.6 306.1,270.6 
				306.1,270.5 306.1,270.5 306.1,270.5 306.1,270.5 306.2,270.5 306.2,270.5 306.2,270.4 306.2,270.4 306.2,270.4 307.6,269 
				304.8,269 			"/>
		</g>
		<g>
			<polygon class="st17" points="308.5,265.3 311.3,265.3 312.5,264.1 309.7,264.1 			"/>
		</g>
		<g>
			<polygon class="st17" points="305.9,267.9 308.7,267.9 310.6,266 307.8,266 			"/>
		</g>
		<g>
			<path class="st3" d="M308.7,262.5L308.7,262.5l-0.1,0l-9.1,9.1l0,0v0.1v8.6v0.1h0.1h6.7h0.1v-0.1v-8.9h0l0,0l0,0l0,0l0,0h0l0,0
				l0,0l0,0h0l0,0l0,0l0,0l0,0l0,0h0l0,0h0l0,0h0l0,0l0,0l0,0l0,0l0,0l0,0l0,0l0,0l0,0l0,0l0,0h0l0,0l0,0l0,0l0,0l0,0l0,0l0,0l0,0
				l0,0l0,0l0,0h0l0,0l0,0l0,0h0l0,0l0,0h0l0,0l0,0l0,0l0,0l0,0l0,0l0,0l0,0l0,0l0,0l0,0l0,0l0,0l0,0l0,0l0,0l0,0l0,0l0,0h0l0,0l0,0
				l0,0l8.3-8.3l0.2-0.2h-0.3H308.7z M306.4,270.8L306.4,270.8L306.4,270.8L306.4,270.8L306.4,270.8L306.4,270.8L306.4,270.8
				L306.4,270.8L306.4,270.8L306.4,270.8L306.4,270.8L306.4,270.8L306.4,270.8L306.4,270.8L306.4,270.8L306.4,270.8L306.4,270.8
				L306.4,270.8l-0.1,0.1l0,0l0,0l0,0l0,0l0,0l0,0l0,0l0,0l0,0l0,0l0,0l0,0l0,0l0,0l0,0l0,0l0,0l0,0l0,0l0,0l0,0l0,0l0,0l0,0l0,0
				l0,0l0,0l0,0l0,0l0,0l0,0l0,0l0,0l0,0l0,0l0,0l0,0l0,0v0l0,0l0,0l0,0l0,0l0,0l0,0l0,0l0,0l0,0l0,0l0,0h0l0,0l0,0l0,0v0l0,0l0,0
				l0,0l0,0l0,0v0l0,0v0l0,0v0l0,0l0,0v8.7h-6.4v-8.4l9-9h5.7L306.4,270.8z"/>
		</g>
		<g>
			<path class="st18" d="M281.6,271.1h2.2c-1.1-0.4-1.8-0.8-2.2-1.2V271.1z"/>
		</g>
		<g>
			<path class="st11" d="M281.7,269c0.3,0.5,1.5,1.8,5.8,2.1h11.3l8.9-8.9h-17.7L281.7,269z"/>
		</g>
		<g>
			<path class="st18" d="M289.9,262.2l-2,1.6c0.5,0.4,1.2,0.6,2,0.6c1.6,0,2.9-1,2.9-2.1c0,0,0-0.1,0-0.1H289.9z"/>
		</g>
		<g>
			<path class="st18" d="M295.9,266.9c0,0.9,2,1.7,4.9,2.2l4.7-4.7C300.2,264.4,295.9,265.5,295.9,266.9z"/>
		</g>
		<g>
			<rect x="281.6" y="276.4" class="st18" width="17" height="1.4"/>
		</g>
		<g>
			<rect x="281.6" y="274.6" class="st18" width="17" height="1.4"/>
		</g>
		<g>
			<rect x="281.6" y="278.2" class="st18" width="17" height="1.4"/>
		</g>
		<g>
			<rect x="281.6" y="280" class="st18" width="17" height="0.6"/>
		</g>
		<g>
			<rect x="281.6" y="271.7" class="st18" width="17" height="0.6"/>
		</g>
		<g>
			<rect x="281.6" y="272.7" class="st18" width="17" height="1.4"/>
		</g>
		<g>
			<rect x="307.4" y="272.7" class="st18" width="16.7" height="1.4"/>
		</g>
		<g>
			<rect x="307.4" y="280" class="st18" width="16.7" height="0.6"/>
		</g>
		<g>
			<rect x="307.4" y="274.6" class="st18" width="16.7" height="1.4"/>
		</g>
		<g>
			<rect x="307.4" y="271.7" class="st18" width="16.7" height="0.6"/>
		</g>
		<g>
			<rect x="307.4" y="278.2" class="st18" width="16.7" height="1.4"/>
		</g>
		<g>
			<rect x="307.4" y="276.4" class="st18" width="16.7" height="1.4"/>
		</g>
		<g>
			<polygon class="st18" points="324.7,278.7 333.9,269.6 333.9,268.2 324.7,277.3 			"/>
		</g>
		<g>
			<polygon class="st18" points="324.7,276.8 333.9,267.7 333.9,266.2 324.7,275.3 			"/>
		</g>
		<g>
			<polygon class="st18" points="324.7,280.2 333.9,270.7 333.9,270.2 324.7,279.3 			"/>
		</g>
		<g>
			<polygon class="st18" points="324.7,274.7 333.9,265.6 333.9,264.3 324.7,273.5 			"/>
		</g>
		<g>
			<polygon class="st18" points="324.7,272.9 333.9,263.8 333.9,262.6 324.7,271.5 			"/>
		</g>
		<g>
			<path class="st11" d="M307.8,271.1h9.3l0,0c1.9,0.1,3.7-0.3,5.4-0.8c2.9-0.9,5-2.2,5.2-2.5l0,0l5.7-5.5h-16.8L307.8,271.1z"/>
		</g>
		<g>
			<path class="st18" d="M331.3,264.1c0,0,0.1,0,0.1,0l2-1.9h-5C328.6,263.3,329.8,264.1,331.3,264.1z"/>
		</g>
		<g>
			<path class="st18" d="M313.6,265.2l-4,4c3.7-0.4,6.3-1.3,6.3-2.4C316,266.3,315.1,265.7,313.6,265.2z"/>
		</g>
		<g>
			<path class="st12" d="M321.9,271.1h2.4l1.5-1.5c-0.9,0.4-1.9,0.9-3.1,1.3C322.4,270.9,322.2,271,321.9,271.1z"/>
		</g>
		<g>
			<path class="st2" d="M306.6,222.6c-12.6,0-22.9,9.7-22.9,21.7c0,0.3,0,0.7,0,1c0,0.3,0,0.7,0,1c0,12,10.3,21.7,22.9,21.7
				c12.6,0,22.9-9.7,22.9-21.7c0-0.3,0-0.7,0-1c0-0.3,0-0.7,0-1C329.5,232.3,319.2,222.6,306.6,222.6z"/>
		</g>
		<g>
			<ellipse class="st19" cx="306.6" cy="246.2" rx="21.8" ry="20.7"/>
		</g>
		<g>
			<ellipse class="st20" cx="306.6" cy="244.3" rx="21.8" ry="20.7"/>
		</g>
		<g>
			<path class="st21" d="M317.3,227l-28.9,27.5c1.3,2.1,3.1,4,5.1,5.5l29.6-28.2C321.5,229.9,319.6,228.3,317.3,227z"/>
		</g>
		<g>
			<path class="st21" d="M294.3,260.6c0.7,0.5,1.4,0.9,2.2,1.3l28.6-27.3c-0.4-0.7-0.9-1.4-1.4-2.1L294.3,260.6z"/>
		</g>
		<g>
			<ellipse class="st19" cx="306.6" cy="244.3" rx="17.3" ry="16.3"/>
		</g>
		<g>
			<path class="st10" d="M306.6,229.1c-9.3,0-16.9,7-17.3,15.7c0.3,8.8,7.9,15.7,17.3,15.7s16.9-7,17.3-15.7
				C323.5,236.1,315.9,229.1,306.6,229.1z"/>
		</g>
		<g>
			<path class="st22" d="M306.6,235.6v5.9l0.4,0.2l2.8,1.1c3.5,1.4,5.2,3.6,5.2,6.6c0,2-0.7,3.6-2.2,4.8c-1.5,1.3-3.4,1.9-5.7,1.9
				h-0.5v2.4h-1.2v-2.4c-4.8-0.5-7.2-2.4-7.2-5.8c0-0.4,0-0.8,0.1-1.5l3.1-0.7c-0.3,0.9-0.4,1.7-0.4,2.3c0,2.4,1.4,3.8,4.3,4v-6.6
				c-4.7-1.5-7-3.9-7-7.2c0-4,2.3-6.2,7-6.6V232h1.2v1.8c5,0,7.5,2.1,7.5,6.3l-3.1,0.6c0.2-0.5,0.2-1,0.2-1.4
				C311.2,237.1,309.6,235.8,306.6,235.6z M305.4,235.7c-0.2,0-0.3,0-0.3,0c-1.7,0-2.5,0.8-2.5,2.5c0,1.2,1,2.2,2.9,2.9V235.7z
				 M306.6,254.4c2.1-0.3,3.2-1.3,3.2-3c0-1.4-1.1-2.5-3.2-3.3V254.4z"/>
		</g>
		<g>
			<path class="st2" d="M214.7,116.5c-0.2,0.1-0.3,0.3-0.5,0.4c-0.2,0.1-0.3,0.3-0.5,0.4c-5.8,5.1-6.2,14.3-0.7,20.5
				c5.4,6.2,14.6,7,20.4,1.9c0.2-0.1,0.3-0.3,0.5-0.4c0.2-0.1,0.3-0.3,0.5-0.4c5.8-5.1,6.2-14.3,0.7-20.5
				C229.7,112.2,220.6,111.4,214.7,116.5z"/>
		</g>
		<g>
			<path class="st19" d="M214.2,117.9c-5.6,4.9-5.9,13.7-0.7,19.6c5.2,5.9,13.9,6.7,19.5,1.8c5.6-4.9,5.9-13.7,0.7-19.6
				C228.5,113.8,219.8,113,214.2,117.9z"/>
		</g>
		<g>
			<path class="st20" d="M215.2,117.1c-5.6,4.9-5.9,13.7-0.7,19.6c5.2,5.9,13.9,6.7,19.5,1.8c5.6-4.9,5.9-13.7,0.7-19.6
				C229.5,112.9,220.8,112.1,215.2,117.1z"/>
		</g>
		<g>
			<path class="st21" d="M211.7,130.4l25.6,2.2c0.2-0.5,0.3-1,0.4-1.6l-26.4-2.3C211.4,129.3,211.5,129.9,211.7,130.4z"/>
		</g>
		<g>
			<path class="st21" d="M211.8,123.3c-0.5,1.6-0.6,3.2-0.5,4.9l26.5,2.3c0.2-1.6,0.2-3.3-0.2-4.9L211.8,123.3z"/>
		</g>
		<g>
			<path class="st19" d="M217.2,119.3c-4.4,3.9-4.6,10.8-0.5,15.5c4.1,4.7,11,5.3,15.4,1.4c4.4-3.9,4.6-10.8,0.5-15.5
				C228.5,116,221.6,115.4,217.2,119.3z"/>
		</g>
		<g>
			<path class="st10" d="M216.9,119.5c-4.1,3.9-4.3,10.7-0.2,15.2c4,4.6,10.7,5.3,15.1,1.7c4.1-3.9,4.3-10.7,0.2-15.2
				C228,116.6,221.3,115.9,216.9,119.5z"/>
		</g>
		<g>
			<path class="st22" d="M228.8,124l-2.9,2.5l0.1,0.3l0.7,1.8c0.8,2.3,0.5,4.1-1,5.4c-1,0.8-2.1,1.2-3.3,1c-1.3-0.2-2.4-0.8-3.4-2
				l-0.2-0.2l-1.2,1l-0.5-0.6l1.2-1c-1.8-2.6-1.9-4.6-0.3-6c0.2-0.2,0.4-0.3,0.8-0.6l1.7,1.2c-0.6,0.3-1,0.6-1.3,0.8
				c-1.2,1.1-1.2,2.3-0.1,3.8l3.2-2.9c-1.3-2.9-1.1-5.1,0.5-6.5c2-1.7,4-1.5,6.3,0.6l0.9-0.8l0.5,0.6l-0.9,0.8
				c2.1,2.4,2.2,4.6,0.1,6.4l-1.6-1.3c0.3-0.1,0.6-0.3,0.8-0.5C230.1,126.8,230.1,125.5,228.8,124z M219.7,132.1
				c1.1,0.9,2,1,2.8,0.3c0.7-0.6,0.8-1.6,0.2-3L219.7,132.1z M228.3,123.4c-0.1-0.1-0.1-0.2-0.1-0.2c-0.7-0.8-1.5-0.9-2.3-0.1
				c-0.6,0.5-0.6,1.4-0.2,2.7L228.3,123.4z"/>
		</g>
	</g>
</g>
</svg>
