<?xml version="1.0" encoding="utf-8"?>
<!-- Generator: Adobe Illustrator 27.3.1, SVG Export Plug-In . SVG Version: 6.00 Build 0)  -->
<svg version="1.1" id="Layer_1" xmlns="http://www.w3.org/2000/svg" xmlns:xlink="http://www.w3.org/1999/xlink" x="0px" y="0px"
	 viewBox="0 0 422.9 402.3" style="enable-background:new 0 0 422.9 402.3;" xml:space="preserve">
<style type="text/css">
	.st0{fill:#BACBC2;}
	.st1{fill:#F7AF51;}
	.st2{fill:#FDCE65;}
	.st3{fill:#FFDD7A;}
</style>
<g>
	<g>
		<circle class="st0" cx="211.5" cy="201.2" r="181.1"/>
	</g>
</g>
<g>
	
		<ellipse transform="matrix(0.1602 -0.9871 0.9871 0.1602 -19.5224 384.6073)" class="st1" cx="216.3" cy="203.8" rx="113.1" ry="113.1"/>
	<circle class="st2" cx="206.6" cy="198.5" r="113.1"/>
	<path class="st2" d="M291,198.5c0,46.6-37.8,84.4-84.4,84.4s-84.4-37.8-84.4-84.4s37.8-84.4,84.4-84.4S291,151.9,291,198.5z"/>
	<path class="st1" d="M288.9,172.6c0.8,5.6,1.2,9.7,1.3,14.7c0.5,3.7,0.7,7.4,0.7,11.2c0,46.6-37.8,84.3-84.3,84.3
		c-4.1,0-18.2-0.6-21.2-0.7c7.6,2.3,15.7,3.5,24.1,3.5c46.6,0,84.3-37.8,84.3-84.3C293.9,191.3,292.1,181.6,288.9,172.6z"/>
	<path class="st1" d="M125.3,201.4c0-46.6,37.7-84.3,84.3-84.3c22.4,0,42.7,8.7,57.8,23c-15.4-15.9-36.9-25.9-60.8-25.9
		c-46.6,0-84.4,37.8-84.4,84.4c0,25,10.9,47.5,28.1,62.9C134.9,246.1,125.3,224.9,125.3,201.4z"/>
	<path class="st1" d="M213.8,149.5c12.9,2,20.6,9.8,20.6,22.1v2l-17.8,1.4v-2.2c0-6.8-3.1-10.1-9.8-10.1c-5.6,0-9.4,2.7-9.4,8.2v1.8
		c0,5.4,3.7,9.9,15.7,18.7c16.4,12.2,22.2,20.1,22.2,30.7v2.4c0,12.3-8.4,19.8-21.5,21.7v10.2h-14.7v-10.2
		c-12.9-2.2-21.1-9.9-21.1-22.1v-5.6l17.8-1.4v5.9c0,6.8,3.5,10.1,10.8,10.1c5.4,0,10.1-2.7,10.1-8.2v-2.1c0-5.4-3.7-9.9-15.7-18.7
		c-16.4-12.2-22.2-20.1-22.2-30.7v-2.1c0-12.2,7.5-19.7,20.3-21.7v-8.8h14.7V149.5z"/>
	<path class="st3" d="M165.6,98.4c-33.7,9.4-61,49.9-65.1,83.4c-0.3,2.5,3,12.9,5.5,6.4c5.7-14.8,10.5-29.1,20-42
		c11.1-15,25.9-24.1,40.4-35.3C168.6,109.1,169.5,97.3,165.6,98.4z"/>
	<path class="st3" d="M242.2,291.1c11.4,0.6,23.9-12,31.2-19.7c8.8-9.2,17.5-21.1,20-33.8c0.2-1.1-0.2-10.3-3-6.9
		c-7.5,9.2-11.5,20.4-20,29.2c-8.7,9.1-20.7,13.9-29.3,22.6C239.8,284,239.4,290.9,242.2,291.1z"/>
</g>
</svg>
