<?xml version="1.0" encoding="utf-8"?>
<!-- Generator: Adobe Illustrator 27.3.1, SVG Export Plug-In . SVG Version: 6.00 Build 0)  -->
<svg version="1.1" id="Layer_1" xmlns="http://www.w3.org/2000/svg" xmlns:xlink="http://www.w3.org/1999/xlink" x="0px" y="0px"
	 viewBox="0 0 422.9 402.3" style="enable-background:new 0 0 422.9 402.3;" xml:space="preserve">
<style type="text/css">
	.st0{fill:#BACBC2;}
	.st1{fill:#C2E6FF;}
	.st2{fill:#0944F4;}
	.st3{fill:#FFFFFF;}
	.st4{fill:#9EB2EF;}
	.st5{fill:#F4E68B;}
	.st6{fill:#171C51;}
	.st7{clip-path:url(#SVGID_00000018947894510871147600000000672865557062380439_);}
	.st8{fill:#EF9F22;}
	.st9{fill:#466EB6;}
	.st10{clip-path:url(#SVGID_00000181792981727649349080000011047580658954614962_);}
	.st11{fill:#F7F07F;}
</style>
<g>
	<g>
		<circle class="st0" cx="211.5" cy="201.2" r="181.1"/>
	</g>
</g>
<g>
	<path class="st1" d="M216.3,316.9c-59.4-0.3-106.4,3.7-111.1-49.1c-4.7-52.7,2-74.8,32.4-86.8c30.3-11.9,49.1-59.3,105.3-59.3
		s57.1,52.3,59.6,67.2c2.5,14.9,18.9,11.4,18.4,45.3S322.7,317.4,216.3,316.9z"/>
	<g>
		<g>
			<path d="M198.4,267.5c-1.2,0-2.1-0.9-2.1-2.1V75.4c0-1.2,1-2.1,2.1-2.1s2.1,0.9,2.1,2.1v189.9
				C200.5,266.5,199.6,267.5,198.4,267.5z"/>
		</g>
		<g>
			<path d="M190.2,285.3c-6.9,0-12.5-5.5-12.5-12.2V262c0-2.3,1.9-4.2,4.3-4.2s4.3,1.9,4.3,4.2v11.1c0,2.1,1.8,3.8,3.9,3.8
				c2.2,0,3.9-1.7,3.9-3.8v-47.1c0-2.3,1.9-4.2,4.3-4.2s4.3,1.9,4.3,4.2v47.1C202.7,279.8,197.1,285.3,190.2,285.3z"/>
		</g>
		<g>
			<g>
				<path class="st2" d="M198.4,83c-38.1,0-69.5,34.7-69.5,77.5h-1.2c-2.9-3.3-7.6-5.4-12.7-5.4c-5.2,0-9.8,2.1-12.7,5.4h-0.2
					C101.9,117.7,145.1,83,198.4,83z"/>
				<path d="M129.1,160.7h-1.6l-0.1-0.1c-3-3.4-7.6-5.3-12.6-5.3c-5,0-9.5,1.9-12.6,5.3l-0.1,0.1h-0.6v-0.2
					c0-10.5,2.6-20.7,7.6-30.3c4.9-9.3,11.9-17.6,20.7-24.7c8.9-7.1,19.2-12.7,30.7-16.7c11.9-4.1,24.6-6.1,37.6-6.1v0.5
					c-38.2,0-69.3,34.7-69.3,77.3V160.7z M127.8,160.2h0.9c0-10.4,1.9-20.5,5.5-30c3.5-9.2,8.6-17.6,15-24.7
					c6.4-7.1,13.9-12.7,22.2-16.7c5.2-2.5,10.6-4.2,16.1-5.2c-47.8,4.3-85.2,36.9-85.4,76.5c3.1-3.4,7.7-5.3,12.8-5.3
					C120,154.9,124.7,156.8,127.8,160.2z"/>
			</g>
			<g>
				<path class="st3" d="M198.4,83c-22.8,0-41.6,34.7-41.6,77.5h-1.3c-2.9-3.3-7.6-5.4-12.7-5.4c-5.2,0-9.8,2.1-12.7,5.4h-1.1
					C128.9,117.7,160.3,83,198.4,83z"/>
				<path d="M157,160.7h-1.6l-0.1-0.1c-3-3.4-7.6-5.3-12.6-5.3c-5,0-9.5,1.9-12.6,5.3l-0.1,0.1h-1.4v-0.2c0-10.5,1.9-20.7,5.5-30.3
					c3.5-9.2,8.6-17.6,15-24.7c6.4-7.1,13.9-12.7,22.2-16.7c8.6-4.1,17.7-6.1,27-6.1v0.5c-11,0-21.3,8-29.2,22.6
					c-7.9,14.6-12.2,34.1-12.2,54.7V160.7z M155.6,160.2h0.9c0.1-39.2,15.8-71.6,36.2-76.8c-35.5,3.2-63.5,36.4-63.6,76.8h0.8
					c3.1-3.4,7.8-5.4,12.8-5.4C147.8,154.9,152.5,156.8,155.6,160.2z"/>
			</g>
			<g>
				<path class="st2" d="M198.4,83c-7.6,0-13.9,34.7-13.9,77.5h-1.2c-2.9-3.3-7.6-5.4-12.7-5.4c-5.2,0-9.8,2.1-12.7,5.4h-1.1
					C156.8,117.7,175.6,83,198.4,83z"/>
				<path d="M184.8,160.7h-1.6l-0.1-0.1c-3-3.4-7.6-5.3-12.6-5.3c-5,0-9.5,1.9-12.6,5.3l-0.1,0.1h-1.4v-0.2
					c0-42.9,18.8-77.7,41.9-77.7v0.5c-3.5,0-7,8.2-9.6,22.5c-2.6,14.7-4.1,34.1-4.1,54.8V160.7z M183.4,160.2h0.9
					c0-20.6,1.5-40,4.1-54.6c2.3-12.6,5.2-20.4,8.4-22.4c-10.4,0.8-20.1,8.7-27.5,22.5c-7.9,14.6-12.2,33.9-12.2,54.5h0.7
					c3.1-3.4,7.8-5.4,12.8-5.4C175.6,154.9,180.3,156.8,183.4,160.2z"/>
			</g>
			<g>
				<path class="st3" d="M212.3,160.5h-1.1c-2.9-3.3-7.6-5.4-12.7-5.4s-9.8,2.1-12.7,5.4h-1.1c0-42.8,6.3-77.5,13.9-77.5
					C206,83,212.3,117.7,212.3,160.5z"/>
				<path d="M212.5,160.7H211l-0.1-0.1c-3-3.4-7.6-5.3-12.6-5.3c-5,0-9.5,1.9-12.6,5.3l-0.1,0.1h-1.5v-0.2c0-20.7,1.5-40.2,4.1-54.8
					c2.6-14.8,6.2-22.9,10-22.9c3.8,0,7.4,8.1,10,22.9c2.6,14.7,4.1,34.2,4.1,54.8V160.7z M211.3,160.2h0.8
					c0-20.6-1.5-39.9-4.1-54.5c-2.6-14.3-6.1-22.5-9.6-22.5c-3.5,0-7,8.2-9.6,22.5c-2.6,14.6-4.1,34-4.1,54.5h0.8
					c3.1-3.4,7.8-5.4,12.8-5.4C203.5,154.9,208.1,156.8,211.3,160.2z"/>
			</g>
			<g>
				<path class="st2" d="M240,160.5H239c-2.9-3.3-7.6-5.4-12.7-5.4c-5.2,0-9.8,2.1-12.7,5.4h-1.2c0-42.8-6.3-77.5-13.9-77.5
					C221.3,83,240,117.7,240,160.5z"/>
				<path d="M240.3,160.7h-1.4l-0.1-0.1c-3-3.4-7.6-5.3-12.6-5.3c-5,0-9.5,1.9-12.6,5.3l-0.1,0.1H212v-0.2c0-20.7-1.4-40.1-4.1-54.8
					c-2.6-14.3-6.1-22.5-9.6-22.5v-0.5c23.1,0,41.9,34.9,41.9,77.7V160.7z M239.1,160.2h0.7c0-20.5-4.4-39.9-12.2-54.5
					C220.1,92,210.4,84,200.1,83.3c3.2,2,6.1,9.8,8.4,22.4c2.6,14.6,4.1,34,4.1,54.6h0.9c3.1-3.4,7.8-5.4,12.9-5.4
					C231.3,154.9,236,156.8,239.1,160.2z"/>
			</g>
			<g>
				<path class="st3" d="M267.9,160.5h-1.1c-2.9-3.3-7.6-5.4-12.7-5.4c-5.2,0-9.8,2.1-12.7,5.4H240c0-42.8-18.8-77.5-41.6-77.5
					C236.5,83,267.9,117.7,267.9,160.5z"/>
				<path d="M268.2,160.7h-1.4l-0.1-0.1c-3-3.4-7.6-5.3-12.6-5.3c-5,0-9.5,1.9-12.6,5.3l-0.1,0.1h-1.6v-0.2
					c0-20.6-4.3-40.1-12.2-54.7c-7.8-14.6-18.2-22.6-29.2-22.6v-0.5c9.3,0,18.4,2.1,27,6.1c8.3,3.9,15.8,9.5,22.2,16.7
					c6.4,7.1,11.5,15.5,15,24.7c3.7,9.6,5.5,19.8,5.5,30.3V160.7z M266.9,160.2h0.8c-0.1-40.4-28.1-73.6-63.6-76.8
					c20.4,5.2,36.1,37.6,36.2,76.8h0.9c3.1-3.4,7.8-5.4,12.9-5.4C259.1,154.9,263.8,156.8,266.9,160.2z"/>
			</g>
			<g>
				<path class="st2" d="M294.9,160.5h-0.2c-2.9-3.3-7.6-5.4-12.7-5.4c-5.2,0-9.8,2.1-12.7,5.4h-1.2c0-42.8-31.4-77.5-69.5-77.5
					C251.7,83,294.9,117.7,294.9,160.5z"/>
				<path d="M295.1,160.7h-0.6l-0.1-0.1c-3-3.4-7.6-5.3-12.6-5.3c-5,0-9.5,1.9-12.6,5.3l-0.1,0.1h-1.6v-0.2
					c0-42.6-31.1-77.3-69.3-77.3v-0.5c13.1,0,25.7,2.1,37.6,6.1c11.5,3.9,21.9,9.5,30.7,16.7c8.9,7.1,15.9,15.5,20.7,24.7
					c5,9.6,7.6,19.8,7.6,30.3V160.7z M268.2,160.2h0.9c3.1-3.4,7.8-5.4,12.8-5.4c5,0,9.6,1.9,12.8,5.3
					c-0.2-39.5-37.5-72.1-85.4-76.5c5.5,1,10.9,2.7,16.1,5.2c8.3,3.9,15.8,9.5,22.2,16.7c6.4,7.1,11.5,15.5,15,24.7
					C266.3,139.7,268.1,149.8,268.2,160.2z"/>
			</g>
		</g>
	</g>
	<g>
		<g id="XMLID_64_">
			<g>
				<path d="M241.6,181.6c7.5,0,14.1,6,14.8,13.5l10.9,120.2c0.7,7.4-4.9,13.5-12.4,13.5h-83.2c-7.5,0-14.1-6-14.8-13.5L146,195.1
					c-0.7-7.4,4.9-13.5,12.4-13.5H241.6z"/>
				<polygon class="st4" points="192.5,232.3 193.7,245.9 175.1,245.9 173.4,227.3 192.1,227.3 				"/>
				<path class="st5" d="M192.5,232.3l-0.5-5h-18.7l1.7,18.5h18.7L192.5,232.3z M249.9,187.5l11.9,131.2h-86.1l-11.9-131.2H175
					l0.3,3h65.1l-0.3-3H249.9z"/>
				<g>
					<path class="st2" d="M248.6,181.6c7.5,0,14.1,6,14.8,13.5l10.9,120.2c0.7,7.4-4.9,13.5-12.4,13.5h-83.2
						c-7.5,0-14.1-6-14.8-13.5L153,195.1c-0.7-7.4,4.9-13.5,12.4-13.5H248.6z"/>
					<path d="M261.9,329h-83.2c-7.6,0-14.4-6.1-15-13.7l-10.9-120.2c-0.3-3.7,0.8-7.2,3.3-9.8c2.4-2.5,5.7-3.9,9.3-3.9h83.2
						c7.6,0,14.4,6.1,15,13.7l10.9,120.2c0.3,3.7-0.8,7.2-3.3,9.8C268.9,327.6,265.6,329,261.9,329z M165.4,181.8
						c-3.5,0-6.7,1.3-9,3.8c-2.3,2.5-3.5,5.9-3.1,9.4l10.9,120.2c0.7,7.3,7.2,13.3,14.6,13.3h83.2c3.5,0,6.7-1.3,9-3.8
						c2.3-2.5,3.5-5.9,3.1-9.4l-10.9-120.2c-0.7-7.3-7.2-13.3-14.6-13.3H165.4z"/>
				</g>
				<g>
					<path class="st3" d="M249.9,187.5l11.9,131.2h-79.9c-3.4,0-6.4-2.7-6.7-6.1l-11.3-125H249.9z"/>
					<path d="M262,318.9h-80.2c-3.5,0-6.7-2.8-7-6.3l-11.4-125.3h86.5l0,0.2L262,318.9z M164.1,187.8l11.3,124.8
						c0.3,3.3,3.2,5.9,6.5,5.9h79.6l-11.9-130.7H164.1z"/>
				</g>
				<path class="st6" d="M205.2,178h3c-0.5,0.1-1,0.2-1.5,0.2C206.2,178.2,205.7,178.1,205.2,178z"/>
				<path d="M237.8,181.6c-1.7-2.2-4.2-3.6-6.8-3.6h-18.5c1.2-1.4,1.9-3.4,1.7-5.4c-0.4-4.4-4.3-7.9-8.7-7.9c-4.4,0-7.7,3.6-7.3,7.9
					c0.2,2.1,1.2,4,2.7,5.4h-18.5c-2.6,0-4.9,1.4-6.2,3.6c-1,1.6-1.5,3.6-1.3,5.8l0,0.1l0.3,3h65.1l-0.3-3l0-0.1
					C239.9,185.2,239,183.2,237.8,181.6z M205.9,169.3c1.8,0,3.5,1.5,3.6,3.3c0.1,1.5-0.8,2.8-2.2,3.2c-0.5,0.1-1.2,0.1-1.7,0l0,0
					c-1.5-0.4-2.6-1.7-2.7-3.2C202.7,170.8,204,169.3,205.9,169.3z"/>
				<path d="M181.9,319c3.9,0,6.7-3.6,6.3-8.1l90.4,0c0.4,4.5-2.4,8.1-6.3,8.1H181.9z"/>
			</g>
			<g>
				<g>
					<defs>
						<path id="SVGID_1_" d="M185.2,232L185.2,232c6.4,0,11.2-5.2,10.6-11.5v0c-0.6-6.4-6.3-11.5-12.7-11.5h0
							c-6.4,0-11.2,5.2-10.6,11.5v0C173.1,226.8,178.8,232,185.2,232z"/>
					</defs>
					<clipPath id="SVGID_00000107567232976221962590000010559757973903448720_">
						<use xlink:href="#SVGID_1_"  style="overflow:visible;"/>
					</clipPath>
					<path style="clip-path:url(#SVGID_00000107567232976221962590000010559757973903448720_);" d="M180.8,216.4
						c0,0-1.6,1.5,0.7,2.7L180.8,216.4z"/>
					<g style="clip-path:url(#SVGID_00000107567232976221962590000010559757973903448720_);">
						<g>
							<g>
								<path class="st2" d="M184.2,221.4c0,0-8.9-0.7-10.5,6.1c-1.6,6.8,3.6,13,3.6,13l2-1.4c0,0-2.8-8.3,0.1-10.8
									C185.8,229.1,187,221.5,184.2,221.4z"/>
								<path d="M177.2,240.8l-0.1-0.2c-0.1-0.1-5.2-6.3-3.7-13.2c1.6-6.9,10.5-6.3,10.8-6.3c0.6,0,1.1,0.4,1.4,0.9
									c0.6,1.1,0.3,2.9-0.7,4.3c-0.7,1-2.3,2.5-5.4,2.2c-2.6,2.4,0,10.4,0.1,10.5l0.1,0.2L177.2,240.8z M183.5,221.6
									c-2,0-8.4,0.4-9.6,6c-1.4,6,2.6,11.6,3.4,12.6l1.7-1.1c-0.4-1.2-2.6-8.5,0.2-10.9l0.1-0.1l0.1,0c2.9,0.3,4.4-1.1,5.1-2
									c1-1.4,1.1-3,0.7-3.8c-0.1-0.3-0.4-0.6-1-0.7l0,0C184.1,221.6,183.9,221.6,183.5,221.6z"/>
							</g>
							<path class="st8" d="M180.4,241.2c0,0,0.2-0.9-1.4-2l-1.6,1.1c0,0,0.2,1.9,1.9,2.3C180.8,243,181.4,242.1,180.4,241.2z"/>
						</g>
						<g>
							<g>
								<path class="st2" d="M184.3,221.4c0,0,8.8-0.7,11.6,6.1c2.8,6.8-1.3,13-1.3,13l-2.2-1.4c0,0,1.3-8.3-2-10.8
									C184.1,229.1,181.5,221.5,184.3,221.4z"/>
								<path d="M194.8,240.8l-2.6-1.6l0-0.1c0-0.1,1.2-8.1-1.9-10.5c-3.6,0.4-5.6-1.8-6.3-2.7c-1-1.4-1.4-3-0.9-3.9
									c0.2-0.4,0.6-0.7,1.2-0.7c0.3,0,9-0.6,11.9,6.3c2.8,6.9-1.3,13.1-1.3,13.2L194.8,240.8z M192.7,239l1.9,1.2
									c0.6-1.1,3.6-6.6,1.1-12.6c-2.7-6.6-11.3-6-11.4-6l0,0c-0.4,0-0.6,0.2-0.8,0.5c-0.4,0.8,0,2.2,0.9,3.5
									c0.7,0.9,2.5,2.9,5.9,2.5l0.1,0l0.1,0.1C193.7,230.5,192.9,237.8,192.7,239z"/>
							</g>
							<path class="st8" d="M191.7,241.2c0,0-0.4-0.9,1-2l1.8,1.1c0,0,0.1,1.9-1.5,2.3C191.7,243,190.9,242.1,191.7,241.2z"/>
						</g>
						<g>
							<path class="st2" d="M184.2,221.3c-8.7,0-9.4,2.8-8.2,15.8c6.7,3.7,13.1,3.8,19.2,0C194.1,224.1,193,221.3,184.2,221.3z"/>
							<path d="M185.9,240.2c-3.3,0-6.6-1-10-2.9l-0.1-0.1l0-0.1c-0.7-8.1-0.7-12,1.2-14.1c1.3-1.4,3.4-1.9,7.2-1.9
								c8.9,0,10.1,3,11.3,16l0,0.1l-0.1,0.1C192.4,239.2,189.2,240.2,185.9,240.2z M176.3,237c6.5,3.6,12.9,3.6,18.8,0
								c-1.2-12.7-2.2-15.4-10.8-15.4c-3.7,0-5.7,0.5-6.8,1.8C175.6,225.3,175.6,229.3,176.3,237z"/>
						</g>
						<g>
							<path class="st3" d="M186.2,221.4c-1.1,0.9-2.4,0.9-3.8,0l0.2-1.7h3.1L186.2,221.4z"/>
							<path d="M184.4,222.3c-0.7,0-1.4-0.3-2.2-0.8l-0.1-0.1l0.2-2h3.5l0.6,2l-0.1,0.1C185.7,222.1,185.1,222.3,184.4,222.3z
								 M182.6,221.3c1.2,0.8,2.3,0.8,3.3,0l-0.4-1.4h-2.7L182.6,221.3z"/>
						</g>
						<g>
							
								<ellipse transform="matrix(0.9723 -0.2339 0.2339 0.9723 -45.829 49.0644)" class="st3" cx="183.9" cy="217.7" rx="2.7" ry="3.4"/>
							<path d="M184.2,221.4c-1.6,0-3.1-1.6-3.3-3.6c-0.1-1.1,0.2-2.2,0.9-2.9c0.5-0.5,1.1-0.8,1.8-0.8c1.6,0,3.1,1.6,3.3,3.6v0
								c0.1,1.1-0.2,2.2-0.9,2.9C185.5,221.1,184.9,221.4,184.2,221.4z M183.6,214.6c-0.5,0-1,0.2-1.4,0.6c-0.6,0.6-0.8,1.5-0.7,2.5
								c0.2,1.8,1.4,3.2,2.8,3.2c0.5,0,1-0.2,1.4-0.6c0.6-0.6,0.8-1.5,0.7-2.5v0C186.2,216,185,214.6,183.6,214.6z"/>
						</g>
					</g>
					<path style="clip-path:url(#SVGID_00000107567232976221962590000010559757973903448720_);" d="M186.5,219.1c0,0,1.2,0.1,1-1.6
						c-0.2-1.7-0.7-2.7-1.6-3.1c0,0-0.8-2-2.9-1.7c-2.1,0.3-4.1,0.4-3.9,2.1c0.2,1.7,1.9,2.6,3.6,1.6c1.7-1,2.1-0.7,2.1-0.7
						S186.3,216.8,186.5,219.1z"/>
					<g style="clip-path:url(#SVGID_00000107567232976221962590000010559757973903448720_);">
						<path class="st3" d="M181.4,217.6c0,0.5,0.3,1-0.1,1c-0.4,0-0.8-0.4-0.9-1c0-0.5,0.3-1,0.7-1
							C181.3,216.7,181.4,217.1,181.4,217.6z"/>
						<path d="M181.3,218.8c-0.6,0-1-0.5-1.1-1.2c0-0.4,0.1-0.7,0.3-0.9c0.2-0.2,0.4-0.3,0.6-0.3c0.4,0,0.5,0.5,0.5,1.1l0,0
							c0,0.1,0,0.3,0.1,0.4c0.1,0.3,0.1,0.5,0,0.7C181.6,218.8,181.5,218.8,181.3,218.8z M181.1,216.9c-0.1,0-0.2,0.1-0.3,0.1
							c-0.1,0.1-0.2,0.4-0.2,0.6c0,0.4,0.3,0.8,0.6,0.8c0,0,0,0,0,0c0-0.1,0-0.2,0-0.3c0-0.1-0.1-0.3-0.1-0.4l0,0
							C181.2,217.4,181.1,217,181.1,216.9z"/>
					</g>
					<g style="clip-path:url(#SVGID_00000107567232976221962590000010559757973903448720_);">
						<path class="st3" d="M186.4,217.6c0,0.5-0.1,1,0.3,1c0.4,0,0.7-0.4,0.7-1c0-0.5-0.4-1-0.9-1
							C186.3,216.7,186.4,217.1,186.4,217.6z"/>
						<path d="M186.7,218.8c-0.2,0-0.3,0-0.4-0.1c-0.2-0.2-0.2-0.4-0.2-0.7c0-0.1,0-0.2,0-0.4l0,0c0-0.5-0.1-0.9,0.1-1.1
							c0.1-0.1,0.2-0.1,0.3-0.1c0.6,0,1,0.5,1.1,1.2c0,0.4-0.1,0.7-0.3,0.9C187.2,218.7,187,218.8,186.7,218.8z M186.7,218.4
							C186.7,218.4,186.7,218.4,186.7,218.4c0.2,0,0.3-0.1,0.3-0.1c0.1-0.1,0.2-0.4,0.2-0.6c0-0.4-0.3-0.7-0.6-0.8
							c0,0.1,0,0.4,0,0.7l0,0c0,0.2,0,0.3,0,0.4C186.6,218.2,186.6,218.3,186.7,218.4C186.7,218.4,186.7,218.4,186.7,218.4z"/>
					</g>
				</g>
				<g>
					<path class="st6" d="M185.2,232.4c-6.7,0-12.7-5.4-13.3-12.1c-0.6-6.7,4.4-12.1,11.1-12.1c6.7,0,12.7,5.4,13.3,12.1
						C197,226.9,192,232.4,185.2,232.4z M183.2,209.3c-6.1,0-10.6,4.9-10,10.9c0.5,6,5.9,10.9,12,10.9c6.1,0,10.6-4.9,10-10.9
						C194.6,214.2,189.2,209.3,183.2,209.3z"/>
				</g>
				<g>
					<path d="M245.6,239.1h-56.3c-0.8,0-1.4-0.6-1.5-1.4l0,0c-0.1-0.7,0.5-1.4,1.2-1.4h56.3c0.8,0,1.4,0.6,1.5,1.4l0,0
						C246.9,238.5,246.4,239.1,245.6,239.1z"/>
					<path d="M246.2,245.1h-56.3c-0.8,0-1.4-0.6-1.5-1.4l0,0c-0.1-0.7,0.5-1.4,1.2-1.4h56.3c0.8,0,1.4,0.6,1.5,1.4l0,0
						C247.5,244.5,246.9,245.1,246.2,245.1z"/>
					<path d="M246.7,251h-56.3c-0.8,0-1.4-0.6-1.5-1.4l0,0c-0.1-0.7,0.5-1.4,1.2-1.4h56.3c0.8,0,1.4,0.6,1.5,1.4l0,0
						C248,250.4,247.5,251,246.7,251z"/>
					<path d="M247.3,257h-56.3c-0.8,0-1.4-0.6-1.5-1.4l0,0c-0.1-0.7,0.5-1.4,1.2-1.4H247c0.8,0,1.4,0.6,1.5,1.4l0,0
						C248.6,256.4,248,257,247.3,257z"/>
					<path d="M247.8,262.9h-56.3c-0.8,0-1.4-0.6-1.5-1.4l0,0c-0.1-0.7,0.5-1.4,1.2-1.4h56.3c0.8,0,1.4,0.6,1.5,1.4l0,0
						C249.1,262.3,248.5,262.9,247.8,262.9z"/>
					<path d="M248.3,268.8H192c-0.8,0-1.4-0.6-1.5-1.4l0,0c-0.1-0.7,0.5-1.4,1.2-1.4h56.3c0.8,0,1.4,0.6,1.5,1.4l0,0
						C249.6,268.2,249.1,268.8,248.3,268.8z"/>
					<path d="M248.9,274.8h-56.3c-0.8,0-1.4-0.6-1.5-1.4l0,0c-0.1-0.7,0.5-1.4,1.2-1.4h56.3c0.8,0,1.4,0.6,1.5,1.4l0,0
						C250.2,274.2,249.6,274.8,248.9,274.8z"/>
					<path d="M249.4,280.7h-56.3c-0.8,0-1.4-0.6-1.5-1.4l0,0c-0.1-0.7,0.5-1.4,1.2-1.4h56.3c0.8,0,1.4,0.6,1.5,1.4l0,0
						C250.7,280.1,250.2,280.7,249.4,280.7z"/>
					<path d="M249.9,286.7h-56.3c-0.8,0-1.4-0.6-1.5-1.4l0,0c-0.1-0.7,0.5-1.4,1.2-1.4h56.3c0.8,0,1.4,0.6,1.5,1.4l0,0
						C251.3,286.1,250.7,286.7,249.9,286.7z"/>
					<path d="M250.5,292.6h-56.3c-0.8,0-1.4-0.6-1.5-1.4l0,0c-0.1-0.7,0.5-1.4,1.2-1.4h56.3c0.8,0,1.4,0.6,1.5,1.4l0,0
						C251.8,292,251.2,292.6,250.5,292.6z"/>
					<path d="M251,298.5h-56.3c-0.8,0-1.4-0.6-1.5-1.4l0,0c-0.1-0.7,0.5-1.4,1.2-1.4h56.3c0.8,0,1.4,0.6,1.5,1.4l0,0
						C252.3,297.9,251.8,298.5,251,298.5z"/>
				</g>
				<path d="M242.3,217.2h-37.8c-1.5,0-2.8-1.2-3-2.7l0,0c-0.1-1.5,1-2.7,2.5-2.7h37.8c1.5,0,2.8,1.2,3,2.7l0,0
					C244.9,216,243.8,217.2,242.3,217.2z"/>
				<path d="M244.3,223.8h-40.6c-0.8,0-1.4-0.6-1.5-1.4l0,0c-0.1-0.7,0.5-1.4,1.2-1.4H244c0.8,0,1.4,0.6,1.5,1.4h0
					C245.6,223.2,245,223.8,244.3,223.8z"/>
				<path d="M244.8,229.8h-40.6c-0.8,0-1.4-0.6-1.5-1.4v0c-0.1-0.7,0.5-1.4,1.2-1.4h40.6c0.8,0,1.4,0.6,1.5,1.4v0
					C246.1,229.2,245.5,229.8,244.8,229.8z"/>
				<g>
					<path d="M183.2,239.1h-0.9c-0.8,0-1.4-0.6-1.5-1.4l0,0c-0.1-0.7,0.5-1.4,1.2-1.4h0.9c0.8,0,1.4,0.6,1.5,1.4l0,0
						C184.5,238.5,183.9,239.1,183.2,239.1z"/>
					<path d="M184.3,251h-0.9c-0.8,0-1.4-0.6-1.5-1.4l0,0c-0.1-0.7,0.5-1.4,1.2-1.4h0.9c0.8,0,1.4,0.6,1.5,1.4l0,0
						C185.6,250.4,185,251,184.3,251z"/>
					<path d="M185.9,268.8H185c-0.8,0-1.4-0.6-1.5-1.4l0,0c-0.1-0.7,0.5-1.4,1.2-1.4h0.9c0.8,0,1.4,0.6,1.5,1.4l0,0
						C187.2,268.2,186.6,268.8,185.9,268.8z"/>
					<path d="M187,280.7h-0.9c-0.8,0-1.4-0.6-1.5-1.4l0,0c-0.1-0.7,0.5-1.4,1.2-1.4h0.9c0.8,0,1.4,0.6,1.5,1.4l0,0
						C188.3,280.1,187.7,280.7,187,280.7z"/>
					<path d="M187.5,286.7h-0.9c-0.8,0-1.4-0.6-1.5-1.4l0,0c-0.1-0.7,0.5-1.4,1.2-1.4h0.9c0.8,0,1.4,0.6,1.5,1.4l0,0
						C188.8,286.1,188.3,286.7,187.5,286.7z"/>
					<path d="M188.6,298.5h-0.9c-0.8,0-1.4-0.6-1.5-1.4l0,0c-0.1-0.7,0.5-1.4,1.2-1.4h0.9c0.8,0,1.4,0.6,1.5,1.4l0,0
						C189.9,297.9,189.3,298.5,188.6,298.5z"/>
				</g>
			</g>
		</g>
		<g>
			<path d="M177.9,196.6h1.6l0.6,6.9h-1.6L177.9,196.6z"/>
			<path d="M187.6,196.6l0.6,6.9h-1.3l-3.9-4.2l0.4,4.2h-1.6l-0.6-6.9h1.3l3.9,4.2l-0.4-4.2H187.6z"/>
			<path d="M190.6,203.4c-0.5-0.1-1-0.3-1.3-0.6l0.4-1.2c0.3,0.2,0.7,0.4,1.1,0.5c0.4,0.1,0.8,0.2,1.3,0.2c0.5,0,0.8-0.1,1-0.2
				c0.2-0.1,0.3-0.3,0.3-0.5c0-0.2-0.1-0.3-0.2-0.4c-0.1-0.1-0.3-0.2-0.5-0.3c-0.2-0.1-0.5-0.1-0.8-0.2c-0.5-0.1-1-0.3-1.3-0.4
				c-0.4-0.1-0.7-0.3-0.9-0.6c-0.3-0.3-0.4-0.6-0.5-1.1c0-0.4,0-0.8,0.2-1.1c0.2-0.3,0.5-0.6,0.9-0.8c0.4-0.2,1-0.3,1.6-0.3
				c0.4,0,0.9,0.1,1.3,0.2c0.4,0.1,0.8,0.3,1.2,0.5l-0.4,1.2c-0.7-0.4-1.3-0.5-2-0.5c-0.5,0-0.8,0.1-1,0.2c-0.2,0.1-0.3,0.3-0.3,0.6
				c0,0.2,0.2,0.4,0.4,0.5c0.3,0.1,0.7,0.2,1.2,0.3c0.5,0.1,1,0.3,1.3,0.4c0.4,0.1,0.7,0.3,0.9,0.6c0.3,0.3,0.4,0.6,0.5,1.1
				c0,0.4,0,0.8-0.2,1.1c-0.2,0.3-0.5,0.6-0.9,0.8c-0.4,0.2-1,0.3-1.6,0.3C191.6,203.6,191.1,203.6,190.6,203.4z"/>
			<path d="M197,202.8c-0.6-0.5-1-1.3-1-2.3l-0.4-3.9h1.6l0.3,3.8c0.1,1.2,0.7,1.9,1.7,1.9c0.5,0,0.9-0.2,1.1-0.5
				c0.2-0.3,0.3-0.8,0.3-1.4l-0.3-3.8h1.6l0.4,3.9c0.1,1-0.1,1.8-0.6,2.3c-0.5,0.5-1.3,0.8-2.3,0.8S197.6,203.4,197,202.8z"/>
			<path d="M208.6,203.5l-1.5-1.9H207h-1.4l0.2,1.9h-1.6l-0.6-6.9h3c0.6,0,1.2,0.1,1.6,0.3c0.5,0.2,0.9,0.5,1.1,0.9
				c0.3,0.4,0.4,0.8,0.5,1.3c0,0.5,0,1-0.3,1.3c-0.2,0.4-0.5,0.7-1,0.9l1.8,2.2H208.6z M207.7,198.2c-0.3-0.2-0.7-0.3-1.1-0.3h-1.3
				l0.2,2.4h1.3c0.5,0,0.8-0.1,1.1-0.3c0.2-0.2,0.3-0.5,0.3-0.9C208.1,198.7,208,198.4,207.7,198.2z"/>
			<path d="M215.9,202h-3.2l-0.5,1.5h-1.7l2.5-6.9h1.6l3.8,6.9h-1.7L215.9,202z M215.3,200.8l-1.3-2.7l-0.9,2.7H215.3z"/>
			<path d="M224.9,196.6l0.6,6.9h-1.3l-3.9-4.2l0.4,4.2h-1.6l-0.6-6.9h1.3l3.9,4.2l-0.4-4.2H224.9z"/>
			<path d="M228.6,203.2c-0.6-0.3-1.1-0.7-1.5-1.3c-0.4-0.5-0.6-1.2-0.7-1.8c-0.1-0.7,0-1.3,0.3-1.8c0.3-0.5,0.7-1,1.2-1.3
				c0.5-0.3,1.2-0.5,1.9-0.5c0.6,0,1.2,0.1,1.7,0.3c0.5,0.2,0.9,0.5,1.3,0.9l-1,1c-0.5-0.5-1.1-0.8-1.8-0.8c-0.4,0-0.8,0.1-1.1,0.3
				c-0.3,0.2-0.6,0.5-0.7,0.8c-0.2,0.3-0.2,0.7-0.2,1.1c0,0.4,0.2,0.8,0.4,1.1c0.2,0.3,0.5,0.6,0.9,0.8c0.4,0.2,0.8,0.3,1.2,0.3
				c0.7,0,1.3-0.3,1.7-0.8l1.1,1c-0.3,0.4-0.7,0.7-1.2,0.9c-0.5,0.2-1,0.3-1.6,0.3C229.8,203.6,229.2,203.5,228.6,203.2z"/>
			<path d="M239.8,202.2l0.1,1.3h-5.4l-0.6-6.9h5.3l0.1,1.3h-3.7l0.1,1.5h3.2l0.1,1.2h-3.2l0.1,1.6H239.8z"/>
		</g>
	</g>
	<g>
		<polygon class="st9" points="291.9,328 286.8,328 286.8,325.2 		"/>
		<g>
			<g>
				<path d="M246.2,248.9c13.5-5.8,27.1-8.7,40.6-8.7s27.1,2.9,40.6,8.7c0.5,39.9-8.7,70.4-40.6,79
					C254.9,319.4,245.7,288.8,246.2,248.9z"/>
				<path d="M286.8,328.2L286.8,328.2c-7.8-2.1-14.6-5.6-20-10.4c-5.2-4.6-9.4-10.4-12.6-17.5c-5.8-12.7-8.4-29.5-8.2-51.3l0-0.1
					l0.1-0.1c13.5-5.8,27.2-8.7,40.7-8.7c13.5,0,27.2,2.9,40.7,8.7l0.1,0.1l0,0.1c0.3,21.9-2.4,38.7-8.2,51.3
					c-3.2,7.1-7.5,12.9-12.6,17.5C301.4,322.6,294.7,326.1,286.8,328.2L286.8,328.2z M246.4,249.1c-0.5,46.1,12.3,71,40.4,78.6
					c28.1-7.6,40.9-32.6,40.4-78.6c-13.4-5.7-27-8.6-40.4-8.6C273.4,240.4,259.8,243.3,246.4,249.1z"/>
			</g>
			<g>
				<path class="st2" d="M252.1,270.1c0.6,5.9,1.5,11.5,2.8,16.7c1,4.1,2.2,7.9,3.8,11.5v0c2.8,6.7,6.5,12.5,11.3,17.3
					c2.8,2.8,6.1,5.3,9.7,7.3c2.2,1.3,4.6,2.4,7.2,3.3c1.6,0.6,3.3,1.1,5.1,1.6c0.7-0.2,1.4-0.4,2.1-0.6c8.8-2.7,15.8-7.2,21.3-13.2
					c11-12,15.8-29.9,16.9-51.4c0.2-4.4,0.3-9,0.3-13.8c-3.8-1.6-7.5-3-11.3-4.2c-2.3-0.7-4.6-1.3-6.9-1.9c-2.6-0.6-5.2-1.1-7.8-1.5
					c-3.9-0.6-7.8-1-11.7-1.1c-0.9,0-1.9,0-2.8,0c-4.8,0-9.6,0.4-14.5,1.1c-2.7,0.4-5.4,0.9-8.1,1.6c-3.1,0.7-6.1,1.6-9.2,2.6
					c-3,1-6,2.1-8.9,3.4C251.2,256.3,251.4,263.4,252.1,270.1z"/>
				<path d="M291.9,328.2L291.9,328.2c-1.8-0.5-3.5-1-5.2-1.6c-2.6-1-5-2.1-7.2-3.4c-3.6-2-6.9-4.5-9.7-7.4
					c-4.6-4.6-8.5-10.5-11.3-17.3l0,0c-1.5-3.5-2.7-7.4-3.7-11.5c-1.3-5.1-2.2-10.7-2.8-16.8c-0.6-6.4-0.9-13.6-0.8-21.3l0-0.1
					l0.1-0.1c3-1.3,6-2.4,8.9-3.4c3.1-1,6.1-1.9,9.2-2.6c2.7-0.6,5.4-1.2,8.1-1.6c4.8-0.7,9.7-1.1,14.5-1.1c0.9,0,1.9,0,2.9,0
					c3.9,0.1,7.9,0.5,11.8,1.1c2.6,0.4,5.2,0.9,7.8,1.5c2.3,0.5,4.6,1.2,6.9,1.9c3.8,1.2,7.6,2.6,11.3,4.2l0.1,0.1l0,0.1
					c0.1,4.8,0,9.4-0.3,13.8c-1.2,23.6-6.8,40.4-17,51.6c-5.6,6.2-12.8,10.6-21.4,13.3C293.4,327.7,292.7,328,291.9,328.2
					L291.9,328.2z M258.9,298.3c2.9,6.8,6.6,12.6,11.2,17.1c2.9,2.8,6.1,5.3,9.6,7.3c2.2,1.3,4.6,2.4,7.2,3.3c1.6,0.6,3.3,1.1,5,1.6
					c0.7-0.2,1.4-0.4,2.1-0.6c8.5-2.6,15.6-7.1,21.2-13.2c10.1-11.1,15.6-27.8,16.9-51.3c0.2-4.3,0.3-8.9,0.3-13.6
					c-3.7-1.6-7.4-3-11.1-4.1c-2.3-0.7-4.6-1.3-6.9-1.9c-2.6-0.6-5.2-1.1-7.8-1.5c-3.9-0.6-7.8-1-11.7-1.1c-1,0-1.9,0-2.8,0
					c-4.8,0-9.6,0.4-14.4,1.1c-2.7,0.4-5.4,0.9-8,1.6c-3,0.7-6.1,1.6-9.2,2.6c-2.9,1-5.9,2.1-8.8,3.3c-0.1,7.6,0.2,14.7,0.8,21.1
					c0.6,6,1.5,11.7,2.8,16.7C256.2,290.9,257.4,294.8,258.9,298.3L258.9,298.3z"/>
			</g>
			<g>
				<path class="st1" d="M261.6,266.7c0.3,6,0.9,11.7,2,16.9c0.8,3.7,1.8,7.3,3,10.5c1.7,4.4,3.9,8.4,6.6,11.8
					c1.5,1.8,3.1,3.5,4.9,5c1.4,1.2,2.9,2.2,4.6,3.2c1.7,1,3.6,1.9,5.6,2.7c0.5,0.2,1.1,0.4,1.6,0.6c0.7,0.2,1.4,0.4,2.1,0.6
					c1.6-0.5,3.2-1,4.7-1.6c0.4-0.2,0.8-0.3,1.2-0.5c19.2-8.7,24.9-30.8,24.6-58.9c-1.5-0.7-3.1-1.3-4.6-1.9
					c-0.3-0.1-0.6-0.2-0.9-0.3c-2-0.7-3.9-1.3-5.9-1.9c-0.6-0.2-1.1-0.3-1.7-0.4c-2-0.5-4.1-0.9-6.1-1.3c-1.8-0.3-3.6-0.5-5.4-0.7
					c-2-0.2-4-0.3-6-0.3c-0.1,0-0.3,0-0.4,0c-3.6,0-7.2,0.3-10.8,0.9c-2.3,0.4-4.7,0.9-7,1.5c-2.8,0.7-5.6,1.6-8.4,2.7
					c-1.3,0.5-2.6,1-3.9,1.6C261.4,260.3,261.4,263.5,261.6,266.7z"/>
				<path d="M291.9,318.2L291.9,318.2c-0.8-0.2-1.5-0.4-2.2-0.7c-0.6-0.2-1.1-0.4-1.6-0.6c-2-0.8-3.9-1.7-5.6-2.7
					c-1.6-0.9-3.2-2-4.6-3.2c-1.8-1.5-3.4-3.2-4.9-5c-2.7-3.3-4.9-7.3-6.6-11.8c-1.2-3.2-2.2-6.7-3-10.6c-1-5-1.7-10.7-2-16.9
					c-0.1-3.1-0.2-6.4-0.2-9.8l0-0.1l0.1-0.1c1.3-0.6,2.7-1.1,3.9-1.6c2.8-1.1,5.7-2,8.5-2.7c2.3-0.6,4.7-1.1,7-1.5
					c3.6-0.6,7.2-0.9,10.8-0.9c0.1,0,0.3,0,0.4,0c2,0,4,0.1,6,0.3c1.8,0.2,3.6,0.4,5.4,0.7c2,0.3,4.1,0.8,6.1,1.3
					c0.6,0.1,1.1,0.3,1.7,0.4c1.9,0.5,3.9,1.2,5.9,1.9c0.3,0.1,0.6,0.2,0.9,0.3c1.5,0.6,3.1,1.2,4.6,1.9l0.1,0.1l0,0.1
					c0.2,15.3-1.4,27.4-5,36.8c-4.1,10.8-10.5,18.1-19.8,22.3c-0.4,0.2-0.8,0.4-1.2,0.5C295.2,317.2,293.6,317.7,291.9,318.2
					L291.9,318.2z M261.6,257c0,3.4,0,6.6,0.2,9.6v0c0.3,6.2,0.9,11.9,2,16.9c0.8,3.8,1.8,7.3,3,10.5c1.7,4.5,3.9,8.4,6.6,11.7
					c1.5,1.8,3.1,3.5,4.8,4.9c1.4,1.2,2.9,2.2,4.5,3.2c1.7,1,3.6,1.9,5.6,2.7c0.5,0.2,1.1,0.4,1.6,0.6c0.7,0.2,1.4,0.4,2,0.6
					c1.6-0.4,3.1-1,4.6-1.6c0.4-0.2,0.8-0.3,1.2-0.5c17.1-7.7,24.8-26.3,24.5-58.6c-1.5-0.6-3-1.3-4.4-1.8c-0.3-0.1-0.6-0.2-0.9-0.3
					c-2-0.7-3.9-1.3-5.9-1.9c-0.6-0.2-1.1-0.3-1.7-0.4c-2-0.5-4-0.9-6.1-1.3c-1.8-0.3-3.6-0.5-5.4-0.7c-2-0.2-4-0.3-6-0.3
					c-0.1,0-0.3,0-0.4,0c-3.6,0-7.2,0.3-10.7,0.9c-2.3,0.4-4.7,0.9-7,1.5c-2.8,0.7-5.6,1.6-8.4,2.7C264.2,256,262.9,256.5,261.6,257
					z"/>
			</g>
		</g>
		<g>
			<polygon class="st2" points="272,279.2 286.9,279.2 286.9,264.6 296.9,264.6 296.9,279.2 311.8,279.2 311.8,288.9 296.9,288.9 
				296.9,303.6 286.9,303.6 286.9,288.9 272,288.9 			"/>
			<path d="M297.1,303.8h-10.4v-14.6h-14.9V279h14.9v-14.6h10.4V279h14.9v10.2h-14.9V303.8z M287.2,303.3h9.5v-14.6h14.9v-9.3h-14.9
				v-14.6h-9.5v14.6h-14.9v9.3h14.9V303.3z"/>
		</g>
		<g>
			<path class="st3" d="M258.7,298.4L258.7,298.4c2.8,6.7,6.5,12.5,11.3,17.3l3.2-9.7c-4.7-5.9-7.8-13.5-9.6-22.3L258.7,298.4z"/>
			<path class="st3" d="M279.6,323c2.2,1.3,4.6,2.4,7.2,3.3l3-9c-2.6-0.9-5-2-7.2-3.3L279.6,323z"/>
			<path class="st3" d="M294,327.3c8.8-2.7,15.8-7.2,21.3-13.2l16.9-51.4c0.2-4.4,0.3-9,0.3-13.8c-3.8-1.6-7.5-3-11.3-4.2l-3.4,10.3
				c1.5,0.6,3.1,1.2,4.6,1.9c0.3,28.1-5.4,50.3-24.6,58.9L294,327.3z"/>
			<path class="st3" d="M303.3,251.1c2.6,0.4,5.2,1,7.7,1.7l3.3-10c-2.6-0.6-5.2-1.1-7.8-1.5L303.3,251.1z"/>
			<path class="st3" d="M252.1,270.1c0.6,5.9,1.5,11.5,2.8,16.7l6.6-20.2c-0.1-3.2-0.2-6.4-0.2-9.8c1.3-0.6,2.6-1.1,3.9-1.6
				l4.1-12.4c-3.1,0.7-6.1,1.6-9.2,2.6L252.1,270.1z"/>
			<path class="st3" d="M273.7,252.5c5.9-1.6,11.8-2.4,17.7-2.4l3.3-9.9c-0.9,0-1.9,0-2.8,0c-4.8,0-9.6,0.4-14.5,1.1L273.7,252.5z"
				/>
		</g>
		<g>
			<path class="st3" d="M288.2,316.7c0.5,0.2,1.1,0.4,1.6,0.6c0.7,0.2,1.4,0.4,2.1,0.6c1.6-0.5,3.2-1,4.7-1.6l20.3-61.7
				c-2-0.7-3.9-1.3-5.9-1.9c-0.6-0.2-1.1-0.3-1.7-0.4L288.2,316.7z"/>
			<path class="st3" d="M266.5,294.1c1.7,4.4,3.9,8.4,6.6,11.8c1.5,1.8,3.1,3.5,4.9,5l19.9-60.4c-2-0.2-4-0.3-6-0.3
				c-0.1,0-0.3,0-0.4,0c-3.6,0-7.2,0.3-10.8,0.9L266.5,294.1z"/>
		</g>
	</g>
	<g>
		<g>
			<g>
				<g>
					<rect x="94.9" y="283.9" class="st1" width="63.3" height="7"/>
					<path d="M158,284.1v6.5H95.2v-6.5H158L158,284.1z M158.5,283.6H158H95.2h-0.5v0.5v6.5v0.5h0.5H158h0.5v-0.5v-6.5V283.6
						L158.5,283.6z"/>
				</g>
				<g>
					
						<rect x="127.7" y="283.7" transform="matrix(-1 -1.224647e-16 1.224647e-16 -1 260.3443 574.6958)" class="st3" width="5" height="7.3"/>
					<path d="M132.9,291.2h-5.5v-7.8h5.5V291.2z M127.9,290.8h4.6v-6.8h-4.6V290.8z"/>
				</g>
				<g>
					
						<rect x="110.7" y="283.7" transform="matrix(-1 -1.224647e-16 1.224647e-16 -1 225.216 574.6958)" class="st3" width="3.8" height="7.3"/>
					<path d="M114.7,291.2h-4.3v-7.8h4.3V291.2z M110.9,290.8h3.3v-6.8h-3.3V290.8z"/>
				</g>
				<g>
					
						<rect x="147" y="283.7" transform="matrix(-1 -1.224647e-16 1.224647e-16 -1 304.966 574.6958)" class="st2" width="11" height="7.3"/>
					<path d="M158.2,291.2h-11.5v-7.8h11.5V291.2z M147.2,290.8h10.6v-6.8h-10.6V290.8z"/>
				</g>
			</g>
			<g>
				<g>
					<rect x="98" y="291.1" class="st1" width="63.3" height="7"/>
					<path d="M161.1,291.3v6.5H98.3v-6.5H161.1L161.1,291.3z M161.6,290.8h-0.5H98.3h-0.5v0.5v6.5v0.5h0.5h62.8h0.5v-0.5v-6.5V290.8
						L161.6,290.8z"/>
				</g>
				<g>
					
						<rect x="130.8" y="290.9" transform="matrix(-1 -1.224647e-16 1.224647e-16 -1 266.5685 589.1094)" class="st3" width="5" height="7.3"/>
					<path d="M136,298.4h-5.5v-7.8h5.5V298.4z M131,298h4.6v-6.8H131V298z"/>
				</g>
				<g>
					
						<rect x="113.8" y="290.9" transform="matrix(-1 -1.224647e-16 1.224647e-16 -1 231.4402 589.1094)" class="st3" width="3.8" height="7.3"/>
					<path d="M117.9,298.4h-4.3v-7.8h4.3V298.4z M114.1,298h3.3v-6.8h-3.3V298z"/>
				</g>
				<g>
					
						<rect x="150.1" y="290.9" transform="matrix(-1 -1.224647e-16 1.224647e-16 -1 311.1902 589.1094)" class="st2" width="11" height="7.3"/>
					<path d="M161.3,298.4h-11.5v-7.8h11.5V298.4z M150.3,298h10.6v-6.8h-10.6V298z"/>
				</g>
			</g>
			<g>
				<g>
					<rect x="94.9" y="269.7" class="st1" width="63.3" height="7"/>
					<path d="M158,270v6.5H95.2V270H158L158,270z M158.5,269.5H158H95.2h-0.5v0.5v6.5v0.5h0.5H158h0.5v-0.5V270V269.5L158.5,269.5z"
						/>
				</g>
				<g>
					
						<rect x="127.7" y="269.6" transform="matrix(-1 -1.224647e-16 1.224647e-16 -1 260.3443 546.4594)" class="st3" width="5" height="7.3"/>
					<path d="M132.9,277.1h-5.5v-7.8h5.5V277.1z M127.9,276.6h4.6v-6.8h-4.6V276.6z"/>
				</g>
				<g>
					
						<rect x="110.7" y="269.6" transform="matrix(-1 -1.224647e-16 1.224647e-16 -1 225.216 546.4594)" class="st3" width="3.8" height="7.3"/>
					<path d="M114.7,277.1h-4.3v-7.8h4.3V277.1z M110.9,276.6h3.3v-6.8h-3.3V276.6z"/>
				</g>
				<g>
					
						<rect x="147" y="269.6" transform="matrix(-1 -1.224647e-16 1.224647e-16 -1 304.966 546.4594)" class="st2" width="11" height="7.3"/>
					<path d="M158.2,277.1h-11.5v-7.8h11.5V277.1z M147.2,276.6h10.6v-6.8h-10.6V276.6z"/>
				</g>
			</g>
			<g>
				<g>
					<rect x="98" y="276.9" class="st1" width="63.3" height="7"/>
					<path d="M161.1,277.2v6.5H98.3v-6.5H161.1L161.1,277.2z M161.6,276.7h-0.5H98.3h-0.5v0.5v6.5v0.5h0.5h62.8h0.5v-0.5v-6.5V276.7
						L161.6,276.7z"/>
				</g>
				<g>
					
						<rect x="130.8" y="276.8" transform="matrix(-1 -1.224647e-16 1.224647e-16 -1 266.5685 560.873)" class="st3" width="5" height="7.3"/>
					<path d="M136,284.3h-5.5v-7.8h5.5V284.3z M131,283.9h4.6V277H131V283.9z"/>
				</g>
				<g>
					
						<rect x="113.8" y="276.8" transform="matrix(-1 -1.224647e-16 1.224647e-16 -1 231.4402 560.873)" class="st3" width="3.8" height="7.3"/>
					<path d="M117.9,284.3h-4.3v-7.8h4.3V284.3z M114.1,283.9h3.3V277h-3.3V283.9z"/>
				</g>
				<g>
					
						<rect x="150.1" y="276.8" transform="matrix(-1 -1.224647e-16 1.224647e-16 -1 311.1902 560.873)" class="st2" width="11" height="7.3"/>
					<path d="M161.3,284.3h-11.5v-7.8h11.5V284.3z M150.3,283.9h10.6V277h-10.6V283.9z"/>
				</g>
			</g>
			<g>
				<g>
					<rect x="92.5" y="298.5" class="st1" width="63.3" height="7"/>
					<path d="M155.6,298.7v6.5H92.8v-6.5H155.6L155.6,298.7z M156.1,298.3h-0.5H92.8h-0.5v0.5v6.5v0.5h0.5h62.8h0.5v-0.5v-6.5V298.3
						L156.1,298.3z"/>
				</g>
				<g>
					
						<rect x="125.3" y="298.3" transform="matrix(-1 -1.224647e-16 1.224647e-16 -1 255.5446 603.9733)" class="st3" width="5" height="7.3"/>
					<path d="M130.5,305.9H125v-7.8h5.5V305.9z M125.5,305.4h4.6v-6.8h-4.6V305.4z"/>
				</g>
				<g>
					
						<rect x="108.3" y="298.3" transform="matrix(-1 -1.224647e-16 1.224647e-16 -1 220.4163 603.9733)" class="st3" width="3.8" height="7.3"/>
					<path d="M112.3,305.9h-4.3v-7.8h4.3V305.9z M108.5,305.4h3.3v-6.8h-3.3V305.4z"/>
				</g>
				<g>
					
						<rect x="144.6" y="298.3" transform="matrix(-1 -1.224647e-16 1.224647e-16 -1 300.1663 603.9733)" class="st2" width="11" height="7.3"/>
					<path d="M155.8,305.9h-11.5v-7.8h11.5V305.9z M144.8,305.4h10.6v-6.8h-10.6V305.4z"/>
				</g>
			</g>
			<g>
				<g>
					<rect x="90.4" y="313.1" class="st1" width="63.3" height="7"/>
					<path d="M153.4,313.3v6.5H90.6v-6.5H153.4L153.4,313.3z M153.9,312.8h-0.5H90.6h-0.5v0.5v6.5v0.5h0.5h62.8h0.5v-0.5v-6.5V312.8
						L153.9,312.8z"/>
				</g>
				<g>
					
						<rect x="123.1" y="312.9" transform="matrix(-1 -1.224647e-16 1.224647e-16 -1 251.2052 633.1412)" class="st3" width="5" height="7.3"/>
					<path d="M128.4,320.4h-5.5v-7.8h5.5V320.4z M123.3,320h4.6v-6.8h-4.6V320z"/>
				</g>
				<g>
					
						<rect x="106.1" y="312.9" transform="matrix(-1 -1.224647e-16 1.224647e-16 -1 216.0768 633.1412)" class="st3" width="3.8" height="7.3"/>
					<path d="M110.2,320.4h-4.3v-7.8h4.3V320.4z M106.4,320h3.3v-6.8h-3.3V320z"/>
				</g>
				<g>
					
						<rect x="142.4" y="312.9" transform="matrix(-1 -1.224647e-16 1.224647e-16 -1 295.8269 633.1412)" class="st2" width="11" height="7.3"/>
					<path d="M153.7,320.4h-11.5v-7.8h11.5V320.4z M142.6,320h10.6v-6.8h-10.6V320z"/>
				</g>
			</g>
			<g>
				<g>
					<rect x="92.5" y="320" class="st1" width="63.3" height="7"/>
					<path d="M155.6,320.2v6.5H92.8v-6.5H155.6L155.6,320.2z M156.1,319.8h-0.5H92.8h-0.5v0.5v6.5v0.5h0.5h62.8h0.5v-0.5v-6.5V319.8
						L156.1,319.8z"/>
				</g>
				<g>
					
						<rect x="125.3" y="319.8" transform="matrix(-1 -1.224647e-16 1.224647e-16 -1 255.5446 646.9633)" class="st3" width="5" height="7.3"/>
					<path d="M130.5,327.4H125v-7.8h5.5V327.4z M125.5,326.9h4.6v-6.8h-4.6V326.9z"/>
				</g>
				<g>
					
						<rect x="108.3" y="319.8" transform="matrix(-1 -1.224647e-16 1.224647e-16 -1 220.4163 646.9633)" class="st3" width="3.8" height="7.3"/>
					<path d="M112.3,327.4h-4.3v-7.8h4.3V327.4z M108.5,326.9h3.3v-6.8h-3.3V326.9z"/>
				</g>
				<g>
					
						<rect x="144.6" y="319.8" transform="matrix(-1 -1.224647e-16 1.224647e-16 -1 300.1663 646.9633)" class="st2" width="11" height="7.3"/>
					<path d="M155.8,327.4h-11.5v-7.8h11.5V327.4z M144.8,326.9h10.6v-6.8h-10.6V326.9z"/>
				</g>
			</g>
			<g>
				<g>
					<rect x="98" y="305.8" class="st1" width="63.3" height="7"/>
					<path d="M161.1,306v6.5H98.3V306H161.1L161.1,306z M161.6,305.6h-0.5H98.3h-0.5v0.5v6.5v0.5h0.5h62.8h0.5v-0.5V306V305.6
						L161.6,305.6z"/>
				</g>
				<g>
					
						<rect x="130.8" y="305.6" transform="matrix(-1 -1.224647e-16 1.224647e-16 -1 266.5685 618.5571)" class="st3" width="5" height="7.3"/>
					<path d="M136,313.2h-5.5v-7.8h5.5V313.2z M131,312.7h4.6v-6.8H131V312.7z"/>
				</g>
				<g>
					
						<rect x="113.8" y="305.6" transform="matrix(-1 -1.224647e-16 1.224647e-16 -1 231.4402 618.5571)" class="st3" width="3.8" height="7.3"/>
					<path d="M117.9,313.2h-4.3v-7.8h4.3V313.2z M114.1,312.7h3.3v-6.8h-3.3V312.7z"/>
				</g>
				<g>
					
						<rect x="150.1" y="305.6" transform="matrix(-1 -1.224647e-16 1.224647e-16 -1 311.1902 618.5571)" class="st2" width="11" height="7.3"/>
					<path d="M161.3,313.2h-11.5v-7.8h11.5V313.2z M150.3,312.7h10.6v-6.8h-10.6V312.7z"/>
				</g>
			</g>
			<g>
				<ellipse transform="matrix(0.6103 -0.7922 0.7922 0.6103 -174.8177 242.0671)" cx="158.6" cy="298.7" rx="27.6" ry="30.7"/>
				<g>
					
						<ellipse transform="matrix(0.6103 -0.7922 0.7922 0.6103 -172.6692 246.4344)" class="st2" cx="164.1" cy="298.7" rx="27.6" ry="30.7"/>
					<path d="M167.2,327.7c-16.3,0-31-13-32.7-29c-0.8-7.8,1.5-15.1,6.6-20.6c5-5.5,12.1-8.5,20-8.5c0,0,0,0,0,0
						c16.3,0,31,13,32.7,29c0.8,7.8-1.5,15.1-6.6,20.6C182.2,324.7,175.1,327.7,167.2,327.7C167.2,327.7,167.2,327.7,167.2,327.7z
						 M161.1,270.2C161.1,270.2,161.1,270.2,161.1,270.2c-7.8,0-14.8,3-19.7,8.3c-5,5.4-7.3,12.6-6.5,20.2
						c1.7,15.8,16.1,28.6,32.2,28.6c0,0,0,0,0,0c7.8,0,14.8-3,19.7-8.3c5-5.4,7.3-12.6,6.5-20.2l0,0
						C191.7,283,177.2,270.2,161.1,270.2z"/>
				</g>
				<path d="M186.3,313.1c-0.3,0.6-0.7,1.1-1.1,1.6c-0.8,1.1-1.7,2.1-2.7,3c-0.5,0.4-0.9,0.8-1.4,1.2c-1,0.7-2,1.4-3.2,2
					c-0.5,0.3-1,0.5-1.6,0.7c-2.2,0.9-4.6,1.5-7.1,1.8c-0.7,0.1-1.3,0.1-2,0.1c-0.1,0-0.2,0-0.3,0c-14,0-26.5-11.1-27.9-24.8
					c-0.1-1.1-0.2-2.3-0.1-3.4c0.1-3.4,1-6.6,2.4-9.5c0.3-0.6,0.6-1.1,1-1.7c1.3-2,2.9-3.8,4.7-5.3c0.4-0.4,0.9-0.7,1.4-1
					c1-0.7,2.1-1.3,3.3-1.8c0.6-0.3,1.2-0.5,1.8-0.7c1.3-0.5,2.6-0.8,4-1.1c0.7-0.1,1.4-0.2,2.1-0.3c0.7-0.1,1.5-0.1,2.2-0.1
					c14,0,26.5,11.1,27.9,24.8c0.1,0.6,0.1,1.2,0.1,1.8C189.7,305.2,188.5,309.5,186.3,313.1z"/>
				<g>
					<path class="st1" d="M166.8,322.2c-14.1,0-26.7-11.2-28.1-25c-0.1-0.6-0.1-1.2-0.1-1.9c0.1-3.4,0.9-6.6,2.4-9.6
						c0.3-0.6,0.6-1.1,1-1.7c1.3-2,2.9-3.8,4.8-5.3c0.4-0.4,0.9-0.7,1.4-1c1-0.7,2.2-1.3,3.3-1.9c0.6-0.3,1.1-0.5,1.8-0.7
						c1.3-0.5,2.7-0.8,4.1-1.1c0.7-0.1,1.4-0.2,2.1-0.3c0.7-0.1,1.5-0.1,2.2-0.1c14.1,0,26.7,11.2,28.2,25c0.1,0.6,0.1,1.3,0.1,1.9
						c-0.1,4-1.3,7.8-3.3,11.1c-0.4,0.6-0.7,1.1-1.1,1.7c-0.8,1.1-1.7,2.1-2.7,3c-0.5,0.4-1,0.8-1.5,1.2c-1,0.8-2.1,1.4-3.2,2
						c-0.6,0.3-1.1,0.5-1.6,0.8c-2.3,1-4.7,1.6-7.2,1.8c-0.7,0.1-1.4,0.1-2.1,0.1C167,322.2,166.9,322.2,166.8,322.2L166.8,322.2z"
						/>
					<path d="M161.5,274c14,0,26.5,11.1,27.9,24.8c0.1,0.6,0.1,1.2,0.1,1.8c-0.1,4.1-1.3,7.8-3.3,11c-0.3,0.6-0.7,1.1-1.1,1.6
						c-0.8,1.1-1.7,2.1-2.7,3c-0.5,0.4-0.9,0.8-1.4,1.2c-1,0.7-2,1.4-3.2,2c-0.5,0.3-1,0.5-1.6,0.7c-2.2,0.9-4.6,1.5-7.1,1.8
						c-0.7,0.1-1.3,0.1-2,0.1c-0.1,0-0.2,0-0.3,0c0,0,0,0,0,0c-14,0-26.5-11.1-27.9-24.8c-0.1-0.6-0.1-1.2-0.1-1.8
						c0.1-3.4,1-6.6,2.4-9.5c0.3-0.6,0.6-1.1,1-1.7c1.3-2,2.9-3.8,4.7-5.3c0.4-0.4,0.9-0.7,1.4-1c1-0.7,2.1-1.3,3.3-1.8
						c0.6-0.3,1.2-0.5,1.8-0.7c1.3-0.5,2.6-0.8,4-1.1c0.7-0.1,1.4-0.2,2.1-0.3C160,274,160.8,274,161.5,274
						C161.5,274,161.5,274,161.5,274L161.5,274z M161.5,273.5v0.5V273.5L161.5,273.5c-0.8,0-1.5,0-2.3,0.1c-0.7,0.1-1.4,0.1-2.1,0.3
						c-1.4,0.2-2.8,0.6-4.1,1.1c-0.6,0.2-1.2,0.5-1.8,0.7c-1.1,0.5-2.3,1.2-3.3,1.9c-0.5,0.3-1,0.7-1.4,1.1
						c-1.9,1.5-3.5,3.3-4.8,5.4c-0.4,0.6-0.7,1.1-1,1.7c-1.5,3-2.4,6.2-2.5,9.6l0,0l0,0c0,0.6,0.1,1.3,0.1,1.9
						c0.7,6.7,4.1,13,9.4,17.8c5.4,4.8,12.1,7.4,19,7.4c0.1,0,0.2,0,0.4,0c0.7,0,1.4,0,2.1-0.1c2.5-0.2,5-0.8,7.3-1.8
						c0.5-0.2,1.1-0.5,1.6-0.8c1.1-0.6,2.2-1.3,3.2-2c0.5-0.4,1-0.8,1.5-1.2c1-0.9,2-1.9,2.8-3c0.4-0.5,0.8-1.1,1.2-1.7
						c2.1-3.3,3.2-7.2,3.4-11.2l0,0l0,0c0-0.6-0.1-1.2-0.1-1.9c-0.7-6.7-4.1-13-9.4-17.8C175.1,276.1,168.4,273.5,161.5,273.5
						L161.5,273.5z"/>
				</g>
				<path d="M172.3,306.1c-0.4-5-3.6-7.1-6.9-8.4l-1.1-12.7c2.3,0.5,3.5,2,3.6,2.1l1.9-1.2c-0.1-0.1-2-2.7-5.7-3.2l-0.4-4.3
					l-2.4-0.1l0.4,4.3c-1.6,0.3-3,1.2-3.9,2.6c-0.9,1.5-1.3,3.5-1.2,5.7c0.3,4,2.5,6.8,6.4,8.3l1.1,12.6c-2.6-0.7-4.3-3.4-4.3-3.5
					l-2,1.1c0.1,0.2,2.6,4,6.5,4.8l0.4,4.3l2.4,0.1l-0.4-4.3c1.8-0.2,3.2-1,4.1-2.3C172,310.6,172.5,308.6,172.3,306.1z
					 M159.1,291.1c-0.1-1.7,0.2-3.3,0.9-4.4c0.5-0.8,1.2-1.3,2-1.6l1,11.7C160.5,295.6,159.3,293.7,159.1,291.1z M168.9,310.6
					c-0.6,0.8-1.3,1.2-2.3,1.4l-1-11.8c2.9,1.3,4,2.9,4.3,5.8C170,308,169.7,309.6,168.9,310.6z"/>
				<g>
					<g>
						<g>
							<polygon class="st2" points="167.1,317.4 164.7,317.3 161.4,277 163.8,277.1 							"/>
							<path d="M167.4,317.6l-2.9-0.1l-3.4-40.7l2.9,0.1L167.4,317.6z M165,317.1l1.9,0l-3.3-39.8l-1.9,0L165,317.1z"/>
						</g>
					</g>
					<g>
						<g>
							<path class="st2" d="M165.8,313.1c-0.1,0-0.1,0-0.2,0c-4.7-0.1-7.6-4.7-7.7-4.9l2-1.1c0,0,2.3,3.6,5.5,3.6
								c1.6,0,2.8-0.5,3.5-1.5c0.8-1.1,1.1-2.6,1-4.6c-0.3-3.3-1.8-5-6-6.4c-4.4-1.5-6.9-4.4-7.2-8.6c-0.2-2.2,0.2-4.2,1.2-5.7
								c1.1-1.8,2.9-2.7,5.1-2.7c4.4,0.1,6.8,3.2,6.9,3.3l-1.9,1.2c-0.1-0.1-1.7-2.2-4.8-2.2c-1.4,0-2.4,0.5-3.2,1.7
								c-0.7,1.1-1,2.7-0.9,4.4c0.3,3.2,2,5.2,5.4,6.4c3.6,1.2,7.3,3.2,7.8,8.7c0.2,2.4-0.3,4.5-1.4,6
								C169.8,312.3,168,313.1,165.8,313.1z"/>
							<path d="M165.8,313.4L165.8,313.4c-0.1,0-0.1,0-0.2,0c-4.8-0.1-7.8-4.8-7.9-5l-0.1-0.2l2.4-1.3l0.1,0.2c0,0,2.3,3.5,5.3,3.5
								c1.5,0,2.6-0.4,3.3-1.4c0.8-1,1.1-2.5,0.9-4.4c-0.3-3.2-1.8-4.9-5.8-6.2c-4.5-1.5-7-4.5-7.4-8.8c-0.2-2.2,0.2-4.3,1.2-5.8
								c1.2-1.9,3-2.8,5.3-2.8c4.6,0.1,7,3.3,7.1,3.4l0.1,0.2l-2.3,1.5l-0.1-0.2c-0.1-0.1-1.6-2.1-4.6-2.1c-1.3,0-2.3,0.5-3,1.6
								c-0.7,1.1-1,2.6-0.8,4.3c0.3,3.1,1.9,5.1,5.3,6.2c3.7,1.2,7.5,3.3,7.9,8.9c0.2,2.5-0.3,4.6-1.4,6.2
								C169.9,312.5,168.1,313.4,165.8,313.4z M158.2,308.3c0.6,0.9,3.4,4.5,7.4,4.6c0.1,0,0.1,0,0.2,0c2.1,0,3.8-0.8,5-2.3
								c1.1-1.4,1.5-3.5,1.3-5.8c-0.4-5.3-4.1-7.3-7.6-8.5c-3.5-1.2-5.3-3.3-5.6-6.6c-0.1-1.7,0.2-3.4,0.9-4.5
								c0.8-1.2,1.9-1.9,3.4-1.8c2.7,0.1,4.3,1.6,4.8,2.1l1.5-1c-0.6-0.7-2.8-3-6.5-3.1c-2.1,0-3.8,0.9-4.9,2.6
								c-0.9,1.5-1.3,3.4-1.1,5.6c0.3,4.1,2.7,7,7.1,8.4c4.2,1.4,5.8,3.2,6.1,6.6c0.2,2-0.2,3.6-1,4.7c-0.8,1.1-2.1,1.7-3.7,1.6
								c-2.9-0.1-5.1-2.8-5.6-3.6L158.2,308.3z"/>
						</g>
					</g>
				</g>
				<g>
					<defs>
						
							<ellipse id="SVGID_00000147204738587104363870000012114911392513894843_" transform="matrix(0.6103 -0.7922 0.7922 0.6103 -172.6692 246.4344)" cx="164.1" cy="298.7" rx="27.6" ry="30.7"/>
					</defs>
					<clipPath id="SVGID_00000128446188717233522700000004562157820530754218_">
						<use xlink:href="#SVGID_00000147204738587104363870000012114911392513894843_"  style="overflow:visible;"/>
					</clipPath>
					<g style="clip-path:url(#SVGID_00000128446188717233522700000004562157820530754218_);">
						<path class="st11" d="M146.8,279c-1.9,1.5-3.4,3.3-4.7,5.3c-0.3,0.5-0.7,1.1-1,1.7l-8.9-12.8l7.4-4.4L146.8,279z"/>
						<path class="st11" d="M184.6,333.6l-7.4,4.4l-10.1-14.6c0.7,0,1.4,0,2-0.1c2.5-0.2,4.9-0.8,7.1-1.8L184.6,333.6z"/>
						<path class="st3" d="M177.8,320.8c-2.6,1.4-5.5,2.2-8.7,2.5l-27-39.1c1.6-2.5,3.6-4.6,6.1-6.3L177.8,320.8z"/>
						<path class="st11" d="M157.2,274.3c-1.4,0.2-2.7,0.6-4,1.1c-0.6,0.2-1.2,0.5-1.8,0.7l-6.7-9.7l5-3L157.2,274.3z"/>
						<path class="st11" d="M194.6,328.4l-5,3l-8.6-12.5c0.5-0.4,1-0.8,1.4-1.2c1-0.9,1.9-1.9,2.7-3L194.6,328.4z"/>
						<path class="st3" d="M186.3,313.1c-1.1,1.7-2.4,3.2-3.8,4.6l-29.2-42.3c1.9-0.7,3.9-1.1,6.1-1.3L186.3,313.1z"/>
					</g>
				</g>
			</g>
		</g>
	</g>
</g>
</svg>
