<?xml version="1.0" encoding="utf-8"?>
<!-- Generator: Adobe Illustrator 27.3.1, SVG Export Plug-In . SVG Version: 6.00 Build 0)  -->
<svg version="1.1" id="Layer_1" xmlns="http://www.w3.org/2000/svg" xmlns:xlink="http://www.w3.org/1999/xlink" x="0px" y="0px"
	 viewBox="0 0 422.9 402.3" style="enable-background:new 0 0 422.9 402.3;" xml:space="preserve">
<style type="text/css">
	.st0{fill:#BACBC2;}
	.st1{clip-path:url(#SVGID_00000150094375155399900650000004998410206581704381_);}
	.st2{fill:#F59C97;}
	.st3{fill:#F38D8B;}
	.st4{fill:#121112;}
	.st5{fill:#282626;}
	.st6{fill:#4C3749;}
	.st7{fill:#F1F1F2;}
	.st8{fill:#E6E7E8;}
	.st9{fill:#231F20;}
	.st10{fill:#DDDDDC;}
	.st11{fill:#EE7475;}
	.st12{fill:#FFFFFF;}
	.st13{fill:#F2B2BC;}
	.st14{fill:#ECA8B5;}
	.st15{fill:#F8C0C7;}
	.st16{clip-path:url(#SVGID_00000150094375155399900650000004998410206581704381_);fill:#231F20;}
	.st17{fill:#EF8EA2;}
	.st18{fill:#E74054;}
	.st19{fill:#EF4D5B;}
	.st20{fill:#F8B7B5;}
	.st21{fill:#D1394F;}
	.st22{fill:#F6A7B2;}
	.st23{fill:#404041;}
	.st24{fill:#D0D2D3;}
	.st25{fill:#E94C5A;}
	.st26{fill:#EF6A6C;}
	.st27{fill:#EF6A6D;}
	.st28{fill:#F3807D;}
	.st29{clip-path:url(#SVGID_00000166639170777731878720000007087337951484981939_);}
	.st30{fill:#808184;}
	.st31{clip-path:url(#SVGID_00000150094375155399900650000004998410206581704381_);fill:#FFFFFF;}
</style>
<g>
	<g>
		<circle class="st0" cx="211.5" cy="201.2" r="181.1"/>
	</g>
</g>
<g>
	<defs>
		<rect id="SVGID_1_" x="84.7" y="74.4" width="253.6" height="253.6"/>
	</defs>
	<clipPath id="SVGID_00000183217194280065282140000008830940430699332768_">
		<use xlink:href="#SVGID_1_"  style="overflow:visible;"/>
	</clipPath>
	<g style="clip-path:url(#SVGID_00000183217194280065282140000008830940430699332768_);">
		<g>
			<path class="st2" d="M190,258.1l2.4,6c0,0,1.8,3.2,3.1,4.5l11.9,11.5c0,0,2.2,1.8,3.8,1.8l0,0c0,0,0,0,0,0l0,0
				c0.3,0,0.5-0.1,0.8-0.2c0.5-0.2,0.9-0.5,1.4-0.6c0.4-0.1,0.8-0.2,1.2-0.2c0,0,0.3,0,0.7-0.1c0,0,1.2,0,3.4-0.6l0.2,0
				c0.8-0.2,2.6-0.4,2.9,0.6c0.1,0.4-0.1,0.7-0.4,0.9c-0.3,0.2-0.6,0.3-1,0.4c-0.7,0.2-1.4,0.3-2.1,0.5c-0.2,0.1-0.5,0.1-0.7,0.3
				c-0.2,0.2-0.3,0.5-0.1,0.7c0.1,0.1,0.2,0.1,0.2,0.2c1,0.5,2,1,3.1,1.4c0.2,0.1,0.4,0.2,0.6,0.3c0.7,0.3,1.5,0.6,2.2,1
				c0.8,0.4,1.6,0.8,2.3,1.3c0.3,0.2,0.5,0.4,0.6,0.7c0,0.5-0.4,0.9-0.9,0.8c-0.9-0.3-1.7-0.8-2.6-1.1c-0.4-0.2-0.8-0.3-1.1-0.5
				c-0.5-0.2-1-0.4-1.5-0.6c-0.1,0-0.3-0.1-0.4,0c-0.1,0-0.2,0.1-0.3,0.2c-0.1,0.5,0.4,0.6,0.4,0.6c1.7,0.7,4.1,2.2,4.8,2.6
				c0.5,0.3,1.1,0.7,1.3,1.3c0.1,0.2,0.1,0.6-0.1,0.8c-0.4,0.5-1.1,0.2-1.1,0.2c-0.2,0-0.4-0.2-0.6-0.3c-0.2-0.1-0.4-0.3-0.6-0.4
				c-1.4-0.9-2.8-1.7-4.3-2.4c0,0,0,0,0,0c-0.1,0-0.1,0-0.2-0.1c-0.2,0-0.6,0-0.6,0.2c0,0.1,0.2,0.2,0.2,0.3
				c0.1,0.1,0.3,0.2,0.4,0.4c0.3,0.2,0.5,0.4,0.8,0.6c0.7,0.5,1.4,1,2,1.6c0.4,0.4,0.9,0.8,1.2,1.2c0.2,0.2,0.3,0.5,0.3,0.8
				c0,0.3-0.2,0.4-0.3,0.6c-0.6,0.4-1.6-0.7-1.6-0.7c-0.3-0.4-0.7-0.7-1.1-1c-0.4-0.4-0.9-0.7-1.4-1c-0.2-0.2-0.5-0.3-0.7-0.5
				c-0.1-0.1-0.2-0.2-0.4-0.2c-0.2-0.1-0.4-0.3-0.6-0.4c-0.4-0.2-0.3,0.4-0.2,0.6c0.8,1,1.7,2,2.7,2.9c0.3,0.3,0.7,0.7,0.6,1.1
				c-0.1,0.4-0.6,0.6-1,0.5c-0.4-0.1-0.7-0.4-1-0.7c-1.4-1.4-2.8-2.9-4.6-3.8c-3.5-0.9-5.7-4.7-5.7-4.7c-0.3-0.5-0.4-1-0.8-1.4
				c-0.5-0.5-1.1-0.8-1.7-1.2c-0.6-0.4-1.2-0.8-1.7-1.2l-9.9-6.7l-2.7-2c-3-2.3-5.2-5.9-5.2-5.9l-3.4-7.7
				C186.3,259.7,188.7,258.7,190,258.1z"/>
			<path class="st3" d="M217.7,282.5c-0.1,0.1-0.3,0.2-0.3,0.4c0,0.2,0,0.4,0.1,0.5c0.1,0.1,0.1,0.1,0.2,0.1c0.1,0,0.2,0.1,0.2,0.1
				c0,0,0,0,0,0c0,0,0,0.1,0,0.1c0,0-0.1,0-0.1,0c-0.2,0-0.4-0.1-0.6-0.2c-0.5-0.2-0.9-0.4-1.4-0.5c-0.1,0-0.2-0.1-0.2-0.1
				c-0.1-0.1-0.2-0.1-0.2-0.2c0-0.1,0-0.2,0.1-0.2c0.1-0.1,0.2-0.1,0.2-0.1c0.3-0.1,0.6-0.2,0.8-0.2c0.4-0.1,0.8-0.1,1.3-0.1
				c0.1,0,0.2,0,0.3,0c0.1,0,0.1,0,0.2,0c0,0,0,0,0,0c0,0,0,0,0,0.1c-0.1,0.1-0.2,0-0.4,0.1C217.9,282.4,217.8,282.5,217.7,282.5z"
				/>
			<path class="st3" d="M190,258.1l0.5,1.2c-1.5,0.7-3.7,1.7-5.4,2l2.1,5.7c0,0,2.5,4.4,4.5,5.9l16,11.4c0,0,0.8,0.8,1,1.6
				c0,0,1.5,2.9,3.5,3.9c0,0,1.6,0.9,2.1,0.9c0,0,1.1,0.4,1.6,1.1l3.1,2.9c0,0,0.7,0.8,1.3,1.1c-0.2,0.1-0.5,0.2-0.7,0.1
				c-0.4-0.1-0.7-0.4-1-0.7c-1.4-1.4-2.8-2.9-4.6-3.8c-3.5-0.9-5.7-4.7-5.7-4.7c-0.3-0.5-0.4-1-0.8-1.4c-0.5-0.5-1.1-0.8-1.7-1.2
				c-0.6-0.4-1.2-0.8-1.7-1.2l-9.9-6.7l-2.7-2c-3-2.3-5.2-5.9-5.2-5.9l-3.4-7.7C186.3,259.7,188.7,258.7,190,258.1z"/>
		</g>
		<path class="st4" d="M180,203.2c-1.3-2-2.7-3.9-3.9-6c-1.5-2.7-2.5-5.7-3.2-8.7c-0.6-2.5-1-5.2-2.2-7.6c-1.1-2.2-2.7-4.2-4.8-5.5
			c-2-1.3-4.4-1.9-6.7-1.9c-1.2,0-2.4,0.1-3.6,0.3c-1.4,0.2-2.7,0.9-4.2,1c-2.3,0.3-4.6-0.5-7-0.4c-1.5,0.1-3,0.2-4.4,0.6
			c-1.7,0.4-3.5,1-5,2.1c-0.3,0.2-0.6,0.4-0.8,0.6c-2.4,2.1-3.4,5.6-3.5,8.9c0,3.9,1,7.7,1.2,11.5c0.3,6.3-1.6,12.5-2.3,18.8
			c-0.8,6.3-0.2,13.3,4.2,17.8c2.2,2.3,5.3,3.8,8.4,4.6c9.1,2.5,18.8,0.3,27.9-2.4c2.4-0.7,4.9-1.5,7.1-2.9
			c4.9-3.1,7.6-8.9,7.8-14.7C185.2,213.7,183.1,208.1,180,203.2z"/>
		<path class="st5" d="M132.6,210.5c0,0-1,16.5,4.6,24.2C137.2,234.7,128,229.6,132.6,210.5z"/>
		<path class="st2" d="M173.1,197.5c-0.4-0.8-1.3-1.4-2.2-1.5c0,0-0.1,0-0.1,0c0,0-0.1,0-0.1,0c0,0-0.1,0-0.1,0c0,0-0.1,0-0.1,0
			c0,0,0,0-0.1,0c-0.1,0-0.1,0-0.2,0c-0.6,0.1-1.2,0.4-1.6,0.9c-0.2,0.2-0.4,0.5-0.5,0.8c0,0-0.1-0.1-0.1-0.2l-1.5-3.9
			c-0.4-0.5-0.8-1-1.1-1.6c-0.6-1.1-1-2.2-1.6-3.3c-1.5-2.7-4.5-4.6-7.6-4.9c-3.1-0.3-6.4,1-8.4,3.4c-1.8,2.1-2.6,4.9-4,7.3
			c-0.5,0.8-1.1,1.6-1.7,2.3c-0.5,0.6-1.5,1.8-2.5,2.3l0,3.3c0,0,0,0,0,0c-0.1,0.1-0.1,0.1-0.2,0.2c-0.1-0.2-0.3-0.3-0.5-0.5
			c-0.4-0.2-0.8-0.4-1.2-0.5c0,0,0,0,0,0c-0.3,0-0.5,0-0.8,0.1c-0.1,0-0.2,0-0.2,0.1c0,0,0,0,0,0c-0.1,0-0.1,0.1-0.2,0.1
			c-0.9,0.4-1.5,1.3-1.7,2.3c-0.1,0.4,0,0.8,0,1.2c0.2,1,0.7,2,1.3,2.8c0.4,0.6,1,1.2,1.6,1.5c0.7,0.4,1.5,0.5,2.2,0.2
			c0.1,0,0.2-0.1,0.2-0.1c0.2,1.3,0.3,2.1,0.3,2.1c0.8,5.5,5.9,8.2,5.9,8.2c1.4,0.6,2.8,1.2,4.2,1.8c0.8,0.3,1.7,0.8,2.6,1.2
			l0.5,2.1c0.3,0,1.5-0.1,4.5-0.6c3.3-0.6,4.3-0.9,4.5-1l-0.4-2c0.8-0.8,1.6-1.7,2.2-2.3c1.1-1,2.2-2.1,3.3-3.1c0,0,3.8-4.2,2.6-9.7
			c0,0-0.2-0.8-0.4-2c0,0,0,0,0.1,0c0.8,0,1.5-0.4,2-1c0.5-0.6,0.8-1.3,1-2c0.3-1,0.4-2.1,0.2-3.1
			C173.4,198.2,173.3,197.8,173.1,197.5z"/>
		<path class="st3" d="M173.1,197.5c-0.4-0.8-1.3-1.4-2.2-1.5c0,0-0.1,0-0.1,0c0,0-0.1,0-0.1,0c0,0-0.1,0-0.1,0c0,0-0.1,0-0.1,0
			c0,0,0,0-0.1,0c-0.1,0-0.1,0-0.2,0c-0.6,0.1-1.2,0.4-1.6,0.9c-0.2,0.2-0.4,0.5-0.5,0.8c0,0-0.1-0.1-0.1-0.2l-1.5-3.9
			c-0.4-0.5-0.8-1-1.1-1.6c-0.4-0.8-0.8-1.7-1.2-2.6c1,3.8,2.1,7.6,3.1,11.4c0.3,1.2,0.7,2.4,0.8,3.6c0.2,1.4,0.2,2.7,0.1,4.1
			c-0.1,1.4-0.3,2.7-0.9,4c-0.5,1.1-1.3,2-2.1,2.8c-1.4,1.4-2.9,2.7-4.5,3.7c-0.9,0.6-1.8,1.1-2.8,1.3c-0.9,0.2-1.7,0.2-2.6,0.1
			c-2.4-0.2-4.8-0.7-6.8-1.8c-2.1-1.1-3.9-2.8-4.9-5c-0.6-1.3-1-2.7-1.3-4.1c-0.8-3.7-1.3-7.5-1.6-11.2c-0.3,0.3-0.7,0.6-1.1,0.8
			l0,3.3c0,0,0,0,0,0c-0.1,0.1-0.1,0.1-0.2,0.2c-0.1-0.2-0.3-0.3-0.5-0.5c-0.4-0.2-0.8-0.4-1.2-0.5c0,0,0,0,0,0
			c-0.3,0-0.5,0-0.8,0.1c-0.1,0-0.2,0-0.2,0.1c0,0,0,0,0,0c-0.1,0-0.1,0.1-0.2,0.1c-0.9,0.4-1.5,1.3-1.7,2.3c-0.1,0.4,0,0.8,0,1.2
			c0.2,1,0.7,2,1.3,2.8c0.4,0.6,1,1.2,1.6,1.5c0.7,0.4,1.5,0.5,2.2,0.2c0.1,0,0.2-0.1,0.2-0.1c0.2,1.3,0.3,2.1,0.3,2.1
			c0.8,5.5,5.9,8.2,5.9,8.2c1.4,0.6,2.8,1.2,4.2,1.8c0.8,0.3,1.7,0.8,2.6,1.2l0.5,2.1c0.3,0,1.5-0.1,4.5-0.6c3.3-0.6,4.3-0.9,4.5-1
			l-0.4-2c0.8-0.8,1.6-1.7,2.2-2.3c1.1-1,2.2-2.1,3.3-3.1c0,0,3.8-4.2,2.6-9.7c0,0-0.2-0.8-0.4-2c0,0,0,0,0.1,0c0.8,0,1.5-0.4,2-1
			c0.5-0.6,0.8-1.3,1-2c0.3-1,0.4-2.1,0.2-3.1C173.4,198.2,173.3,197.8,173.1,197.5z"/>
		<path class="st5" d="M175.5,205.7c0,0,3.6,12.5,2.8,19.6C178.3,225.3,182.4,218.2,175.5,205.7z"/>
		<path class="st5" d="M137.6,216.9c0,0,0.6,7.1,2.9,14.1C140.5,231,136.9,228.7,137.6,216.9z"/>
		<path class="st6" d="M158.1,226.5"/>
		<path class="st7" d="M136.4,256c0.1-0.4,0.5-2.5,1.2-2c0.7,0.8,0.6,4.5,0.6,4.5c-0.3,3.8,0.8,5.8,1.7,6.7c0.5,0.5,0.6,1.3,0.6,1.3
			c-0.1,4.1-0.2,8.2-0.3,12.3c-0.1,2.4,0.2,4.8-0.3,7.1c-0.1,0.2-0.3,1.4-0.5,2.6c0,0.3,1.4,0.6,1.4,0.6s0,0,0,0
			c0.2,0,0.4,0,0.5,0.1c10.2,1.8,20.7,1.8,30.9,0.3c0.6-0.1,1.3-0.2,1.9-0.2l0,0c0,0,2.2-0.3,2.8-0.7c-0.1-1.5-0.8-2.9-0.8-4.3
			c0-0.8,0-1.7-0.1-2.5c-0.1-2.5-0.1-5.1-0.2-7.6c-0.1-2.5-0.1-5-0.2-7.6c0,0,0.1-0.7,0.6-1.3c0.8-0.9,2-3,1.7-6.7
			c0,0-0.1-3.7,0.6-4.5c0.7-0.5,1.1,1.6,1.2,2c0.4,1.6,0.9,3.2,1.3,4.8c6.4-1.2,10-3.4,10-3.4l-7.3-23.4c-0.7-2.2-1.8-3.4-2.7-4
			c-0.3-0.3-0.6-0.5-1.1-0.6l-0.7-0.2l-1.4-0.4l-13.8-3.5c-0.3-0.1-0.5-0.2-0.7-0.2c-0.2-0.1-0.3-0.3-0.4-0.6l-0.1-0.8
			c0,0,0-0.3-0.2-0.3c0,0-0.9,0.2-4.6,0.2c-3.7,0-4.6-0.2-4.6-0.2c-0.2,0-0.2,0.3-0.2,0.3l-0.1,0.8c-0.1,0.5-0.4,0.6-0.6,0.7
			c0,0,0,0,0,0c-0.1,0-0.2,0.1-0.4,0.1l-13.8,3.5l-1.4,0.4l-0.7,0.2c-0.5,0.1-0.9,0.4-1.1,0.6c-0.9,0.6-2,1.8-2.7,4l-7.3,23.4
			c0,0,3.7,2.2,10,3.4C135.5,259.3,136,257.7,136.4,256z"/>
		<path class="st8" d="M153.4,223.5c-0.2,0-0.2,0.3-0.2,0.3l-0.1,0.8c-0.1,0.5-0.4,0.6-0.6,0.7c0,0,0,0,0,0h0
			c-0.1,0-0.2,0.1-0.4,0.1l-13.8,3.5l-1.4,0.4l-0.7,0.2c-0.5,0.1-0.9,0.4-1.1,0.6c-0.9,0.6-2,1.8-2.7,4l-7.3,23.4
			c0,0,0.4,0.2,1.2,0.6l8.7-22.4c0,0,1.4-3.2,3.7-4.3l12.9-4.2l1.9-0.6c0,0,5.2-0.7,2.3-0.9c0,0-1.6-0.2-1.8-0.7l-0.1-0.8
			c0,0,0-0.3,0.1-0.5C153.6,223.5,153.4,223.5,153.4,223.5z"/>
		<path class="st8" d="M162.7,223.5c0.2,0,0.2,0.3,0.2,0.3l0.1,0.8c0.1,0.5,0.4,0.6,0.6,0.7c0,0,0,0,0,0h0c0.1,0,0.2,0.1,0.4,0.1
			l13.8,3.5l1.4,0.4l0.7,0.2c0.5,0.1,0.9,0.4,1.1,0.6c0.9,0.6,2,1.8,2.7,4l7.3,23.4c0,0-0.4,0.2-1.2,0.6l-8.7-22.4
			c0,0-1.4-3.2-3.7-4.3l-12.9-4.2l-1.9-0.6c0,0-5.2-0.7-2.3-0.9c0,0,1.6-0.2,1.8-0.7l0.1-0.8c0,0,0-0.3-0.1-0.5
			C162.5,223.5,162.7,223.5,162.7,223.5z"/>
		<path class="st9" d="M135.4,303.2h45.3c-0.3-2.6-0.5-5.2-1.3-7.7c-0.4-1.3-1-2.4-1.5-3.6c-0.2-0.4-0.3-0.8-0.5-1.1l0,0
			c-0.3-0.6-0.2-2-0.2-2c-0.1-0.4-0.2-0.3-0.2-0.3c-0.6,0.5-2.8,0.7-2.8,0.7l0,0c-0.6,0-1.3,0.1-1.9,0.2
			c-10.2,1.6-20.7,1.5-30.9-0.3c-0.2,0-0.4-0.1-0.5-0.1c0,0,0,0,0,0s-1.5-0.3-1.4-0.6c0,0-0.2-0.2-0.3,0.3c0,0-0.1,1.2-0.4,1.9
			c0,0,0,0,0,0C136.7,294.6,135.9,298.9,135.4,303.2z"/>
		<path class="st10" d="M177.4,246.9c-0.1-0.4-0.4-0.9-0.8-0.9c-0.4,0.1-0.5,0.6-0.5,1.1c0.2,3.6,0.4,7.3-0.1,10.9
			c-0.3,2.1-1,4.2-2.6,5.6c-0.9,0.8-2.1,1.3-3.3,1.5c-1.9,0.4-3.9,0.3-5.8-0.3c-0.3-0.1-0.6-0.2-0.8-0.1c-0.4,0.2-0.4,0.7-0.1,1
			c0.2,0.3,0.6,0.5,1,0.6c2.3,0.8,4.7,1.5,7.1,1.4c0.9,0,1.9-0.2,2.8-0.5c0,0.3,0,0.5,0,0.8c0.1,4.2-0.1,8.5-0.6,12.7
			c-0.2,1.4-0.4,2.9-1.2,4.1c-0.7,1.1-1.8,1.9-3,2.5c-3.5,1.8-7.6,2.1-11.5,1.4c-3.9-0.6-7.6-2.1-11.2-3.6c-0.8-0.3-1.6-0.7-2.3-1.3
			c-1-0.9-1.5-2.2-1.7-3.6c-0.4-1.8-0.5-3.7-0.6-5.5c-0.1-0.9-0.1-1.8-0.1-2.8v-4.8c0.8,0.3,1.7,0.4,2.6,0.5
			c2.4,0.1,4.8-0.6,7.1-1.4c0.4-0.1,0.8-0.3,1-0.6c0.2-0.3,0.2-0.9-0.1-1c-0.3-0.1-0.6,0-0.8,0.1c-1.9,0.6-3.9,0.7-5.8,0.3
			c-1.2-0.3-2.4-0.7-3.3-1.5c-1.6-1.4-2.2-3.5-2.6-5.6c-0.5-3.6-0.2-7.2-0.1-10.9c0-0.4-0.1-1-0.5-1.1c-0.4-0.1-0.7,0.4-0.8,0.9
			c-0.7,2.3-1.3,4.7-1.6,7.1c0.1-0.1,0.3-0.1,0.4,0c0.7,0.8,0.6,4.5,0.6,4.5c-0.3,3.7,0.8,5.7,1.6,6.7h0c0,0,0,0,0.1,0.1
			c0,0,0.1,0.1,0.1,0.1c0,0,0,0,0,0c0,0,0,0,0.1,0.1c0,0,0,0,0,0c0,0,0,0,0,0.1c0,0,0,0,0,0c0,0,0,0,0,0.1c0,0,0,0,0,0
			c0,0,0,0,0,0.1c0,0,0,0,0,0c0,0,0,0,0,0.1c0,0,0,0,0,0c0,0,0,0,0,0.1c0,0,0,0,0,0c0,0,0,0,0,0.1c0,0,0,0,0,0c0,0,0,0,0,0.1
			c0,0,0,0,0,0c0,0,0,0,0,0.1c0,0,0,0,0,0c0,0.1,0,0.1,0,0.2c0,0,0,0,0,0c0,0,0,0,0,0c0,0,0,0,0,0c0,0,0,0,0,0
			c-0.1,4.1-0.2,8.2-0.3,12.3c-0.1,2.4,0.2,4.8-0.3,7.1c-0.1,0.2-0.3,1.4-0.5,2.6c0,0.3,1.4,0.6,1.4,0.6s0,0,0,0
			c0.2,0,0.4,0,0.5,0.1c10.2,1.8,20.7,1.8,30.9,0.3c0.6-0.1,1.3-0.2,1.9-0.2l0,0c0,0,2.2-0.3,2.8-0.7c-0.1-1.5-0.8-2.9-0.8-4.3
			c0-0.8,0-1.7-0.1-2.5c-0.1-2.5-0.1-5.1-0.2-7.6c-0.1-2.5-0.1-5-0.2-7.6c0,0,0,0,0,0c0,0,0,0,0,0c0,0,0-0.2,0.1-0.4c0,0,0,0,0,0
			c0,0,0,0,0-0.1c0,0,0,0,0,0c0,0,0,0,0-0.1c0,0,0,0,0,0c0,0,0,0,0-0.1c0,0,0,0,0,0c0,0,0,0,0-0.1c0,0,0,0,0,0c0,0,0,0,0-0.1
			c0,0,0,0,0,0c0,0,0,0,0-0.1c0,0,0,0,0,0c0,0,0,0,0-0.1c0,0,0,0,0,0c0,0,0,0,0.1-0.1c0,0,0,0,0,0c0,0,0,0,0.1-0.1
			c0.8-0.9,2-3,1.7-6.7c0,0-0.1-3.7,0.6-4.5c0.2-0.1,0.3-0.1,0.4,0C178.6,251.6,178,249.3,177.4,246.9z"/>
		<path class="st11" d="M139,209c0.3-0.1,0.6-0.3,0.7-0.6c0.1-0.3,0.1-0.5-0.1-0.8c-0.1-0.3-0.3-0.5-0.6-0.6c-0.2,0-0.5,0-0.6,0.2
			c-0.1,0.1-0.2,0.3-0.1,0.5c0,0.1,0.2,0.1,0.3,0.1c0.1,0,0.2-0.2,0.1-0.3c0,0,0,0,0-0.1c0,0,0.1,0,0.1,0c0.2,0,0.3,0.2,0.3,0.3
			c0.1,0.2,0.1,0.4,0.1,0.6c-0.1,0.2-0.2,0.3-0.4,0.3c-0.2,0-0.4-0.1-0.7-0.3c-0.9-0.9-1.5-2.1-1.5-3.3c0-0.3,0-1.1,0.6-1.5
			c0.2-0.1,0.5-0.2,0.8-0.1c0.2,0.1,0.5,0.3,0.5,0.5c0,0.1,0.2,0.2,0.3,0.1c0.1,0,0.2-0.2,0.1-0.3c-0.1-0.4-0.4-0.6-0.8-0.8
			c-0.4-0.1-0.8-0.1-1.2,0.1c-0.8,0.4-0.9,1.3-0.8,1.8c0,1.3,0.6,2.6,1.6,3.6C138.2,209,138.6,209.1,139,209
			C138.9,209,139,209,139,209z"/>
		<path class="st11" d="M171.2,203.2c-0.3,0-0.6-0.1-0.8-0.4c-0.2-0.2-0.2-0.5-0.2-0.8c0-0.4,0.1-0.6,0.4-0.8c0.2-0.1,0.4-0.1,0.6,0
			c0.2,0.1,0.3,0.2,0.2,0.4c0,0.1-0.1,0.2-0.2,0.2c-0.1,0-0.2-0.1-0.2-0.2c0,0,0,0-0.1,0c0,0-0.1,0-0.1,0c-0.1,0.1-0.2,0.3-0.2,0.4
			c0,0.2,0,0.4,0.2,0.6c0.1,0.1,0.3,0.2,0.5,0.2c0.2,0,0.3-0.2,0.5-0.5c0.6-1.1,0.7-2.4,0.2-3.6c-0.1-0.3-0.4-1-1.1-1.2
			c-0.3,0-0.6,0-0.8,0.2c-0.2,0.2-0.3,0.4-0.3,0.7c0,0.1-0.1,0.2-0.2,0.2c-0.1,0-0.2-0.1-0.2-0.2c0-0.4,0.2-0.7,0.5-1
			c0.3-0.2,0.7-0.4,1.1-0.3c0.9,0.1,1.3,1,1.4,1.4c0.5,1.3,0.4,2.7-0.3,3.9C171.8,202.9,171.6,203.2,171.2,203.2
			C171.2,203.2,171.2,203.2,171.2,203.2z"/>
		<g>
			<path class="st2" d="M126.2,258.1l-2.4,6c0,0-1.8,3.2-3.1,4.5l-11.9,11.5c0,0-2.2,1.8-3.8,1.8l0,0c0,0,0,0,0,0l0,0
				c-0.3,0-0.5-0.1-0.8-0.2c-0.5-0.2-0.9-0.5-1.4-0.6c-0.4-0.1-0.8-0.2-1.2-0.2c0,0-0.3,0-0.7-0.1c0,0-1.2,0-3.4-0.6l-0.2,0
				c-0.8-0.2-2.6-0.4-2.9,0.6c-0.1,0.4,0.1,0.7,0.4,0.9c0.3,0.2,0.6,0.3,1,0.4c0.7,0.2,1.4,0.3,2.1,0.5c0.2,0.1,0.5,0.1,0.7,0.3
				c0.2,0.2,0.3,0.5,0.1,0.7c-0.1,0.1-0.2,0.1-0.2,0.2c-1,0.5-2,1-3.1,1.4c-0.2,0.1-0.4,0.2-0.6,0.3c-0.7,0.3-1.5,0.6-2.2,1
				c-0.8,0.4-1.6,0.8-2.3,1.3c-0.3,0.2-0.5,0.4-0.6,0.7c0,0.5,0.4,0.9,0.9,0.8c0.9-0.3,1.7-0.8,2.6-1.1c0.4-0.2,0.8-0.3,1.1-0.5
				c0.5-0.2,1-0.4,1.5-0.6c0.1,0,0.3-0.1,0.4,0c0.1,0,0.2,0.1,0.3,0.2c0.1,0.5-0.4,0.6-0.4,0.6c-1.7,0.7-4.1,2.2-4.8,2.6
				c-0.5,0.3-1.1,0.7-1.3,1.3c-0.1,0.2-0.1,0.6,0.1,0.8c0.4,0.5,1.1,0.2,1.1,0.2c0.2,0,0.4-0.2,0.6-0.3c0.2-0.1,0.4-0.3,0.6-0.4
				c1.4-0.9,2.8-1.7,4.3-2.4c0,0,0,0,0,0c0.1,0,0.1,0,0.2-0.1c0.2,0,0.6,0,0.6,0.2c0,0.1-0.2,0.2-0.2,0.3c-0.1,0.1-0.3,0.2-0.4,0.4
				c-0.3,0.2-0.5,0.4-0.8,0.6c-0.7,0.5-1.4,1-2,1.6c-0.4,0.4-0.9,0.8-1.2,1.2c-0.2,0.2-0.3,0.5-0.3,0.8c0,0.3,0.2,0.4,0.3,0.6
				c0.6,0.4,1.6-0.7,1.6-0.7c0.3-0.4,0.7-0.7,1.1-1c0.4-0.4,0.9-0.7,1.4-1c0.2-0.2,0.5-0.3,0.7-0.5c0.1-0.1,0.2-0.2,0.4-0.2
				c0.2-0.1,0.4-0.3,0.6-0.4c0.4-0.2,0.3,0.4,0.2,0.6c-0.8,1-1.7,2-2.7,2.9c-0.3,0.3-0.7,0.7-0.6,1.1c0.1,0.4,0.6,0.6,1,0.5
				c0.4-0.1,0.7-0.4,1-0.7c1.4-1.4,2.8-2.9,4.6-3.8c3.5-0.9,5.7-4.7,5.7-4.7c0.3-0.5,0.4-1,0.8-1.4c0.5-0.5,1.1-0.8,1.7-1.2
				c0.6-0.4,1.2-0.8,1.7-1.2l9.9-6.7l2.7-2c3-2.3,5.2-5.9,5.2-5.9l3.4-7.7C129.9,259.7,127.5,258.7,126.2,258.1z"/>
			<path class="st3" d="M98.5,282.5c0.1,0.1,0.3,0.2,0.3,0.4c0,0.2,0,0.4-0.1,0.5c-0.1,0.1-0.1,0.1-0.2,0.1c-0.1,0-0.2,0.1-0.2,0.1
				c0,0,0,0,0,0c0,0,0,0.1,0,0.1c0,0,0.1,0,0.1,0c0.2,0,0.4-0.1,0.6-0.2c0.5-0.2,0.9-0.4,1.4-0.5c0.1,0,0.2-0.1,0.2-0.1
				c0.1-0.1,0.2-0.1,0.2-0.2c0-0.1,0-0.2-0.1-0.2c-0.1-0.1-0.2-0.1-0.2-0.1c-0.3-0.1-0.6-0.2-0.8-0.2c-0.4-0.1-0.8-0.1-1.3-0.1
				c-0.1,0-0.2,0-0.3,0c-0.1,0-0.1,0-0.2,0c0,0,0,0,0,0c0,0,0,0,0,0.1c0.1,0.1,0.2,0,0.4,0.1C98.3,282.4,98.4,282.5,98.5,282.5z"/>
			<path class="st3" d="M126.2,258.1l-0.5,1.2c1.5,0.7,3.7,1.7,5.4,2L129,267c0,0-2.5,4.4-4.5,5.9l-16,11.4c0,0-0.8,0.8-1,1.6
				c0,0-1.5,2.9-3.5,3.9c0,0-1.6,0.9-2.1,0.9c0,0-1.1,0.4-1.6,1.1l-3.1,2.9c0,0-0.7,0.8-1.3,1.1c0.2,0.1,0.5,0.2,0.7,0.1
				c0.4-0.1,0.7-0.4,1-0.7c1.4-1.4,2.8-2.9,4.6-3.8c3.5-0.9,5.7-4.7,5.7-4.7c0.3-0.5,0.4-1,0.8-1.4c0.5-0.5,1.1-0.8,1.7-1.2
				c0.6-0.4,1.2-0.8,1.7-1.2l9.9-6.7l2.7-2c3-2.3,5.2-5.9,5.2-5.9l3.4-7.7C129.9,259.7,127.5,258.7,126.2,258.1z"/>
		</g>
	</g>
	<g style="clip-path:url(#SVGID_00000183217194280065282140000008830940430699332768_);">
		<path class="st7" d="M299.2,244c-1.5-3.1-5.7-12.9-5.7-12.9c-1.3-3.1-3.7-4.4-4.9-4.9c-0.2-0.1-0.4-0.2-0.7-0.3l-10.9-2.8
			l-4.8-0.4l0,0c0.2,0.1,0.5,0.1,0.7,0.2c2.7,1,1.8,3.4,1.8,3.4c-0.9,2.6-2.9,4.6-5.6,5c-1.8,0.2-4-0.1-5.7-0.9
			c-1.6-0.7-2.8-2.1-3.2-3.8c-0.1-0.8-0.1-1.9,0.5-2.6c0.2-0.3,0.6-0.5,0.9-0.6c0,0,0,0,0.1,0l-4.4,0.8c-0.8,0.3-1.6,0.6-2.5,0.9
			c-0.6,0.2-1.2,0.5-1.7,0.8c-5,0.9-8.8,1.1-9.7,1.2c0,0,0,0,0,0l-0.1,0l-11.9-6.3c0,0-5.2,5-6.3,11.4l18,9.8c0,0,2.3,2.6,5.4,6.1
			l2.3,13l0,0l0.2,17.6l-0.2,6.9l0.3,1.3l19.2-1l19.2-1l0.2-1.3c0,0-0.9-6.9-0.9-6.9l-1.7-17.6l0.8-9.8c0-0.1,0-0.2,0-0.3l0.2-1.1
			c0-0.9,0.1-2.3,0.2-4c0.1-1.7,0.4,0,0.4,0l2,9.3c6.1,0.4,10.7-2.4,10.7-2.4C301.2,248.9,299.2,244,299.2,244z"/>
		<path class="st3" d="M272.9,222.9c-0.6-0.2-1.3-0.3-1.3-0.3l-0.6-3.2c0,0,0,0,0.1,0l-0.1,0l-8.1,0.4c0,0-0.2,3.3-0.2,3.3
			c0,0-0.9,0.3-1,0.3c-0.3,0.1-0.6,0.3-0.9,0.6c-0.6,0.7-0.7,1.7-0.5,2.6c0.3,1.8,1.5,3.1,3.2,3.8c1.7,0.8,3.9,1.2,5.7,0.9
			c2.7-0.4,4.7-2.4,5.6-5C274.7,226.3,275.6,223.9,272.9,222.9z"/>
		<rect x="270" y="277.7" class="st7" width="0" height="0"/>
		<path class="st2" d="M268.6,226.2c-0.1,0.1-0.2,0.2-0.1,0.3c0,0.1,0.2,0.1,0.4,0.1c0.9-0.3,1.8-0.7,2.7-1.2
			c0.2-0.1,0.4-0.3,0.3-0.5c0-0.1-0.1-0.1-0.1-0.2c-0.2-0.1-0.6-0.4-0.8-0.3c-0.2,0-0.5,0.4-0.7,0.5
			C269.7,225.3,269.2,225.8,268.6,226.2z"/>
		<path class="st2" d="M265.8,226.4c0.1,0.1,0.2,0.1,0.2,0.2c0,0.1-0.2,0.2-0.4,0.1c-1-0.2-1.9-0.5-2.8-0.9
			c-0.2-0.1-0.4-0.3-0.4-0.5c0-0.1,0.1-0.1,0.1-0.2c0.2-0.2,0.5-0.4,0.8-0.4c0.2,0,0.6,0.3,0.8,0.5
			C264.6,225.6,265.2,226,265.8,226.4z"/>
		<path class="st8" d="M264.2,272.8c2.5,0.7,5.1,1,7.6,0.9c0.4,0,1.1-0.1,1.5,0.2c1,0.6-0.5,0.9-0.9,1c-1,0.2-2,0.4-3.1,0.5
			c-2.6,0.2-5.4,0.2-7.8-0.9c-1.8-0.8-3.4-2.2-4.9-3.5c-0.6-0.5-2.7-2.1-2.5-3.1c0.1-0.7,1.5,0.7,1.7,0.9
			C258.3,270.6,261.2,272,264.2,272.8z"/>
		<g>
			<path class="st2" d="M286.6,200.7c-0.3-0.9-1-1.7-1.9-2c0,0-0.1,0-0.1,0c0,0-0.1,0-0.1,0c0,0-0.1,0-0.1,0c0,0-0.1,0-0.1,0
				c0,0,0,0-0.1,0c-0.1,0-0.1,0-0.2,0c-0.6,0-1.3,0.2-1.8,0.6c-0.3,0.2-0.5,0.5-0.6,0.7l-0.1-0.9c-0.8-2.6-1.2-5.4-2-8
				c-0.8-2.8-2.2-5.7-4.6-7.4c-1.4-1-3-1.5-4.7-1.7c-0.9-0.1-1.9-0.1-2.7,0.2c-0.7,0.2-1.4,0.7-2.1,0.9c-0.9,0.3-1.9,0.1-2.9,0.1
				c-2.9,0.1-5.6,2-7.1,4.5c-0.8,1.5-1.3,3.1-1.7,4.7c-0.6,2.4-1.3,4.8-1.9,7.1l0,0l0,0.2c-0.1-0.2-0.2-0.4-0.4-0.6
				c-0.3-0.3-0.7-0.6-1.1-0.7c0,0,0,0,0,0c-0.3-0.1-0.5-0.1-0.8-0.1c-0.1,0-0.2,0-0.2,0c0,0,0,0,0,0c-0.1,0-0.2,0-0.2,0
				c-1,0.2-1.8,1-2.1,2c-0.1,0.4-0.2,0.8-0.2,1.3c0,1.1,0.3,2.2,0.8,3.1c0.3,0.7,0.8,1.4,1.4,1.9c0.6,0.5,1.4,0.8,2.2,0.7
				c0.1,0,0.2,0,0.3-0.1c-0.1,1.3-0.1,2.2-0.1,2.2c-0.2,5.8,4.3,9.4,4.3,9.4c1.3,0.9,2.6,1.7,3.9,2.6c1.6,1.1,3.6,3,5.5,3.4
				c0.6,0.1,1.2,0.2,1.7,0.2c0.6,0,1.2,0,1.7-0.1c1.9-0.3,4-2.2,5.6-3.2c1.3-0.8,2.6-1.7,3.9-2.5c0,0,4.6-3.6,4.5-9.3
				c0,0,0-0.8,0-2.1c0,0,0,0,0.1,0c0.8,0.1,1.6-0.1,2.2-0.6s1.1-1.1,1.4-1.8c0.5-1,0.8-2,0.8-3.1
				C286.8,201.5,286.8,201.1,286.6,200.7z M281.7,199.9C281.7,199.9,281.7,199.9,281.7,199.9L281.7,199.9
				C281.7,199.9,281.7,199.9,281.7,199.9z"/>
			<path class="st3" d="M286.8,201.9c0-0.4,0-0.9-0.2-1.3c-0.3-0.9-1-1.7-1.9-2c0,0-0.1,0-0.1,0c0,0-0.1,0-0.1,0c0,0-0.1,0-0.1,0
				c0,0-0.1,0-0.1,0c0,0,0,0,0,0c0,0,0,0-0.1,0c0,0,0,0-0.1,0c0,0-0.1,0-0.1,0c-0.4,0-0.7,0-1,0.2c-0.3,0.1-0.5,0.2-0.7,0.4
				c0,0-0.1,0.1-0.1,0.1c0,0,0,0,0,0c-0.1,0.1-0.2,0.2-0.3,0.3c0,0,0,0,0,0c0,0-0.1,0.1-0.1,0.1c0,0,0,0,0,0c0,0.1-0.1,0.1-0.1,0.2
				c0,0,0,0,0,0c0,0,0,0,0,0c0,0,0,0,0,0l-0.1-1c0,0,0,0,0-0.1c0-0.1-0.1-0.3-0.1-0.4c0,0,0,0,0-0.1c0-0.1-0.1-0.3-0.1-0.4
				c0,0,0,0,0,0c-0.4-1.6-0.7-3.3-1.1-4.9c0,0,0,0,0,0c0-0.1-0.1-0.3-0.1-0.4c0,0,0-0.1,0-0.1c0-0.1-0.1-0.2-0.1-0.4
				c0,0,0-0.1,0-0.1c0-0.1-0.1-0.2-0.1-0.4c0,0,0-0.1,0-0.1c0-0.2-0.1-0.3-0.1-0.5c-0.1-0.2-0.1-0.4-0.2-0.5
				c0.1,0.5,0.1,0.8,0.1,0.8l0.1,0.9l0.6,8.2c0.1,1.6,0.2,3.1,0.3,4.7c0.1,1,0.1,2,0.1,2.9c0,1.1-0.1,2.3-0.5,3.4
				c-0.6,1.8-1.9,4.2-3.5,5.3c-1.2,0.8-2.4,1.6-3.5,2.4c-1.4,1-3.3,2.7-5,3c-0.5,0.1-1,0.1-1.6,0.1c-0.5,0-1,0-1.6-0.1
				c-1.7-0.3-3.5-2.1-4.9-3.1c-1.2-0.8-2.3-1.6-3.5-2.4c-0.1,0-0.1-0.1-0.2-0.1c-2-1.8-3.3-4.4-3.6-7c-0.1-0.9-0.1-1.8,0-2.6l0,0
				l0,0c0-0.4,0.1-0.7,0.1-1.1l0.5-5.2l0.7-9.4c0,0,0,0,0,0c-0.1,0.4-0.2,0.9-0.4,1.3c-0.6,2.4-1.3,4.8-1.9,7.1l0,0l0,0.2
				c0,0,0-0.1-0.1-0.1c0,0,0-0.1-0.1-0.1c0,0,0,0,0,0c0-0.1-0.1-0.1-0.1-0.2c0,0,0,0,0,0c0-0.1-0.1-0.1-0.1-0.2c0,0,0,0,0,0
				c-0.3-0.3-0.6-0.5-1-0.7c0,0-0.1,0-0.1,0c0,0,0,0,0,0c0,0,0,0,0,0c-0.3-0.1-0.5-0.1-0.8-0.1c-0.1,0-0.2,0-0.2,0c0,0,0,0,0,0
				c0,0,0,0,0,0c0,0-0.1,0-0.1,0c0,0-0.1,0-0.1,0c-0.5,0.1-0.9,0.4-1.3,0.7c-0.1,0.1-0.2,0.2-0.3,0.3c-0.1,0.1-0.2,0.3-0.3,0.4
				c-0.1,0.1-0.1,0.2-0.1,0.3c0,0.1-0.1,0.2-0.1,0.2c-0.1,0.2-0.1,0.4-0.2,0.7c0,0.2,0,0.4,0,0.6c0,1.1,0.3,2.2,0.8,3.1
				c0.2,0.4,0.4,0.8,0.7,1.2c0.1,0.1,0.1,0.2,0.2,0.2c0,0,0,0,0.1,0.1c0.1,0.1,0.2,0.2,0.3,0.3c0,0,0.1,0.1,0.1,0.1
				c0.6,0.5,1.4,0.8,2.2,0.7c0.1,0,0.2,0,0.3-0.1c0,0.1,0,0.2,0,0.2c0,0.9-0.1,1.5-0.1,1.8c0,0,0,0,0,0c0,0,0,0.1,0,0.1
				c0,0,0,0.1,0,0.1c0,0.1,0,0.2,0,0.3c0,2,0.5,3.7,1.2,5.1c0.1,0.1,0.1,0.3,0.2,0.4c0.1,0.2,0.2,0.4,0.3,0.5
				c0.1,0.2,0.2,0.3,0.3,0.5c0,0.1,0.1,0.1,0.1,0.2c0.1,0.1,0.1,0.2,0.2,0.2c0,0,0.1,0.1,0.1,0.1c1,1.4,1.9,2.1,1.9,2.1
				c1.3,0.9,2.6,1.7,3.9,2.6c0.8,0.5,1.7,1.3,2.7,2v0c0.9,0.7,1.9,1.2,2.8,1.4c0.6,0.1,1.2,0.2,1.7,0.2c0.6,0,1.2,0,1.7-0.1
				c0.9-0.2,1.9-0.7,2.8-1.3c0.7-0.5,1.5-1,2.1-1.5c0,0,0,0,0,0c0,0,0.1-0.1,0.1-0.1c0,0,0,0,0,0c0,0,0.1-0.1,0.1-0.1c0,0,0,0,0.1,0
				c0,0,0.1,0,0.1-0.1c0,0,0,0,0.1,0c0,0,0.1,0,0.1-0.1c1.1-0.7,2.3-1.5,3.4-2.2c0.2-0.1,0.3-0.2,0.5-0.3c0,0,0.3-0.2,0.6-0.6
				c0.2-0.2,0.4-0.4,0.6-0.6c0,0,0.1-0.1,0.1-0.1c0,0,0.1-0.1,0.1-0.2c0.8-0.9,1.6-2.1,2.2-3.7c0-0.1,0-0.1,0.1-0.2
				c0.1-0.2,0.2-0.5,0.2-0.7c0.3-1,0.5-2.1,0.5-3.3c0,0,0-0.8,0-2.1c0,0,0,0,0,0c0,0,0,0,0,0c0,0,0,0,0.1,0c0.8,0.1,1.6-0.1,2.2-0.6
				c0.6-0.5,1.1-1.1,1.4-1.8c0.2-0.5,0.4-1,0.6-1.5c0-0.1,0-0.1,0.1-0.2c0-0.1,0.1-0.2,0.1-0.4C286.8,202.6,286.8,202.3,286.8,201.9
				z"/>
			<path class="st11" d="M250,205.1c-0.2,0-0.4-0.1-0.6-0.2c-0.3-0.2-0.5-0.5-0.7-0.8c-0.3-0.7-0.6-1.4-0.6-2.2c0-0.6,0.1-1,0.3-1.4
				c0.3-0.4,0.7-0.7,1.2-0.8c0,0,0.1,0,0.1,0c0.5,0,0.9,0.2,1.2,0.6c0.1,0.1,0.1,0.2,0,0.3c0,0-0.1,0.1-0.1,0c-0.1,0-0.1,0-0.2-0.1
				c-0.2-0.3-0.5-0.4-0.9-0.4c0,0-0.1,0-0.1,0c-0.4,0-0.7,0.2-0.9,0.6c-0.2,0.3-0.2,0.6-0.2,1.1c0,0.7,0.2,1.4,0.5,2
				c0.1,0.2,0.3,0.5,0.5,0.6c0.1,0.1,0.2,0.1,0.4,0.1c0.1,0,0.2,0,0.3-0.1c0.1-0.1,0.2-0.2,0.2-0.3c0.1-0.2,0.1-0.4,0-0.6
				c-0.1-0.2-0.2-0.3-0.4-0.3c0,0,0,0-0.1,0c-0.1,0-0.1,0.1-0.2,0.1c0,0.1,0,0.1,0,0.2c0,0.1,0,0.2-0.1,0.3c0,0,0,0-0.1,0
				c-0.1,0-0.2-0.1-0.2-0.2c0-0.2,0-0.4,0.1-0.5c0.1-0.2,0.3-0.3,0.5-0.3c0,0,0.1,0,0.1,0c0.3,0,0.6,0.2,0.8,0.5
				c0.1,0.3,0.2,0.6,0,1c-0.1,0.2-0.2,0.4-0.4,0.5C250.3,205.1,250.2,205.2,250,205.1z"/>
			<path class="st11" d="M283.6,205.5c0.2,0,0.4-0.1,0.6-0.2c0.3-0.2,0.5-0.5,0.7-0.8c0.4-0.7,0.6-1.4,0.6-2.2c0-0.6,0-1-0.2-1.4
				c-0.3-0.4-0.7-0.7-1.2-0.8c0,0-0.1,0-0.1,0c-0.5,0-0.9,0.2-1.2,0.6c-0.1,0.1-0.1,0.2,0,0.3c0,0,0.1,0.1,0.1,0.1
				c0.1,0,0.1,0,0.2-0.1c0.2-0.3,0.5-0.4,0.9-0.4c0,0,0.1,0,0.1,0c0.4,0,0.7,0.3,0.9,0.6c0.2,0.3,0.2,0.6,0.2,1.1
				c0,0.7-0.3,1.4-0.6,2c-0.1,0.2-0.3,0.5-0.5,0.6c-0.1,0.1-0.2,0.1-0.4,0.1c-0.1,0-0.2,0-0.3-0.1c-0.1-0.1-0.2-0.2-0.2-0.3
				c-0.1-0.2-0.1-0.4,0-0.6c0.1-0.1,0.2-0.2,0.4-0.2c0,0,0,0,0.1,0c0.1,0,0.1,0.1,0.2,0.1c0,0.1,0,0.1,0,0.2c0,0.1,0,0.2,0.1,0.3
				c0,0,0,0,0.1,0c0.1,0,0.2-0.1,0.2-0.2c0.1-0.2,0-0.4-0.1-0.5c-0.1-0.2-0.3-0.3-0.5-0.3c0,0-0.1,0-0.1,0c-0.3,0-0.6,0.2-0.8,0.5
				c-0.1,0.3-0.2,0.6-0.1,1c0.1,0.2,0.2,0.4,0.4,0.5C283.2,205.5,283.4,205.5,283.6,205.5z"/>
			<g>
				<path class="st9" d="M281.7,199.9C281.7,199.9,281.7,199.9,281.7,199.9L281.7,199.9C281.7,199.9,281.7,199.9,281.7,199.9z"/>
				<path class="st9" d="M287.1,183.2c-0.5-0.6-1.2-1-1.9-1.5c-2.5-1.9-4.7-4-6.9-6.2c-1.2-1.2-2.2-2.3-3.7-3.2
					c-1.4-0.9-2.9-1.6-4.6-2c-2.4-0.7-5.1-0.8-7.4,0c-0.1,0-0.2,0.1-0.2,0.1c-0.2,0-0.4,0.1-0.5,0.1c-1.4,0.4-2.8,1.3-3.6,2.6
					c-0.5,0.9-0.9,2-1.6,2.6c-0.9,0.5-2.1,0-3.2,0.2c-1.3,0.2-2.2,1.3-3,2.3c-0.3,0.4-0.7,0.9-1,1.3c-0.7,0.8-1.3,1.7-1.7,2.6
					c-0.5,1.3-0.5,2.7-0.3,4.1c0.2,1.4,0.7,2.7,1.1,4c0.3,1.1,0.6,2.1,0.8,3.2c0.1,1.6,0.1,3.2,0.3,4.8c0.2,0,0.5,0,0.7,0.1
					c0,0,0,0,0,0c0.4,0.1,0.8,0.4,1.1,0.7c0.2,0.2,0.3,0.4,0.4,0.6l0-0.2l0,0c0.6-2.4,1.3-4.8,1.9-7.1c0.4-1.6,0.9-3.3,1.7-4.7
					c1.4-2.5,4.2-4.4,7.1-4.5c1,0,2,0.1,2.9-0.1c0.7-0.2,1.4-0.6,2.1-0.9c0.9-0.3,1.8-0.3,2.7-0.2c1.7,0.2,3.3,0.7,4.7,1.7
					c2.4,1.7,3.8,4.5,4.6,7.4c0.8,2.6,1.1,5.4,2,8l0.1,0.9c0.2-0.3,0.4-0.5,0.6-0.7c0.5-0.4,1.1-0.6,1.8-0.6c0,0,0,0,0.1,0
					c0.2-1.9,0.3-3.7,0.5-5.6c0.1-1.2,0.2-2.4,0.7-3.5c0.8-1.5,2.1-2.9,2.2-4.6C287.6,184.1,287.4,183.6,287.1,183.2z"/>
			</g>
			<ellipse class="st9" cx="274.8" cy="200.5" rx="1" ry="1.6"/>
			<path class="st9" d="M277.3,195.7c0.1,0,0.2-0.1,0.2-0.2c0,0,0-0.1,0-0.1c-0.4-0.6-1.2-0.7-1.9-0.7c-0.8,0-1.6,0.1-2.4,0.2
				c-0.6,0.1-1.3,0.3-1.6,0.8c-0.2,0.3-0.3,0.7-0.3,1c0,0.1,0,0.2,0,0.3c0.1,0.1,0.2,0.2,0.4,0.2c0.3,0,0.7-0.3,1-0.4
				c0.5-0.2,1-0.3,1.5-0.4C275.3,196.1,276.3,195.9,277.3,195.7z"/>
			<ellipse class="st9" cx="261.5" cy="200.5" rx="1" ry="1.6"/>
			<path class="st9" d="M256.2,195.7c-0.1,0-0.2-0.1-0.2-0.2c0,0,0-0.1,0-0.1c0.4-0.6,1.2-0.7,1.9-0.7c0.8,0,1.6,0.1,2.4,0.2
				c0.6,0.1,1.3,0.3,1.6,0.8c0.2,0.3,0.3,0.7,0.3,1c0,0.1,0,0.2,0,0.3c-0.1,0.1-0.2,0.2-0.4,0.2c-0.3,0-0.7-0.3-1-0.4
				c-0.5-0.2-1-0.3-1.5-0.4C258.3,196.1,257.2,195.9,256.2,195.7z"/>
			<path class="st12" d="M270.5,213c0.2,0,0.3-0.1,0.5-0.1c0.2,0.1,0.4,0.3,0.4,0.6s-0.1,0.5-0.2,0.7c-0.4,0.7-1.1,1.1-1.8,1.5
				c-1.6,0.7-3.4,0.8-5.1,0.4c-0.4-0.1-1.6-0.5-1.5-1.1c0-0.5,1.7-0.6,2.2-0.7C266.9,213.9,268.7,213.5,270.5,213z"/>
		</g>
		<path class="st2" d="M219.2,215.4c-3.4-1.7-7.9-6.9-7.9-6.9s-10.3-13-10.4-13c-0.2-0.3-0.5-0.7-0.7-1.1c-0.4-0.8-0.1-1.7-0.2-2.6
			c0-1.1-0.3-2.2-0.9-3.1c0-0.1-0.1-0.1-0.2-0.1c0,0,0,0-0.1,0c-0.1-0.2-0.2-0.4-0.3-0.5c-0.1-0.1-0.2-0.2-0.3-0.4
			c0,0.1,0,0.2,0,0.3c0,0.7-0.5,1.2-1.1,1.4c-0.2,0.1-0.5,0.1-0.6,0.3c-0.2,0.2-0.1,0.6-0.2,0.9c-0.1,0.6-0.6,0.9-1.1,1.1
			c-0.1,0-0.2,0.1-0.3,0.2c-0.1,0.1-0.1,0.3-0.1,0.5c0,0.7-0.4,1.3-0.9,1.5c-0.1,0-0.1,0.1-0.2,0.1c-0.1,0.1-0.1,0.3,0,0.5
			c0.1,0.5-0.1,1-0.5,1.3c-0.5,0.1-1,0.1-1.6,0.1c-0.1,0-0.2-0.1-0.2-0.1c-1-0.4-2-1-3-1.6c-0.2-0.1-0.3-0.2-0.5-0.4
			c0,0,3,4.1,5.3,3.9c0,0,1.7,0.9,2.7,0.9c0,0,0.7-0.1,1.4,0.1l7.8,12.4l2.8,4.2c2.4,3.6,6.3,6.5,6.3,6.5l5.1,2.9l6.5,3.9
			c1.3-3.4,3.5-6.1,4.6-7.3l-1.7-1L219.2,215.4z"/>
		<path class="st3" d="M200.4,195.1c0.1,0.2,0.2,0.3,0.3,0.5c0,0.1,0,0.1,0,0.2c0,0-0.1,0-0.2,0c-0.5-0.2-0.8-0.6-1-1.1
			c-0.2-0.5-0.2-1-0.1-1.5c0.1-0.5,0.3-0.9,0.5-1.3c0-0.1,0.1-0.2,0.2-0.1c0,0,0.1,0.1,0.1,0.1c0,0.5-0.1,1-0.1,1.5
			C199.9,194,200.1,194.6,200.4,195.1z"/>
		<path class="st3" d="M196.5,196.9c-0.3-0.1-0.7-0.4-1.1-0.5l-0.3,2.2c0.4,0.1,0.8,0.2,1.1,0.2c0,0,0.7-0.1,1.4,0.1l4,6.4
			c0.1-0.3,0.1-0.6,0.1-0.8c-0.1-0.6-0.4-1.2-0.7-1.7c-0.3-0.6-0.6-1.2-1-1.8c-0.4-0.8-0.9-1.6-1.3-2.4c-0.2-0.3-0.3-0.6-0.5-0.8
			C197.7,197.3,197,197.1,196.5,196.9z"/>
		<path class="st3" d="M224.5,227.8l1.6,1c1.3-3.4,3.5-6.1,4.6-7.3l-1.7-1C227.9,221.8,225.8,224.5,224.5,227.8z"/>
		<path class="st10" d="M288.1,239.5c-1-2.8-1-0.6-1-0.6s-0.5,8.7-0.5,8.7c0,0.2,0,0.3,0,0.4c0,0-0.2,4.1-0.4,7.2
			c-0.3,1.1-0.4,2.5-0.6,3.4c-0.5,2.1-1.1,4.2-1.9,6.2c-1.3,3.3-3.1,6.3-5.7,8.8c-1.6,1.6-3.4,3.2-5.6,4c0,0-0.6,0.4,0.8,0.6
			c0,0,3.3,0.2,6.2-0.5c0,0,1.1-0.3,1.1,0.3c0,0,0,0.8-1.3,1.7c-0.5,0.3-0.9,0.6-1.4,0.8c-4.3,2.2-9.1,3.6-13.9,3.9l-9.6-0.6
			l-0.6-5.2c0,0-1.4-17.5-1.4-17.5c-0.4-4.5-0.8-9-1.2-13.5c0-0.3-0.1-0.6-0.2-0.9c-0.3-0.7-1.1-1.1-1.7-1.6
			c-0.8-0.7-1.5-1.4-2.3-2.1c-1.5-1.4-3.1-2.7-4.8-3.7c-1.2-0.7-2.5-1.4-3.7-2.1c-3-1.7-6.1-3.5-9.1-5.2c-0.2-0.1-3.5-1.9-3.5-2
			c-0.2,0.7-0.4,1.5-0.6,2.3l18,9.8c0,0,2.3,2.6,5.4,6.1l2.3,13l0,0c0,0,0,0,0,0l0,0.1l0.2,17.2l0,0.3l-0.2,6.9l0.3,1.3
			c0,0,19.2-1,19.2-1l19.2-1l0.2-1.3l-0.9-6.9c0,0,0-0.3,0-0.3l-1.6-17.3l0.8-9.8c0-0.1,0-0.2,0-0.3l0.2-1.1c0-0.9,0.1-2.3,0.2-4
			c0.1-1.7,0.4,0,0.4,0l2,9.3c0.5,0,1.1,0,1.6,0C291.1,248.6,289.9,244,288.1,239.5z"/>
		<polygon class="st9" points="291.6,302.5 291.5,301.7 289.6,284.9 271.5,285.9 270.4,286 270.4,286 269.3,286 251.2,287 
			251,302.5 		"/>
		<path class="st8" d="M257.9,248.9c1.5,2.2,3,4.5,4.8,6.4c3.9,4.3,9.2,7.3,14.6,9.4c0.8,0.3,1.7,0.9,1.5,1.7
			c-0.2,0.7-1.1,0.9-1.8,0.9c-5.7,0-11.5-2.5-15.3-6.7c-2.2-2.4-3.8-5.4-5.3-8.3c-1.9-3.6-3.9-7.3-4.7-11.4
			c-0.1-0.3-0.2-1.2,0.1-1.4c0.6-0.3,2.1,3.5,2.4,3.9C255.4,245.3,256.7,247.1,257.9,248.9z"/>
		<path class="st9" d="M191,199.5c-0.3,0-0.6,0-1-0.1c-2.5-0.4-4.2-2.4-4.2-5.2c0-0.7,0.6-1.3,1.3-1.3s1.3,0.6,1.3,1.3
			c0,0.9,0.3,2.4,2,2.7c1.3,0.2,1.7-0.2,1.8-0.3c1-0.9,0.9-3.3,0.9-5.2c0-0.4,0-0.8,0-1.1v-3.8c0-0.7,0.6-1.3,1.3-1.3
			c0.7,0,1.3,0.6,1.3,1.3v3.8c0,0.3,0,0.7,0,1.1c0.1,2.4,0.1,5.5-1.7,7.1C193.1,199.2,192.1,199.5,191,199.5z"/>
		<polygon class="st9" points="193.5,114.2 193.5,157.2 193.5,164 193.5,192.7 195.1,192.7 195.1,164 195.1,157.2 195.1,114.2 		"/>
		<g>
			<g>
				<path class="st12" d="M194.3,104.5c66.3-0.7,87.7,45.1,87.7,45.1c-17.5-9.1-39.2-8.8-39.2-8.8S238.9,104.5,194.3,104.5z"/>
				<path class="st9" d="M195.3,104.5c0.3,0,0.6,0,0.9,0l2,0.1c0.7,0,1.3,0.1,2,0.1c0.7,0,1.3,0.1,2,0.2l2,0.2l1,0.1
					c0.3,0,0.7,0.1,1,0.1c1.3,0.2,2.6,0.4,3.9,0.7l1,0.2l1,0.2l0.5,0.1c0.2,0,0.3,0.1,0.5,0.1l1,0.3c1.3,0.4,2.5,0.8,3.8,1.3
					c0.6,0.2,1.2,0.5,1.9,0.8c0.3,0.1,0.6,0.3,0.9,0.4l0.5,0.2l0.5,0.2c1.2,0.6,2.4,1.3,3.6,2c2.3,1.5,4.5,3.2,6.6,5.2
					c1,1,2,2.1,2.9,3.2c0.9,1.1,1.8,2.3,2.6,3.5c1.6,2.5,3,5.1,4.1,7.9c0.6,1.4,1,2.9,1.4,4.3c0.2,0.7,0.4,1.5,0.6,2.2
					c0.1,0.4,0.2,0.8,0.2,1.1c0,0.2,0.1,0.4,0.1,0.6c0,0.2,0.1,0.4,0.1,0.6l-0.6-0.6c0.9,0,1.7,0,2.5,0.1c0.8,0,1.7,0.1,2.5,0.1
					c1.7,0.1,3.4,0.3,5,0.5c1.7,0.2,3.3,0.4,5,0.7c0.8,0.1,1.7,0.3,2.5,0.4c0.8,0.2,1.7,0.3,2.5,0.5c1.7,0.4,3.3,0.8,4.9,1.2
					c0.8,0.2,1.6,0.5,2.4,0.7l1.2,0.4c0.2,0.1,0.4,0.1,0.6,0.2l0.6,0.2c1.6,0.6,3.2,1.2,4.8,1.9l1.2,0.5c0.4,0.2,0.8,0.4,1.2,0.6
					l0.6,0.3c0.2,0.1,0.4,0.2,0.6,0.3l1.2,0.6l-0.4,0.5c-0.2-0.5-0.5-1-0.8-1.5c-0.3-0.5-0.6-1-0.9-1.5c-0.6-1-1.2-2-1.8-2.9
					c-1.3-1.9-2.6-3.7-4.1-5.5c-1.4-1.8-2.9-3.4-4.5-5c-1.6-1.6-3.2-3.1-4.8-4.6c-3.3-2.9-6.8-5.5-10.5-7.8
					c-1.8-1.1-3.7-2.2-5.6-3.2c-1.9-1-3.8-1.9-5.7-2.8c-1.9-0.9-3.9-1.7-5.8-2.5l-1.5-0.6l-1.5-0.5c-0.2-0.1-0.5-0.2-0.7-0.3
					l-0.7-0.3c-0.5-0.2-1-0.3-1.5-0.5c-4-1.3-8-2.4-12.1-3.2c-1-0.2-2-0.4-3.1-0.6l-1.5-0.3l-1.5-0.2c-0.5-0.1-1-0.2-1.5-0.2
					l-1.6-0.2l-0.8-0.1c-0.3,0-0.5-0.1-0.8-0.1l-1.6-0.2c-1-0.1-2.1-0.2-3.1-0.3c-0.5,0-1-0.1-1.6-0.1l-1.6-0.1
					c-1,0-2.1-0.1-3.1-0.1c-0.5,0-1,0-1.5,0c-0.5,0-1,0-1.5,0C194.7,104.5,195,104.5,195.3,104.5z M195.8,104.5c0.5,0,1.1,0,1.6,0
					l3.1,0.1c1,0,2.1,0.1,3.1,0.1l1.6,0.1c0.5,0,1,0,1.6,0.1l1.6,0.1c0.3,0,0.5,0,0.8,0.1l0.8,0.1l1.6,0.1c0.5,0,1,0.1,1.6,0.2
					l1.6,0.2l1.6,0.2c1,0.1,2.1,0.3,3.1,0.5c0.5,0.1,1,0.2,1.5,0.3c0.5,0.1,1,0.2,1.5,0.3l1.5,0.3l0.8,0.2l0.8,0.2l1.5,0.4
					c0.5,0.1,1,0.3,1.5,0.4c0.5,0.1,1,0.3,1.5,0.4l1.5,0.5c2,0.6,4,1.3,6,2.1c0.2,0.1,0.5,0.2,0.7,0.3l0.7,0.3
					c0.5,0.2,1,0.4,1.5,0.6l1.5,0.7c0.5,0.2,1,0.5,1.5,0.7c7.8,3.7,15.1,8.6,21.7,14.5c1.7,1.5,3.3,3,4.8,4.6c1.6,1.6,3.1,3.3,4.5,5
					c0.7,0.9,1.4,1.8,2.1,2.7c0.7,0.9,1.4,1.8,2,2.8c0.7,0.9,1.3,1.9,1.9,2.9c0.3,0.5,0.6,1,0.9,1.5c0.3,0.5,0.6,1,0.8,1.6l0.4,0.9
					l-0.8-0.4c-3.1-1.5-6.2-2.8-9.4-3.8l-0.6-0.2l-0.6-0.2l-1.2-0.4c-0.8-0.2-1.6-0.5-2.4-0.7c-0.8-0.2-1.6-0.4-2.4-0.6
					c-0.8-0.2-1.6-0.4-2.5-0.5c-0.8-0.2-1.6-0.3-2.5-0.5c-0.8-0.1-1.6-0.3-2.5-0.4c-1.7-0.3-3.3-0.5-5-0.6c-1.7-0.2-3.3-0.3-5-0.4
					c-0.8-0.1-1.7-0.1-2.5-0.1c-0.8,0-1.7,0-2.5,0l-0.5,0l-0.1-0.6c0-0.2,0-0.3-0.1-0.5c0-0.2-0.1-0.4-0.1-0.5
					c-0.1-0.4-0.1-0.7-0.2-1.1c-0.2-0.7-0.3-1.4-0.5-2.1c-0.4-1.4-0.9-2.8-1.4-4.2c-0.3-0.7-0.6-1.4-0.8-2c-0.3-0.7-0.6-1.3-0.9-2
					c-0.7-1.3-1.4-2.5-2.1-3.7c-1.5-2.4-3.3-4.6-5.3-6.6c-1-1-2-1.9-3-2.8c-0.5-0.4-1.1-0.9-1.6-1.3l-0.8-0.6
					c-0.3-0.2-0.6-0.4-0.8-0.6c-0.1-0.1-0.3-0.2-0.4-0.3l-0.4-0.3c-0.3-0.2-0.6-0.4-0.9-0.5l-0.9-0.5c-0.3-0.2-0.6-0.3-0.9-0.5
					l-0.4-0.2l-0.4-0.2c-0.3-0.2-0.6-0.3-0.9-0.5c-0.6-0.3-1.2-0.6-1.8-0.8c-1.2-0.5-2.5-1-3.7-1.5l-0.9-0.3
					c-0.2-0.1-0.3-0.1-0.5-0.2l-0.5-0.1l-0.9-0.3l-1-0.3c-2.5-0.7-5.1-1.1-7.7-1.4c-0.7-0.1-1.3-0.1-2-0.2c-0.7,0-1.3-0.1-2-0.1
					c-0.7,0-1.3-0.1-2-0.1c-0.3,0-0.7,0-1,0c-0.3,0-0.7,0-1-0.1C194.8,104.5,195.3,104.5,195.8,104.5z"/>
				<path class="st13" d="M154.3,120.4c-0.9,1.1-1.8,2.3-2.6,3.5c-1.6,2.5-3,5.1-4.1,7.9c-0.6,1.4-1,2.9-1.4,4.3
					c-0.2,0.7-0.4,1.5-0.6,2.2c-0.1,0.4-0.2,0.8-0.2,1.1c0,0.2-0.1,0.4-0.1,0.6c0,0,0,0,0,0c-0.7,0-1.4,0-2,0.1
					c-0.8,0-1.7,0.1-2.5,0.1c-1.7,0.1-3.4,0.3-5,0.5c-1.7,0.2-3.3,0.4-5,0.7c-0.8,0.1-1.7,0.3-2.5,0.4c-0.8,0.2-1.7,0.3-2.5,0.5
					c-1.7,0.4-3.3,0.8-4.9,1.2c-0.8,0.2-1.6,0.5-2.4,0.7l-1.2,0.4c-0.2,0.1-0.4,0.1-0.6,0.2l-0.6,0.2c-1.6,0.6-3.2,1.2-4.8,1.9
					l-1.2,0.5c-0.4,0.2-0.8,0.4-1.2,0.6l-0.6,0.3c-0.2,0.1-0.4,0.2-0.6,0.3l-0.3,0.2c0.1-0.2,0.2-0.4,0.4-0.7c0.3-0.5,0.6-1,0.9-1.5
					c0.6-1,1.2-2,1.8-2.9c1.3-1.9,2.6-3.7,4.1-5.5c1.4-1.8,2.9-3.4,4.5-5c1.6-1.6,3.2-3.1,4.8-4.6c3.3-2.9,6.8-5.5,10.5-7.8
					c1.8-1.1,3.7-2.2,5.6-3.2c1.9-1,3.8-1.9,5.7-2.8c1.9-0.9,3.9-1.7,5.8-2.5l1.5-0.6l1.5-0.5c0.2-0.1,0.5-0.2,0.7-0.3l0.7-0.3
					c0.5-0.2,1-0.3,1.5-0.5c4-1.3,8-2.4,12.1-3.2c1-0.2,2-0.4,3.1-0.6l1.5-0.3l1.5-0.2c0.5-0.1,1-0.2,1.5-0.2l1.6-0.2l0.8-0.1
					c0.3,0,0.5-0.1,0.8-0.1l0.3,0c-0.7,0.1-1.3,0.3-2,0.4l-1,0.2l-1,0.3l-0.5,0.1c-0.2,0-0.3,0.1-0.5,0.1l-1,0.3
					c-1.3,0.4-2.5,0.9-3.8,1.4c-0.6,0.3-1.2,0.5-1.9,0.8c-0.3,0.1-0.6,0.3-0.9,0.4l-0.5,0.2l-0.5,0.2c-1,0.5-2,1.1-3,1.7
					c-0.2,0.1-0.4,0.2-0.6,0.4c-2.3,1.5-4.5,3.2-6.6,5.2C156.2,118.2,155.2,119.3,154.3,120.4z"/>
				<path class="st14" d="M220.8,109.7l-0.5-0.2c-0.3-0.1-0.6-0.3-0.9-0.4c-0.6-0.3-1.2-0.5-1.9-0.8c-1.2-0.5-2.5-0.9-3.8-1.3
					l-1-0.3c-0.2,0-0.3-0.1-0.5-0.1l-0.5-0.1l-1-0.2l-0.4-0.1c-0.2,0-0.4-0.1-0.6-0.1c-1.8-0.4-3.5-0.8-5.3-1.1
					c0.7,0.1,1.4,0.1,2.1,0.2l1.6,0.2c0.3,0,0.5,0.1,0.8,0.1l0.8,0.1l1.6,0.2c0.5,0.1,1,0.2,1.5,0.2l1.5,0.2l1.5,0.3
					c1,0.2,2.1,0.4,3.1,0.6c4.1,0.8,8.1,1.9,12.1,3.2c0.5,0.2,1,0.3,1.5,0.5l0.7,0.3c0.2,0.1,0.5,0.2,0.7,0.3l1.5,0.5l1.5,0.6
					c2,0.8,3.9,1.6,5.8,2.5c1.9,0.9,3.8,1.8,5.7,2.8c1.9,1,3.7,2.1,5.6,3.2c3.7,2.3,7.2,4.9,10.5,7.8c1.7,1.5,3.3,3,4.8,4.6
					c1.5,1.6,3,3.3,4.5,5c1.4,1.8,2.8,3.6,4.1,5.5c0.6,1,1.3,1.9,1.8,2.9c0.3,0.5,0.6,1,0.9,1.5c0.1,0.2,0.2,0.4,0.4,0.7l-0.3-0.2
					c-0.2-0.1-0.4-0.2-0.6-0.3l-0.6-0.3c-0.4-0.2-0.8-0.4-1.2-0.6l-1.2-0.5c-1.6-0.7-3.2-1.3-4.8-1.9L272,145
					c-0.2-0.1-0.4-0.1-0.6-0.2l-1.2-0.4c-0.8-0.2-1.6-0.5-2.4-0.7c-1.6-0.5-3.3-0.9-4.9-1.2c-0.8-0.2-1.7-0.3-2.5-0.5
					c-0.8-0.2-1.7-0.3-2.5-0.4c-1.7-0.3-3.3-0.5-5-0.7c-1.7-0.2-3.3-0.4-5-0.5c-0.8-0.1-1.7-0.1-2.5-0.1c-0.7,0-1.3,0-2-0.1
					c0,0,0,0,0,0c0-0.2-0.1-0.4-0.1-0.6c-0.1-0.4-0.1-0.8-0.2-1.1c-0.2-0.8-0.3-1.5-0.6-2.2c-0.4-1.5-0.9-2.9-1.4-4.3
					c-1.1-2.8-2.5-5.5-4.1-7.9c-0.8-1.2-1.7-2.4-2.6-3.5c-0.9-1.1-1.9-2.2-2.9-3.2c-2-2-4.2-3.7-6.6-5.2c-1.2-0.7-2.3-1.4-3.6-2
					L220.8,109.7z"/>
				<path class="st15" d="M230.8,138.4c-4-0.5-8.1-0.9-12.1-1.3c-8.1-0.7-16.2-1-24.3-1c-4.1,0-8.1,0.1-12.2,0.3
					c-2,0.1-4.1,0.2-6.1,0.4l-1.5,0.1c-0.5,0-1,0.1-1.5,0.1l-3,0.3c-1,0.1-2,0.2-3,0.3l-1.5,0.2c-0.5,0.1-1,0.1-1.5,0.2
					c-2,0.3-4,0.5-6,0.8l-1.5,0.2c-0.5,0.1-1,0.1-1.5,0.2l-3,0.5l-0.8,0.1c-0.2,0-0.5,0.1-0.7,0.1l-1.5,0.3
					c-0.8,0.2-1.6,0.3-2.4,0.5c0-0.1,0-0.2,0-0.3c0-0.2,0.1-0.4,0.1-0.5c0.1-0.4,0.1-0.7,0.2-1.1c0.2-0.7,0.3-1.4,0.5-2.1
					c0.4-1.4,0.9-2.8,1.4-4.2c0.3-0.7,0.6-1.4,0.8-2c0.3-0.7,0.6-1.3,0.9-2c0.7-1.3,1.4-2.5,2.1-3.7c1.5-2.4,3.3-4.6,5.3-6.6
					c1-1,2-1.9,3-2.8c0.5-0.4,1.1-0.9,1.6-1.3l0.8-0.6c0.3-0.2,0.6-0.4,0.8-0.6c0.1-0.1,0.2-0.1,0.3-0.2c1-0.7,2.1-1.3,3.2-1.8
					l0.4-0.2l0.4-0.2c0.3-0.1,0.6-0.3,0.9-0.4c0.6-0.3,1.2-0.6,1.8-0.8c1.2-0.5,2.5-0.9,3.7-1.4c0.6-0.2,1.3-0.4,1.9-0.6l0.9-0.3
					l1-0.2c1.3-0.3,2.6-0.6,3.8-0.8c0.6-0.1,1.3-0.2,1.9-0.3l1.9-0.3l1.9-0.2c0.6,0,1.3-0.1,1.9-0.1l2-0.1l2-0.1
					c2.6,0,5.2,0.1,7.8,0.3c0.6,0.1,1.3,0.1,1.9,0.2c0.6,0.1,1.3,0.2,1.9,0.3c1.3,0.2,2.6,0.4,3.9,0.7l0.7,0.2l0.3,0.1l0.9,0.3
					l0.5,0.1c0.2,0,0.3,0.1,0.5,0.2l0.9,0.3c1.2,0.4,2.5,0.9,3.7,1.5c0.6,0.3,1.2,0.6,1.8,0.8c0.3,0.1,0.6,0.3,0.9,0.5l0.4,0.2
					l0.4,0.2c0.3,0.2,0.6,0.3,0.9,0.5l0.9,0.5c0.3,0.2,0.6,0.4,0.9,0.5l0.4,0.3c0.1,0.1,0.3,0.2,0.4,0.3c0.3,0.2,0.6,0.4,0.8,0.6
					l0.8,0.6c0.5,0.4,1.1,0.8,1.6,1.3c1.1,0.9,2.1,1.8,3,2.8c1.9,2,3.7,4.2,5.3,6.6c0.8,1.2,1.5,2.4,2.1,3.7c0.3,0.6,0.6,1.3,0.9,2
					c0.3,0.7,0.6,1.3,0.8,2c0.5,1.4,1,2.8,1.4,4.2c0.2,0.7,0.4,1.4,0.5,2.1c0.1,0.4,0.2,0.7,0.2,1.1c0,0.1,0,0.2,0.1,0.3
					c-1.8-0.3-3.5-0.6-5.3-0.9C234.8,139,232.8,138.7,230.8,138.4z"/>
				<path class="st12" d="M116.5,141.6c0.6-1,1.3-1.9,2-2.9c0.7-0.9,1.4-1.8,2.1-2.7c1.5-1.8,3-3.4,4.6-5c0.4-0.4,0.8-0.8,1.2-1.2
					c0.4-0.4,0.8-0.8,1.2-1.1c0.4-0.4,0.8-0.7,1.3-1.1c0.2-0.2,0.4-0.4,0.6-0.5l0.7-0.5c1.7-1.4,3.5-2.7,5.3-3.9
					c0.2-0.2,0.5-0.3,0.7-0.5l0.7-0.5l0.7-0.5l0.7-0.4l0.7-0.4c0.2-0.1,0.5-0.3,0.7-0.4l1.4-0.8c0.2-0.1,0.5-0.3,0.7-0.4l0.7-0.4
					l0.7-0.4c0.2-0.1,0.5-0.3,0.7-0.4l1.4-0.7l1.5-0.7l0.7-0.3l0.7-0.3c0.5-0.2,1-0.4,1.5-0.6l1.5-0.6c0.2-0.1,0.5-0.2,0.7-0.3
					l0.7-0.3c2-0.8,4-1.3,6.1-1.9l0,0.2l-1.5,0.5l-0.7,0.3c-0.2,0.1-0.5,0.2-0.7,0.3l-1.5,0.6c-0.5,0.2-1,0.4-1.5,0.6l-0.7,0.3
					c-0.2,0.1-0.5,0.2-0.7,0.3l-1.4,0.7c-0.5,0.2-0.9,0.5-1.4,0.7l-0.7,0.4l-0.7,0.4l-1.4,0.8l-1.4,0.8c-0.2,0.1-0.5,0.3-0.7,0.4
					l-0.7,0.4l-0.7,0.4c-0.2,0.1-0.5,0.3-0.7,0.4l-1.4,0.9c-0.2,0.1-0.4,0.3-0.7,0.5l-0.7,0.5l-0.7,0.5l-0.7,0.5l-0.7,0.5
					c-0.2,0.2-0.4,0.3-0.7,0.5l-1.3,1c-0.4,0.3-0.8,0.7-1.3,1c-0.4,0.3-0.8,0.7-1.3,1.1l-0.6,0.5c-0.2,0.2-0.4,0.4-0.6,0.5
					c-0.8,0.7-1.6,1.5-2.5,2.2l-2.5,2.2c-1.6,1.5-3.3,3-4.9,4.5c-1.6,1.5-3.2,3.1-4.8,4.6L116.5,141.6z"/>
				<path class="st12" d="M151.8,135.6c0-0.4,0.1-0.8,0.2-1.2c0.1-0.4,0.2-0.8,0.3-1.1c0.2-0.8,0.4-1.5,0.7-2.2
					c0.5-1.5,1.1-2.9,1.8-4.2c0.7-1.4,1.5-2.6,2.4-3.8l0.3-0.4c0.1-0.1,0.2-0.3,0.3-0.4l0.3-0.4c0.1-0.1,0.2-0.3,0.4-0.4l0.7-0.8
					l0.7-0.8c0.2-0.3,0.5-0.5,0.7-0.8l0.4-0.4c0.1-0.1,0.3-0.3,0.4-0.4c0.3-0.3,0.5-0.5,0.8-0.8l0.8-0.7l0.2-0.2l0.2-0.2l0.4-0.3
					l0.4-0.3c0.1-0.1,0.3-0.2,0.4-0.3l0.9-0.6l0.9-0.6c0.1-0.1,0.3-0.2,0.4-0.3l0.4-0.3l0.4-0.3l0.2-0.1c0.1,0,0.1-0.1,0.2-0.1
					l0.9-0.5c0.2-0.1,0.3-0.2,0.5-0.2l0.5-0.2c1.2-0.6,2.5-1,3.8-1.4l0,0.2l-0.9,0.4l-0.5,0.2c-0.2,0.1-0.3,0.2-0.5,0.2l-0.9,0.5
					l-0.1,0.1l-0.1,0.1l-0.2,0.1l-0.4,0.3c-0.6,0.3-1.2,0.7-1.7,1.1c-0.1,0-0.1,0.1-0.2,0.1l-0.2,0.2l-0.4,0.3l-0.4,0.3
					c-0.1,0.1-0.3,0.2-0.4,0.3l-0.8,0.6l-0.8,0.7c-0.1,0.1-0.3,0.2-0.4,0.3l-0.4,0.4l-0.4,0.4l-0.2,0.2l-0.2,0.2l-0.7,0.7
					c-0.2,0.3-0.5,0.5-0.7,0.8c-0.1,0.1-0.2,0.3-0.4,0.4l-0.3,0.4c-0.2,0.3-0.5,0.5-0.7,0.8l-0.7,0.8l-0.6,0.9
					c-0.1,0.1-0.2,0.3-0.3,0.4l-0.3,0.4c-0.1,0.2-0.2,0.3-0.3,0.5l-0.3,0.5c-0.8,1.2-1.5,2.4-2.3,3.7c-1.5,2.5-2.9,5-4.3,7.7
					L151.8,135.6z"/>
				<path class="st12" d="M272.3,141.6c-0.6-1-1.3-1.9-2-2.9c-0.7-0.9-1.4-1.8-2.1-2.7c-1.5-1.8-3-3.4-4.6-5
					c-0.4-0.4-0.8-0.8-1.2-1.2c-0.4-0.4-0.8-0.8-1.2-1.1c-0.4-0.4-0.8-0.7-1.3-1.1c-0.2-0.2-0.4-0.4-0.6-0.5l-0.7-0.5
					c-1.7-1.4-3.5-2.7-5.3-3.9c-0.2-0.2-0.5-0.3-0.7-0.5l-0.7-0.5l-0.7-0.5l-0.7-0.4l-0.7-0.4c-0.2-0.1-0.5-0.3-0.7-0.4l-1.4-0.8
					c-0.2-0.1-0.5-0.3-0.7-0.4l-0.7-0.4l-0.7-0.4c-0.2-0.1-0.5-0.3-0.7-0.4l-1.4-0.7l-1.5-0.7l-0.7-0.3l-0.7-0.3
					c-0.5-0.2-1-0.4-1.5-0.6l-1.5-0.6c-0.2-0.1-0.5-0.2-0.7-0.3l-0.7-0.3c-2-0.8-4-1.3-6.1-1.9l0,0.2l1.5,0.5l0.7,0.3
					c0.2,0.1,0.5,0.2,0.7,0.3l1.5,0.6c0.5,0.2,1,0.4,1.5,0.6l0.7,0.3c0.2,0.1,0.5,0.2,0.7,0.3l1.4,0.7c0.5,0.2,0.9,0.5,1.4,0.7
					l0.7,0.4l0.7,0.4l1.4,0.8l1.4,0.8c0.2,0.1,0.5,0.3,0.7,0.4l0.7,0.4l0.7,0.4c0.2,0.1,0.5,0.3,0.7,0.4l1.4,0.9
					c0.2,0.1,0.4,0.3,0.7,0.5l0.7,0.5l0.7,0.5l0.7,0.5l0.7,0.5c0.2,0.2,0.4,0.3,0.7,0.5l1.3,1c0.4,0.3,0.8,0.7,1.3,1
					c0.4,0.3,0.8,0.7,1.3,1.1l0.6,0.5c0.2,0.2,0.4,0.4,0.6,0.5c0.8,0.7,1.6,1.5,2.5,2.2l2.5,2.2c1.6,1.5,3.3,3,4.9,4.5
					c1.6,1.5,3.2,3.1,4.8,4.6L272.3,141.6z"/>
				<path class="st12" d="M237,135.6c0-0.4-0.1-0.8-0.2-1.2c-0.1-0.4-0.2-0.8-0.3-1.1c-0.2-0.8-0.4-1.5-0.7-2.2
					c-0.5-1.5-1.1-2.9-1.8-4.2c-0.7-1.4-1.5-2.6-2.4-3.8l-0.3-0.4c-0.1-0.1-0.2-0.3-0.3-0.4l-0.3-0.4c-0.1-0.1-0.2-0.3-0.4-0.4
					l-0.7-0.8l-0.7-0.8c-0.2-0.3-0.5-0.5-0.7-0.8l-0.4-0.4c-0.1-0.1-0.3-0.3-0.4-0.4c-0.3-0.3-0.5-0.5-0.8-0.8l-0.8-0.7l-0.2-0.2
					l-0.2-0.2l-0.4-0.3l-0.4-0.3c-0.1-0.1-0.3-0.2-0.4-0.3l-0.9-0.6l-0.9-0.6c-0.1-0.1-0.3-0.2-0.4-0.3l-0.4-0.3l-0.4-0.3l-0.2-0.1
					c-0.1,0-0.1-0.1-0.2-0.1l-0.9-0.5c-0.2-0.1-0.3-0.2-0.5-0.2l-0.5-0.2c-1.2-0.6-2.5-1-3.8-1.4l0,0.2l0.9,0.4l0.5,0.2
					c0.2,0.1,0.3,0.2,0.5,0.2l0.9,0.5l0.1,0.1l0.1,0.1l0.2,0.1l0.4,0.3c0.6,0.3,1.2,0.7,1.7,1.1c0.1,0,0.1,0.1,0.2,0.1l0.2,0.2
					l0.4,0.3l0.4,0.3c0.1,0.1,0.3,0.2,0.4,0.3l0.8,0.6l0.8,0.7c0.1,0.1,0.3,0.2,0.4,0.3l0.4,0.4l0.4,0.4l0.2,0.2l0.2,0.2l0.7,0.7
					c0.2,0.3,0.5,0.5,0.7,0.8c0.1,0.1,0.2,0.3,0.4,0.4l0.3,0.4c0.2,0.3,0.5,0.5,0.7,0.8l0.7,0.8l0.6,0.9c0.1,0.1,0.2,0.3,0.3,0.4
					l0.3,0.4c0.1,0.2,0.2,0.3,0.3,0.5l0.3,0.5c0.8,1.2,1.5,2.4,2.3,3.7c1.5,2.5,2.9,5,4.3,7.7L237,135.6z"/>
			</g>
			<path class="st9" d="M282.2,149.5c-0.3-0.5-0.5-1.1-0.8-1.6c-0.3-0.5-0.6-1-0.9-1.5c-0.6-1-1.2-2-1.9-2.9c-0.7-0.9-1.3-1.9-2-2.8
				c-0.7-0.9-1.4-1.8-2.1-2.7c-1.4-1.7-3-3.4-4.5-5c-1.6-1.6-3.2-3.2-4.8-4.6c-6.6-5.9-13.9-10.9-21.7-14.5c-0.5-0.2-1-0.5-1.5-0.7
				l-1.5-0.7c-0.5-0.2-1-0.4-1.5-0.6l-0.7-0.3c-0.2-0.1-0.5-0.2-0.7-0.3c-2-0.8-4-1.5-6-2.1l-1.5-0.5c-0.5-0.2-1-0.3-1.5-0.4
				c-0.5-0.1-1-0.3-1.5-0.4l-1.5-0.4l-0.8-0.2l-0.8-0.2l-1.5-0.3c-0.5-0.1-1-0.2-1.5-0.3c-0.5-0.1-1-0.2-1.5-0.3
				c-1-0.2-2.1-0.3-3.1-0.5l-1.6-0.2l-1.6-0.2c-0.5-0.1-1-0.1-1.6-0.2l-1.6-0.1l-0.8-0.1c-0.3,0-0.5,0-0.8-0.1l-1.6-0.1
				c-0.5,0-1-0.1-1.6-0.1l-1.6-0.1c-0.6,0-1.2,0-1.8-0.1c-2.5-0.3-5.1-0.4-7.6-0.5c-3.4,0-6.9,0.1-10.3,0.6l-0.6,0
				c-0.5,0-1,0-1.6,0.1l-1.6,0.1c-0.3,0-0.5,0-0.8,0.1l-0.8,0.1l-1.6,0.1c-0.5,0-1,0.1-1.6,0.2l-1.6,0.2l-1.6,0.2
				c-1,0.1-2.1,0.3-3.1,0.5c-0.5,0.1-1,0.2-1.5,0.3c-0.5,0.1-1,0.2-1.5,0.3l-1.5,0.3l-0.8,0.2l-0.8,0.2l-1.5,0.4
				c-0.5,0.1-1,0.3-1.5,0.4c-0.5,0.1-1,0.3-1.5,0.4l-1.5,0.5c-2,0.6-4,1.3-6,2.1c-0.2,0.1-0.5,0.2-0.7,0.3l-0.7,0.3
				c-0.5,0.2-1,0.4-1.5,0.6l-1.5,0.7c-0.5,0.2-1,0.5-1.5,0.7c-7.8,3.7-15.1,8.6-21.7,14.5c-1.7,1.5-3.3,3-4.8,4.6
				c-1.6,1.6-3.1,3.3-4.5,5c-0.7,0.9-1.4,1.8-2.1,2.7c-0.7,0.9-1.4,1.8-2,2.8c-0.7,0.9-1.3,1.9-1.9,2.9c-0.3,0.5-0.6,1-0.9,1.5
				c-0.3,0.5-0.6,1-0.8,1.6l-0.4,0.9l0.8-0.4c3.1-1.5,6.2-2.8,9.4-3.8l0.6-0.2l0.6-0.2l1.2-0.4c0.8-0.2,1.6-0.5,2.4-0.7
				c0.8-0.2,1.6-0.4,2.4-0.6c0.8-0.2,1.6-0.4,2.5-0.5c0.8-0.2,1.6-0.3,2.5-0.5c0.8-0.1,1.6-0.3,2.5-0.4c1.7-0.3,3.3-0.5,5-0.6
				c1.7-0.2,3.3-0.3,5-0.4c0.8-0.1,1.7-0.1,2.5-0.1c0.8,0,1.7,0,2.5,0l0.5,0l0.1-0.6c0,0,0-0.1,0-0.1l2.4-0.3l1.5-0.2
				c0.3,0,0.5-0.1,0.8-0.1l0.8-0.1l3-0.4c1-0.1,2-0.2,3-0.3c2-0.2,4-0.4,6.1-0.6c0.5-0.1,1-0.1,1.5-0.1l1.5-0.1c1-0.1,2-0.2,3-0.2
				l3-0.2c0.5,0,1-0.1,1.5-0.1l1.5-0.1c2-0.1,4-0.2,6.1-0.2c3.7-0.1,7.4-0.2,11.1-0.1h2l0,0c3.7,0,7.4,0.1,11.1,0.3l3,0.1
				c1,0,2,0.1,3,0.2c1,0,2,0.1,3,0.2c1,0.1,2,0.1,3,0.2c4,0.3,8.1,0.7,12.1,1.2c3.9,0.5,7.7,1,11.6,1.6l0,0.2l0.5,0
				c0.8,0,1.7,0,2.5,0c0.8,0,1.7,0.1,2.5,0.1c1.7,0.1,3.3,0.2,5,0.4c1.7,0.2,3.3,0.4,5,0.6c0.8,0.1,1.7,0.3,2.5,0.4
				c0.8,0.2,1.6,0.3,2.5,0.5c0.8,0.2,1.6,0.3,2.5,0.5c0.8,0.2,1.6,0.4,2.4,0.6c0.8,0.2,1.6,0.4,2.4,0.7l1.2,0.4l0.6,0.2l0.6,0.2
				c3.2,1,6.4,2.3,9.4,3.8l0.8,0.4L282.2,149.5z M146.2,136.2c-0.2,0.7-0.4,1.5-0.6,2.2c-0.1,0.4-0.2,0.8-0.2,1.1
				c0,0.2-0.1,0.4-0.1,0.6c0,0,0,0,0,0c-0.7,0-1.4,0-2,0.1c-0.8,0-1.7,0.1-2.5,0.1c-1.7,0.1-3.4,0.3-5,0.5c-1.7,0.2-3.3,0.4-5,0.7
				c-0.8,0.1-1.7,0.3-2.5,0.4c-0.8,0.2-1.7,0.3-2.5,0.5c-1.7,0.4-3.3,0.8-4.9,1.2c-0.8,0.2-1.6,0.5-2.4,0.7l-1.2,0.4
				c-0.2,0.1-0.4,0.1-0.6,0.2l-0.6,0.2c-1.6,0.6-3.2,1.2-4.8,1.9l-1.2,0.5c-0.4,0.2-0.8,0.4-1.2,0.6l-0.6,0.3
				c-0.2,0.1-0.4,0.2-0.6,0.3l-0.3,0.2c0.1-0.2,0.2-0.4,0.4-0.7c0.3-0.5,0.6-1,0.9-1.5c0.6-1,1.2-2,1.8-2.9c1.3-1.9,2.6-3.7,4.1-5.5
				c1.4-1.8,2.9-3.4,4.5-5c1.6-1.6,3.2-3.1,4.8-4.6c3.3-2.9,6.8-5.5,10.5-7.8c1.8-1.1,3.7-2.2,5.6-3.2c1.9-1,3.8-1.9,5.7-2.8
				c1.9-0.9,3.9-1.7,5.8-2.5l1.5-0.6l1.5-0.5c0.2-0.1,0.5-0.2,0.7-0.3l0.7-0.3c0.5-0.2,1-0.3,1.5-0.5c4-1.3,8-2.4,12.1-3.2
				c1-0.2,2-0.4,3.1-0.6l1.5-0.3l1.5-0.2c0.5-0.1,1-0.2,1.5-0.2l1.6-0.2l0.8-0.1c0.3,0,0.5-0.1,0.8-0.1l0.3,0
				c-0.7,0.1-1.3,0.3-2,0.4l-1,0.2l-1,0.3l-0.5,0.1c-0.2,0-0.3,0.1-0.5,0.1l-1,0.3c-1.3,0.4-2.5,0.9-3.8,1.4
				c-0.6,0.3-1.2,0.5-1.9,0.8c-0.3,0.1-0.6,0.3-0.9,0.4l-0.5,0.2l-0.5,0.2c-1,0.5-2,1.1-3,1.7c-0.2,0.1-0.4,0.2-0.6,0.4
				c-2.3,1.5-4.5,3.2-6.6,5.2c-1,1-2,2.1-2.9,3.2c-0.9,1.1-1.8,2.3-2.6,3.5c-1.6,2.5-3,5.1-4.1,7.9
				C147.1,133.3,146.6,134.7,146.2,136.2z M236.8,139.3c-2-0.3-4-0.6-6-0.8c-4-0.5-8.1-0.9-12.1-1.3c-8.1-0.7-16.2-1-24.3-1
				c-4.1,0-8.1,0.1-12.2,0.3c-2,0.1-4.1,0.2-6.1,0.4l-1.5,0.1c-0.5,0-1,0.1-1.5,0.1l-3,0.3c-1,0.1-2,0.2-3,0.3l-1.5,0.2
				c-0.5,0.1-1,0.1-1.5,0.2c-2,0.3-4,0.5-6,0.8l-1.5,0.2c-0.5,0.1-1,0.1-1.5,0.2l-3,0.5l-0.8,0.1c-0.2,0-0.5,0.1-0.7,0.1l-1.5,0.3
				c-0.8,0.2-1.6,0.3-2.4,0.5c0-0.1,0-0.2,0-0.3c0-0.2,0.1-0.4,0.1-0.5c0.1-0.4,0.1-0.7,0.2-1.1c0.2-0.7,0.3-1.4,0.5-2.1
				c0.4-1.4,0.9-2.8,1.4-4.2c0.3-0.7,0.6-1.4,0.8-2c0.3-0.7,0.6-1.3,0.9-2c0.7-1.3,1.4-2.5,2.1-3.7c1.5-2.4,3.3-4.6,5.3-6.6
				c1-1,2-1.9,3-2.8c0.5-0.4,1.1-0.9,1.6-1.3l0.8-0.6c0.3-0.2,0.6-0.4,0.8-0.6c0.1-0.1,0.2-0.1,0.3-0.2c1-0.7,2.1-1.3,3.2-1.8
				l0.4-0.2l0.4-0.2c0.3-0.1,0.6-0.3,0.9-0.4c0.6-0.3,1.2-0.6,1.8-0.8c1.2-0.5,2.5-0.9,3.7-1.4c0.6-0.2,1.3-0.4,1.9-0.6l0.9-0.3
				l1-0.2c1.3-0.3,2.6-0.6,3.8-0.8c0.6-0.1,1.3-0.2,1.9-0.3l1.9-0.3l1.9-0.2c0.6,0,1.3-0.1,1.9-0.1l2-0.1l2-0.1
				c2.6,0,5.2,0.1,7.8,0.3c0.6,0.1,1.3,0.1,1.9,0.2c0.6,0.1,1.3,0.2,1.9,0.3c1.3,0.2,2.6,0.4,3.9,0.7l0.7,0.2l0.3,0.1l0.9,0.3
				l0.5,0.1c0.2,0,0.3,0.1,0.5,0.2l0.9,0.3c1.2,0.4,2.5,0.9,3.7,1.5c0.6,0.3,1.2,0.6,1.8,0.8c0.3,0.1,0.6,0.3,0.9,0.5l0.4,0.2
				l0.4,0.2c0.3,0.2,0.6,0.3,0.9,0.5l0.9,0.5c0.3,0.2,0.6,0.4,0.9,0.5l0.4,0.3c0.1,0.1,0.3,0.2,0.4,0.3c0.3,0.2,0.6,0.4,0.8,0.6
				l0.8,0.6c0.5,0.4,1.1,0.8,1.6,1.3c1.1,0.9,2.1,1.8,3,2.8c1.9,2,3.7,4.2,5.3,6.6c0.8,1.2,1.5,2.4,2.1,3.7c0.3,0.6,0.6,1.3,0.9,2
				c0.3,0.7,0.6,1.3,0.8,2c0.5,1.4,1,2.8,1.4,4.2c0.2,0.7,0.4,1.4,0.5,2.1c0.1,0.4,0.2,0.7,0.2,1.1c0,0.1,0,0.2,0.1,0.3
				C240.3,139.8,238.6,139.6,236.8,139.3z M280.9,148.7c-0.2-0.1-0.4-0.2-0.6-0.3l-0.6-0.3c-0.4-0.2-0.8-0.4-1.2-0.6l-1.2-0.5
				c-1.6-0.7-3.2-1.3-4.8-1.9L272,145c-0.2-0.1-0.4-0.1-0.6-0.2l-1.2-0.4c-0.8-0.2-1.6-0.5-2.4-0.7c-1.6-0.5-3.3-0.9-4.9-1.2
				c-0.8-0.2-1.7-0.3-2.5-0.5c-0.8-0.2-1.7-0.3-2.5-0.4c-1.7-0.3-3.3-0.5-5-0.7c-1.7-0.2-3.3-0.4-5-0.5c-0.8-0.1-1.7-0.1-2.5-0.1
				c-0.7,0-1.3,0-2-0.1c0,0,0,0,0,0c0-0.2-0.1-0.4-0.1-0.6c-0.1-0.4-0.1-0.8-0.2-1.1c-0.2-0.8-0.3-1.5-0.6-2.2
				c-0.4-1.5-0.9-2.9-1.4-4.3c-1.1-2.8-2.5-5.5-4.1-7.9c-0.8-1.2-1.7-2.4-2.6-3.5c-0.9-1.1-1.9-2.2-2.9-3.2c-2-2-4.2-3.7-6.6-5.2
				c-1.2-0.7-2.3-1.4-3.6-2l-0.5-0.2l-0.5-0.2c-0.3-0.1-0.6-0.3-0.9-0.4c-0.6-0.3-1.2-0.5-1.9-0.8c-1.2-0.5-2.5-0.9-3.8-1.3l-1-0.3
				c-0.2,0-0.3-0.1-0.5-0.1l-0.5-0.1l-1-0.2l-0.4-0.1c-0.2,0-0.4-0.1-0.6-0.1c-1.8-0.4-3.5-0.8-5.3-1.1c0.7,0.1,1.4,0.1,2.1,0.2
				l1.6,0.2c0.3,0,0.5,0.1,0.8,0.1l0.8,0.1l1.6,0.2c0.5,0.1,1,0.2,1.5,0.2l1.5,0.2l1.5,0.3c1,0.2,2.1,0.4,3.1,0.6
				c4.1,0.8,8.1,1.9,12.1,3.2c0.5,0.2,1,0.3,1.5,0.5l0.7,0.3c0.2,0.1,0.5,0.2,0.7,0.3l1.5,0.5l1.5,0.6c2,0.8,3.9,1.6,5.8,2.5
				c1.9,0.9,3.8,1.8,5.7,2.8c1.9,1,3.7,2.1,5.6,3.2c3.7,2.3,7.2,4.9,10.5,7.8c1.7,1.5,3.3,3,4.8,4.6c1.5,1.6,3,3.3,4.5,5
				c1.4,1.8,2.8,3.6,4.1,5.5c0.6,1,1.3,1.9,1.8,2.9c0.3,0.5,0.6,1,0.9,1.5c0.1,0.2,0.2,0.4,0.4,0.7L280.9,148.7z"/>
		</g>
		<g>
			<path class="st2" d="M197.2,186.2c-0.4-0.4-0.9-0.8-1.3-1.2c-0.6-0.5-1.1-1-1.8-1.3c-0.6-0.3-1.4-0.5-2-0.2
				c-0.4,0.3-0.9,0.6-1.1,1l0,0c0,0,0,0,0,0c0,0.1-0.1,0.1-0.1,0.2c-0.1,0.2-0.2,0.2-0.2,0.2c-1.6,0.6-1.6,2-1.6,2
				c0,0.2,0,0.4-0.1,0.5c-0.1,0.3-0.4,0.4-0.6,0.6c-0.5,0.4-0.7,1.2-0.6,1.9c0,0.1,0.1,0.3,0,0.4c0,0.1-0.1,0.2-0.2,0.3
				c-0.5,0.8-0.5,2,0.2,2.8c0.2,0.3,0.5,0.5,0.8,0.8c0.9,0.7,2,1.2,3,1.6c0.4,0.2,0.7,0.3,1.1,0.3c0.8,0,1.3-0.8,1.2-1.6
				c0-0.2-0.1-0.4,0-0.5c0,0,0.1-0.1,0.2-0.1c0.5-0.3,0.9-0.9,0.9-1.5c0-0.2,0-0.4,0.1-0.5c0.1-0.1,0.2-0.1,0.3-0.2
				c0.5-0.2,1-0.5,1.1-1.1c0-0.3,0-0.7,0.2-0.9c0.1-0.2,0.4-0.2,0.6-0.3c0.6-0.2,1.1-0.7,1.1-1.4
				C198.4,187.3,197.7,186.7,197.2,186.2z"/>
			<path class="st3" d="M194.2,194.4c-0.1,0.1-0.3,0.1-0.4,0c-1.4-1.1-6.1-3.5-6.2-3.6c-0.2-0.1-0.2-0.3-0.2-0.4
				c0.1-0.2,0.2-0.2,0.4-0.1c0.2,0.1,4.8,2.5,6.3,3.6C194.3,194,194.3,194.2,194.2,194.4C194.2,194.4,194.2,194.4,194.2,194.4z"/>
			<path class="st3" d="M195.4,192.3c-0.1,0.1-0.3,0.1-0.4,0c-3.2-2.9-6.1-4.4-6.1-4.4c-0.2-0.1-0.2-0.3-0.2-0.4
				c0.1-0.2,0.2-0.2,0.4-0.1c0.1,0.1,3,1.5,6.3,4.5C195.5,191.9,195.5,192.1,195.4,192.3C195.4,192.2,195.4,192.3,195.4,192.3z"/>
			<path class="st3" d="M196.9,190.1c-0.1,0.1-0.3,0.1-0.4,0c-2.4-2.4-5.9-5-5.9-5c-0.1-0.1-0.2-0.3-0.1-0.4
				c0.1-0.1,0.3-0.2,0.4-0.1c0,0,3.6,2.6,6,5C197,189.8,197,190,196.9,190.1C196.9,190.1,196.9,190.1,196.9,190.1z"/>
		</g>
		<path class="st2" d="M199.1,187.1c-0.2-0.5-0.5-1-0.9-1.3c-0.5-0.5-1.3-0.9-2-1c-0.4,0-0.7,0-1.1,0.1c-0.7,0.4-0.8,1.3-1.2,2.1
			c-0.2,0.5-0.5,0.8-0.7,1.3s-0.3,1-0.1,1.5c0.3,0.7,1.1,1.1,1.8,0.9c0.7-0.2,1.2-0.7,1.5-1.3c0.2-0.3,0.3-0.7,0.7-0.8
			c0.4-0.2,0.9,0.1,1.1,0.5s0.5,0.8,0.7,1.2c0.2,0.4,0.4,0.7,0.7,1c0.4,0.4,0.5,0.1,0.5-0.3c0-0.4-0.1-0.9-0.2-1.3
			C199.8,188.7,199.5,187.8,199.1,187.1z"/>
		<path class="st3" d="M199.3,190c-0.1-0.4-0.3-0.8-0.5-1.2c-0.2-0.4-0.5-0.7-0.9-0.9c-0.1-0.1-0.3-0.1-0.4-0.1
			c-0.2,0-0.4,0-0.5,0.1c-0.3,0.2-0.6,0.7-0.6,0.7c-0.2,0.3-0.5,0.7-0.5,0.7c-0.6,0.7-1.5,0.6-1.5,0.6c-1.2-0.2-1.2-1.4-1.2-1.4
			c-0.1,0.4-0.2,0.8,0,1.2c0.3,0.7,1.1,1.1,1.8,0.9s1.2-0.7,1.5-1.3c0.2-0.3,0.3-0.7,0.7-0.8c0.4-0.2,0.9,0.1,1.1,0.5
			s0.5,0.8,0.7,1.2c0.1,0.1,0.1,0.2,0.2,0.3c0,0,0.1,0,0.1,0C199.4,190.4,199.3,190.2,199.3,190z"/>
	</g>
	<path style="clip-path:url(#SVGID_00000183217194280065282140000008830940430699332768_);fill:#231F20;" d="M95,302.5
		c9.7-0.2,19.4-0.3,29.1-0.4c9.7-0.1,19.4-0.2,29.1-0.2c19.4-0.1,38.8-0.2,58.2-0.2c19.4,0,38.8,0.1,58.2,0.2
		c19.4,0.1,38.8,0.3,58.2,0.7c-19.4,0.4-38.8,0.5-58.2,0.7c-19.4,0.1-38.8,0.2-58.2,0.2c-19.4,0-38.8-0.1-58.2-0.2
		c-9.7-0.1-19.4-0.1-29.1-0.2C114.4,302.8,104.7,302.6,95,302.5z"/>
	<g style="clip-path:url(#SVGID_00000183217194280065282140000008830940430699332768_);">
		<path class="st17" d="M105.3,227.4c-0.5-0.5-1.1-0.8-1.8-0.8s-1.4,0.3-1.8,0.8c-9.9,10.4-14.7,21.5-14.1,32.8
			c0.2,4,1.1,8.1,2.6,12c1.2,3.1,2.8,6.2,4.8,9.2c3.4,5,6.7,7.9,6.9,8c0.5,0.4,1.1,0.6,1.7,0.6c0.6,0,1.2-0.2,1.7-0.6
			c0.1-0.1,3.4-3,6.9-8c2-2.9,3.6-6,4.8-9.2c1.5-3.9,2.4-8,2.6-12C120,248.9,115.2,237.8,105.3,227.4z"/>
		<path class="st9" d="M103.5,308.9c-0.4,0-0.6-0.3-0.6-0.7v-65.9c0-0.4,0.3-0.7,0.6-0.7c0.4,0,0.6,0.3,0.6,0.7v65.9
			C104.1,308.6,103.9,308.9,103.5,308.9z"/>
		<path class="st9" d="M103.3,256.5c0.1,0,0.2,0,0.3-0.1c0.2-0.2,0.2-0.5,0-0.7l-7.9-8.5c-0.2-0.2-0.5-0.2-0.7,0
			c-0.2,0.2-0.2,0.5,0,0.7l7.9,8.5C103.1,256.4,103.2,256.5,103.3,256.5z"/>
		<path class="st9" d="M103.8,272.7c0.1,0,0.2,0,0.3-0.1l8.6-8.1c0.2-0.2,0.2-0.5,0-0.7c-0.2-0.2-0.5-0.2-0.7,0l-8.6,8.1
			c-0.2,0.2-0.2,0.5,0,0.7C103.5,272.6,103.6,272.7,103.8,272.7z"/>
		<path class="st9" d="M99.2,308.2h8.6c0.3,0,0.6,0.3,0.6,0.6l0,0c0,0.3-0.3,0.6-0.6,0.6h-8.6c-0.3,0-0.6-0.3-0.6-0.6l0,0
			C98.7,308.5,98.9,308.2,99.2,308.2z"/>
	</g>
	<g style="clip-path:url(#SVGID_00000183217194280065282140000008830940430699332768_);">
		<path class="st7" d="M266.7,283.1l1.2-7.8c0,0,0.2-1.4,0.3,0c0.2,1.4,0.3,2.6,0.4,3.3l0.2,0.9c0,0.1,0,0.1,0.1,0.2l1.1,8.2
			l-0.6,14.6h31.6l-0.6-14.6l1.1-8.2c0-0.1,0-0.2,0.1-0.2l0.2-0.9c0.1-0.7,0.2-1.9,0.4-3.3c0.2-1.4,0.3,0,0.3,0l1.2,7.8
			c5.1,0.6,9-1.5,9-1.5c-0.2-1.7-1.6-5.9-1.6-5.9c-1.2-2.6-4.2-11-4.2-11c-1-2.6-2.9-3.8-3.9-4.3c-0.2-0.1-0.3-0.2-0.6-0.2l-9-2.8
			h-16.4l-9,2.8c-0.2,0.1-0.4,0.1-0.6,0.2c-1,0.5-2.9,1.7-3.9,4.3c0,0-3,8.4-4.2,11c0,0-1.5,4.2-1.6,5.9
			C257.7,281.6,261.7,283.7,266.7,283.1z"/>
		<g>
			<g>
				<path class="st2" d="M304.2,259.5c-0.1-0.2-0.2-0.4-0.3-0.6c-0.3-0.6-0.7-1.2-1.4-1.4c-0.3-0.1-0.7-0.1-0.9-0.3
					c-0.1-0.1-0.1-0.2-0.2-0.3c-0.2-0.3-0.6-0.5-0.9-0.7c-0.4-0.2-0.8-0.2-1.1,0c-0.9,0.3-2.1,1.9-2.1,1.9c-0.9,1.1-1.8,2.2-2.6,3.4
					c-0.3,0.5-0.7,1.1-0.6,1.6c0.1,0.3,0.3,0.6,0.5,0.7c0.3,0.2,0.6,0.3,1,0.2c0.5-0.1,0.9-0.6,1.3-1c0.6-0.6,1.1-1.2,1.7-1.9
					c0,0,0,0,0,0c-0.7,0.8-1.3,1.7-1.9,2.5c-0.4,0.5-0.7,1.1-0.6,1.7c0.1,0.4,0.3,0.6,0.6,0.8c0.3,0.2,0.7,0.3,1.1,0.2
					c0.6-0.1,1-0.6,1.4-1.1c0.3-0.3,0.6-0.6,0.8-0.9c-0.2,0.3-0.4,0.5-0.6,0.8c-0.3,0.5-0.7,1-0.7,1.5c0,0.3,0.2,0.5,0.5,0.7
					c0.3,0.2,0.6,0.3,0.9,0.2c0.5-0.1,0.9-0.5,1.3-0.9c0.2-0.2,0.5-0.5,0.7-0.7c-0.2,0.3-0.3,0.5-0.3,0.5c-0.1,0.2-0.2,0.3-0.3,0.5
					c-0.1,0.3,0,0.6,0.2,0.8c0.1,0.1,0.2,0.2,0.4,0.3c0.2,0.1,0.3,0.2,0.5,0.1c0.2-0.1,0.4-0.2,0.6-0.3c0.1,0,0.1-0.1,0.2-0.2
					c0.9-0.8,1.7-1.6,2.5-2.4c0.3-0.3,1-1.1,1-1.1c0.2-0.3,0.3-0.6,0.3-0.8c-0.1-0.6-0.4-1.1-0.9-1.4c-0.1-0.1-0.3-0.2-0.4-0.3
					c-0.1-0.1-0.1-0.3-0.1-0.5c-0.1-0.6-0.5-1.1-1-1.4C304.5,259.7,304.3,259.6,304.2,259.5z"/>
			</g>
			<path class="st3" d="M301.6,257.2c-0.1-0.1-0.1-0.2-0.2-0.3c0,0,0,0,0,0.1c-0.1,0.3-0.1,0.5-0.2,0.7c-0.2,0.4-0.4,0.7-0.7,1.1
				c-0.3,0.4-0.6,0.7-0.9,1c-0.1,0.1-0.2,0.3-0.3,0.4c-0.1,0.1-0.2,0.3-0.3,0.4c-0.1,0.1-0.2,0.2-0.3,0.4c0,0,0,0,0,0
				c-0.1,0.1,0,0.1,0,0.1c0.3-0.2,0.6-0.5,0.8-0.7c0.2-0.2,0.3-0.3,0.5-0.5c0.1-0.1,0.2-0.1,0.2-0.2c0.1-0.1,0.1-0.2,0.2-0.3
				c0.2-0.3,0.5-0.6,0.7-0.9c0.3-0.4,0.7-0.9,1.2-1.1c0,0,0.1,0,0.1,0C302.1,257.4,301.8,257.4,301.6,257.2z"/>
			<path class="st3" d="M305.7,261.2c0-0.1,0-0.1-0.1-0.2c-0.2,0.1-0.3,0.6-0.4,0.8c-0.3,0.6-0.8,1.2-1.2,1.7l-1.3,1.6
				c-0.1,0.1-0.2,0.2-0.3,0.3l0,0l-0.4,0.4c-0.1,0.1,0,0,0,0l0.4-0.3c0.9-0.8,1.7-1.7,2.5-2.6c0.2-0.3,0.5-0.6,0.8-0.7
				c0.1-0.1,0.3-0.1,0.4-0.2c0,0,0,0-0.1,0c-0.1-0.1-0.3-0.2-0.4-0.3C305.8,261.6,305.8,261.4,305.7,261.2z"/>
			<path class="st3" d="M304.1,259.4L304.1,259.4c-0.1-0.2-0.2-0.4-0.3-0.6c0,0,0-0.1,0-0.1c0,0.4-0.1,0.7-0.2,0.8c0,0,0,0,0,0
				c-0.8,1.1-1.6,2.3-2.5,3.3c-0.4,0.4-0.8,0.8-1.1,1.3c0,0-0.1,0.2-0.1,0.2c0,0,0,0,0,0c0,0,0,0,0,0c0,0,0,0,0,0c0,0,0,0,0,0
				c0.2-0.2,0.4-0.4,0.7-0.6c0.2-0.2,0.4-0.4,0.6-0.6c0.4-0.4,0.8-0.9,1.2-1.3c0.3-0.4,0.5-0.7,0.8-1.1c0.3-0.4,0.6-0.8,1-1
				c0,0,0.1,0,0.1-0.1C304.3,259.6,304.2,259.6,304.1,259.4C304.2,259.4,304.1,259.4,304.1,259.4z"/>
			<path class="st3" d="M298.7,256.7"/>
			<path class="st3" d="M296.8,258.7c0.2-0.2,0.3-0.4,0.5-0.6c0,0,0.7-1,1.4-1.6c-0.3-0.3-0.8-0.8-1-1.1c0,0-0.9-1.3-1.7-1.2
				c-0.3,0.1-0.6,0.2-0.8,0.4c-0.2,0.2-0.4,0.5-0.5,0.8c-0.1,0.4,0,0.9,0.2,1.3c0.2,0.4,0.5,0.8,0.8,1.1
				C295.8,257.9,296.2,258.3,296.8,258.7z"/>
		</g>
		<g>
			<path class="st3" d="M305.2,251.2c0.1-0.8,0-1.6-0.3-2.3c-0.3-0.7-0.9-1.2-1.5-1.2c-0.3,0-0.7,0.1-1,0.3c0-0.5,0.1-0.9,0.1-1.4
				l-0.2-7.1c0,0-0.3-2.6-2.8-3.6c0,0-2.5-1.2-7-2l0,0c0,0-0.1,0-0.1,0c0,0-0.1,0-0.1,0l0,0c-4.5-0.7-7.2-0.3-7.2-0.3
				c-2.7,0.2-3.8,2.6-3.8,2.6l-2.5,6.7c-0.1,0.5-0.3,0.9-0.4,1.4c-0.2-0.3-0.5-0.5-0.9-0.6c-0.6-0.2-1.3,0.1-1.8,0.7s-0.8,1.3-1,2.1
				c-0.2,1.2-0.1,2.6,0.6,3.4c0.5,0.6,1.3,0.9,2,0.7c-0.1,0.6-0.1,1.1-0.1,1.5c0,2.7,1,8.3,9,11l1.3,0.2l0,0l0.2,0l1.3,0.2
				c0,0,0,0,0,0c8.3,0,11.1-4.9,12-7.5c0.1-0.5,0.3-1,0.4-1.5c0,0,0,0,0,0c0,0,0,0,0,0l0,0c0.6,0.4,1.4,0.4,2.1-0.1
				C304.4,253.6,305,252.4,305.2,251.2z"/>
			<path class="st9" d="M275.8,241.3c-0.1,0.8,0.2,1.6,0.4,2.5c0.4-0.3,1-0.5,1.4-0.4c0.3,0.1,0.6,0.3,0.9,0.6
				c0.1-0.4,0.2-0.9,0.4-1.4l2.5-6.7c0,0,1.1-2.4,3.8-2.6c0,0,2.7-0.4,7.2,0.3l0,0c0,0,0.1,0,0.1,0c0,0,0.1,0,0.1,0l0,0
				c4.5,0.8,7,2,7,2c2.5,1.1,2.8,3.6,2.8,3.6l0.2,7.1c0,0.5-0.1,0.9-0.1,1.4c0.3-0.2,0.7-0.3,1-0.3c0.4,0,0.7,0.2,1,0.5
				c0.1-0.3,0.2-0.5,0.4-0.8c0.1-0.3,0.3-0.6,0.3-0.9c0-0.2-0.1-0.4-0.1-0.6c0-0.5,0.5-0.8,0.6-1.3c0.1-0.5-0.3-0.9-0.2-1.3
				c0-0.5,0.6-0.9,0.6-1.5c0-0.5-0.4-0.9-0.6-1.5c-0.2-0.8,0.6-1.7,0.4-2.5c-0.1-0.7-0.9-1.1-1-1.8c-0.1-0.6,0.3-1.2,0.1-1.8
				c-0.2-0.6-0.9-0.8-1.2-1.3c-0.6-0.9,0-2.3-0.5-3.1c-0.6-1-2.1-0.6-2.8-1.5c-0.5-0.6-0.4-1.7-1-2.2c-0.6-0.5-1.4,0-2.2-0.1
				c-1.3-0.1-2.3-1.7-3.6-1.7c-1.2,0.1-2.1,1.5-3.3,1.7c-1.1,0.2-2.2-0.7-3.2-0.2c-0.9,0.4-1.3,1.7-2.3,2c-0.6,0.2-1.4-0.1-2,0.2
				c-1,0.5-1.1,2.1-2,2.6c-0.4,0.2-0.9,0.2-1.2,0.6c-0.3,0.4-0.2,0.9-0.4,1.4c-0.3,0.9-1.5,1-1.7,1.9c-0.1,0.4,0,0.9,0,1.3
				c-0.1,0.8-0.9,1.4-1.1,2.2c-0.2,0.7,0.1,1.4,0,2.2C276.1,240.5,275.9,240.8,275.8,241.3z"/>
			<path class="st2" d="M282.2,236.4l-2,7.5c0,0-0.9,5.5-0.8,10.3c0,0,1.8,4.7,6.6,7.3c0,0,0.7,0.3,1.8,0.5c1.1,0.2,1.8,0.1,1.8,0.1
				c5.4-0.9,8.6-4.8,8.6-4.8c1.6-4.5,2.5-10,2.5-10l0.5-7.7c0.2-1.7-1.1-3.4-1.1-3.5c-0.2-0.1-0.4-0.2-0.7-0.3c0,0-2.5-1.2-7-2l0,0
				c0,0-0.1,0-0.1,0c0,0-0.1,0-0.1,0l0,0c-4.5-0.7-7.2-0.3-7.2-0.3c-0.3,0-0.5,0.1-0.7,0.1C284.3,233.5,282.5,234.7,282.2,236.4z"/>
			<path class="st2" d="M277.5,244.5c-0.5-0.1-0.9,0.2-1.2,0.5c-0.3,0.4-0.5,0.9-0.6,1.3c-0.1,0.3-0.1,0.7-0.1,1
				c0,0.5,0.1,1,0.4,1.4c0.1,0.1,0.2,0.2,0.3,0.2c0,0,0,0,0.1,0c0,0,0-0.1,0-0.2c-0.2-0.7-0.3-1.4-0.2-2.1c0.1-0.4,0.2-0.8,0.5-1.1
				c0.3-0.3,0.7-0.5,1.1-0.4c0.1,0,0.1,0,0.2,0c0.2,0,0.2-0.3,0.1-0.5C277.9,244.6,277.7,244.5,277.5,244.5z"/>
			<path class="st2" d="M303.3,248.7c0.5,0.1,0.8,0.5,1,0.9c0.2,0.5,0.2,1,0.1,1.5c-0.1,0.3-0.1,0.7-0.3,1c-0.2,0.5-0.4,0.9-0.8,1.2
				c-0.1,0.1-0.2,0.1-0.3,0.1c0,0,0,0,0,0c0,0,0-0.1,0-0.1c0.4-0.6,0.7-1.2,0.8-1.9c0.1-0.4,0.1-0.9-0.1-1.2
				c-0.2-0.4-0.5-0.7-0.9-0.7c-0.1,0-0.1,0-0.2,0c-0.2-0.1-0.1-0.4,0.1-0.5C302.8,248.7,303.1,248.7,303.3,248.7z"/>
			<path class="st9" d="M294,248.3c-0.1,0.8,0.2,1.5,0.7,1.6c0.5,0.1,1-0.5,1.2-1.3c0.1-0.8-0.2-1.5-0.7-1.6
				C294.7,246.9,294.2,247.5,294,248.3z"/>
			<path class="st9" d="M285.9,246.9c-0.1,0.8-0.6,1.4-1.2,1.3c-0.5-0.1-0.8-0.8-0.7-1.6c0.1-0.8,0.6-1.4,1.2-1.3
				C285.7,245.4,286,246.1,285.9,246.9z"/>
			<path class="st7" d="M288,255.5c0.7,0,1.4-0.1,2.1-0.2c0.5-0.1,1-0.1,1.3,0.3c0.4,0.4,0.3,1,0.1,1.4c-0.5,0.9-1.6,1.5-2.6,1.5
				c-1.1,0-2.1-0.5-2.8-1.3c-0.4-0.4-0.7-0.9-0.8-1.4c-0.1-0.6,0.1-1.4,0.8-1.1c0.3,0.1,0.5,0.4,0.8,0.5
				C287.2,255.4,287.6,255.5,288,255.5z"/>
			<path class="st9" d="M284,243.4c-0.2,0.1-0.5,0.1-0.7-0.1c-0.1-0.2,0-0.4,0.2-0.5c0.5-0.5,1.2-0.5,1.9-0.4c0.4,0,0.9,0.1,1.3,0.3
				c0.3,0.2,0.4,0.4,0.1,0.4c-0.5,0-0.9-0.1-1.3-0.1C284.9,243.1,284.4,243.2,284,243.4z"/>
			<path class="st9" d="M296.9,245.4c0.2,0.1,0.5,0.3,0.7,0.1c0.1-0.1,0.1-0.4,0-0.5c-0.3-0.6-1-0.8-1.7-1c-0.4-0.1-0.9-0.2-1.3-0.1
				c-0.3,0.1-0.5,0.3-0.2,0.4c0.4,0.1,0.9,0.1,1.3,0.3C296.1,244.8,296.5,245.1,296.9,245.4z"/>
		</g>
		<path class="st8" d="M279.9,291.7c2.2,1.7,4.7,3.1,7.3,4.1c0.4,0.2,1.2,0.4,1.5,0.8c0.7,1-0.9,0.7-1.4,0.6
			c-1.1-0.2-2.2-0.5-3.3-0.8c-2.7-0.8-5.5-2-7.4-4.1c-1.5-1.6-2.5-3.6-3.5-5.6c-0.4-0.8-1.8-3.2-1.2-4.1c0.4-0.6,1.2,1.3,1.4,1.6
			C274.9,287,277.2,289.6,279.9,291.7z"/>
		<g>
			<path class="st10" d="M300.9,302.5c0-0.1,0-0.2,0-0.2l-0.6-14.4l1.1-8.2c0-0.1,0-0.2,0.1-0.2l0.2-0.9c0.1-0.7,0.2-1.9,0.4-3.3
				c0.2-1.4,0.3,0,0.3,0l1.2,7.8c0.4,0,0.9,0.1,1.3,0.1c-0.9-4-1.7-7.9-3-11.7c-0.7-2.4-0.8-0.6-0.8-0.6s-0.8,7.3-0.8,7.3
				c0,0.1,0,0.2,0,0.4c0,0-0.3,3.4-0.6,6c-0.3,0.9-0.4,2.1-0.7,2.8c-0.5,1.7-1.1,3.4-1.9,5c-1.2,2.7-2.9,5.1-5.1,7.1
				c-1.4,1.2-2.9,2.4-4.7,3.1H300.9z"/>
			<path class="st10" d="M267.9,275.3c0,0,0.2-1.4,0.3,0c0.2,1.4,0.3,2.6,0.4,3.3l0.2,0.9c0,0.1,0,0.1,0.1,0.2l1.1,8.2l-0.6,14.4
				c0,0,0,0.1,0,0.2h2.4c-0.4-4.3-0.5-11.5-0.5-11.5c0.1-2.1,0-4.3,0-4.3l0,0c-0.1-0.7-0.3-1.5-0.5-2.2c-0.3-2.6-0.6-6-0.6-6
				c0-0.1,0-0.2,0-0.4c0,0-0.8-7.3-0.8-7.3s-0.1-1.8-0.8,0.6c-1.3,3.9-2.1,7.8-3,11.7c0.4,0,0.9,0,1.3-0.1L267.9,275.3z"/>
		</g>
		<path class="st2" d="M312.9,284.7c-0.1-1-0.6-2-1.4-2.8l0,0c-3.6-2.2-7.6-2.9-11.6-4c-1.7-0.5-3.4-1-5.1-1.6
			c-0.5,0.3-0.7,0.8-0.8,1.3c-0.2,1.1,0,2.3,0.4,3.3c0.4,1,1.4,1.6,2.3,2.2c2.1,1.5,4.3,2.8,6.7,3.8c0.6,0.3,1.3,0.5,2,0.7
			c0.5,0.1,1,0.1,1.5,0.1c0.6,0,1.2,0,1.8,0c0.4,0,0.9,0,1.3-0.1c0.7-0.2,1.2-0.6,1.8-1c0.4-0.3,0.8-0.6,0.9-1
			C313,285.4,313,285,312.9,284.7z"/>
		<path class="st3" d="M310.1,286.3c0,0-3.3,1.3-8.1,0c0.5,0.3,1.1,0.5,1.6,0.8c0.6,0.3,1.3,0.5,2,0.7c0.5,0.1,1,0.1,1.5,0.1
			c0.6,0,1.2,0,1.8,0c0.4,0,0.9,0,1.3-0.1c0.7-0.2,1.2-0.6,1.8-1c0.4-0.3,0.8-0.6,0.9-1c0.1-0.3,0.2-0.7,0.1-1c-0.1-1-0.6-2-1.4-2.8
			C311.6,281.9,313.1,284.8,310.1,286.3z"/>
		<path class="st2" d="M270.3,264.4c-0.4-0.8-1.4-1.1-2.2-0.9c-1.9,0.4-3,2.7-4,4.2c-1.2,1.9-2.3,3.8-3.3,5.7
			c-0.7,1.2-1.4,2.5-2.1,3.7c-0.3,0.6-0.6,1.1-0.9,1.7c-0.6,1.6-0.7,3.4-0.8,5.2c0,0.4,0,0.8,0.1,1.2c0.2,1,1.2,1.8,2.2,1.9
			c0.6,0.1,1.1-0.1,1.7-0.3c5.2-1.2,6.3-8.5,6.3-8.5c0.3-1.6,2.9-10.7,2.9-10.7C270.5,266.6,270.8,265.4,270.3,264.4z"/>
		<path class="st3" d="M261.7,284.1c-0.4,0.1-0.8,0.3-1.2,0.2c-0.7-0.1-1.2-0.6-1.5-1.2c-0.6-1.1-0.8-2.4-0.8-3.6
			c0-0.7,0.1-1.3,0.3-2c-0.3,0.5-0.5,0.9-0.7,1.4c-0.6,1.6-0.7,3.4-0.8,5.2c0,0.4,0,0.8,0.1,1.2c0.2,1,1.2,1.8,2.2,1.9
			c0.6,0.1,1.1-0.1,1.7-0.3c5.2-1.2,6.3-8.5,6.3-8.5c0-0.2,0.1-0.5,0.2-0.9c-0.5,1.2-1.1,2.4-1.8,3.5
			C264.6,282.3,263.3,283.5,261.7,284.1z"/>
		<path class="st3" d="M280,257c-0.5-0.9-1.5-1.6-2.6-2c-0.1-0.3-0.3-0.6-0.4-0.9c-0.1-0.2-0.3-0.4-0.5-0.5
			c-0.2-0.1-0.5-0.1-0.8-0.1c-0.3,0-0.6,0.1-0.9,0.1c-0.4,0.1-0.7,0.2-1.1,0.3c-1.5,0.3-3.1-0.2-4.6-0.2c-0.2,0-0.5,0-0.7,0.1
			c-0.9,0.3-0.9,1.5-0.9,2.2c0,0.5,0.1,1.1,0.5,1.4c0.3,0.3,0.7,0.3,1.2,0.3c0.4,0,0.8-0.1,1.2-0.2c0.3,0,0.5-0.1,0.8-0.1
			c0.1,0.4,0.4,0.8,0.8,1.1c0.5,0.4,1.1,0.8,1.6,1.1c1,0.7,1.8,1.6,2.6,2.5c0.3,0.3,0.6,0.7,1.1,0.9c0.8,0.4,1.9,0.1,2.5-0.5
			c0.6-0.6,0.9-1.5,0.8-2.3C280.5,259.2,280.5,257.9,280,257z"/>
		<g>
			<path class="st2" d="M272.2,258.7c-0.1-0.1-0.3-0.2-0.4-0.3c-1.2-0.5-2.6-0.7-3.6-1.6c-0.4-0.3-0.6-0.5-1-0.2
				c-0.3,0.2-0.6,0.5-0.7,0.9c0,0.1,0,0.3,0,0.4c0,0.4-0.3,0.7-0.2,1.1c0,0.2,0.1,0.4,0.2,0.5c-0.2,0.2-0.4,0.4-0.4,0.6
				c0,0.1,0,0.2,0,0.4c0,0.4-0.2,0.7-0.2,1c0,0.3,0.2,0.5,0.4,0.7c-0.2,0.2-0.4,0.4-0.4,0.7c0,0.1,0,0.2,0,0.3
				c0,0.3-0.1,0.6-0.1,0.9c0.1,0.3,0.3,0.5,0.5,0.6c0.3,0.1,0.6,0.2,0.9,0.3c0.4,0.1,0.8,0.2,1.2,0.3c0.3,0.1,0.6,0.2,1,0.2
				c0.3,0,0.7-0.1,0.9-0.3c0.4-0.3,0.5-0.9,0.5-1.3c0-0.2,0-0.3-0.1-0.5c0.1,0,0.1-0.1,0.2-0.1c0.5-0.3,0.6-0.9,0.7-1.5
				c0-0.2,0-0.4-0.1-0.6c-0.1-0.1-0.2-0.2-0.3-0.2c0.2,0,0.3-0.1,0.5-0.2c0.5-0.3,0.7-1,0.8-1.6
				C272.3,259.1,272.3,258.9,272.2,258.7z"/>
			<path class="st3" d="M266.1,262.2c0.2,0.1,0.4,0.1,0.5,0.2c0.2,0.1,0.4,0.1,0.5,0.2c0.4,0.1,0.7,0.2,1.1,0.3
				c0.4,0.1,0.7,0.2,1.1,0.3l0.3,0.1l0.3,0.1c0.2,0,0.4,0.1,0.6,0.1c-0.2,0-0.4,0-0.6,0c-0.2,0-0.4,0-0.6-0.1
				c-0.4-0.1-0.8-0.1-1.1-0.2c-0.4-0.1-0.7-0.2-1.1-0.4c-0.1,0-0.2-0.1-0.3-0.1c-0.1,0-0.2-0.1-0.3-0.1
				C266.5,262.4,266.3,262.4,266.1,262.2z"/>
			<path class="st3" d="M266.4,259.6c0.4,0.1,0.8,0.3,1.2,0.4c0.4,0.1,0.8,0.3,1.2,0.4c0.4,0.1,0.8,0.3,1.2,0.4
				c0.4,0.1,0.8,0.2,1.2,0.4c-0.4,0-0.8-0.1-1.2-0.2c-0.4-0.1-0.8-0.2-1.2-0.3c-0.4-0.1-0.8-0.3-1.2-0.4
				C267.1,260,266.8,259.8,266.4,259.6z"/>
		</g>
		<g>
			<g>
				<polygon class="st12" points="267.2,280.8 296,284 291,269.6 275.3,267.8 				"/>
				<path class="st9" d="M267.2,280.8l14.5,1.5l7.2,0.7l7.1,0.8l-0.3,0.3l-2.5-7.2l-1.2-3.6l-1.2-3.6l0.2,0.2l-2-0.2l-2-0.2
					l-3.9-0.5l-2-0.2l-2-0.2l-3.9-0.5l0.2-0.1l-2,3.2l-1,1.6l-1,1.6l-2.1,3.2L267.2,280.8z M267.2,280.8l2-3.2l2-3.3l1-1.6l1-1.6
					l2-3.3l0.1-0.1l0.1,0l3.9,0.4l2,0.2l2,0.2l3.9,0.4l2,0.2l2,0.2l0.2,0l0.1,0.2l1.3,3.6l1.3,3.6l2.5,7.2l0.1,0.4l-0.4,0l-7.2-0.8
					l-7.2-0.9L267.2,280.8z"/>
			</g>
			<polygon class="st18" points="269.4,280.3 276.2,269.4 290.5,271 294.7,283.2 			"/>
		</g>
		<g>
			<g>
				<polygon class="st12" points="271.8,250.6 266.7,268.3 282.3,265.8 				"/>
				<path class="st9" d="M271.8,250.6c-0.4,1.5-0.8,3-1.2,4.5l-1.2,4.5c-0.4,1.5-0.8,2.9-1.2,4.4l-0.3,1.1l-0.3,1.1l-0.6,2.2
					l-0.3-0.3l2-0.3l2-0.3l3.9-0.7l3.9-0.6l2-0.3l2-0.3l-0.2,0.4l-1.3-1.9l-0.6-0.9l-0.6-0.9c-0.9-1.3-1.7-2.5-2.6-3.8l-2.6-3.8
					C273.5,253.2,272.7,251.9,271.8,250.6z M271.8,250.6c0.9,1.2,1.8,2.4,2.6,3.7l2.7,3.7c0.9,1.2,1.8,2.5,2.7,3.8l0.7,0.9l0.7,1
					l1.3,1.9l0.2,0.3l-0.4,0.1l-2,0.3l-2,0.3l-3.9,0.7l-3.9,0.6l-2,0.3l-2,0.3l-0.4,0.1l0.1-0.4l0.7-2.2l0.3-1.1l0.3-1.1
					c0.5-1.5,0.9-3,1.4-4.4l1.3-4.4C270.9,253.5,271.4,252.1,271.8,250.6z"/>
			</g>
			<polygon class="st19" points="268.6,267.3 272.6,253.4 280.9,265.3 			"/>
		</g>
		<g>
			<path class="st2" d="M277.5,254.5c-0.3-0.5-0.7-0.9-1.2-1.2c-0.4-0.3-0.8-0.5-1.3-0.5c-0.8,0-1.4,0.5-1.4,1.4
				c0,0.8,0.5,1.5,1,2.1c0.3,0.3,0.7,0.7,1.1,0.9c0.9,0.4,1.8-0.2,2.1-1.1C277.9,255.6,277.8,255,277.5,254.5z"/>
			<path class="st3" d="M277.1,256.8c-0.5,0.2-1,0.1-1.5-0.1c-0.4-0.2-0.8-0.6-1.1-1c-0.3-0.4-0.5-1-0.5-1.5c0-0.3,0.2-0.7,0.4-0.9
				c0.1-0.1,0.2-0.2,0.3-0.2c-0.7,0.1-1.2,0.6-1.2,1.4c0,0.8,0.5,1.5,1,2.1c0.3,0.3,0.7,0.7,1.1,0.9c0.8,0.4,1.7-0.1,2-0.9
				C277.5,256.5,277.3,256.7,277.1,256.8z"/>
			<path class="st20" d="M277.5,255.4c0,0.1,0.1,0.3,0.2,0.3c0.1,0,0.2-0.1,0.3-0.2c0-0.1,0-0.2,0-0.3c-0.1-0.4-0.3-0.7-0.5-1
				c-0.4-0.6-1-1-1.6-1.3c-0.1-0.1-0.2-0.1-0.4-0.1s-0.3,0.1-0.3,0.2c-0.2,0.3,0.2,0.3,0.3,0.3c0.2,0.1,0.4,0.2,0.7,0.3
				c0.4,0.3,0.8,0.6,1,1C277.3,254.9,277.4,255.1,277.5,255.4z"/>
		</g>
		<g>
			<path class="st2" d="M267.3,254.9c-0.2,0.6-0.1,1.3,0.2,1.9c0.2,0.3,0.6,0.6,1,0.8c1.4,0.4,2.3-1.7,2.2-2.8
				c-0.1-0.7-0.5-1.3-1.2-1.5c-0.7-0.2-1.4,0-1.8,0.6C267.6,254.1,267.4,254.5,267.3,254.9z"/>
			<path class="st3" d="M270.7,254.8c-0.1-0.7-0.5-1.3-1.2-1.5c-0.2-0.1-0.5-0.1-0.7-0.1c0.2,0,0.3,0.1,0.4,0.2
				c0.4,0.2,0.7,0.6,0.8,1.1c0.1,0.5,0,1-0.1,1.4c-0.1,0.4-0.3,0.8-0.6,1.1c-0.3,0.3-0.7,0.4-1.1,0.4c-0.2,0-0.3,0-0.4-0.1
				c0.2,0.2,0.4,0.3,0.6,0.4C269.9,258,270.8,255.8,270.7,254.8z"/>
			<path class="st20" d="M267.5,256.3c0,0.1,0,0.2-0.1,0.3c0,0-0.1,0-0.1,0c-0.1,0-0.2-0.1-0.2-0.2c0-0.1-0.1-0.2-0.1-0.3
				c0-0.5,0.1-1.1,0.3-1.6c0.2-0.4,0.4-0.8,0.7-1.1c0.1-0.1,0.1-0.1,0.2-0.2c0.1,0,0.2,0,0.3,0c0.2,0.2-0.1,0.3-0.2,0.5
				c-0.2,0.2-0.3,0.3-0.4,0.5c-0.2,0.4-0.4,0.8-0.4,1.3C267.5,255.8,267.5,256,267.5,256.3z"/>
		</g>
		<g>
			<g>
				<path class="st2" d="M296.6,278.7c0-0.2,0.1-0.4,0.1-0.6c0.2-0.6,0.2-1.2-0.2-1.7c-0.2-0.2-0.4-0.4-0.4-0.7c0-0.1,0-0.2,0-0.3
					c0-0.3-0.1-0.7-0.2-1c-0.2-0.4-0.4-0.6-0.7-0.6c-0.8-0.3-2.5,0.1-2.5,0.1c-1.2,0.2-2.4,0.5-3.6,0.8c-0.5,0.1-1.1,0.3-1.3,0.7
					c-0.1,0.2-0.1,0.5-0.1,0.8c0.1,0.3,0.3,0.5,0.6,0.7c0.4,0.2,0.9,0.1,1.4,0.1c0.7-0.1,1.4-0.2,2.2-0.3c0,0,0,0,0,0
					c-0.9,0.2-1.8,0.4-2.7,0.6c-0.5,0.1-1.1,0.3-1.4,0.8c-0.2,0.3-0.1,0.6-0.1,0.9c0.1,0.3,0.3,0.6,0.6,0.8c0.4,0.2,1,0.2,1.5,0.1
					c0.4-0.1,0.7-0.1,1.1-0.2c-0.3,0.1-0.6,0.1-0.8,0.2c-0.5,0.1-1,0.3-1.3,0.6c-0.1,0.2-0.2,0.5-0.1,0.7c0.1,0.3,0.2,0.5,0.5,0.7
					c0.4,0.2,0.9,0.2,1.4,0.1c0.3,0,0.6-0.1,0.9-0.1c-0.3,0.1-0.5,0.2-0.5,0.2c-0.2,0.1-0.3,0.1-0.5,0.2c-0.2,0.1-0.3,0.4-0.3,0.6
					c0,0.1,0,0.3,0.1,0.4c0.1,0.2,0.1,0.3,0.3,0.4c0.2,0.1,0.4,0.1,0.6,0.1c0.1,0,0.1,0,0.2,0c1,0,2-0.1,3-0.2
					c0.4,0,1.3-0.2,1.3-0.2c0.3-0.1,0.5-0.2,0.6-0.4c0.3-0.5,0.3-1,0.2-1.5c0-0.1-0.1-0.3-0.1-0.4c0-0.1,0.1-0.3,0.2-0.4
					c0.3-0.5,0.2-1,0.1-1.5C296.7,279.1,296.6,278.9,296.6,278.7z"/>
			</g>
			<path class="st3" d="M296.1,275.8c0-0.1,0-0.2,0-0.3c0,0,0,0-0.1,0c-0.2,0.1-0.3,0.3-0.6,0.4c-0.3,0.1-0.7,0.2-1.1,0.3
				c-0.4,0.1-0.8,0.1-1.2,0.2c-0.1,0-0.3,0-0.4,0.1c-0.1,0-0.3,0.1-0.4,0.1c-0.1,0-0.3,0.1-0.4,0.1c0,0,0,0,0,0
				c-0.1,0-0.1,0.1-0.1,0.1c0.3,0,0.6,0,1,0c0.2,0,0.4,0,0.6,0c0.1,0,0.2,0,0.3,0c0.1,0,0.2,0,0.3-0.1c0.3-0.1,0.6-0.1,0.9-0.2
				c0.5-0.1,1-0.2,1.4,0c0,0,0.1,0,0.1,0C296.3,276.2,296.1,276,296.1,275.8z"/>
			<path class="st3" d="M296.6,280.7c0-0.1,0.1-0.1,0.1-0.2c-0.2,0-0.5,0.2-0.7,0.3c-0.6,0.2-1.2,0.3-1.8,0.4l-1.7,0.3
				c-0.1,0-0.2,0-0.4,0.1l0,0l-0.5,0.1c-0.1,0,0,0.1,0,0.1l0.5,0c1-0.1,2.1-0.2,3.1-0.3c0.3-0.1,0.6-0.1,0.9,0
				c0.1,0,0.3,0.1,0.4,0.1c0,0,0,0,0-0.1c0-0.1-0.1-0.3-0.1-0.4C296.5,281,296.6,280.9,296.6,280.7z"/>
			<path class="st3" d="M296.6,278.6L296.6,278.6c0-0.2,0.1-0.3,0.1-0.5c0,0,0-0.1,0-0.1c-0.2,0.3-0.5,0.4-0.5,0.4c0,0,0,0,0,0
				c-1.1,0.3-2.3,0.6-3.5,0.8c-0.5,0.1-1,0.1-1.5,0.3c0,0-0.2,0-0.2,0.1c0,0,0,0,0,0c0,0,0,0,0,0c0,0,0,0,0,0c0,0,0,0,0,0
				c0.3,0,0.5,0,0.8,0c0.3,0,0.5,0,0.8-0.1c0.5-0.1,1-0.1,1.5-0.2c0.4-0.1,0.8-0.2,1.2-0.3c0.4-0.1,0.8-0.2,1.3-0.1c0,0,0.1,0,0.1,0
				C296.6,278.9,296.6,278.8,296.6,278.6C296.6,278.7,296.6,278.7,296.6,278.6z"/>
			<path class="st3" d="M294.5,273.8"/>
			<path class="st3" d="M292.1,274.1c0.2,0,0.5-0.1,0.7-0.1c0,0,1-0.3,1.8-0.3c0-0.4-0.1-0.9,0-1.3c0,0,0.1-1.4-0.5-1.8
				c-0.2-0.1-0.5-0.2-0.7-0.2c-0.3,0-0.5,0.1-0.7,0.3c-0.3,0.2-0.5,0.6-0.6,1c-0.1,0.4-0.1,0.8-0.1,1.2
				C291.9,273,291.9,273.5,292.1,274.1z"/>
		</g>
		<g>
			<g>
				<polygon class="st12" points="275.8,312 317.1,312 311,299.1 282,299.1 				"/>
				<path class="st9" d="M275.8,312l20.7-0.2l5.1,0l2.6,0l2.6,0c3.4,0,6.8,0,10.3,0l-0.2,0.4l-3.1-6.5l-3.1-6.5l0.2,0.2
					c-2.4,0-4.8,0-7.2,0l-7.2,0l-7.2,0l-7.2,0l0.1-0.1c-0.5,1.1-1,2.1-1.6,3.2l-1.6,3.2l-1.6,3.2L275.8,312z M275.8,312l1.5-3.2
					l1.5-3.3l1.5-3.3c0.5-1.1,1-2.2,1.5-3.3l0-0.1l0.1,0l7.2,0l7.2,0l7.2,0c2.4,0,4.8,0,7.2,0l0.2,0l0.1,0.2l3.1,6.5l3.1,6.5
					l0.2,0.4l-0.4,0c-3.5,0-6.9,0-10.4,0l-2.6,0l-2.6,0l-5.2,0L275.8,312z"/>
			</g>
			<polygon class="st21" points="277.9,311.3 283.1,300.5 310.7,300.5 315.8,311.3 			"/>
		</g>
	</g>
	<g style="clip-path:url(#SVGID_00000183217194280065282140000008830940430699332768_);">
		<path class="st22" d="M197.1,237.5c-0.4-0.4-1-0.7-1.5-0.7c-0.6,0-1.1,0.2-1.5,0.7c-8.2,8.7-12.2,17.9-11.7,27.3
			c0.2,3.3,0.9,6.7,2.2,10c1,2.6,2.4,5.2,4,7.6c2.8,4.2,5.6,6.6,5.7,6.7c0.4,0.3,0.9,0.5,1.4,0.5c0.5,0,1-0.2,1.4-0.5
			c0.1-0.1,2.9-2.5,5.7-6.7c1.7-2.5,3-5,4-7.6c1.3-3.3,2-6.6,2.2-10C209.3,255.4,205.4,246.2,197.1,237.5z"/>
		<path class="st9" d="M195.6,308.5c-0.4,0-0.6-0.3-0.6-0.6v-58.6c0-0.4,0.3-0.6,0.6-0.6c0.4,0,0.6,0.3,0.6,0.6v58.6
			C196.2,308.2,196,308.5,195.6,308.5z"/>
		<path class="st9" d="M195.6,271.4c-0.1,0-0.2,0-0.3-0.1c-0.2-0.2-0.2-0.5,0-0.7l7.9-8.5c0.2-0.2,0.5-0.2,0.7,0
			c0.2,0.2,0.2,0.5,0,0.7l-7.9,8.5C195.9,271.3,195.7,271.4,195.6,271.4z"/>
		<path class="st9" d="M195.6,280.2c-0.1,0-0.2,0-0.3-0.1l-8.6-8.1c-0.2-0.2-0.2-0.5,0-0.7c0.2-0.2,0.5-0.2,0.7,0l8.6,8.1
			c0.2,0.2,0.2,0.5,0,0.7C195.9,280.1,195.7,280.2,195.6,280.2z"/>
		<path class="st9" d="M191.3,307.8h8.6c0.3,0,0.6,0.3,0.6,0.6l0,0c0,0.3-0.3,0.6-0.6,0.6h-8.6c-0.3,0-0.6-0.3-0.6-0.6l0,0
			C190.8,308.1,191,307.8,191.3,307.8z"/>
	</g>
	<g style="clip-path:url(#SVGID_00000183217194280065282140000008830940430699332768_);">
		<path class="st22" d="M323.9,247.2c-0.4-0.4-1-0.7-1.5-0.7s-1.1,0.2-1.5,0.7c-8.2,8.7-12.2,17.9-11.7,27.3c0.2,3.3,0.9,6.7,2.2,10
			c1,2.6,2.4,5.2,4,7.6c2.8,4.2,5.6,6.6,5.7,6.7c0.4,0.3,0.9,0.5,1.4,0.5c0.5,0,1-0.2,1.4-0.5c0.1-0.1,2.9-2.5,5.7-6.7
			c1.7-2.5,3-5,4-7.6c1.3-3.3,2-6.6,2.2-10C336.1,265,332.1,255.9,323.9,247.2z"/>
		<path class="st9" d="M322.4,318.2c-0.4,0-0.6-0.3-0.6-0.6v-58.6c0-0.4,0.3-0.6,0.6-0.6c0.4,0,0.6,0.3,0.6,0.6v58.6
			C323,317.9,322.7,318.2,322.4,318.2z"/>
		<path class="st9" d="M322.4,281.1c-0.1,0-0.2,0-0.3-0.1c-0.2-0.2-0.2-0.5,0-0.7l7.9-8.5c0.2-0.2,0.5-0.2,0.7,0
			c0.2,0.2,0.2,0.5,0,0.7l-7.9,8.5C322.6,281,322.5,281.1,322.4,281.1z"/>
		<path class="st9" d="M322.4,289.9c-0.1,0-0.2,0-0.3-0.1l-8.6-8.1c-0.2-0.2-0.2-0.5,0-0.7c0.2-0.2,0.5-0.2,0.7,0l8.6,8.1
			c0.2,0.2,0.2,0.5,0,0.7C322.6,289.8,322.5,289.9,322.4,289.9z"/>
		<path class="st9" d="M318.1,317.5h8.6c0.3,0,0.6,0.3,0.6,0.6l0,0c0,0.3-0.3,0.6-0.6,0.6h-8.6c-0.3,0-0.6-0.3-0.6-0.6l0,0
			C317.5,317.8,317.8,317.5,318.1,317.5z"/>
	</g>
	<g style="clip-path:url(#SVGID_00000183217194280065282140000008830940430699332768_);">
		<path class="st23" d="M249.6,320C249.6,320,249.6,319.9,249.6,320c0-0.1,0-0.1,0-0.1c0,0,0,0,0-0.1c0,0,0-0.1,0-0.1c0,0,0,0,0-0.1
			c0,0,0-0.1,0-0.1c0,0,0,0,0-0.1c0,0,0-0.1,0-0.1c0,0,0,0,0-0.1c0,0,0-0.1,0-0.1c0,0,0,0,0-0.1c0,0,0-0.1,0-0.1c0,0,0,0,0,0
			c0,0,0-0.1,0-0.1c0,0,0,0,0,0c0-0.1,0-0.2-0.1-0.3c0,0,0,0,0,0c0,0,0-0.1,0-0.1c0,0,0,0,0,0c0,0,0-0.1,0-0.1c0,0,0,0,0,0
			c0,0,0-0.1,0-0.1c0,0,0,0,0,0c0,0,0-0.1,0-0.1c0,0,0,0,0,0c0,0,0-0.1,0-0.1c0,0,0,0,0,0c0,0,0-0.1,0-0.1c0,0,0,0,0,0
			c0,0,0-0.1-0.1-0.1c0,0,0,0,0,0c-0.1-0.2-0.2-0.3-0.3-0.5c0,0,0,0,0,0c0,0,0-0.1-0.1-0.1c0,0,0,0,0,0c0,0,0-0.1-0.1-0.1
			c0,0,0,0,0,0c0,0-0.1-0.1-0.1-0.1c0,0,0,0,0,0c0,0-0.1-0.1-0.1-0.1c0,0,0,0,0,0c-0.2-0.3-0.4-0.5-0.7-0.7
			c-0.9-0.8-2.1-1.3-3.5-1.3c-1.3,0-2.5,0.5-3.5,1.3c-0.3,0.2-0.5,0.5-0.7,0.7c0,0,0,0,0,0c0,0-0.1,0.1-0.1,0.1c0,0,0,0,0,0
			c0,0-0.1,0.1-0.1,0.1c0,0,0,0,0,0c0,0,0,0.1-0.1,0.1c0,0,0,0,0,0c0,0,0,0.1-0.1,0.1c0,0,0,0,0,0c-0.1,0.2-0.2,0.3-0.3,0.5
			c0,0,0,0,0,0c0,0,0,0.1-0.1,0.1c0,0,0,0,0,0c0,0,0,0.1,0,0.1c0,0,0,0,0,0c0,0,0,0.1,0,0.1c0,0,0,0,0,0c0,0,0,0.1,0,0.1
			c0,0,0,0,0,0c0,0,0,0.1,0,0.1c0,0,0,0,0,0c0,0,0,0.1,0,0.1c0,0,0,0,0,0c0,0,0,0.1,0,0.1c0,0,0,0,0,0c0,0.1,0,0.2-0.1,0.3
			c0,0,0,0,0,0c0,0,0,0.1,0,0.1c0,0,0,0,0,0c0,0,0,0.1,0,0.1c0,0,0,0,0,0.1c0,0,0,0.1,0,0.1c0,0,0,0,0,0.1c0,0,0,0.1,0,0.1
			c0,0,0,0,0,0.1c0,0,0,0.1,0,0.1c0,0,0,0,0,0.1c0,0,0,0.1,0,0.1c0,0,0,0,0,0.1c0,0,0,0.1,0,0.1c0,0,0,0,0,0c0,0,0,0.1,0,0.1l10.7,0
			C249.6,320.1,249.6,320,249.6,320z"/>
		<path class="st19" d="M202.6,314l44.9,0l3.7,0l1.5,0l0,0l-0.7-2.3c-0.1-0.3-0.3-0.6-0.6-0.7l-1.9-1l-8.2-11.8
			c-0.3-0.4-0.7-0.6-1.2-0.6l-18.3,0.8c-0.5,0-0.9,0.3-1.2,0.7l-4.5,8.5l-13.7,2.9c-0.5,0.1-0.9,0.4-1,0.9l-0.7,2.6L202.6,314z"/>
		<path class="st18" d="M254,318.2l-1.3-4.2l-1.5,0l-3.7,0l-44.9,0l-1.7,0l-1.1,3.8c-0.1,0.4,0,0.8,0.3,1.1l1.8,1.6
			c0.3,0.2,0.6,0.4,1,0.4l2.4,0l0.2,0c0-0.3-0.1-0.5-0.1-0.8c0-2.9,2.4-5.3,5.3-5.3c2.9,0,5.3,2.4,5.3,5.3c0,0.3,0,0.5-0.1,0.8
			l1.3,0l20.1,0l1.5,0c0-0.3-0.1-0.5-0.1-0.8c0-2.9,2.4-5.3,5.3-5.3c2.9,0,5.3,2.4,5.3,5.3c0,0.3,0,0.5-0.1,0.8l1.6,0
			c0.3,0,0.6-0.1,0.9-0.3l1.6-1.2C254,319.1,254.2,318.6,254,318.2z"/>
		<path class="st24" d="M243.9,307.4l-4.1-7.8c-0.1-0.2-0.3-0.3-0.4-0.2l-8.1,0.3l0,8.3l12.2,0c0.2,0,0.3-0.1,0.4-0.2
			C244,307.7,244,307.6,243.9,307.4z M243.5,307.6l-11.8,0l0-7.5c0,0,7.7-0.3,7.7-0.3c0,0,0.1,0,0.1,0L243.5,307.6
			C243.5,307.6,243.5,307.6,243.5,307.6z"/>
		<path class="st24" d="M230.3,299.7l-8.8,0.4c-0.2,0-0.3,0.1-0.4,0.3l-3.5,7.1c-0.1,0.1,0,0.3,0,0.4c0.1,0.1,0.2,0.2,0.4,0.2
			l12.2,0L230.3,299.7z M218.1,307.6L218.1,307.6L218.1,307.6L218.1,307.6C218.1,307.6,218.1,307.6,218.1,307.6l3.4-7.1
			c0,0,0,0,0.1,0l8.3-0.3l0,7.5L218.1,307.6z"/>
		<g>
			<path class="st12" d="M250.8,311.7l1.3,0.1c0.1,0,0.2,0.1,0.2,0.2l0.8,2.5c0,0.1,0,0.1,0,0.2s-0.1,0.1-0.2,0.1l-2.1,0
				c-0.1,0-0.2-0.1-0.2-0.2l0-2.7c0-0.1,0-0.1,0.1-0.2C250.7,311.7,250.7,311.7,250.8,311.7z"/>
			<polygon class="st22" points="252.8,314.5 252,312.1 250.9,312 250.9,314.5 			"/>
			<path class="st12" d="M200.5,314.4l0.6-2.3c0-0.1,0.1-0.1,0.2-0.2l1.4-0.2c0.1,0,0.1,0,0.2,0c0.1,0,0.1,0.1,0.1,0.2l0,2.5
				c0,0.1-0.1,0.2-0.2,0.2l-2.1,0c-0.1,0-0.1,0-0.2-0.1C200.5,314.5,200.5,314.4,200.5,314.4z"/>
			<polygon class="st22" points="202.7,314.3 202.7,312.1 201.4,312.2 200.9,314.3 			"/>
		</g>
		<path class="st21" d="M230.1,309.9c0-0.5-0.4-0.9-1-0.9c-0.5,0-1,0.4-1,0.9c0,0.5,0.4,0.9,1,0.9
			C229.6,310.8,230.1,310.4,230.1,309.9z"/>
		<path class="st18" d="M228,310.1l2.2,0c0.1,0,0.2-0.1,0.2-0.2l0,0c0-0.1-0.1-0.2-0.2-0.2l-2.2,0c-0.1,0-0.2,0.1-0.2,0.2l0,0
			C227.8,310,227.9,310.1,228,310.1z"/>
		<path class="st21" d="M254,318.2l-0.7-2.1l-5.7,0c1.2,1,1.9,2.4,1.9,4.1c0,0.3,0,0.5-0.1,0.8l1.6,0c0.3,0,0.6-0.1,0.9-0.3l1.6-1.2
			C254,319.1,254.2,318.6,254,318.2z"/>
		<path class="st21" d="M238.9,320.1c0-1.6,0.7-3.1,1.9-4.1l-1.4,0l-24.1,0l-1.1,0c1.2,1,1.9,2.4,1.9,4.1c0,0.3,0,0.5-0.1,0.8l1.3,0
			l20.1,0l1.5,0C239,320.6,238.9,320.4,238.9,320.1z"/>
		<path class="st23" d="M216.1,320C216.1,320,216.1,319.9,216.1,320c0-0.1,0-0.1,0-0.1c0,0,0,0,0-0.1c0,0,0-0.1,0-0.1c0,0,0,0,0-0.1
			c0,0,0-0.1,0-0.1c0,0,0,0,0-0.1c0,0,0-0.1,0-0.1c0,0,0,0,0-0.1c0,0,0-0.1,0-0.1c0,0,0,0,0-0.1c0,0,0-0.1,0-0.1c0,0,0,0,0,0
			c0,0,0-0.1,0-0.1c0,0,0,0,0,0c0-0.1,0-0.2-0.1-0.3c0,0,0,0,0,0c0,0,0-0.1,0-0.1c0,0,0,0,0,0c0,0,0-0.1,0-0.1c0,0,0,0,0,0
			c0,0,0-0.1,0-0.1c0,0,0,0,0,0c0,0,0-0.1,0-0.1c0,0,0,0,0,0c0,0,0-0.1,0-0.1c0,0,0,0,0,0c0,0,0-0.1,0-0.1c0,0,0,0,0,0
			c0,0,0-0.1-0.1-0.1c0,0,0,0,0,0c-0.1-0.2-0.2-0.3-0.3-0.5c0,0,0,0,0,0c0,0,0-0.1-0.1-0.1c0,0,0,0,0,0c0,0,0-0.1-0.1-0.1
			c0,0,0,0,0,0c0,0-0.1-0.1-0.1-0.1c0,0,0,0,0,0c0,0-0.1-0.1-0.1-0.1c0,0,0,0,0,0c-0.2-0.3-0.4-0.5-0.7-0.7
			c-0.9-0.8-2.1-1.3-3.5-1.3c-1.3,0-2.5,0.5-3.5,1.3c-0.3,0.2-0.5,0.5-0.7,0.7c0,0,0,0,0,0c0,0-0.1,0.1-0.1,0.1c0,0,0,0,0,0
			c0,0-0.1,0.1-0.1,0.1c0,0,0,0,0,0c0,0,0,0.1-0.1,0.1c0,0,0,0,0,0c0,0,0,0.1-0.1,0.1c0,0,0,0,0,0c-0.1,0.2-0.2,0.3-0.3,0.5
			c0,0,0,0,0,0c0,0,0,0.1-0.1,0.1c0,0,0,0,0,0c0,0,0,0.1,0,0.1c0,0,0,0,0,0c0,0,0,0.1,0,0.1c0,0,0,0,0,0c0,0,0,0.1,0,0.1
			c0,0,0,0,0,0c0,0,0,0.1,0,0.1c0,0,0,0,0,0c0,0,0,0.1,0,0.1c0,0,0,0,0,0c0,0,0,0.1,0,0.1c0,0,0,0,0,0c0,0.1,0,0.2-0.1,0.3
			c0,0,0,0,0,0c0,0,0,0.1,0,0.1c0,0,0,0,0,0c0,0,0,0.1,0,0.1c0,0,0,0,0,0.1c0,0,0,0.1,0,0.1c0,0,0,0,0,0.1c0,0,0,0.1,0,0.1
			c0,0,0,0,0,0.1c0,0,0,0.1,0,0.1c0,0,0,0,0,0.1c0,0,0,0.1,0,0.1c0,0,0,0,0,0.1c0,0,0,0.1,0,0.1c0,0,0,0,0,0c0,0,0,0.1,0,0.1l10.7,0
			C216.1,320.1,216.1,320,216.1,320z"/>
		<g>
			<circle class="st9" cx="210.8" cy="320.1" r="4.3"/>
			<circle class="st8" cx="210.8" cy="320.1" r="2.9"/>
			<circle class="st12" cx="210.8" cy="320.1" r="2.2"/>
			<path class="st23" d="M211.6,320.1c0-0.4-0.3-0.8-0.8-0.8s-0.8,0.3-0.8,0.8c0,0.4,0.3,0.8,0.8,0.8
				C211.2,320.9,211.6,320.5,211.6,320.1z"/>
			<path class="st7" d="M209.6,321.5c0.1,0,0.1,0,0.2-0.1c0.1-0.1,0.1-0.3,0-0.4c-0.2-0.2-0.3-0.6-0.3-0.9c0-0.6,0.4-1.2,0.9-1.4
				c0.3-0.1,0.2-0.6-0.1-0.5c-0.4,0.1-0.8,0.4-1,0.7c-0.2,0.3-0.4,0.8-0.4,1.2c0,0.3,0.1,0.5,0.2,0.8
				C209.2,321.1,209.3,321.5,209.6,321.5z"/>
		</g>
		<g>
			<circle class="st9" cx="244.3" cy="320.1" r="4.3"/>
			<circle class="st8" cx="244.3" cy="320.1" r="2.9"/>
			<circle class="st12" cx="244.3" cy="320.1" r="2.2"/>
			<path class="st23" d="M245.1,320.1c0-0.4-0.3-0.8-0.8-0.8c-0.4,0-0.8,0.3-0.8,0.8c0,0.4,0.3,0.8,0.8,0.8S245.1,320.5,245.1,320.1
				z"/>
			<path class="st7" d="M243,321.5c0.1,0,0.1,0,0.2-0.1c0.1-0.1,0.1-0.3,0-0.4c-0.2-0.2-0.3-0.6-0.3-0.9c0-0.6,0.4-1.2,0.9-1.4
				c0.3-0.1,0.2-0.6-0.1-0.5c-0.4,0.1-0.8,0.4-1,0.7c-0.2,0.3-0.4,0.8-0.4,1.2c0,0.3,0.1,0.5,0.2,0.8
				C242.6,321.1,242.8,321.5,243,321.5z"/>
		</g>
		<path class="st24" d="M252,319.1l2.2,0c0.4,0,0.8-0.4,0.8-0.8l0,0c0-0.4-0.4-0.8-0.8-0.8l-2.2,0c-0.4,0-0.8,0.4-0.8,0.8l0,0
			C251.2,318.8,251.6,319.1,252,319.1z"/>
		<path class="st21" d="M205.4,320.1c0-1.6,0.7-3.1,1.9-4.1l0,0l-7,0l-0.5,1.7c-0.1,0.4,0,0.8,0.3,1.1l1.8,1.6
			c0.3,0.2,0.6,0.4,1,0.4l2.4,0l0.2,0C205.5,320.7,205.4,320.4,205.4,320.1z"/>
		<path class="st24" d="M200.1,319.1h2.2c0.4,0,0.8-0.4,0.8-0.8l0,0c0-0.4-0.4-0.8-0.8-0.8h-2.2c-0.4,0-0.8,0.4-0.8,0.8l0,0
			C199.3,318.8,199.6,319.1,200.1,319.1z"/>
		<path class="st23" d="M231.7,300.1c0,0,7.7-0.3,7.7-0.3c0,0,0.1,0,0.1,0l4.1,7.8c0,0,0,0-0.1,0l-11.8,0L231.7,300.1z"/>
		<path class="st23" d="M218.1,307.6C218.1,307.6,218.1,307.6,218.1,307.6l3.4-7.1c0,0,0,0,0.1,0l8.3-0.3l0,7.5L218.1,307.6
			L218.1,307.6z"/>
		<path class="st9" d="M218,306.7c0-0.1,0-0.1,0-0.2c0-0.9,0.4-1.6,0.9-1.6s0.8,0.7,0.8,1.6c0,0.9-0.4,1.6-0.9,1.6
			c-0.4,0-0.7-0.5-0.8-1.1c-0.1,0-0.1,0.1-0.2,0.1c-0.6,0.3-1,0.8-1,1.5c0,0.1-0.1,0.1-0.2,0.1c0,0,0,0,0,0c-0.1,0-0.2-0.1-0.2-0.1
			C216.5,307.5,217.4,307,218,306.7z"/>
	</g>
	<g style="clip-path:url(#SVGID_00000183217194280065282140000008830940430699332768_);">
		<path class="st18" d="M219.9,87c0,0-18.5-1.4-26.1-8.8c-7.6,7.4-26.1,8.8-26.1,8.8c-0.3,30.6,26.1,44.7,26.1,44.7
			S220.2,117.7,219.9,87z"/>
		<path class="st19" d="M193.7,127c-2.4-1.6-6.3-4.5-10.3-8.9c-3.5-3.9-6.3-8.2-8.2-12.8c-2-4.6-3.1-9.5-3.5-14.5
			c5.9-0.8,15.4-2.8,22-7.2c6.5,4.4,16,6.4,22,7.2c-0.3,5.1-1.5,10-3.5,14.5c-2,4.6-4.7,8.9-8.2,12.8
			C200.1,122.5,196.1,125.4,193.7,127z"/>
		<path class="st25" d="M193.7,78.3c-7.6,7.4-26.1,8.8-26.1,8.8c-0.3,30.6,26.1,44.7,26.1,44.7V78.3z"/>
		<path class="st26" d="M193.7,83.5c-6.5,4.4-16,6.4-22,7.2c0.3,5.1,1.5,10,3.5,14.5c2,4.6,4.7,8.9,8.2,12.8
			c3.9,4.4,7.9,7.4,10.3,8.9V83.5z"/>
		<g>
			<path class="st9" d="M193.8,114.4c-5.9,0-10.8-4.8-10.8-10.8c0-5.9,4.8-10.8,10.8-10.8c5.9,0,10.8,4.8,10.8,10.8
				C204.6,109.6,199.7,114.4,193.8,114.4z M193.8,94.1c-5.3,0-9.5,4.3-9.5,9.5c0,5.3,4.3,9.5,9.5,9.5c5.3,0,9.5-4.3,9.5-9.5
				C203.3,98.4,199.1,94.1,193.8,94.1z"/>
			
				<ellipse transform="matrix(0.9239 -0.3827 0.3827 0.9239 -24.9196 82.0629)" class="st12" cx="193.8" cy="103.7" rx="9.5" ry="9.5"/>
			<path class="st25" d="M199.5,98.8c-0.1-0.1-0.3-0.2-0.5-0.2c-0.2,0-0.4,0.1-0.6,0.3l-7.4,9l-2.3-2.6c-0.1-0.2-0.3-0.3-0.6-0.3
				c-0.2,0-0.4,0.1-0.5,0.2c-0.1,0.1-0.2,0.3-0.2,0.5c0,0.2,0.1,0.4,0.2,0.5l2.9,3.2c0.1,0.2,0.3,0.3,0.6,0.3l0,0
				c0.2,0,0.4-0.1,0.6-0.3l7.9-9.7C199.9,99.5,199.8,99,199.5,98.8z"/>
		</g>
		<path class="st9" d="M193.7,132.6l-0.3-0.2c-0.3-0.1-6.8-3.7-13.4-11c-3.9-4.3-6.9-9.1-9.1-14.1c-2.7-6.3-4.1-13.1-4-20.2l0-0.6
			l0.6,0c0,0,4.7-0.4,10.1-1.6c7.2-1.6,12.6-4,15.6-7l0.5-0.5l0.5,0.5c3,2.9,8.4,5.4,15.6,7c5.5,1.2,10.1,1.6,10.1,1.6l0.6,0l0,0.6
			c0.1,7.1-1.3,13.9-4,20.2c-2.2,5-5.3,9.8-9.1,14.1c-6.6,7.4-13.1,10.9-13.4,11L193.7,132.6z M168.3,87.7
			c0,15.3,6.9,26.2,12.7,32.7c5.6,6.3,11.3,9.8,12.7,10.6c1.4-0.8,7.1-4.3,12.7-10.6c5.8-6.5,12.7-17.5,12.7-32.7
			c-1.5-0.1-5.3-0.6-9.7-1.6c-3.3-0.7-6.2-1.7-8.7-2.7c-2.9-1.2-5.3-2.6-7-4.2c-1.8,1.6-4.1,3-7,4.2c-2.5,1.1-5.5,2-8.7,2.7
			C173.6,87.1,169.8,87.5,168.3,87.7z"/>
		<path class="st27" d="M212.3,92.3c0,1.2-0.2,2.4-0.5,3.6c-0.2,1.2-0.5,2.4-0.9,3.6c-0.4,1.2-0.8,2.3-1.2,3.5l-0.4,0.9
			c-0.1,0.1-0.1,0.3-0.2,0.4l-0.2,0.4c-0.1,0.1-0.1,0.3-0.2,0.4l-0.2,0.4l-0.2,0.4l-0.1,0.2l-0.1,0.2c-0.6,1.1-1.2,2.2-1.8,3.2
			l-0.5,0.8c-0.1,0.1-0.2,0.3-0.3,0.4l-0.3,0.4c-0.3,0.5-0.7,1-1.1,1.5c-0.8,1-1.6,1.9-2.4,2.8l-0.3,0.3l-0.2,0.2l-0.2,0.2
			c-0.2,0.2-0.4,0.4-0.7,0.6c-0.2,0.2-0.5,0.4-0.7,0.6c-0.2,0.2-0.5,0.4-0.7,0.6c1.7-1.8,3.2-3.7,4.6-5.6l0.5-0.7
			c0.2-0.2,0.3-0.5,0.5-0.8l0.2-0.4c0.1-0.1,0.2-0.3,0.2-0.4l0.5-0.8c0.1-0.1,0.2-0.3,0.2-0.4l0.2-0.4l0.2-0.4
			c0.1-0.1,0.1-0.3,0.2-0.4l0.4-0.8l0.4-0.8l0.1-0.2l0.1-0.2l0.2-0.4l0.2-0.4l0.2-0.4l0.2-0.4c0.1-0.1,0.1-0.3,0.2-0.4l0.4-0.8
			c0.5-1.1,0.9-2.2,1.3-3.4c0.4-1.1,0.8-2.3,1.1-3.5C211.8,94.6,212.1,93.5,212.3,92.3z"/>
		<path class="st28" d="M174.7,92.1c0.1,0.8,0.3,1.6,0.4,2.4c0.2,0.8,0.3,1.6,0.5,2.3c0.4,1.5,0.8,3.1,1.4,4.6
			c0.1,0.4,0.3,0.7,0.4,1.1c0.1,0.4,0.3,0.7,0.4,1.1c0.3,0.7,0.6,1.5,1,2.2c0.1,0.2,0.2,0.4,0.3,0.5c0.1,0.2,0.2,0.4,0.3,0.5
			c0.2,0.4,0.4,0.7,0.6,1c0.4,0.7,0.8,1.4,1.2,2.1c-0.5-0.6-1-1.2-1.5-1.9c-0.2-0.3-0.4-0.7-0.7-1c-0.1-0.2-0.2-0.3-0.3-0.5
			c-0.1-0.2-0.2-0.3-0.3-0.5l-0.3-0.5c-0.1-0.2-0.2-0.4-0.3-0.5l-0.1-0.3l-0.1-0.3l-0.3-0.5c-0.2-0.4-0.3-0.7-0.5-1.1
			c-0.2-0.4-0.3-0.8-0.4-1.1c-0.5-1.5-1-3.1-1.3-4.7c-0.2-0.8-0.3-1.6-0.4-2.4C174.7,93.7,174.7,92.9,174.7,92.1z"/>
	</g>
	<g style="clip-path:url(#SVGID_00000183217194280065282140000008830940430699332768_);">
		<g>
			<g>
				<g>
					<defs>
						<polygon id="SVGID_00000142145374279594437110000001358691596682133944_" points="154.2,267.7 122,286.8 126.3,321.8 
							154.2,321.8 182.2,321.8 186.5,286.8 						"/>
					</defs>
					<clipPath id="SVGID_00000179610700717150914400000001731597706962344856_">
						<use xlink:href="#SVGID_00000142145374279594437110000001358691596682133944_"  style="overflow:visible;"/>
					</clipPath>
					<g style="clip-path:url(#SVGID_00000179610700717150914400000001731597706962344856_);">
						<rect x="115.7" y="317.4" class="st21" width="77" height="4.4"/>
						<rect x="115.7" y="313" class="st18" width="77" height="4.4"/>
						<rect x="115.7" y="308.6" class="st19" width="77" height="4.4"/>
						<rect x="115.7" y="304.1" class="st21" width="77" height="4.4"/>
						<rect x="115.7" y="299.7" class="st18" width="77" height="4.4"/>
						<rect x="115.7" y="295.3" class="st19" width="77" height="4.4"/>
						<rect x="115.7" y="290.9" class="st21" width="77" height="4.4"/>
						<rect x="115.7" y="286.4" class="st18" width="77" height="4.4"/>
						<rect x="115.7" y="282" class="st19" width="77" height="4.4"/>
						<rect x="115.7" y="277.6" class="st21" width="77" height="4.4"/>
						<rect x="115.7" y="273.2" class="st18" width="77" height="4.4"/>
						<rect x="115.7" y="268.7" class="st19" width="77" height="4.4"/>
					</g>
				</g>
				<polygon class="st9" points="192.2,291.3 154.2,268.9 116.2,291.3 115.2,289.6 154.2,266.5 193.2,289.6 				"/>
			</g>
			<g>
				<path class="st24" d="M131.8,303.9h5.9h1.6h5.9l1.1-15.2h-7h-1.6h-7L131.8,303.9z M145.2,289.8l-0.9,12.9h-11.3l-0.9-12.9H145.2
					z"/>
				<polygon class="st23" points="145.2,289.8 144.2,302.7 132.9,302.7 131.9,289.8 				"/>
				<polygon class="st24" points="145.5,296 138.8,296 138.8,289.3 138.3,289.3 138.3,296 131.6,296 131.6,296.5 138.3,296.5 
					138.3,303.2 138.8,303.2 138.8,296.5 145.5,296.5 				"/>
				<rect x="131.3" y="303.9" class="st23" width="14.5" height="0.8"/>
			</g>
			<g>
				<path class="st24" d="M167.3,294.4h-1.8h-7.7l1.2,27.4h6.5h1.8h6.5l1.2-27.4H167.3z M172.4,320.3h-11.9l-1.1-24.4h14
					L172.4,320.3z"/>
				<polygon class="st23" points="160.5,320.3 159.4,295.9 173.5,295.9 172.4,320.3 				"/>
				<circle class="st24" cx="171.5" cy="307.8" r="0.7"/>
				<path class="st30" d="M171.9,307.4C171.8,307.4,171.8,307.4,171.9,307.4c-0.1,0-0.1,0.1-0.1,0.1c0.1,0.1,0.1,0.2,0.1,0.3
					c0,0.2-0.1,0.4-0.3,0.4c-0.1,0-0.1,0.2,0,0.2c0.1,0,0.2-0.1,0.3-0.2c0.1-0.1,0.1-0.2,0.1-0.4c0-0.1,0-0.2,0-0.2
					C172,307.5,171.9,307.4,171.9,307.4z"/>
			</g>
		</g>
	</g>
	
		<ellipse transform="matrix(0.9887 -0.1502 0.1502 0.9887 -28.1332 26.5618)" style="clip-path:url(#SVGID_00000183217194280065282140000008830940430699332768_);fill:#231F20;" cx="161.8" cy="199.5" rx="1" ry="1.6"/>
	
		<ellipse transform="matrix(0.9887 -0.1502 0.1502 0.9887 -28.5938 24.5575)" style="clip-path:url(#SVGID_00000183217194280065282140000008830940430699332768_);fill:#231F20;" cx="148.3" cy="201.6" rx="1" ry="1.6"/>
	<path style="clip-path:url(#SVGID_00000183217194280065282140000008830940430699332768_);fill:#231F20;" d="M163.8,195.2
		c-0.1,0.1-0.3,0.1-0.4,0.1c-0.6-0.1-1.2-0.2-1.8-0.2c-0.9,0-1.8,0.2-2.6,0.6c-0.4,0.2-0.8,0.5-1.1,0.8c-0.2,0.2-0.3,0.7-0.6,0.7
		c-0.4,0.1-0.3-0.5-0.2-0.7c0.2-0.4,0.4-0.8,0.7-1.1c0.5-0.7,1.2-1.2,2-1.5c1.3-0.5,2.9-0.2,3.8,0.9c0.1,0.1,0.1,0.1,0.1,0.2
		C163.8,195.1,163.8,195.2,163.8,195.2z"/>
	<path style="clip-path:url(#SVGID_00000183217194280065282140000008830940430699332768_);fill:#231F20;" d="M142.1,198.6
		c0.1,0.1,0.3,0,0.5,0c0.5-0.3,1-0.6,1.6-0.8c0.8-0.3,1.7-0.4,2.6-0.3c0.4,0.1,0.9,0.1,1.3,0.3c0.2,0.1,0.6,0.5,0.8,0.5
		c0.4-0.1,0.1-0.6-0.1-0.7c-0.3-0.3-0.7-0.6-1-0.8c-0.7-0.5-1.6-0.7-2.4-0.7c-1.4,0-2.7,0.9-3.2,2.2
		C142,198.4,142,198.4,142.1,198.6C142.1,198.6,142.1,198.6,142.1,198.6z"/>
	<path style="clip-path:url(#SVGID_00000183217194280065282140000008830940430699332768_);fill:#FFFFFF;" d="M160.6,212.7
		c0.2-0.1,0.4-0.2,0.7-0.2c0.2,0,0.5,0.1,0.6,0.3c0.1,0.2,0,0.3,0,0.5c-0.4,1.4-1.6,2.5-2.9,3.1c-1.8,0.8-4,0.8-5.8-0.1
		c-0.5-0.2-1-0.6-1.3-1c-0.2-0.2-0.3-0.4-0.3-0.7c0.1-0.6,1.2-0.1,1.6,0c0.9,0.1,1.7,0,2.6-0.1C157.4,214.1,159.1,213.5,160.6,212.7
		z"/>
</g>
</svg>
